G04 #@! TF.GenerationSoftware,KiCad,Pcbnew,8.0.6*
G04 #@! TF.CreationDate,2026-06-14T10:10:02+05:30*
G04 #@! TF.ProjectId,DumE,44756d45-2e6b-4696-9361-645f70636258,rev?*
G04 #@! TF.SameCoordinates,Original*
G04 #@! TF.FileFunction,Copper,L2,Bot*
G04 #@! TF.FilePolarity,Positive*
%FSLAX46Y46*%
G04 Gerber Fmt 4.6, Leading zero omitted, Abs format (unit mm)*
G04 Created by KiCad (PCBNEW 8.0.6) date 2026-06-14 10:10:02*
%MOMM*%
%LPD*%
G01*
G04 APERTURE LIST*
G04 #@! TA.AperFunction,ComponentPad*
%ADD10R,3.000000X3.000000*%
G04 #@! TD*
G04 #@! TA.AperFunction,ComponentPad*
%ADD11C,3.000000*%
G04 #@! TD*
G04 #@! TA.AperFunction,ComponentPad*
%ADD12R,1.700000X1.700000*%
G04 #@! TD*
G04 #@! TA.AperFunction,ComponentPad*
%ADD13O,1.700000X1.700000*%
G04 #@! TD*
G04 #@! TA.AperFunction,ComponentPad*
%ADD14R,1.600000X1.600000*%
G04 #@! TD*
G04 #@! TA.AperFunction,ComponentPad*
%ADD15O,1.600000X1.600000*%
G04 #@! TD*
G04 #@! TA.AperFunction,ViaPad*
%ADD16C,0.600000*%
G04 #@! TD*
G04 #@! TA.AperFunction,Conductor*
%ADD17C,0.200000*%
G04 #@! TD*
G04 APERTURE END LIST*
D10*
X191100000Y-79600000D03*
D11*
X178400000Y-79600000D03*
D12*
X112300000Y-80260000D03*
D13*
X112300000Y-82800000D03*
X112300000Y-85340000D03*
X112300000Y-87880000D03*
D14*
X127600000Y-82560000D03*
D15*
X127600000Y-85100000D03*
X127600000Y-87640000D03*
X127600000Y-90180000D03*
X127600000Y-92720000D03*
X127600000Y-95260000D03*
X127600000Y-97800000D03*
X127600000Y-100340000D03*
X127600000Y-102880000D03*
X127600000Y-105420000D03*
X127600000Y-107960000D03*
X127600000Y-110500000D03*
X127600000Y-113040000D03*
X127600000Y-115580000D03*
X127600000Y-118120000D03*
X142840000Y-118120000D03*
X142840000Y-115580000D03*
X142840000Y-113040000D03*
X142840000Y-110500000D03*
X142840000Y-107960000D03*
X142840000Y-105420000D03*
X142840000Y-102880000D03*
X142840000Y-100340000D03*
X142840000Y-97800000D03*
X142840000Y-95260000D03*
X142840000Y-92720000D03*
X142840000Y-90180000D03*
X142840000Y-87640000D03*
X142840000Y-85100000D03*
X142840000Y-82560000D03*
D12*
X117350000Y-96100000D03*
D13*
X117350000Y-98640000D03*
X117350000Y-101180000D03*
X117350000Y-103720000D03*
D12*
X112700000Y-96100000D03*
D13*
X112700000Y-98640000D03*
X112700000Y-101180000D03*
X112700000Y-103720000D03*
D12*
X116950000Y-80260000D03*
D13*
X116950000Y-82800000D03*
X116950000Y-85340000D03*
X116950000Y-87880000D03*
D12*
X112150000Y-112100000D03*
D13*
X112150000Y-114640000D03*
X112150000Y-117180000D03*
X112150000Y-119720000D03*
D12*
X161850000Y-86780000D03*
D13*
X161850000Y-89320000D03*
X161850000Y-91860000D03*
X161850000Y-94400000D03*
X161850000Y-96940000D03*
X161850000Y-99480000D03*
X161850000Y-102020000D03*
X161850000Y-104560000D03*
X161850000Y-107100000D03*
X161850000Y-109640000D03*
X161850000Y-112180000D03*
X161850000Y-114720000D03*
D12*
X152550000Y-86780000D03*
D13*
X152550000Y-89320000D03*
X152550000Y-91860000D03*
X152550000Y-94400000D03*
X152550000Y-96940000D03*
X152550000Y-99480000D03*
X152550000Y-102020000D03*
X152550000Y-104560000D03*
X152550000Y-107100000D03*
X152550000Y-109640000D03*
X152550000Y-112180000D03*
X152550000Y-114720000D03*
D12*
X157200000Y-86780000D03*
D13*
X157200000Y-89320000D03*
X157200000Y-91860000D03*
X157200000Y-94400000D03*
X157200000Y-96940000D03*
X157200000Y-99480000D03*
X157200000Y-102020000D03*
X157200000Y-104560000D03*
X157200000Y-107100000D03*
X157200000Y-109640000D03*
X157200000Y-112180000D03*
X157200000Y-114720000D03*
D12*
X116800000Y-112100000D03*
D13*
X116800000Y-114640000D03*
X116800000Y-117180000D03*
X116800000Y-119720000D03*
D16*
X144300000Y-111100000D03*
X140300000Y-113200000D03*
X146300000Y-123700000D03*
X146200000Y-127400000D03*
X120400000Y-106300000D03*
X122500000Y-111600000D03*
X122000000Y-107900000D03*
X119300000Y-102300000D03*
X139900000Y-107100000D03*
X139300000Y-102800000D03*
X149100000Y-102100000D03*
X125200000Y-97400000D03*
X121400000Y-84500000D03*
X123600000Y-102900000D03*
X123500000Y-106800000D03*
X123500000Y-119700000D03*
X140100000Y-109700000D03*
X144200000Y-109300000D03*
X124100000Y-86000000D03*
D17*
X116800000Y-114640000D02*
X124580000Y-106860000D01*
X124580000Y-106860000D02*
X136320000Y-106860000D01*
X136320000Y-106860000D02*
X142840000Y-100340000D01*
X140300000Y-113200000D02*
X141124365Y-113200000D01*
X141124365Y-113200000D02*
X142524365Y-111800000D01*
X143600000Y-111800000D02*
X144300000Y-111100000D01*
X142524365Y-111800000D02*
X143600000Y-111800000D01*
X142800000Y-120100000D02*
X148300000Y-120100000D01*
X140820000Y-118120000D02*
X142800000Y-120100000D01*
X148300000Y-120100000D02*
X149800000Y-118600000D01*
X149800000Y-118600000D02*
X149800000Y-101000000D01*
X149800000Y-101000000D02*
X151320000Y-99480000D01*
X151320000Y-99480000D02*
X152550000Y-99480000D01*
X127600000Y-118120000D02*
X140820000Y-118120000D01*
X146300000Y-127300000D02*
X146200000Y-127400000D01*
X146300000Y-123700000D02*
X146300000Y-127300000D01*
X141740000Y-111600000D02*
X142840000Y-110500000D01*
X122500000Y-111600000D02*
X141740000Y-111600000D01*
X120400000Y-106300000D02*
X122000000Y-107900000D01*
X139900000Y-107100000D02*
X140760000Y-107960000D01*
X140760000Y-107960000D02*
X142840000Y-107960000D01*
X119820000Y-101780000D02*
X138280000Y-101780000D01*
X138280000Y-101780000D02*
X139300000Y-102800000D01*
X119300000Y-102300000D02*
X119820000Y-101780000D01*
X149100000Y-102300000D02*
X149100000Y-102100000D01*
X145000000Y-112500000D02*
X145000000Y-106400000D01*
X143360000Y-114140000D02*
X145000000Y-112500000D01*
X145000000Y-106400000D02*
X149100000Y-102300000D01*
X127600000Y-115580000D02*
X129040000Y-114140000D01*
X129040000Y-114140000D02*
X143360000Y-114140000D01*
X125400000Y-94300000D02*
X126020000Y-94300000D01*
X125200000Y-94500000D02*
X125400000Y-94300000D01*
X125200000Y-97400000D02*
X125200000Y-94500000D01*
X126020000Y-94300000D02*
X127600000Y-92720000D01*
X111000000Y-118570000D02*
X112150000Y-119720000D01*
X111000000Y-97800000D02*
X111000000Y-118570000D01*
X121400000Y-88900000D02*
X122680000Y-90180000D01*
X122680000Y-90180000D02*
X127600000Y-90180000D01*
X112700000Y-96100000D02*
X111000000Y-97800000D01*
X121400000Y-84500000D02*
X121400000Y-88900000D01*
X149700000Y-121400000D02*
X149600000Y-121500000D01*
X152550000Y-118550000D02*
X149700000Y-121400000D01*
X139900000Y-119800000D02*
X123600000Y-119800000D01*
X141800000Y-121500000D02*
X141600000Y-121500000D01*
X141600000Y-121500000D02*
X139900000Y-119800000D01*
X123500000Y-106800000D02*
X123500000Y-103000000D01*
X123600000Y-119800000D02*
X123500000Y-119700000D01*
X152550000Y-114720000D02*
X152550000Y-118550000D01*
X123500000Y-103000000D02*
X123600000Y-102900000D01*
X149600000Y-121500000D02*
X141800000Y-121500000D01*
X141500000Y-109200000D02*
X144100000Y-109200000D01*
X144100000Y-109200000D02*
X144200000Y-109300000D01*
X141000000Y-109700000D02*
X141500000Y-109200000D01*
X140100000Y-109700000D02*
X141000000Y-109700000D01*
X124100000Y-86000000D02*
X124100000Y-84400000D01*
X124100000Y-84400000D02*
X125940000Y-82560000D01*
X125940000Y-82560000D02*
X127600000Y-82560000D01*
X117350000Y-98640000D02*
X115650000Y-100340000D01*
X116950000Y-80260000D02*
X115800000Y-81410000D01*
X141400000Y-117020000D02*
X142840000Y-115580000D01*
X116800000Y-117180000D02*
X116960000Y-117020000D01*
X115650000Y-116030000D02*
X116800000Y-117180000D01*
X115650000Y-100340000D02*
X115650000Y-116030000D01*
X115800000Y-97090000D02*
X117350000Y-98640000D01*
X116960000Y-117020000D02*
X141400000Y-117020000D01*
X115800000Y-81410000D02*
X115800000Y-97090000D01*
G04 #@! TA.AperFunction,Conductor*
G36*
X162100000Y-114286988D02*
G01*
X162042993Y-114254075D01*
X161915826Y-114220000D01*
X161784174Y-114220000D01*
X161657007Y-114254075D01*
X161600000Y-114286988D01*
X161600000Y-112613012D01*
X161657007Y-112645925D01*
X161784174Y-112680000D01*
X161915826Y-112680000D01*
X162042993Y-112645925D01*
X162100000Y-112613012D01*
X162100000Y-114286988D01*
G37*
G04 #@! TD.AperFunction*
G04 #@! TA.AperFunction,Conductor*
G36*
X162100000Y-111746988D02*
G01*
X162042993Y-111714075D01*
X161915826Y-111680000D01*
X161784174Y-111680000D01*
X161657007Y-111714075D01*
X161600000Y-111746988D01*
X161600000Y-110073012D01*
X161657007Y-110105925D01*
X161784174Y-110140000D01*
X161915826Y-110140000D01*
X162042993Y-110105925D01*
X162100000Y-110073012D01*
X162100000Y-111746988D01*
G37*
G04 #@! TD.AperFunction*
G04 #@! TA.AperFunction,Conductor*
G36*
X162100000Y-109206988D02*
G01*
X162042993Y-109174075D01*
X161915826Y-109140000D01*
X161784174Y-109140000D01*
X161657007Y-109174075D01*
X161600000Y-109206988D01*
X161600000Y-107533012D01*
X161657007Y-107565925D01*
X161784174Y-107600000D01*
X161915826Y-107600000D01*
X162042993Y-107565925D01*
X162100000Y-107533012D01*
X162100000Y-109206988D01*
G37*
G04 #@! TD.AperFunction*
G04 #@! TA.AperFunction,Conductor*
G36*
X162100000Y-106666988D02*
G01*
X162042993Y-106634075D01*
X161915826Y-106600000D01*
X161784174Y-106600000D01*
X161657007Y-106634075D01*
X161600000Y-106666988D01*
X161600000Y-104993012D01*
X161657007Y-105025925D01*
X161784174Y-105060000D01*
X161915826Y-105060000D01*
X162042993Y-105025925D01*
X162100000Y-104993012D01*
X162100000Y-106666988D01*
G37*
G04 #@! TD.AperFunction*
G04 #@! TA.AperFunction,Conductor*
G36*
X162100000Y-104126988D02*
G01*
X162042993Y-104094075D01*
X161915826Y-104060000D01*
X161784174Y-104060000D01*
X161657007Y-104094075D01*
X161600000Y-104126988D01*
X161600000Y-102453012D01*
X161657007Y-102485925D01*
X161784174Y-102520000D01*
X161915826Y-102520000D01*
X162042993Y-102485925D01*
X162100000Y-102453012D01*
X162100000Y-104126988D01*
G37*
G04 #@! TD.AperFunction*
G04 #@! TA.AperFunction,Conductor*
G36*
X162100000Y-101586988D02*
G01*
X162042993Y-101554075D01*
X161915826Y-101520000D01*
X161784174Y-101520000D01*
X161657007Y-101554075D01*
X161600000Y-101586988D01*
X161600000Y-99913012D01*
X161657007Y-99945925D01*
X161784174Y-99980000D01*
X161915826Y-99980000D01*
X162042993Y-99945925D01*
X162100000Y-99913012D01*
X162100000Y-101586988D01*
G37*
G04 #@! TD.AperFunction*
G04 #@! TA.AperFunction,Conductor*
G36*
X162100000Y-99046988D02*
G01*
X162042993Y-99014075D01*
X161915826Y-98980000D01*
X161784174Y-98980000D01*
X161657007Y-99014075D01*
X161600000Y-99046988D01*
X161600000Y-97373012D01*
X161657007Y-97405925D01*
X161784174Y-97440000D01*
X161915826Y-97440000D01*
X162042993Y-97405925D01*
X162100000Y-97373012D01*
X162100000Y-99046988D01*
G37*
G04 #@! TD.AperFunction*
G04 #@! TA.AperFunction,Conductor*
G36*
X162100000Y-96506988D02*
G01*
X162042993Y-96474075D01*
X161915826Y-96440000D01*
X161784174Y-96440000D01*
X161657007Y-96474075D01*
X161600000Y-96506988D01*
X161600000Y-94833012D01*
X161657007Y-94865925D01*
X161784174Y-94900000D01*
X161915826Y-94900000D01*
X162042993Y-94865925D01*
X162100000Y-94833012D01*
X162100000Y-96506988D01*
G37*
G04 #@! TD.AperFunction*
G04 #@! TA.AperFunction,Conductor*
G36*
X162100000Y-93966988D02*
G01*
X162042993Y-93934075D01*
X161915826Y-93900000D01*
X161784174Y-93900000D01*
X161657007Y-93934075D01*
X161600000Y-93966988D01*
X161600000Y-92293012D01*
X161657007Y-92325925D01*
X161784174Y-92360000D01*
X161915826Y-92360000D01*
X162042993Y-92325925D01*
X162100000Y-92293012D01*
X162100000Y-93966988D01*
G37*
G04 #@! TD.AperFunction*
G04 #@! TA.AperFunction,Conductor*
G36*
X162100000Y-91426988D02*
G01*
X162042993Y-91394075D01*
X161915826Y-91360000D01*
X161784174Y-91360000D01*
X161657007Y-91394075D01*
X161600000Y-91426988D01*
X161600000Y-89753012D01*
X161657007Y-89785925D01*
X161784174Y-89820000D01*
X161915826Y-89820000D01*
X162042993Y-89785925D01*
X162100000Y-89753012D01*
X162100000Y-91426988D01*
G37*
G04 #@! TD.AperFunction*
G04 #@! TA.AperFunction,Conductor*
G36*
X162100000Y-88886988D02*
G01*
X162042993Y-88854075D01*
X161915826Y-88820000D01*
X161784174Y-88820000D01*
X161657007Y-88854075D01*
X161600000Y-88886988D01*
X161600000Y-87213012D01*
X161657007Y-87245925D01*
X161784174Y-87280000D01*
X161915826Y-87280000D01*
X162042993Y-87245925D01*
X162100000Y-87213012D01*
X162100000Y-88886988D01*
G37*
G04 #@! TD.AperFunction*
G04 #@! TA.AperFunction,Conductor*
G36*
X205442539Y-68520185D02*
G01*
X205488294Y-68572989D01*
X205499500Y-68624500D01*
X205499500Y-135375500D01*
X205479815Y-135442539D01*
X205427011Y-135488294D01*
X205375500Y-135499500D01*
X101624500Y-135499500D01*
X101557461Y-135479815D01*
X101511706Y-135427011D01*
X101500500Y-135375500D01*
X101500500Y-127399996D01*
X145394435Y-127399996D01*
X145394435Y-127400003D01*
X145414630Y-127579249D01*
X145414631Y-127579254D01*
X145474211Y-127749523D01*
X145570184Y-127902262D01*
X145697738Y-128029816D01*
X145850478Y-128125789D01*
X146020745Y-128185368D01*
X146020750Y-128185369D01*
X146199996Y-128205565D01*
X146200000Y-128205565D01*
X146200004Y-128205565D01*
X146379249Y-128185369D01*
X146379252Y-128185368D01*
X146379255Y-128185368D01*
X146549522Y-128125789D01*
X146702262Y-128029816D01*
X146829816Y-127902262D01*
X146925789Y-127749522D01*
X146985368Y-127579255D01*
X147005565Y-127400000D01*
X146985368Y-127220745D01*
X146985367Y-127220743D01*
X146985366Y-127220737D01*
X146925790Y-127050479D01*
X146919506Y-127040478D01*
X146900500Y-126974507D01*
X146900500Y-124282412D01*
X146920185Y-124215373D01*
X146927555Y-124205097D01*
X146929810Y-124202267D01*
X146929816Y-124202262D01*
X147025789Y-124049522D01*
X147085368Y-123879255D01*
X147105565Y-123700000D01*
X147085368Y-123520745D01*
X147025789Y-123350478D01*
X146929816Y-123197738D01*
X146802262Y-123070184D01*
X146649523Y-122974211D01*
X146479254Y-122914631D01*
X146479249Y-122914630D01*
X146300004Y-122894435D01*
X146299996Y-122894435D01*
X146120750Y-122914630D01*
X146120745Y-122914631D01*
X145950476Y-122974211D01*
X145797737Y-123070184D01*
X145670184Y-123197737D01*
X145574211Y-123350476D01*
X145514631Y-123520745D01*
X145514630Y-123520750D01*
X145494435Y-123699996D01*
X145494435Y-123700003D01*
X145514630Y-123879249D01*
X145514631Y-123879254D01*
X145574211Y-124049523D01*
X145670185Y-124202263D01*
X145672445Y-124205097D01*
X145673334Y-124207275D01*
X145673889Y-124208158D01*
X145673734Y-124208255D01*
X145698855Y-124269783D01*
X145699500Y-124282412D01*
X145699500Y-126717059D01*
X145679815Y-126784098D01*
X145663182Y-126804740D01*
X145570183Y-126897739D01*
X145474211Y-127050476D01*
X145414631Y-127220745D01*
X145414630Y-127220750D01*
X145394435Y-127399996D01*
X101500500Y-127399996D01*
X101500500Y-114639999D01*
X110794341Y-114639999D01*
X110794341Y-114640000D01*
X110814936Y-114875403D01*
X110814938Y-114875413D01*
X110876094Y-115103655D01*
X110876096Y-115103659D01*
X110876097Y-115103663D01*
X110915385Y-115187916D01*
X110975965Y-115317830D01*
X110975967Y-115317834D01*
X111111501Y-115511395D01*
X111111506Y-115511402D01*
X111278597Y-115678493D01*
X111278603Y-115678498D01*
X111464158Y-115808425D01*
X111507783Y-115863002D01*
X111514977Y-115932500D01*
X111483454Y-115994855D01*
X111464158Y-116011575D01*
X111278597Y-116141505D01*
X111111505Y-116308597D01*
X110975965Y-116502169D01*
X110975964Y-116502171D01*
X110876098Y-116716335D01*
X110876094Y-116716344D01*
X110814938Y-116944586D01*
X110814936Y-116944596D01*
X110794341Y-117179999D01*
X110794341Y-117180000D01*
X110814936Y-117415403D01*
X110814938Y-117415413D01*
X110876094Y-117643655D01*
X110876096Y-117643659D01*
X110876097Y-117643663D01*
X110975965Y-117857830D01*
X110975967Y-117857834D01*
X111000810Y-117893313D01*
X111111505Y-118051401D01*
X111278599Y-118218495D01*
X111461690Y-118346697D01*
X111464594Y-118348730D01*
X111508219Y-118403307D01*
X111515413Y-118472805D01*
X111483890Y-118535160D01*
X111464595Y-118551880D01*
X111278922Y-118681890D01*
X111278920Y-118681891D01*
X111111891Y-118848920D01*
X111111886Y-118848926D01*
X110976400Y-119042420D01*
X110976399Y-119042422D01*
X110876570Y-119256507D01*
X110876567Y-119256513D01*
X110819364Y-119469999D01*
X110819364Y-119470000D01*
X111716988Y-119470000D01*
X111684075Y-119527007D01*
X111650000Y-119654174D01*
X111650000Y-119785826D01*
X111684075Y-119912993D01*
X111716988Y-119970000D01*
X110819364Y-119970000D01*
X110876567Y-120183486D01*
X110876570Y-120183492D01*
X110976399Y-120397578D01*
X111111894Y-120591082D01*
X111278917Y-120758105D01*
X111472421Y-120893600D01*
X111686507Y-120993429D01*
X111686516Y-120993433D01*
X111900000Y-121050634D01*
X111900000Y-120153012D01*
X111957007Y-120185925D01*
X112084174Y-120220000D01*
X112215826Y-120220000D01*
X112342993Y-120185925D01*
X112400000Y-120153012D01*
X112400000Y-121050633D01*
X112613483Y-120993433D01*
X112613492Y-120993429D01*
X112827578Y-120893600D01*
X113021082Y-120758105D01*
X113188105Y-120591082D01*
X113323600Y-120397578D01*
X113423429Y-120183492D01*
X113423432Y-120183486D01*
X113480636Y-119970000D01*
X112583012Y-119970000D01*
X112615925Y-119912993D01*
X112650000Y-119785826D01*
X112650000Y-119654174D01*
X112615925Y-119527007D01*
X112583012Y-119470000D01*
X113480636Y-119470000D01*
X113480635Y-119469999D01*
X113423432Y-119256513D01*
X113423429Y-119256507D01*
X113323600Y-119042422D01*
X113323599Y-119042420D01*
X113188113Y-118848926D01*
X113188108Y-118848920D01*
X113021078Y-118681890D01*
X112835405Y-118551879D01*
X112791780Y-118497302D01*
X112784588Y-118427804D01*
X112816110Y-118365449D01*
X112835406Y-118348730D01*
X113021401Y-118218495D01*
X113188495Y-118051401D01*
X113324035Y-117857830D01*
X113423903Y-117643663D01*
X113485063Y-117415408D01*
X113505659Y-117180000D01*
X113485063Y-116944592D01*
X113423903Y-116716337D01*
X113324035Y-116502171D01*
X113266149Y-116419500D01*
X113188494Y-116308597D01*
X113021402Y-116141506D01*
X113021396Y-116141501D01*
X112975057Y-116109054D01*
X115049498Y-116109054D01*
X115058194Y-116141506D01*
X115090423Y-116261785D01*
X115108658Y-116293368D01*
X115149206Y-116363600D01*
X115169479Y-116398715D01*
X115288349Y-116517585D01*
X115288355Y-116517590D01*
X115467233Y-116696468D01*
X115500718Y-116757791D01*
X115499327Y-116816241D01*
X115464939Y-116944583D01*
X115464936Y-116944596D01*
X115444341Y-117179999D01*
X115444341Y-117180000D01*
X115464936Y-117415403D01*
X115464938Y-117415413D01*
X115526094Y-117643655D01*
X115526096Y-117643659D01*
X115526097Y-117643663D01*
X115625965Y-117857830D01*
X115625967Y-117857834D01*
X115650810Y-117893313D01*
X115761505Y-118051401D01*
X115928599Y-118218495D01*
X116111690Y-118346697D01*
X116114594Y-118348730D01*
X116158219Y-118403307D01*
X116165413Y-118472805D01*
X116133890Y-118535160D01*
X116114595Y-118551880D01*
X115928922Y-118681890D01*
X115928920Y-118681891D01*
X115761891Y-118848920D01*
X115761886Y-118848926D01*
X115626400Y-119042420D01*
X115626399Y-119042422D01*
X115526570Y-119256507D01*
X115526567Y-119256513D01*
X115469364Y-119469999D01*
X115469364Y-119470000D01*
X116366988Y-119470000D01*
X116334075Y-119527007D01*
X116300000Y-119654174D01*
X116300000Y-119785826D01*
X116334075Y-119912993D01*
X116366988Y-119970000D01*
X115469364Y-119970000D01*
X115526567Y-120183486D01*
X115526570Y-120183492D01*
X115626399Y-120397578D01*
X115761894Y-120591082D01*
X115928917Y-120758105D01*
X116122421Y-120893600D01*
X116336507Y-120993429D01*
X116336516Y-120993433D01*
X116550000Y-121050634D01*
X116550000Y-120153012D01*
X116607007Y-120185925D01*
X116734174Y-120220000D01*
X116865826Y-120220000D01*
X116992993Y-120185925D01*
X117050000Y-120153012D01*
X117050000Y-121050633D01*
X117263483Y-120993433D01*
X117263492Y-120993429D01*
X117477578Y-120893600D01*
X117671082Y-120758105D01*
X117838105Y-120591082D01*
X117973600Y-120397578D01*
X118073429Y-120183492D01*
X118073432Y-120183486D01*
X118130636Y-119970000D01*
X117233012Y-119970000D01*
X117265925Y-119912993D01*
X117300000Y-119785826D01*
X117300000Y-119654174D01*
X117265925Y-119527007D01*
X117233012Y-119470000D01*
X118130636Y-119470000D01*
X118130635Y-119469999D01*
X118073432Y-119256513D01*
X118073429Y-119256507D01*
X117973600Y-119042422D01*
X117973599Y-119042420D01*
X117838113Y-118848926D01*
X117838108Y-118848920D01*
X117671078Y-118681890D01*
X117485405Y-118551879D01*
X117441780Y-118497302D01*
X117434588Y-118427804D01*
X117466110Y-118365449D01*
X117485406Y-118348730D01*
X117671401Y-118218495D01*
X117838495Y-118051401D01*
X117974035Y-117857830D01*
X118051319Y-117692093D01*
X118097490Y-117639656D01*
X118163700Y-117620500D01*
X126225863Y-117620500D01*
X126292902Y-117640185D01*
X126338657Y-117692989D01*
X126348601Y-117762147D01*
X126345638Y-117776593D01*
X126314366Y-117893302D01*
X126314364Y-117893313D01*
X126294532Y-118119998D01*
X126294532Y-118120001D01*
X126314364Y-118346686D01*
X126314366Y-118346697D01*
X126373258Y-118566488D01*
X126373261Y-118566497D01*
X126469431Y-118772732D01*
X126469432Y-118772734D01*
X126599954Y-118959141D01*
X126628632Y-118987819D01*
X126662117Y-119049142D01*
X126657133Y-119118834D01*
X126615261Y-119174767D01*
X126549797Y-119199184D01*
X126540951Y-119199500D01*
X124182941Y-119199500D01*
X124115902Y-119179815D01*
X124095260Y-119163182D01*
X124050912Y-119118834D01*
X124002262Y-119070184D01*
X123881489Y-118994297D01*
X123849523Y-118974211D01*
X123679254Y-118914631D01*
X123679249Y-118914630D01*
X123500004Y-118894435D01*
X123499996Y-118894435D01*
X123320750Y-118914630D01*
X123320745Y-118914631D01*
X123150476Y-118974211D01*
X122997737Y-119070184D01*
X122870184Y-119197737D01*
X122774211Y-119350476D01*
X122714631Y-119520745D01*
X122714630Y-119520750D01*
X122694435Y-119699996D01*
X122694435Y-119700003D01*
X122714630Y-119879249D01*
X122714631Y-119879254D01*
X122774211Y-120049523D01*
X122858386Y-120183486D01*
X122870184Y-120202262D01*
X122997738Y-120329816D01*
X123088080Y-120386582D01*
X123150474Y-120425787D01*
X123150478Y-120425789D01*
X123320745Y-120485368D01*
X123320750Y-120485369D01*
X123499996Y-120505565D01*
X123500000Y-120505565D01*
X123500004Y-120505565D01*
X123679249Y-120485369D01*
X123679252Y-120485368D01*
X123679255Y-120485368D01*
X123849522Y-120425789D01*
X123850488Y-120425181D01*
X123859523Y-120419506D01*
X123925494Y-120400500D01*
X139599903Y-120400500D01*
X139666942Y-120420185D01*
X139687584Y-120436819D01*
X141115139Y-121864374D01*
X141115149Y-121864385D01*
X141119479Y-121868715D01*
X141119480Y-121868716D01*
X141231284Y-121980520D01*
X141318095Y-122030639D01*
X141318097Y-122030641D01*
X141356151Y-122052611D01*
X141368215Y-122059577D01*
X141520943Y-122100500D01*
X141679057Y-122100500D01*
X141720943Y-122100500D01*
X149513331Y-122100500D01*
X149513347Y-122100501D01*
X149520943Y-122100501D01*
X149679054Y-122100501D01*
X149679057Y-122100501D01*
X149831785Y-122059577D01*
X149881904Y-122030639D01*
X149968716Y-121980520D01*
X150080520Y-121868716D01*
X150080520Y-121868714D01*
X150090728Y-121858507D01*
X150090728Y-121858505D01*
X150180519Y-121768716D01*
X150180518Y-121768716D01*
X150239087Y-121710147D01*
X150239086Y-121710147D01*
X153030520Y-118918716D01*
X153109577Y-118781784D01*
X153150501Y-118629057D01*
X153150501Y-118470942D01*
X153150501Y-118463347D01*
X153150500Y-118463329D01*
X153150500Y-118377973D01*
X172099500Y-118377973D01*
X172099500Y-118622027D01*
X172108533Y-118679056D01*
X172135437Y-118848926D01*
X172137679Y-118863076D01*
X172213096Y-119095185D01*
X172314548Y-119294297D01*
X172323896Y-119312642D01*
X172467339Y-119510076D01*
X172467343Y-119510081D01*
X172639918Y-119682656D01*
X172639923Y-119682660D01*
X172781920Y-119785826D01*
X172837361Y-119826106D01*
X173054815Y-119936904D01*
X173286924Y-120012321D01*
X173527973Y-120050500D01*
X173527974Y-120050500D01*
X173772026Y-120050500D01*
X173772027Y-120050500D01*
X174013076Y-120012321D01*
X174245185Y-119936904D01*
X174462639Y-119826106D01*
X174660083Y-119682655D01*
X174832655Y-119510083D01*
X174976106Y-119312639D01*
X175086904Y-119095185D01*
X175162321Y-118863076D01*
X175200500Y-118622027D01*
X175200500Y-118377973D01*
X175162321Y-118136924D01*
X175086904Y-117904815D01*
X174976106Y-117687361D01*
X174897797Y-117579577D01*
X174832660Y-117489923D01*
X174832656Y-117489918D01*
X174660081Y-117317343D01*
X174660076Y-117317339D01*
X174462642Y-117173896D01*
X174462641Y-117173895D01*
X174462639Y-117173894D01*
X174245185Y-117063096D01*
X174013076Y-116987679D01*
X174013074Y-116987678D01*
X174013072Y-116987678D01*
X173844769Y-116961021D01*
X173772027Y-116949500D01*
X173527973Y-116949500D01*
X173472093Y-116958350D01*
X173286927Y-116987678D01*
X173054812Y-117063097D01*
X172837357Y-117173896D01*
X172639923Y-117317339D01*
X172639918Y-117317343D01*
X172467343Y-117489918D01*
X172467339Y-117489923D01*
X172323896Y-117687357D01*
X172213097Y-117904812D01*
X172137678Y-118136927D01*
X172104454Y-118346697D01*
X172099500Y-118377973D01*
X153150500Y-118377973D01*
X153150500Y-116009090D01*
X153170185Y-115942051D01*
X153222101Y-115896706D01*
X153227830Y-115894035D01*
X153421401Y-115758495D01*
X153588495Y-115591401D01*
X153724035Y-115397830D01*
X153823903Y-115183663D01*
X153885063Y-114955408D01*
X153905659Y-114720000D01*
X153885063Y-114484592D01*
X153823903Y-114256337D01*
X153724035Y-114042171D01*
X153722547Y-114040045D01*
X153588494Y-113848597D01*
X153421402Y-113681506D01*
X153421396Y-113681501D01*
X153235842Y-113551575D01*
X153192217Y-113496998D01*
X153185023Y-113427500D01*
X153216546Y-113365145D01*
X153235842Y-113348425D01*
X153352561Y-113266697D01*
X153421401Y-113218495D01*
X153588495Y-113051401D01*
X153724035Y-112857830D01*
X153823903Y-112643663D01*
X153885063Y-112415408D01*
X153905659Y-112180000D01*
X153904671Y-112168713D01*
X153885063Y-111944596D01*
X153885063Y-111944592D01*
X153823903Y-111716337D01*
X153724035Y-111502171D01*
X153667021Y-111420745D01*
X153588494Y-111308597D01*
X153421402Y-111141506D01*
X153421396Y-111141501D01*
X153235842Y-111011575D01*
X153192217Y-110956998D01*
X153185023Y-110887500D01*
X153216546Y-110825145D01*
X153235842Y-110808425D01*
X153319995Y-110749500D01*
X153421401Y-110678495D01*
X153588495Y-110511401D01*
X153724035Y-110317830D01*
X153823903Y-110103663D01*
X153885063Y-109875408D01*
X153905659Y-109640000D01*
X153885063Y-109404592D01*
X153823903Y-109176337D01*
X153724035Y-108962171D01*
X153722547Y-108960045D01*
X153588494Y-108768597D01*
X153421402Y-108601506D01*
X153421396Y-108601501D01*
X153235842Y-108471575D01*
X153192217Y-108416998D01*
X153185023Y-108347500D01*
X153216546Y-108285145D01*
X153235842Y-108268425D01*
X153352561Y-108186697D01*
X153421401Y-108138495D01*
X153588495Y-107971401D01*
X153724035Y-107777830D01*
X153823903Y-107563663D01*
X153885063Y-107335408D01*
X153905659Y-107100000D01*
X153885063Y-106864592D01*
X153823903Y-106636337D01*
X153724035Y-106422171D01*
X153722547Y-106420045D01*
X153588494Y-106228597D01*
X153421402Y-106061506D01*
X153421396Y-106061501D01*
X153235842Y-105931575D01*
X153192217Y-105876998D01*
X153185023Y-105807500D01*
X153216546Y-105745145D01*
X153235842Y-105728425D01*
X153258026Y-105712891D01*
X153421401Y-105598495D01*
X153588495Y-105431401D01*
X153724035Y-105237830D01*
X153823903Y-105023663D01*
X153885063Y-104795408D01*
X153905659Y-104560000D01*
X153885063Y-104324592D01*
X153823903Y-104096337D01*
X153724035Y-103882171D01*
X153722547Y-103880045D01*
X153588494Y-103688597D01*
X153421402Y-103521506D01*
X153421396Y-103521501D01*
X153235842Y-103391575D01*
X153192217Y-103336998D01*
X153185023Y-103267500D01*
X153216546Y-103205145D01*
X153235842Y-103188425D01*
X153291401Y-103149522D01*
X153421401Y-103058495D01*
X153588495Y-102891401D01*
X153724035Y-102697830D01*
X153823903Y-102483663D01*
X153885063Y-102255408D01*
X153905659Y-102020000D01*
X153885063Y-101784592D01*
X153823903Y-101556337D01*
X153724035Y-101342171D01*
X153722547Y-101340045D01*
X153588494Y-101148597D01*
X153421402Y-100981506D01*
X153421396Y-100981501D01*
X153235842Y-100851575D01*
X153192217Y-100796998D01*
X153185023Y-100727500D01*
X153216546Y-100665145D01*
X153235842Y-100648425D01*
X153352561Y-100566697D01*
X153421401Y-100518495D01*
X153588495Y-100351401D01*
X153724035Y-100157830D01*
X153823903Y-99943663D01*
X153885063Y-99715408D01*
X153905659Y-99480000D01*
X153885063Y-99244592D01*
X153823903Y-99016337D01*
X153724035Y-98802171D01*
X153722547Y-98800045D01*
X153588494Y-98608597D01*
X153421402Y-98441506D01*
X153421396Y-98441501D01*
X153235842Y-98311575D01*
X153192217Y-98256998D01*
X153185023Y-98187500D01*
X153216546Y-98125145D01*
X153235842Y-98108425D01*
X153348107Y-98029816D01*
X153421401Y-97978495D01*
X153588495Y-97811401D01*
X153724035Y-97617830D01*
X153823903Y-97403663D01*
X153885063Y-97175408D01*
X153905659Y-96940000D01*
X153885063Y-96704592D01*
X153823903Y-96476337D01*
X153724035Y-96262171D01*
X153722547Y-96260045D01*
X153588494Y-96068597D01*
X153421402Y-95901506D01*
X153421396Y-95901501D01*
X153235842Y-95771575D01*
X153192217Y-95716998D01*
X153185023Y-95647500D01*
X153216546Y-95585145D01*
X153235842Y-95568425D01*
X153352561Y-95486697D01*
X153421401Y-95438495D01*
X153588495Y-95271401D01*
X153724035Y-95077830D01*
X153823903Y-94863663D01*
X153885063Y-94635408D01*
X153905659Y-94400000D01*
X153885063Y-94164592D01*
X153823903Y-93936337D01*
X153724035Y-93722171D01*
X153722547Y-93720045D01*
X153588494Y-93528597D01*
X153421402Y-93361506D01*
X153421396Y-93361501D01*
X153235842Y-93231575D01*
X153192217Y-93176998D01*
X153185023Y-93107500D01*
X153216546Y-93045145D01*
X153235842Y-93028425D01*
X153352561Y-92946697D01*
X153421401Y-92898495D01*
X153588495Y-92731401D01*
X153724035Y-92537830D01*
X153823903Y-92323663D01*
X153885063Y-92095408D01*
X153905659Y-91860000D01*
X153885063Y-91624592D01*
X153823903Y-91396337D01*
X153724035Y-91182171D01*
X153722547Y-91180045D01*
X153588494Y-90988597D01*
X153421402Y-90821506D01*
X153421396Y-90821501D01*
X153235842Y-90691575D01*
X153192217Y-90636998D01*
X153185023Y-90567500D01*
X153216546Y-90505145D01*
X153235842Y-90488425D01*
X153352561Y-90406697D01*
X153421401Y-90358495D01*
X153588495Y-90191401D01*
X153724035Y-89997830D01*
X153823903Y-89783663D01*
X153885063Y-89555408D01*
X153905659Y-89320000D01*
X153905659Y-89319999D01*
X155844341Y-89319999D01*
X155844341Y-89320000D01*
X155864936Y-89555403D01*
X155864938Y-89555413D01*
X155926094Y-89783655D01*
X155926096Y-89783659D01*
X155926097Y-89783663D01*
X155982590Y-89904812D01*
X156025965Y-89997830D01*
X156025967Y-89997834D01*
X156161501Y-90191395D01*
X156161506Y-90191402D01*
X156328597Y-90358493D01*
X156328603Y-90358498D01*
X156514158Y-90488425D01*
X156557783Y-90543002D01*
X156564977Y-90612500D01*
X156533454Y-90674855D01*
X156514158Y-90691575D01*
X156328597Y-90821505D01*
X156161505Y-90988597D01*
X156025965Y-91182169D01*
X156025964Y-91182171D01*
X155926098Y-91396335D01*
X155926094Y-91396344D01*
X155864938Y-91624586D01*
X155864936Y-91624596D01*
X155844341Y-91859999D01*
X155844341Y-91860000D01*
X155864936Y-92095403D01*
X155864938Y-92095413D01*
X155926094Y-92323655D01*
X155926096Y-92323659D01*
X155926097Y-92323663D01*
X156005201Y-92493302D01*
X156025965Y-92537830D01*
X156025967Y-92537834D01*
X156161501Y-92731395D01*
X156161506Y-92731402D01*
X156328597Y-92898493D01*
X156328603Y-92898498D01*
X156514158Y-93028425D01*
X156557783Y-93083002D01*
X156564977Y-93152500D01*
X156533454Y-93214855D01*
X156514158Y-93231575D01*
X156328597Y-93361505D01*
X156161505Y-93528597D01*
X156025965Y-93722169D01*
X156025964Y-93722171D01*
X155926098Y-93936335D01*
X155926094Y-93936344D01*
X155864938Y-94164586D01*
X155864937Y-94164593D01*
X155844341Y-94399999D01*
X155844341Y-94400000D01*
X155864936Y-94635403D01*
X155864938Y-94635413D01*
X155926094Y-94863655D01*
X155926096Y-94863659D01*
X155926097Y-94863663D01*
X155993359Y-95007906D01*
X156025965Y-95077830D01*
X156025967Y-95077834D01*
X156161501Y-95271395D01*
X156161506Y-95271402D01*
X156328597Y-95438493D01*
X156328603Y-95438498D01*
X156514158Y-95568425D01*
X156557783Y-95623002D01*
X156564977Y-95692500D01*
X156533454Y-95754855D01*
X156514158Y-95771575D01*
X156328597Y-95901505D01*
X156161505Y-96068597D01*
X156025965Y-96262169D01*
X156025964Y-96262171D01*
X155926098Y-96476335D01*
X155926094Y-96476344D01*
X155864938Y-96704586D01*
X155864936Y-96704596D01*
X155844341Y-96939999D01*
X155844341Y-96940000D01*
X155864936Y-97175403D01*
X155864938Y-97175413D01*
X155926094Y-97403655D01*
X155926096Y-97403659D01*
X155926097Y-97403663D01*
X156005201Y-97573302D01*
X156025965Y-97617830D01*
X156025967Y-97617834D01*
X156161501Y-97811395D01*
X156161506Y-97811402D01*
X156328597Y-97978493D01*
X156328603Y-97978498D01*
X156514158Y-98108425D01*
X156557783Y-98163002D01*
X156564977Y-98232500D01*
X156533454Y-98294855D01*
X156514158Y-98311575D01*
X156328597Y-98441505D01*
X156161505Y-98608597D01*
X156025965Y-98802169D01*
X156025964Y-98802171D01*
X155926098Y-99016335D01*
X155926094Y-99016344D01*
X155864938Y-99244586D01*
X155864936Y-99244596D01*
X155844341Y-99479999D01*
X155844341Y-99480000D01*
X155864936Y-99715403D01*
X155864938Y-99715413D01*
X155926094Y-99943655D01*
X155926096Y-99943659D01*
X155926097Y-99943663D01*
X155955149Y-100005965D01*
X156025965Y-100157830D01*
X156025967Y-100157834D01*
X156161501Y-100351395D01*
X156161506Y-100351402D01*
X156328597Y-100518493D01*
X156328603Y-100518498D01*
X156514158Y-100648425D01*
X156557783Y-100703002D01*
X156564977Y-100772500D01*
X156533454Y-100834855D01*
X156514158Y-100851575D01*
X156328597Y-100981505D01*
X156161505Y-101148597D01*
X156025965Y-101342169D01*
X156025964Y-101342171D01*
X155926098Y-101556335D01*
X155926094Y-101556344D01*
X155864938Y-101784586D01*
X155864936Y-101784596D01*
X155844341Y-102019999D01*
X155844341Y-102020000D01*
X155864936Y-102255403D01*
X155864938Y-102255413D01*
X155926094Y-102483655D01*
X155926096Y-102483659D01*
X155926097Y-102483663D01*
X156003438Y-102649521D01*
X156025965Y-102697830D01*
X156025967Y-102697834D01*
X156161501Y-102891395D01*
X156161506Y-102891402D01*
X156328597Y-103058493D01*
X156328603Y-103058498D01*
X156514158Y-103188425D01*
X156557783Y-103243002D01*
X156564977Y-103312500D01*
X156533454Y-103374855D01*
X156514158Y-103391575D01*
X156328597Y-103521505D01*
X156161505Y-103688597D01*
X156025965Y-103882169D01*
X156025964Y-103882171D01*
X155926098Y-104096335D01*
X155926094Y-104096344D01*
X155864938Y-104324586D01*
X155864936Y-104324596D01*
X155844341Y-104559999D01*
X155844341Y-104560000D01*
X155864936Y-104795403D01*
X155864938Y-104795413D01*
X155926094Y-105023655D01*
X155926096Y-105023659D01*
X155926097Y-105023663D01*
X155950552Y-105076106D01*
X156025965Y-105237830D01*
X156025967Y-105237834D01*
X156161501Y-105431395D01*
X156161506Y-105431402D01*
X156328597Y-105598493D01*
X156328603Y-105598498D01*
X156514158Y-105728425D01*
X156557783Y-105783002D01*
X156564977Y-105852500D01*
X156533454Y-105914855D01*
X156514158Y-105931575D01*
X156328597Y-106061505D01*
X156161505Y-106228597D01*
X156025965Y-106422169D01*
X156025964Y-106422171D01*
X155926098Y-106636335D01*
X155926094Y-106636344D01*
X155864938Y-106864586D01*
X155864936Y-106864596D01*
X155844341Y-107099999D01*
X155844341Y-107100000D01*
X155864936Y-107335403D01*
X155864938Y-107335413D01*
X155926094Y-107563655D01*
X155926096Y-107563659D01*
X155926097Y-107563663D01*
X155999346Y-107720745D01*
X156025965Y-107777830D01*
X156025967Y-107777834D01*
X156161501Y-107971395D01*
X156161506Y-107971402D01*
X156328597Y-108138493D01*
X156328603Y-108138498D01*
X156514158Y-108268425D01*
X156557783Y-108323002D01*
X156564977Y-108392500D01*
X156533454Y-108454855D01*
X156514158Y-108471575D01*
X156328597Y-108601505D01*
X156161505Y-108768597D01*
X156025965Y-108962169D01*
X156025964Y-108962171D01*
X155926098Y-109176335D01*
X155926094Y-109176344D01*
X155864938Y-109404586D01*
X155864936Y-109404596D01*
X155844341Y-109639999D01*
X155844341Y-109640000D01*
X155864936Y-109875403D01*
X155864938Y-109875413D01*
X155926094Y-110103655D01*
X155926096Y-110103659D01*
X155926097Y-110103663D01*
X155991117Y-110243099D01*
X156025965Y-110317830D01*
X156025967Y-110317834D01*
X156101558Y-110425788D01*
X156143276Y-110485368D01*
X156161501Y-110511395D01*
X156161506Y-110511402D01*
X156328597Y-110678493D01*
X156328603Y-110678498D01*
X156514158Y-110808425D01*
X156557783Y-110863002D01*
X156564977Y-110932500D01*
X156533454Y-110994855D01*
X156514158Y-111011575D01*
X156328597Y-111141505D01*
X156161505Y-111308597D01*
X156025965Y-111502169D01*
X156025964Y-111502171D01*
X155926098Y-111716335D01*
X155926094Y-111716344D01*
X155864938Y-111944586D01*
X155864936Y-111944596D01*
X155844341Y-112179999D01*
X155844341Y-112180000D01*
X155864936Y-112415403D01*
X155864938Y-112415413D01*
X155926094Y-112643655D01*
X155926096Y-112643659D01*
X155926097Y-112643663D01*
X155951313Y-112697738D01*
X156025965Y-112857830D01*
X156025967Y-112857834D01*
X156161501Y-113051395D01*
X156161506Y-113051402D01*
X156328597Y-113218493D01*
X156328603Y-113218498D01*
X156514158Y-113348425D01*
X156557783Y-113403002D01*
X156564977Y-113472500D01*
X156533454Y-113534855D01*
X156514158Y-113551575D01*
X156328597Y-113681505D01*
X156161505Y-113848597D01*
X156025965Y-114042169D01*
X156025964Y-114042171D01*
X155926098Y-114256335D01*
X155926094Y-114256344D01*
X155864938Y-114484586D01*
X155864936Y-114484596D01*
X155844341Y-114719999D01*
X155844341Y-114720000D01*
X155864936Y-114955403D01*
X155864938Y-114955413D01*
X155926094Y-115183655D01*
X155926096Y-115183659D01*
X155926097Y-115183663D01*
X155988660Y-115317830D01*
X156025965Y-115397830D01*
X156025967Y-115397834D01*
X156105484Y-115511395D01*
X156161505Y-115591401D01*
X156328599Y-115758495D01*
X156407918Y-115814035D01*
X156522165Y-115894032D01*
X156522167Y-115894033D01*
X156522170Y-115894035D01*
X156736337Y-115993903D01*
X156736343Y-115993904D01*
X156736344Y-115993905D01*
X156791285Y-116008626D01*
X156964592Y-116055063D01*
X157152918Y-116071539D01*
X157199999Y-116075659D01*
X157200000Y-116075659D01*
X157200001Y-116075659D01*
X157239234Y-116072226D01*
X157435408Y-116055063D01*
X157663663Y-115993903D01*
X157877830Y-115894035D01*
X158071401Y-115758495D01*
X158238495Y-115591401D01*
X158374035Y-115397830D01*
X158473903Y-115183663D01*
X158535063Y-114955408D01*
X158555659Y-114720000D01*
X158535063Y-114484592D01*
X158473903Y-114256337D01*
X158374035Y-114042171D01*
X158372547Y-114040045D01*
X158238494Y-113848597D01*
X158071402Y-113681506D01*
X158071396Y-113681501D01*
X157885842Y-113551575D01*
X157842217Y-113496998D01*
X157835023Y-113427500D01*
X157866546Y-113365145D01*
X157885842Y-113348425D01*
X158002561Y-113266697D01*
X158071401Y-113218495D01*
X158238495Y-113051401D01*
X158374035Y-112857830D01*
X158473903Y-112643663D01*
X158535063Y-112415408D01*
X158555659Y-112180000D01*
X158554671Y-112168713D01*
X158535063Y-111944596D01*
X158535063Y-111944592D01*
X158473903Y-111716337D01*
X158374035Y-111502171D01*
X158317021Y-111420745D01*
X158238494Y-111308597D01*
X158071402Y-111141506D01*
X158071396Y-111141501D01*
X157885842Y-111011575D01*
X157842217Y-110956998D01*
X157835023Y-110887500D01*
X157866546Y-110825145D01*
X157885842Y-110808425D01*
X157969995Y-110749500D01*
X158071401Y-110678495D01*
X158238495Y-110511401D01*
X158374035Y-110317830D01*
X158473903Y-110103663D01*
X158535063Y-109875408D01*
X158555659Y-109640000D01*
X158535063Y-109404592D01*
X158473903Y-109176337D01*
X158374035Y-108962171D01*
X158372547Y-108960045D01*
X158238494Y-108768597D01*
X158071402Y-108601506D01*
X158071396Y-108601501D01*
X157885842Y-108471575D01*
X157842217Y-108416998D01*
X157835023Y-108347500D01*
X157866546Y-108285145D01*
X157885842Y-108268425D01*
X158002561Y-108186697D01*
X158071401Y-108138495D01*
X158238495Y-107971401D01*
X158374035Y-107777830D01*
X158473903Y-107563663D01*
X158535063Y-107335408D01*
X158555659Y-107100000D01*
X158535063Y-106864592D01*
X158473903Y-106636337D01*
X158374035Y-106422171D01*
X158372547Y-106420045D01*
X158238494Y-106228597D01*
X158071402Y-106061506D01*
X158071396Y-106061501D01*
X157885842Y-105931575D01*
X157842217Y-105876998D01*
X157835023Y-105807500D01*
X157866546Y-105745145D01*
X157885842Y-105728425D01*
X157908026Y-105712891D01*
X158071401Y-105598495D01*
X158238495Y-105431401D01*
X158374035Y-105237830D01*
X158473903Y-105023663D01*
X158535063Y-104795408D01*
X158555659Y-104560000D01*
X158535063Y-104324592D01*
X158473903Y-104096337D01*
X158374035Y-103882171D01*
X158372547Y-103880045D01*
X158238494Y-103688597D01*
X158071402Y-103521506D01*
X158071396Y-103521501D01*
X157885842Y-103391575D01*
X157842217Y-103336998D01*
X157835023Y-103267500D01*
X157866546Y-103205145D01*
X157885842Y-103188425D01*
X157941401Y-103149522D01*
X158071401Y-103058495D01*
X158238495Y-102891401D01*
X158374035Y-102697830D01*
X158473903Y-102483663D01*
X158535063Y-102255408D01*
X158555659Y-102020000D01*
X158535063Y-101784592D01*
X158473903Y-101556337D01*
X158374035Y-101342171D01*
X158372547Y-101340045D01*
X158238494Y-101148597D01*
X158071402Y-100981506D01*
X158071396Y-100981501D01*
X157885842Y-100851575D01*
X157842217Y-100796998D01*
X157835023Y-100727500D01*
X157866546Y-100665145D01*
X157885842Y-100648425D01*
X158002561Y-100566697D01*
X158071401Y-100518495D01*
X158238495Y-100351401D01*
X158374035Y-100157830D01*
X158473903Y-99943663D01*
X158535063Y-99715408D01*
X158555659Y-99480000D01*
X158535063Y-99244592D01*
X158473903Y-99016337D01*
X158374035Y-98802171D01*
X158372547Y-98800045D01*
X158238494Y-98608597D01*
X158071402Y-98441506D01*
X158071396Y-98441501D01*
X157885842Y-98311575D01*
X157842217Y-98256998D01*
X157835023Y-98187500D01*
X157866546Y-98125145D01*
X157885842Y-98108425D01*
X157998107Y-98029816D01*
X158071401Y-97978495D01*
X158238495Y-97811401D01*
X158374035Y-97617830D01*
X158473903Y-97403663D01*
X158535063Y-97175408D01*
X158555659Y-96940000D01*
X158535063Y-96704592D01*
X158473903Y-96476337D01*
X158374035Y-96262171D01*
X158372547Y-96260045D01*
X158238494Y-96068597D01*
X158071402Y-95901506D01*
X158071396Y-95901501D01*
X157885842Y-95771575D01*
X157842217Y-95716998D01*
X157835023Y-95647500D01*
X157866546Y-95585145D01*
X157885842Y-95568425D01*
X158002561Y-95486697D01*
X158071401Y-95438495D01*
X158238495Y-95271401D01*
X158374035Y-95077830D01*
X158473903Y-94863663D01*
X158535063Y-94635408D01*
X158555659Y-94400000D01*
X158535063Y-94164592D01*
X158473903Y-93936337D01*
X158374035Y-93722171D01*
X158372547Y-93720045D01*
X158238494Y-93528597D01*
X158071402Y-93361506D01*
X158071396Y-93361501D01*
X157885842Y-93231575D01*
X157842217Y-93176998D01*
X157835023Y-93107500D01*
X157866546Y-93045145D01*
X157885842Y-93028425D01*
X158002561Y-92946697D01*
X158071401Y-92898495D01*
X158238495Y-92731401D01*
X158374035Y-92537830D01*
X158473903Y-92323663D01*
X158535063Y-92095408D01*
X158555659Y-91860000D01*
X158535063Y-91624592D01*
X158473903Y-91396337D01*
X158374035Y-91182171D01*
X158372547Y-91180045D01*
X158238494Y-90988597D01*
X158071402Y-90821506D01*
X158071396Y-90821501D01*
X157885842Y-90691575D01*
X157842217Y-90636998D01*
X157835023Y-90567500D01*
X157866546Y-90505145D01*
X157885842Y-90488425D01*
X158002561Y-90406697D01*
X158071401Y-90358495D01*
X158238495Y-90191401D01*
X158374035Y-89997830D01*
X158473903Y-89783663D01*
X158535063Y-89555408D01*
X158555659Y-89320000D01*
X158535063Y-89084592D01*
X158473903Y-88856337D01*
X158374035Y-88642171D01*
X158372546Y-88640045D01*
X158238496Y-88448600D01*
X158238495Y-88448599D01*
X158116567Y-88326671D01*
X158083084Y-88265351D01*
X158088068Y-88195659D01*
X158129939Y-88139725D01*
X158160915Y-88122810D01*
X158292331Y-88073796D01*
X158407546Y-87987546D01*
X158493796Y-87872331D01*
X158544091Y-87737483D01*
X158550500Y-87677873D01*
X158550499Y-85882155D01*
X160500000Y-85882155D01*
X160500000Y-86530000D01*
X161416988Y-86530000D01*
X161384075Y-86587007D01*
X161350000Y-86714174D01*
X161350000Y-86845826D01*
X161384075Y-86972993D01*
X161416988Y-87030000D01*
X160500000Y-87030000D01*
X160500000Y-87677844D01*
X160506401Y-87737372D01*
X160506403Y-87737379D01*
X160556645Y-87872086D01*
X160556649Y-87872093D01*
X160642809Y-87987187D01*
X160642812Y-87987190D01*
X160757906Y-88073350D01*
X160757913Y-88073354D01*
X160889986Y-88122614D01*
X160945920Y-88164485D01*
X160970337Y-88229949D01*
X160955486Y-88298222D01*
X160934335Y-88326477D01*
X160811886Y-88448926D01*
X160676400Y-88642420D01*
X160676399Y-88642422D01*
X160576570Y-88856507D01*
X160576567Y-88856513D01*
X160519364Y-89069999D01*
X160519364Y-89070000D01*
X161416988Y-89070000D01*
X161384075Y-89127007D01*
X161350000Y-89254174D01*
X161350000Y-89385826D01*
X161384075Y-89512993D01*
X161416988Y-89570000D01*
X160519364Y-89570000D01*
X160576567Y-89783486D01*
X160576570Y-89783492D01*
X160676399Y-89997578D01*
X160811894Y-90191082D01*
X160978917Y-90358105D01*
X161165031Y-90488425D01*
X161208656Y-90543003D01*
X161215848Y-90612501D01*
X161184326Y-90674856D01*
X161165031Y-90691575D01*
X160978922Y-90821890D01*
X160978920Y-90821891D01*
X160811891Y-90988920D01*
X160811886Y-90988926D01*
X160676400Y-91182420D01*
X160676399Y-91182422D01*
X160576570Y-91396507D01*
X160576567Y-91396513D01*
X160519364Y-91609999D01*
X160519364Y-91610000D01*
X161416988Y-91610000D01*
X161384075Y-91667007D01*
X161350000Y-91794174D01*
X161350000Y-91925826D01*
X161384075Y-92052993D01*
X161416988Y-92110000D01*
X160519364Y-92110000D01*
X160576567Y-92323486D01*
X160576570Y-92323492D01*
X160676399Y-92537578D01*
X160811894Y-92731082D01*
X160978917Y-92898105D01*
X161165031Y-93028425D01*
X161208656Y-93083003D01*
X161215848Y-93152501D01*
X161184326Y-93214856D01*
X161165031Y-93231575D01*
X160978922Y-93361890D01*
X160978920Y-93361891D01*
X160811891Y-93528920D01*
X160811886Y-93528926D01*
X160676400Y-93722420D01*
X160676399Y-93722422D01*
X160576570Y-93936507D01*
X160576567Y-93936513D01*
X160519364Y-94149999D01*
X160519364Y-94150000D01*
X161416988Y-94150000D01*
X161384075Y-94207007D01*
X161350000Y-94334174D01*
X161350000Y-94465826D01*
X161384075Y-94592993D01*
X161416988Y-94650000D01*
X160519364Y-94650000D01*
X160576567Y-94863486D01*
X160576570Y-94863492D01*
X160676399Y-95077578D01*
X160811894Y-95271082D01*
X160978917Y-95438105D01*
X161165031Y-95568425D01*
X161208656Y-95623003D01*
X161215848Y-95692501D01*
X161184326Y-95754856D01*
X161165031Y-95771575D01*
X160978922Y-95901890D01*
X160978920Y-95901891D01*
X160811891Y-96068920D01*
X160811886Y-96068926D01*
X160676400Y-96262420D01*
X160676399Y-96262422D01*
X160576570Y-96476507D01*
X160576567Y-96476513D01*
X160519364Y-96689999D01*
X160519364Y-96690000D01*
X161416988Y-96690000D01*
X161384075Y-96747007D01*
X161350000Y-96874174D01*
X161350000Y-97005826D01*
X161384075Y-97132993D01*
X161416988Y-97190000D01*
X160519364Y-97190000D01*
X160576567Y-97403486D01*
X160576570Y-97403492D01*
X160676399Y-97617578D01*
X160811894Y-97811082D01*
X160978917Y-97978105D01*
X161165031Y-98108425D01*
X161208656Y-98163003D01*
X161215848Y-98232501D01*
X161184326Y-98294856D01*
X161165031Y-98311575D01*
X160978922Y-98441890D01*
X160978920Y-98441891D01*
X160811891Y-98608920D01*
X160811886Y-98608926D01*
X160676400Y-98802420D01*
X160676399Y-98802422D01*
X160576570Y-99016507D01*
X160576567Y-99016513D01*
X160519364Y-99229999D01*
X160519364Y-99230000D01*
X161416988Y-99230000D01*
X161384075Y-99287007D01*
X161350000Y-99414174D01*
X161350000Y-99545826D01*
X161384075Y-99672993D01*
X161416988Y-99730000D01*
X160519364Y-99730000D01*
X160576567Y-99943486D01*
X160576570Y-99943492D01*
X160676399Y-100157578D01*
X160811894Y-100351082D01*
X160978917Y-100518105D01*
X161165031Y-100648425D01*
X161208656Y-100703003D01*
X161215848Y-100772501D01*
X161184326Y-100834856D01*
X161165031Y-100851575D01*
X160978922Y-100981890D01*
X160978920Y-100981891D01*
X160811891Y-101148920D01*
X160811886Y-101148926D01*
X160676400Y-101342420D01*
X160676399Y-101342422D01*
X160576570Y-101556507D01*
X160576567Y-101556513D01*
X160519364Y-101769999D01*
X160519364Y-101770000D01*
X161416988Y-101770000D01*
X161384075Y-101827007D01*
X161350000Y-101954174D01*
X161350000Y-102085826D01*
X161384075Y-102212993D01*
X161416988Y-102270000D01*
X160519364Y-102270000D01*
X160576567Y-102483486D01*
X160576570Y-102483492D01*
X160676399Y-102697578D01*
X160811894Y-102891082D01*
X160978917Y-103058105D01*
X161165031Y-103188425D01*
X161208656Y-103243003D01*
X161215848Y-103312501D01*
X161184326Y-103374856D01*
X161165031Y-103391575D01*
X160978922Y-103521890D01*
X160978920Y-103521891D01*
X160811891Y-103688920D01*
X160811886Y-103688926D01*
X160676400Y-103882420D01*
X160676399Y-103882422D01*
X160576570Y-104096507D01*
X160576567Y-104096513D01*
X160519364Y-104309999D01*
X160519364Y-104310000D01*
X161416988Y-104310000D01*
X161384075Y-104367007D01*
X161350000Y-104494174D01*
X161350000Y-104625826D01*
X161384075Y-104752993D01*
X161416988Y-104810000D01*
X160519364Y-104810000D01*
X160576567Y-105023486D01*
X160576570Y-105023492D01*
X160676399Y-105237578D01*
X160811894Y-105431082D01*
X160978917Y-105598105D01*
X161165031Y-105728425D01*
X161208656Y-105783003D01*
X161215848Y-105852501D01*
X161184326Y-105914856D01*
X161165031Y-105931575D01*
X160978922Y-106061890D01*
X160978920Y-106061891D01*
X160811891Y-106228920D01*
X160811886Y-106228926D01*
X160676400Y-106422420D01*
X160676399Y-106422422D01*
X160576570Y-106636507D01*
X160576567Y-106636513D01*
X160519364Y-106849999D01*
X160519364Y-106850000D01*
X161416988Y-106850000D01*
X161384075Y-106907007D01*
X161350000Y-107034174D01*
X161350000Y-107165826D01*
X161384075Y-107292993D01*
X161416988Y-107350000D01*
X160519364Y-107350000D01*
X160576567Y-107563486D01*
X160576570Y-107563492D01*
X160676399Y-107777578D01*
X160811894Y-107971082D01*
X160978917Y-108138105D01*
X161165031Y-108268425D01*
X161208656Y-108323003D01*
X161215848Y-108392501D01*
X161184326Y-108454856D01*
X161165031Y-108471575D01*
X160978922Y-108601890D01*
X160978920Y-108601891D01*
X160811891Y-108768920D01*
X160811886Y-108768926D01*
X160676400Y-108962420D01*
X160676399Y-108962422D01*
X160576570Y-109176507D01*
X160576567Y-109176513D01*
X160519364Y-109389999D01*
X160519364Y-109390000D01*
X161416988Y-109390000D01*
X161384075Y-109447007D01*
X161350000Y-109574174D01*
X161350000Y-109705826D01*
X161384075Y-109832993D01*
X161416988Y-109890000D01*
X160519364Y-109890000D01*
X160576567Y-110103486D01*
X160576570Y-110103492D01*
X160676399Y-110317578D01*
X160811894Y-110511082D01*
X160978917Y-110678105D01*
X161165031Y-110808425D01*
X161208656Y-110863003D01*
X161215848Y-110932501D01*
X161184326Y-110994856D01*
X161165031Y-111011575D01*
X160978922Y-111141890D01*
X160978920Y-111141891D01*
X160811891Y-111308920D01*
X160811886Y-111308926D01*
X160676400Y-111502420D01*
X160676399Y-111502422D01*
X160576570Y-111716507D01*
X160576567Y-111716513D01*
X160519364Y-111929999D01*
X160519364Y-111930000D01*
X161416988Y-111930000D01*
X161384075Y-111987007D01*
X161350000Y-112114174D01*
X161350000Y-112245826D01*
X161384075Y-112372993D01*
X161416988Y-112430000D01*
X160519364Y-112430000D01*
X160576567Y-112643486D01*
X160576570Y-112643492D01*
X160676399Y-112857578D01*
X160811894Y-113051082D01*
X160978917Y-113218105D01*
X161165031Y-113348425D01*
X161208656Y-113403003D01*
X161215848Y-113472501D01*
X161184326Y-113534856D01*
X161165031Y-113551575D01*
X160978922Y-113681890D01*
X160978920Y-113681891D01*
X160811891Y-113848920D01*
X160811886Y-113848926D01*
X160676400Y-114042420D01*
X160676399Y-114042422D01*
X160576570Y-114256507D01*
X160576567Y-114256513D01*
X160519364Y-114469999D01*
X160519364Y-114470000D01*
X161416988Y-114470000D01*
X161384075Y-114527007D01*
X161350000Y-114654174D01*
X161350000Y-114785826D01*
X161384075Y-114912993D01*
X161416988Y-114970000D01*
X160519364Y-114970000D01*
X160576567Y-115183486D01*
X160576570Y-115183492D01*
X160676399Y-115397578D01*
X160811894Y-115591082D01*
X160978917Y-115758105D01*
X161172421Y-115893600D01*
X161386507Y-115993429D01*
X161386516Y-115993433D01*
X161600000Y-116050634D01*
X161600000Y-115153012D01*
X161657007Y-115185925D01*
X161784174Y-115220000D01*
X161915826Y-115220000D01*
X162042993Y-115185925D01*
X162100000Y-115153012D01*
X162100000Y-116050633D01*
X162313483Y-115993433D01*
X162313492Y-115993429D01*
X162527578Y-115893600D01*
X162721082Y-115758105D01*
X162888105Y-115591082D01*
X163023600Y-115397578D01*
X163123429Y-115183492D01*
X163123432Y-115183486D01*
X163180636Y-114970000D01*
X162283012Y-114970000D01*
X162315925Y-114912993D01*
X162350000Y-114785826D01*
X162350000Y-114654174D01*
X162315925Y-114527007D01*
X162283012Y-114470000D01*
X163180636Y-114470000D01*
X163180635Y-114469999D01*
X163123432Y-114256513D01*
X163123429Y-114256507D01*
X163023600Y-114042422D01*
X163023599Y-114042420D01*
X162888113Y-113848926D01*
X162888108Y-113848920D01*
X162721082Y-113681894D01*
X162534968Y-113551575D01*
X162491344Y-113496998D01*
X162484151Y-113427499D01*
X162515673Y-113365145D01*
X162534968Y-113348425D01*
X162721082Y-113218105D01*
X162888105Y-113051082D01*
X163023600Y-112857578D01*
X163123429Y-112643492D01*
X163123432Y-112643486D01*
X163180636Y-112430000D01*
X162283012Y-112430000D01*
X162315925Y-112372993D01*
X162350000Y-112245826D01*
X162350000Y-112114174D01*
X162315925Y-111987007D01*
X162283012Y-111930000D01*
X163180636Y-111930000D01*
X163180635Y-111929999D01*
X163123432Y-111716513D01*
X163123429Y-111716507D01*
X163023600Y-111502422D01*
X163023599Y-111502420D01*
X162888113Y-111308926D01*
X162888108Y-111308920D01*
X162721082Y-111141894D01*
X162534968Y-111011575D01*
X162491344Y-110956998D01*
X162484151Y-110887499D01*
X162515673Y-110825145D01*
X162534968Y-110808425D01*
X162721082Y-110678105D01*
X162888105Y-110511082D01*
X163023600Y-110317578D01*
X163123429Y-110103492D01*
X163123432Y-110103486D01*
X163180636Y-109890000D01*
X162283012Y-109890000D01*
X162315925Y-109832993D01*
X162350000Y-109705826D01*
X162350000Y-109574174D01*
X162315925Y-109447007D01*
X162283012Y-109390000D01*
X163180636Y-109390000D01*
X163180635Y-109389999D01*
X163123432Y-109176513D01*
X163123429Y-109176507D01*
X163023600Y-108962422D01*
X163023599Y-108962420D01*
X162888113Y-108768926D01*
X162888108Y-108768920D01*
X162721082Y-108601894D01*
X162534968Y-108471575D01*
X162491344Y-108416998D01*
X162484151Y-108347499D01*
X162515673Y-108285145D01*
X162534968Y-108268425D01*
X162721082Y-108138105D01*
X162888105Y-107971082D01*
X163023600Y-107777578D01*
X163123429Y-107563492D01*
X163123432Y-107563486D01*
X163180636Y-107350000D01*
X162283012Y-107350000D01*
X162315925Y-107292993D01*
X162350000Y-107165826D01*
X162350000Y-107034174D01*
X162315925Y-106907007D01*
X162283012Y-106850000D01*
X163180636Y-106850000D01*
X163180635Y-106849999D01*
X163123432Y-106636513D01*
X163123429Y-106636507D01*
X163023600Y-106422422D01*
X163023599Y-106422420D01*
X162888113Y-106228926D01*
X162888108Y-106228920D01*
X162721082Y-106061894D01*
X162534968Y-105931575D01*
X162491344Y-105876998D01*
X162484151Y-105807499D01*
X162515673Y-105745145D01*
X162534968Y-105728425D01*
X162721082Y-105598105D01*
X162888105Y-105431082D01*
X163023600Y-105237578D01*
X163123429Y-105023492D01*
X163123432Y-105023486D01*
X163180636Y-104810000D01*
X162283012Y-104810000D01*
X162315925Y-104752993D01*
X162350000Y-104625826D01*
X162350000Y-104494174D01*
X162315925Y-104367007D01*
X162283012Y-104310000D01*
X163180636Y-104310000D01*
X163180635Y-104309999D01*
X163123432Y-104096513D01*
X163123429Y-104096507D01*
X163023600Y-103882422D01*
X163023599Y-103882420D01*
X162888113Y-103688926D01*
X162888108Y-103688920D01*
X162827161Y-103627973D01*
X194299500Y-103627973D01*
X194299500Y-103872027D01*
X194311021Y-103944769D01*
X194335055Y-104096513D01*
X194337679Y-104113076D01*
X194413096Y-104345185D01*
X194522549Y-104560000D01*
X194523896Y-104562642D01*
X194667339Y-104760076D01*
X194667343Y-104760081D01*
X194839918Y-104932656D01*
X194839923Y-104932660D01*
X195008395Y-105055061D01*
X195037361Y-105076106D01*
X195254815Y-105186904D01*
X195486924Y-105262321D01*
X195727973Y-105300500D01*
X195727974Y-105300500D01*
X195972026Y-105300500D01*
X195972027Y-105300500D01*
X196213076Y-105262321D01*
X196445185Y-105186904D01*
X196662639Y-105076106D01*
X196860083Y-104932655D01*
X197032655Y-104760083D01*
X197176106Y-104562639D01*
X197286904Y-104345185D01*
X197362321Y-104113076D01*
X197400500Y-103872027D01*
X197400500Y-103627973D01*
X197362321Y-103386924D01*
X197286904Y-103154815D01*
X197176106Y-102937361D01*
X197142710Y-102891395D01*
X197032660Y-102739923D01*
X197032656Y-102739918D01*
X196860081Y-102567343D01*
X196860076Y-102567339D01*
X196662642Y-102423896D01*
X196662641Y-102423895D01*
X196662639Y-102423894D01*
X196445185Y-102313096D01*
X196213076Y-102237679D01*
X196213074Y-102237678D01*
X196213072Y-102237678D01*
X195988297Y-102202077D01*
X195972027Y-102199500D01*
X195727973Y-102199500D01*
X195711703Y-102202077D01*
X195486927Y-102237678D01*
X195254812Y-102313097D01*
X195037357Y-102423896D01*
X194839923Y-102567339D01*
X194839918Y-102567343D01*
X194667343Y-102739918D01*
X194667339Y-102739923D01*
X194523896Y-102937357D01*
X194413097Y-103154812D01*
X194337678Y-103386927D01*
X194308824Y-103569102D01*
X194299500Y-103627973D01*
X162827161Y-103627973D01*
X162721082Y-103521894D01*
X162534968Y-103391575D01*
X162491344Y-103336998D01*
X162484151Y-103267499D01*
X162515673Y-103205145D01*
X162534968Y-103188425D01*
X162721082Y-103058105D01*
X162888105Y-102891082D01*
X163023600Y-102697578D01*
X163123429Y-102483492D01*
X163123432Y-102483486D01*
X163180636Y-102270000D01*
X162283012Y-102270000D01*
X162315925Y-102212993D01*
X162350000Y-102085826D01*
X162350000Y-101954174D01*
X162315925Y-101827007D01*
X162283012Y-101770000D01*
X163180636Y-101770000D01*
X163180635Y-101769999D01*
X163123432Y-101556513D01*
X163123429Y-101556507D01*
X163023600Y-101342422D01*
X163023599Y-101342420D01*
X162888113Y-101148926D01*
X162888108Y-101148920D01*
X162721082Y-100981894D01*
X162534968Y-100851575D01*
X162491344Y-100796998D01*
X162484151Y-100727499D01*
X162515673Y-100665145D01*
X162534968Y-100648425D01*
X162721082Y-100518105D01*
X162888105Y-100351082D01*
X163023600Y-100157578D01*
X163123429Y-99943492D01*
X163123432Y-99943486D01*
X163180636Y-99730000D01*
X162283012Y-99730000D01*
X162315925Y-99672993D01*
X162350000Y-99545826D01*
X162350000Y-99414174D01*
X162315925Y-99287007D01*
X162283012Y-99230000D01*
X163180636Y-99230000D01*
X163180635Y-99229999D01*
X163123432Y-99016513D01*
X163123429Y-99016507D01*
X163023600Y-98802422D01*
X163023599Y-98802420D01*
X162888113Y-98608926D01*
X162888108Y-98608920D01*
X162721082Y-98441894D01*
X162534968Y-98311575D01*
X162491344Y-98256998D01*
X162484151Y-98187499D01*
X162515673Y-98125145D01*
X162534968Y-98108425D01*
X162721082Y-97978105D01*
X162888105Y-97811082D01*
X163023600Y-97617578D01*
X163123429Y-97403492D01*
X163123432Y-97403486D01*
X163180636Y-97190000D01*
X162283012Y-97190000D01*
X162315925Y-97132993D01*
X162350000Y-97005826D01*
X162350000Y-96874174D01*
X162315925Y-96747007D01*
X162283012Y-96690000D01*
X163180636Y-96690000D01*
X163180635Y-96689999D01*
X163123432Y-96476513D01*
X163123429Y-96476507D01*
X163023600Y-96262422D01*
X163023599Y-96262420D01*
X162888113Y-96068926D01*
X162888108Y-96068920D01*
X162721082Y-95901894D01*
X162534968Y-95771575D01*
X162491344Y-95716998D01*
X162484151Y-95647499D01*
X162515673Y-95585145D01*
X162534968Y-95568425D01*
X162721082Y-95438105D01*
X162888105Y-95271082D01*
X163023600Y-95077578D01*
X163123429Y-94863492D01*
X163123432Y-94863486D01*
X163180636Y-94650000D01*
X162283012Y-94650000D01*
X162315925Y-94592993D01*
X162350000Y-94465826D01*
X162350000Y-94334174D01*
X162315925Y-94207007D01*
X162283012Y-94150000D01*
X163180636Y-94150000D01*
X163180635Y-94149999D01*
X163123432Y-93936513D01*
X163123429Y-93936507D01*
X163023600Y-93722422D01*
X163023599Y-93722420D01*
X162888113Y-93528926D01*
X162888108Y-93528920D01*
X162721082Y-93361894D01*
X162534968Y-93231575D01*
X162491344Y-93176998D01*
X162484151Y-93107499D01*
X162515673Y-93045145D01*
X162534968Y-93028425D01*
X162721082Y-92898105D01*
X162888105Y-92731082D01*
X163023600Y-92537578D01*
X163123429Y-92323492D01*
X163123432Y-92323486D01*
X163180636Y-92110000D01*
X162283012Y-92110000D01*
X162315925Y-92052993D01*
X162350000Y-91925826D01*
X162350000Y-91794174D01*
X162315925Y-91667007D01*
X162283012Y-91610000D01*
X163180636Y-91610000D01*
X163180635Y-91609999D01*
X163123432Y-91396513D01*
X163123429Y-91396507D01*
X163023600Y-91182422D01*
X163023599Y-91182420D01*
X162888113Y-90988926D01*
X162888108Y-90988920D01*
X162721082Y-90821894D01*
X162534968Y-90691575D01*
X162491344Y-90636998D01*
X162484151Y-90567499D01*
X162515673Y-90505145D01*
X162534968Y-90488425D01*
X162692708Y-90377973D01*
X172099500Y-90377973D01*
X172099500Y-90622027D01*
X172100181Y-90626326D01*
X172131155Y-90821890D01*
X172137679Y-90863076D01*
X172213096Y-91095185D01*
X172322838Y-91310567D01*
X172323896Y-91312642D01*
X172467339Y-91510076D01*
X172467343Y-91510081D01*
X172639918Y-91682656D01*
X172639923Y-91682660D01*
X172793410Y-91794174D01*
X172837361Y-91826106D01*
X173054815Y-91936904D01*
X173286924Y-92012321D01*
X173527973Y-92050500D01*
X173527974Y-92050500D01*
X173772026Y-92050500D01*
X173772027Y-92050500D01*
X174013076Y-92012321D01*
X174245185Y-91936904D01*
X174462639Y-91826106D01*
X174660083Y-91682655D01*
X174832655Y-91510083D01*
X174976106Y-91312639D01*
X175086904Y-91095185D01*
X175162321Y-90863076D01*
X175200500Y-90622027D01*
X175200500Y-90377973D01*
X175162321Y-90136924D01*
X175086904Y-89904815D01*
X174976106Y-89687361D01*
X174957779Y-89662136D01*
X174832660Y-89489923D01*
X174832656Y-89489918D01*
X174660081Y-89317343D01*
X174660076Y-89317339D01*
X174462642Y-89173896D01*
X174462641Y-89173895D01*
X174462639Y-89173894D01*
X174245185Y-89063096D01*
X174013076Y-88987679D01*
X174013074Y-88987678D01*
X174013072Y-88987678D01*
X173844769Y-88961021D01*
X173772027Y-88949500D01*
X173527973Y-88949500D01*
X173472093Y-88958350D01*
X173286927Y-88987678D01*
X173054812Y-89063097D01*
X172837357Y-89173896D01*
X172639923Y-89317339D01*
X172639918Y-89317343D01*
X172467343Y-89489918D01*
X172467339Y-89489923D01*
X172323896Y-89687357D01*
X172213097Y-89904812D01*
X172137678Y-90136927D01*
X172129050Y-90191402D01*
X172099500Y-90377973D01*
X162692708Y-90377973D01*
X162721082Y-90358105D01*
X162888105Y-90191082D01*
X163023600Y-89997578D01*
X163123429Y-89783492D01*
X163123432Y-89783486D01*
X163180636Y-89570000D01*
X162283012Y-89570000D01*
X162315925Y-89512993D01*
X162350000Y-89385826D01*
X162350000Y-89254174D01*
X162315925Y-89127007D01*
X162283012Y-89070000D01*
X163180636Y-89070000D01*
X163180635Y-89069999D01*
X163123432Y-88856513D01*
X163123429Y-88856507D01*
X163023600Y-88642422D01*
X163023599Y-88642420D01*
X162888113Y-88448926D01*
X162888108Y-88448920D01*
X162765665Y-88326477D01*
X162732180Y-88265154D01*
X162737164Y-88195462D01*
X162779036Y-88139529D01*
X162810013Y-88122614D01*
X162942086Y-88073354D01*
X162942093Y-88073350D01*
X163057187Y-87987190D01*
X163057190Y-87987187D01*
X163143350Y-87872093D01*
X163143354Y-87872086D01*
X163193596Y-87737379D01*
X163193598Y-87737372D01*
X163199999Y-87677844D01*
X163200000Y-87677827D01*
X163200000Y-87030000D01*
X162283012Y-87030000D01*
X162315925Y-86972993D01*
X162350000Y-86845826D01*
X162350000Y-86714174D01*
X162315925Y-86587007D01*
X162283012Y-86530000D01*
X163200000Y-86530000D01*
X163200000Y-85882172D01*
X163199999Y-85882155D01*
X163193598Y-85822627D01*
X163193596Y-85822620D01*
X163143354Y-85687913D01*
X163143350Y-85687906D01*
X163057190Y-85572812D01*
X163057187Y-85572809D01*
X162942093Y-85486649D01*
X162942086Y-85486645D01*
X162807379Y-85436403D01*
X162807372Y-85436401D01*
X162747844Y-85430000D01*
X162100000Y-85430000D01*
X162100000Y-86346988D01*
X162042993Y-86314075D01*
X161915826Y-86280000D01*
X161784174Y-86280000D01*
X161657007Y-86314075D01*
X161600000Y-86346988D01*
X161600000Y-85430000D01*
X160952155Y-85430000D01*
X160892627Y-85436401D01*
X160892620Y-85436403D01*
X160757913Y-85486645D01*
X160757906Y-85486649D01*
X160642812Y-85572809D01*
X160642809Y-85572812D01*
X160556649Y-85687906D01*
X160556645Y-85687913D01*
X160506403Y-85822620D01*
X160506401Y-85822627D01*
X160500000Y-85882155D01*
X158550499Y-85882155D01*
X158550499Y-85882128D01*
X158544091Y-85822517D01*
X158537059Y-85803664D01*
X158493797Y-85687671D01*
X158493793Y-85687664D01*
X158407547Y-85572455D01*
X158407544Y-85572452D01*
X158292335Y-85486206D01*
X158292328Y-85486202D01*
X158157482Y-85435908D01*
X158157483Y-85435908D01*
X158097883Y-85429501D01*
X158097881Y-85429500D01*
X158097873Y-85429500D01*
X158097864Y-85429500D01*
X156302129Y-85429500D01*
X156302123Y-85429501D01*
X156242516Y-85435908D01*
X156107671Y-85486202D01*
X156107664Y-85486206D01*
X155992455Y-85572452D01*
X155992452Y-85572455D01*
X155906206Y-85687664D01*
X155906202Y-85687671D01*
X155855908Y-85822517D01*
X155849501Y-85882116D01*
X155849501Y-85882123D01*
X155849500Y-85882135D01*
X155849500Y-87677870D01*
X155849501Y-87677876D01*
X155855908Y-87737483D01*
X155906202Y-87872328D01*
X155906206Y-87872335D01*
X155992452Y-87987544D01*
X155992455Y-87987547D01*
X156107664Y-88073793D01*
X156107671Y-88073797D01*
X156239081Y-88122810D01*
X156295015Y-88164681D01*
X156319432Y-88230145D01*
X156304580Y-88298418D01*
X156283430Y-88326673D01*
X156161503Y-88448600D01*
X156025965Y-88642169D01*
X156025964Y-88642171D01*
X155926098Y-88856335D01*
X155926094Y-88856344D01*
X155864938Y-89084586D01*
X155864936Y-89084596D01*
X155844341Y-89319999D01*
X153905659Y-89319999D01*
X153885063Y-89084592D01*
X153823903Y-88856337D01*
X153724035Y-88642171D01*
X153722546Y-88640045D01*
X153588496Y-88448600D01*
X153588495Y-88448599D01*
X153466567Y-88326671D01*
X153433084Y-88265351D01*
X153438068Y-88195659D01*
X153479939Y-88139725D01*
X153510915Y-88122810D01*
X153642331Y-88073796D01*
X153757546Y-87987546D01*
X153843796Y-87872331D01*
X153894091Y-87737483D01*
X153900500Y-87677873D01*
X153900499Y-85882128D01*
X153894091Y-85822517D01*
X153887059Y-85803664D01*
X153843797Y-85687671D01*
X153843793Y-85687664D01*
X153757547Y-85572455D01*
X153757544Y-85572452D01*
X153642335Y-85486206D01*
X153642328Y-85486202D01*
X153507482Y-85435908D01*
X153507483Y-85435908D01*
X153447883Y-85429501D01*
X153447881Y-85429500D01*
X153447873Y-85429500D01*
X153447864Y-85429500D01*
X151652129Y-85429500D01*
X151652123Y-85429501D01*
X151592516Y-85435908D01*
X151457671Y-85486202D01*
X151457664Y-85486206D01*
X151342455Y-85572452D01*
X151342452Y-85572455D01*
X151256206Y-85687664D01*
X151256202Y-85687671D01*
X151205908Y-85822517D01*
X151199501Y-85882116D01*
X151199501Y-85882123D01*
X151199500Y-85882135D01*
X151199500Y-87677870D01*
X151199501Y-87677876D01*
X151205908Y-87737483D01*
X151256202Y-87872328D01*
X151256206Y-87872335D01*
X151342452Y-87987544D01*
X151342455Y-87987547D01*
X151457664Y-88073793D01*
X151457671Y-88073797D01*
X151589081Y-88122810D01*
X151645015Y-88164681D01*
X151669432Y-88230145D01*
X151654580Y-88298418D01*
X151633430Y-88326673D01*
X151511503Y-88448600D01*
X151375965Y-88642169D01*
X151375964Y-88642171D01*
X151276098Y-88856335D01*
X151276094Y-88856344D01*
X151214938Y-89084586D01*
X151214936Y-89084596D01*
X151194341Y-89319999D01*
X151194341Y-89320000D01*
X151214936Y-89555403D01*
X151214938Y-89555413D01*
X151276094Y-89783655D01*
X151276096Y-89783659D01*
X151276097Y-89783663D01*
X151332590Y-89904812D01*
X151375965Y-89997830D01*
X151375967Y-89997834D01*
X151511501Y-90191395D01*
X151511506Y-90191402D01*
X151678597Y-90358493D01*
X151678603Y-90358498D01*
X151864158Y-90488425D01*
X151907783Y-90543002D01*
X151914977Y-90612500D01*
X151883454Y-90674855D01*
X151864158Y-90691575D01*
X151678597Y-90821505D01*
X151511505Y-90988597D01*
X151375965Y-91182169D01*
X151375964Y-91182171D01*
X151276098Y-91396335D01*
X151276094Y-91396344D01*
X151214938Y-91624586D01*
X151214936Y-91624596D01*
X151194341Y-91859999D01*
X151194341Y-91860000D01*
X151214936Y-92095403D01*
X151214938Y-92095413D01*
X151276094Y-92323655D01*
X151276096Y-92323659D01*
X151276097Y-92323663D01*
X151355201Y-92493302D01*
X151375965Y-92537830D01*
X151375967Y-92537834D01*
X151511501Y-92731395D01*
X151511506Y-92731402D01*
X151678597Y-92898493D01*
X151678603Y-92898498D01*
X151864158Y-93028425D01*
X151907783Y-93083002D01*
X151914977Y-93152500D01*
X151883454Y-93214855D01*
X151864158Y-93231575D01*
X151678597Y-93361505D01*
X151511505Y-93528597D01*
X151375965Y-93722169D01*
X151375964Y-93722171D01*
X151276098Y-93936335D01*
X151276094Y-93936344D01*
X151214938Y-94164586D01*
X151214937Y-94164593D01*
X151194341Y-94399999D01*
X151194341Y-94400000D01*
X151214936Y-94635403D01*
X151214938Y-94635413D01*
X151276094Y-94863655D01*
X151276096Y-94863659D01*
X151276097Y-94863663D01*
X151343359Y-95007906D01*
X151375965Y-95077830D01*
X151375967Y-95077834D01*
X151511501Y-95271395D01*
X151511506Y-95271402D01*
X151678597Y-95438493D01*
X151678603Y-95438498D01*
X151864158Y-95568425D01*
X151907783Y-95623002D01*
X151914977Y-95692500D01*
X151883454Y-95754855D01*
X151864158Y-95771575D01*
X151678597Y-95901505D01*
X151511505Y-96068597D01*
X151375965Y-96262169D01*
X151375964Y-96262171D01*
X151276098Y-96476335D01*
X151276094Y-96476344D01*
X151214938Y-96704586D01*
X151214936Y-96704596D01*
X151194341Y-96939999D01*
X151194341Y-96940000D01*
X151214936Y-97175403D01*
X151214938Y-97175413D01*
X151276094Y-97403655D01*
X151276096Y-97403659D01*
X151276097Y-97403663D01*
X151355201Y-97573302D01*
X151375965Y-97617830D01*
X151375967Y-97617834D01*
X151511501Y-97811395D01*
X151511506Y-97811402D01*
X151678597Y-97978493D01*
X151678603Y-97978498D01*
X151864158Y-98108425D01*
X151907783Y-98163002D01*
X151914977Y-98232500D01*
X151883454Y-98294855D01*
X151864158Y-98311575D01*
X151678597Y-98441505D01*
X151511505Y-98608597D01*
X151375965Y-98802169D01*
X151375962Y-98802174D01*
X151373289Y-98807908D01*
X151327115Y-98860345D01*
X151260909Y-98879499D01*
X151240943Y-98879499D01*
X151164579Y-98899961D01*
X151088214Y-98920423D01*
X151088209Y-98920426D01*
X150951290Y-98999475D01*
X150951282Y-98999481D01*
X149319481Y-100631282D01*
X149319479Y-100631285D01*
X149297127Y-100670000D01*
X149274775Y-100708716D01*
X149240423Y-100768215D01*
X149199499Y-100920943D01*
X149199499Y-100920945D01*
X149199499Y-101089046D01*
X149199500Y-101089059D01*
X149199500Y-101172410D01*
X149179815Y-101239449D01*
X149127011Y-101285204D01*
X149089384Y-101295630D01*
X148920749Y-101314630D01*
X148920745Y-101314631D01*
X148750476Y-101374211D01*
X148597737Y-101470184D01*
X148470184Y-101597737D01*
X148374211Y-101750476D01*
X148314631Y-101920745D01*
X148314630Y-101920750D01*
X148294435Y-102099996D01*
X148294435Y-102100002D01*
X148303579Y-102181157D01*
X148291525Y-102249979D01*
X148268040Y-102282722D01*
X144631286Y-105919478D01*
X144519481Y-106031282D01*
X144519479Y-106031284D01*
X144494894Y-106073868D01*
X144480096Y-106099500D01*
X144440423Y-106168215D01*
X144399499Y-106320943D01*
X144399499Y-106320945D01*
X144399499Y-106489046D01*
X144399500Y-106489059D01*
X144399500Y-108378156D01*
X144379815Y-108445195D01*
X144327011Y-108490950D01*
X144261618Y-108501377D01*
X144222515Y-108496971D01*
X144200000Y-108494435D01*
X144199998Y-108494435D01*
X144193082Y-108493656D01*
X144193371Y-108491086D01*
X144137737Y-108474750D01*
X144091982Y-108421946D01*
X144082038Y-108352788D01*
X144085001Y-108338342D01*
X144108800Y-108249521D01*
X144125635Y-108186692D01*
X144143731Y-107979857D01*
X144145468Y-107960001D01*
X144145468Y-107959998D01*
X144131192Y-107796824D01*
X144125635Y-107733308D01*
X144066739Y-107513504D01*
X143970568Y-107307266D01*
X143860116Y-107149523D01*
X143840045Y-107120858D01*
X143679141Y-106959954D01*
X143492734Y-106829432D01*
X143492728Y-106829429D01*
X143434725Y-106802382D01*
X143382285Y-106756210D01*
X143363133Y-106689017D01*
X143383348Y-106622135D01*
X143434725Y-106577618D01*
X143492734Y-106550568D01*
X143679139Y-106420047D01*
X143840047Y-106259139D01*
X143970568Y-106072734D01*
X144066739Y-105866496D01*
X144125635Y-105646692D01*
X144142634Y-105452384D01*
X144145468Y-105420001D01*
X144145468Y-105419998D01*
X144131673Y-105262321D01*
X144125635Y-105193308D01*
X144066739Y-104973504D01*
X143970568Y-104767266D01*
X143840047Y-104580861D01*
X143840045Y-104580858D01*
X143679141Y-104419954D01*
X143492734Y-104289432D01*
X143492728Y-104289429D01*
X143434725Y-104262382D01*
X143382285Y-104216210D01*
X143363133Y-104149017D01*
X143383348Y-104082135D01*
X143434725Y-104037618D01*
X143492734Y-104010568D01*
X143679139Y-103880047D01*
X143840047Y-103719139D01*
X143970568Y-103532734D01*
X144066739Y-103326496D01*
X144125635Y-103106692D01*
X144144389Y-102892330D01*
X144145468Y-102880001D01*
X144145468Y-102879998D01*
X144131534Y-102720737D01*
X144125635Y-102653308D01*
X144066739Y-102433504D01*
X143970568Y-102227266D01*
X143840047Y-102040861D01*
X143840045Y-102040858D01*
X143679141Y-101879954D01*
X143492734Y-101749432D01*
X143492728Y-101749429D01*
X143434725Y-101722382D01*
X143382285Y-101676210D01*
X143363133Y-101609017D01*
X143383348Y-101542135D01*
X143434725Y-101497618D01*
X143492734Y-101470568D01*
X143679139Y-101340047D01*
X143840047Y-101179139D01*
X143970568Y-100992734D01*
X144066739Y-100786496D01*
X144125635Y-100566692D01*
X144144470Y-100351404D01*
X144145468Y-100340001D01*
X144145468Y-100339998D01*
X144135470Y-100225728D01*
X144125635Y-100113308D01*
X144066739Y-99893504D01*
X143970568Y-99687266D01*
X143840047Y-99500861D01*
X143840045Y-99500858D01*
X143679141Y-99339954D01*
X143492734Y-99209432D01*
X143492728Y-99209429D01*
X143434725Y-99182382D01*
X143382285Y-99136210D01*
X143363133Y-99069017D01*
X143383348Y-99002135D01*
X143434725Y-98957618D01*
X143492734Y-98930568D01*
X143679139Y-98800047D01*
X143840047Y-98639139D01*
X143970568Y-98452734D01*
X144066739Y-98246496D01*
X144125635Y-98026692D01*
X144142634Y-97832384D01*
X144145468Y-97800001D01*
X144145468Y-97799998D01*
X144132020Y-97646286D01*
X144125635Y-97573308D01*
X144066739Y-97353504D01*
X143970568Y-97147266D01*
X143840047Y-96960861D01*
X143840045Y-96960858D01*
X143679141Y-96799954D01*
X143492734Y-96669432D01*
X143492728Y-96669429D01*
X143434725Y-96642382D01*
X143382285Y-96596210D01*
X143363133Y-96529017D01*
X143383348Y-96462135D01*
X143434725Y-96417618D01*
X143492734Y-96390568D01*
X143679139Y-96260047D01*
X143840047Y-96099139D01*
X143970568Y-95912734D01*
X144066739Y-95706496D01*
X144125635Y-95486692D01*
X144142634Y-95292384D01*
X144145468Y-95260001D01*
X144145468Y-95259998D01*
X144135199Y-95142627D01*
X144125635Y-95033308D01*
X144066739Y-94813504D01*
X143970568Y-94607266D01*
X143840106Y-94420945D01*
X143840045Y-94420858D01*
X143679141Y-94259954D01*
X143492734Y-94129432D01*
X143492728Y-94129429D01*
X143434725Y-94102382D01*
X143382285Y-94056210D01*
X143363133Y-93989017D01*
X143383348Y-93922135D01*
X143434725Y-93877618D01*
X143492734Y-93850568D01*
X143679139Y-93720047D01*
X143840047Y-93559139D01*
X143970568Y-93372734D01*
X144066739Y-93166496D01*
X144125635Y-92946692D01*
X144142634Y-92752384D01*
X144145468Y-92720001D01*
X144145468Y-92719998D01*
X144139801Y-92655230D01*
X144125635Y-92493308D01*
X144066739Y-92273504D01*
X143970568Y-92067266D01*
X143840047Y-91880861D01*
X143840045Y-91880858D01*
X143679141Y-91719954D01*
X143492734Y-91589432D01*
X143492728Y-91589429D01*
X143434725Y-91562382D01*
X143382285Y-91516210D01*
X143363133Y-91449017D01*
X143383348Y-91382135D01*
X143434725Y-91337618D01*
X143435319Y-91337341D01*
X143492734Y-91310568D01*
X143679139Y-91180047D01*
X143840047Y-91019139D01*
X143970568Y-90832734D01*
X144066739Y-90626496D01*
X144125635Y-90406692D01*
X144142634Y-90212384D01*
X144145468Y-90180001D01*
X144145468Y-90179998D01*
X144139709Y-90114174D01*
X144125635Y-89953308D01*
X144066739Y-89733504D01*
X143970568Y-89527266D01*
X143840047Y-89340861D01*
X143840045Y-89340858D01*
X143679141Y-89179954D01*
X143492734Y-89049432D01*
X143492728Y-89049429D01*
X143434725Y-89022382D01*
X143382285Y-88976210D01*
X143363133Y-88909017D01*
X143383348Y-88842135D01*
X143434725Y-88797618D01*
X143492734Y-88770568D01*
X143679139Y-88640047D01*
X143840047Y-88479139D01*
X143970568Y-88292734D01*
X144066739Y-88086496D01*
X144125635Y-87866692D01*
X144145468Y-87640000D01*
X144125635Y-87413308D01*
X144066739Y-87193504D01*
X143970568Y-86987266D01*
X143840047Y-86800861D01*
X143840045Y-86800858D01*
X143679141Y-86639954D01*
X143492734Y-86509432D01*
X143492732Y-86509431D01*
X143434725Y-86482382D01*
X143434132Y-86482105D01*
X143381694Y-86435934D01*
X143362542Y-86368740D01*
X143382758Y-86301859D01*
X143434134Y-86257341D01*
X143492484Y-86230132D01*
X143678820Y-86099657D01*
X143839657Y-85938820D01*
X143970134Y-85752482D01*
X144066265Y-85546326D01*
X144066269Y-85546317D01*
X144118872Y-85350000D01*
X143273012Y-85350000D01*
X143305925Y-85292993D01*
X143340000Y-85165826D01*
X143340000Y-85034174D01*
X143305925Y-84907007D01*
X143273012Y-84850000D01*
X144118872Y-84850000D01*
X144118872Y-84849999D01*
X144066269Y-84653682D01*
X144066265Y-84653673D01*
X143970134Y-84447517D01*
X143839657Y-84261179D01*
X143678820Y-84100342D01*
X143492482Y-83969865D01*
X143434133Y-83942657D01*
X143381694Y-83896484D01*
X143362542Y-83829291D01*
X143382758Y-83762410D01*
X143434129Y-83717895D01*
X143492734Y-83690568D01*
X143679139Y-83560047D01*
X143840047Y-83399139D01*
X143970568Y-83212734D01*
X144066739Y-83006496D01*
X144125635Y-82786692D01*
X144142634Y-82592384D01*
X144145468Y-82560001D01*
X144145468Y-82559998D01*
X144125915Y-82336513D01*
X144125635Y-82333308D01*
X144066739Y-82113504D01*
X143970568Y-81907266D01*
X143840047Y-81720861D01*
X143840045Y-81720858D01*
X143679141Y-81559954D01*
X143492734Y-81429432D01*
X143492732Y-81429431D01*
X143286497Y-81333261D01*
X143286488Y-81333258D01*
X143066697Y-81274366D01*
X143066693Y-81274365D01*
X143066692Y-81274365D01*
X143066691Y-81274364D01*
X143066686Y-81274364D01*
X142840002Y-81254532D01*
X142839998Y-81254532D01*
X142613313Y-81274364D01*
X142613302Y-81274366D01*
X142393511Y-81333258D01*
X142393502Y-81333261D01*
X142187267Y-81429431D01*
X142187265Y-81429432D01*
X142000858Y-81559954D01*
X141839954Y-81720858D01*
X141709432Y-81907265D01*
X141709431Y-81907267D01*
X141613261Y-82113502D01*
X141613258Y-82113511D01*
X141554366Y-82333302D01*
X141554364Y-82333313D01*
X141534532Y-82559998D01*
X141534532Y-82560001D01*
X141554364Y-82786686D01*
X141554366Y-82786697D01*
X141613258Y-83006488D01*
X141613261Y-83006497D01*
X141709431Y-83212732D01*
X141709432Y-83212734D01*
X141839954Y-83399141D01*
X142000858Y-83560045D01*
X142000861Y-83560047D01*
X142187266Y-83690568D01*
X142245865Y-83717893D01*
X142298305Y-83764065D01*
X142317457Y-83831258D01*
X142297242Y-83898139D01*
X142245867Y-83942657D01*
X142187515Y-83969867D01*
X142001179Y-84100342D01*
X141840342Y-84261179D01*
X141709865Y-84447517D01*
X141613734Y-84653673D01*
X141613730Y-84653682D01*
X141561127Y-84849999D01*
X141561128Y-84850000D01*
X142406988Y-84850000D01*
X142374075Y-84907007D01*
X142340000Y-85034174D01*
X142340000Y-85165826D01*
X142374075Y-85292993D01*
X142406988Y-85350000D01*
X141561128Y-85350000D01*
X141613730Y-85546317D01*
X141613734Y-85546326D01*
X141709865Y-85752482D01*
X141840342Y-85938820D01*
X142001179Y-86099657D01*
X142187518Y-86230134D01*
X142187520Y-86230135D01*
X142245865Y-86257342D01*
X142298305Y-86303514D01*
X142317457Y-86370707D01*
X142297242Y-86437589D01*
X142245867Y-86482105D01*
X142187268Y-86509431D01*
X142187264Y-86509433D01*
X142000858Y-86639954D01*
X141839954Y-86800858D01*
X141709432Y-86987265D01*
X141709431Y-86987267D01*
X141613261Y-87193502D01*
X141613258Y-87193511D01*
X141554366Y-87413302D01*
X141554364Y-87413313D01*
X141534532Y-87639998D01*
X141534532Y-87640001D01*
X141554364Y-87866686D01*
X141554366Y-87866697D01*
X141613258Y-88086488D01*
X141613261Y-88086497D01*
X141709431Y-88292732D01*
X141709432Y-88292734D01*
X141839954Y-88479141D01*
X142000858Y-88640045D01*
X142003894Y-88642171D01*
X142187266Y-88770568D01*
X142245275Y-88797618D01*
X142297714Y-88843791D01*
X142316866Y-88910984D01*
X142296650Y-88977865D01*
X142245275Y-89022382D01*
X142187267Y-89049431D01*
X142187265Y-89049432D01*
X142000858Y-89179954D01*
X141839954Y-89340858D01*
X141709432Y-89527265D01*
X141709431Y-89527267D01*
X141613261Y-89733502D01*
X141613258Y-89733511D01*
X141554366Y-89953302D01*
X141554364Y-89953313D01*
X141534532Y-90179998D01*
X141534532Y-90180001D01*
X141554364Y-90406686D01*
X141554366Y-90406697D01*
X141613258Y-90626488D01*
X141613261Y-90626497D01*
X141709431Y-90832732D01*
X141709432Y-90832734D01*
X141839954Y-91019141D01*
X142000858Y-91180045D01*
X142003894Y-91182171D01*
X142187266Y-91310568D01*
X142244681Y-91337341D01*
X142245275Y-91337618D01*
X142297714Y-91383791D01*
X142316866Y-91450984D01*
X142296650Y-91517865D01*
X142245275Y-91562382D01*
X142187267Y-91589431D01*
X142187265Y-91589432D01*
X142000858Y-91719954D01*
X141839954Y-91880858D01*
X141709432Y-92067265D01*
X141709431Y-92067267D01*
X141613261Y-92273502D01*
X141613258Y-92273511D01*
X141554366Y-92493302D01*
X141554364Y-92493313D01*
X141534532Y-92719998D01*
X141534532Y-92720001D01*
X141554364Y-92946686D01*
X141554366Y-92946697D01*
X141613258Y-93166488D01*
X141613261Y-93166497D01*
X141709431Y-93372732D01*
X141709432Y-93372734D01*
X141839954Y-93559141D01*
X142000858Y-93720045D01*
X142003894Y-93722171D01*
X142187266Y-93850568D01*
X142245275Y-93877618D01*
X142297714Y-93923791D01*
X142316866Y-93990984D01*
X142296650Y-94057865D01*
X142245275Y-94102382D01*
X142187267Y-94129431D01*
X142187265Y-94129432D01*
X142000858Y-94259954D01*
X141839954Y-94420858D01*
X141709432Y-94607265D01*
X141709431Y-94607267D01*
X141613261Y-94813502D01*
X141613258Y-94813511D01*
X141554366Y-95033302D01*
X141554364Y-95033313D01*
X141534532Y-95259998D01*
X141534532Y-95260001D01*
X141554364Y-95486686D01*
X141554366Y-95486697D01*
X141613258Y-95706488D01*
X141613261Y-95706497D01*
X141709431Y-95912732D01*
X141709432Y-95912734D01*
X141839954Y-96099141D01*
X142000858Y-96260045D01*
X142003894Y-96262171D01*
X142187266Y-96390568D01*
X142245275Y-96417618D01*
X142297714Y-96463791D01*
X142316866Y-96530984D01*
X142296650Y-96597865D01*
X142245275Y-96642382D01*
X142187267Y-96669431D01*
X142187265Y-96669432D01*
X142000858Y-96799954D01*
X141839954Y-96960858D01*
X141709432Y-97147265D01*
X141709431Y-97147267D01*
X141613261Y-97353502D01*
X141613261Y-97353504D01*
X141554366Y-97573302D01*
X141554364Y-97573313D01*
X141534532Y-97799998D01*
X141534532Y-97800001D01*
X141554364Y-98026686D01*
X141554366Y-98026697D01*
X141613258Y-98246488D01*
X141613261Y-98246497D01*
X141709431Y-98452732D01*
X141709432Y-98452734D01*
X141839954Y-98639141D01*
X142000858Y-98800045D01*
X142003894Y-98802171D01*
X142187266Y-98930568D01*
X142245275Y-98957618D01*
X142297714Y-99003791D01*
X142316866Y-99070984D01*
X142296650Y-99137865D01*
X142245275Y-99182382D01*
X142187267Y-99209431D01*
X142187265Y-99209432D01*
X142000858Y-99339954D01*
X141839954Y-99500858D01*
X141709432Y-99687265D01*
X141709431Y-99687267D01*
X141613261Y-99893502D01*
X141613258Y-99893511D01*
X141554366Y-100113302D01*
X141554364Y-100113313D01*
X141534532Y-100339998D01*
X141534532Y-100340001D01*
X141554364Y-100566686D01*
X141554366Y-100566697D01*
X141580152Y-100662931D01*
X141578489Y-100732781D01*
X141548058Y-100782705D01*
X140069102Y-102261661D01*
X140007779Y-102295146D01*
X139938087Y-102290162D01*
X139893740Y-102261662D01*
X139850571Y-102218493D01*
X139802262Y-102170184D01*
X139690559Y-102099996D01*
X139649521Y-102074210D01*
X139479249Y-102014630D01*
X139392330Y-102004837D01*
X139327916Y-101977770D01*
X139318533Y-101969298D01*
X138767590Y-101418355D01*
X138767588Y-101418352D01*
X138648717Y-101299481D01*
X138648709Y-101299475D01*
X138531465Y-101231785D01*
X138531465Y-101231784D01*
X138531460Y-101231783D01*
X138524594Y-101227818D01*
X138511786Y-101220423D01*
X138473603Y-101210192D01*
X138359057Y-101179499D01*
X138200943Y-101179499D01*
X138193347Y-101179499D01*
X138193331Y-101179500D01*
X128837512Y-101179500D01*
X128770473Y-101159815D01*
X128724718Y-101107011D01*
X128714774Y-101037853D01*
X128728636Y-100997806D01*
X128728280Y-100997640D01*
X128729887Y-100994193D01*
X128730130Y-100993492D01*
X128730559Y-100992746D01*
X128730568Y-100992734D01*
X128826739Y-100786496D01*
X128885635Y-100566692D01*
X128904470Y-100351404D01*
X128905468Y-100340001D01*
X128905468Y-100339998D01*
X128895470Y-100225728D01*
X128885635Y-100113308D01*
X128826739Y-99893504D01*
X128730568Y-99687266D01*
X128600047Y-99500861D01*
X128600045Y-99500858D01*
X128439141Y-99339954D01*
X128252734Y-99209432D01*
X128252728Y-99209429D01*
X128194725Y-99182382D01*
X128142285Y-99136210D01*
X128123133Y-99069017D01*
X128143348Y-99002135D01*
X128194725Y-98957618D01*
X128252734Y-98930568D01*
X128439139Y-98800047D01*
X128600047Y-98639139D01*
X128730568Y-98452734D01*
X128826739Y-98246496D01*
X128885635Y-98026692D01*
X128902634Y-97832384D01*
X128905468Y-97800001D01*
X128905468Y-97799998D01*
X128892020Y-97646286D01*
X128885635Y-97573308D01*
X128826739Y-97353504D01*
X128730568Y-97147266D01*
X128600047Y-96960861D01*
X128600045Y-96960858D01*
X128439141Y-96799954D01*
X128252734Y-96669432D01*
X128252728Y-96669429D01*
X128194725Y-96642382D01*
X128142285Y-96596210D01*
X128123133Y-96529017D01*
X128143348Y-96462135D01*
X128194725Y-96417618D01*
X128252734Y-96390568D01*
X128439139Y-96260047D01*
X128600047Y-96099139D01*
X128730568Y-95912734D01*
X128826739Y-95706496D01*
X128885635Y-95486692D01*
X128902634Y-95292384D01*
X128905468Y-95260001D01*
X128905468Y-95259998D01*
X128895199Y-95142627D01*
X128885635Y-95033308D01*
X128826739Y-94813504D01*
X128730568Y-94607266D01*
X128600106Y-94420945D01*
X128600045Y-94420858D01*
X128439141Y-94259954D01*
X128252734Y-94129432D01*
X128252728Y-94129429D01*
X128194725Y-94102382D01*
X128142285Y-94056210D01*
X128123133Y-93989017D01*
X128143348Y-93922135D01*
X128194725Y-93877618D01*
X128252734Y-93850568D01*
X128439139Y-93720047D01*
X128600047Y-93559139D01*
X128730568Y-93372734D01*
X128826739Y-93166496D01*
X128885635Y-92946692D01*
X128902634Y-92752384D01*
X128905468Y-92720001D01*
X128905468Y-92719998D01*
X128899801Y-92655230D01*
X128885635Y-92493308D01*
X128826739Y-92273504D01*
X128730568Y-92067266D01*
X128600047Y-91880861D01*
X128600045Y-91880858D01*
X128439141Y-91719954D01*
X128252734Y-91589432D01*
X128252732Y-91589431D01*
X128194725Y-91562382D01*
X128194132Y-91562105D01*
X128141694Y-91515934D01*
X128122542Y-91448740D01*
X128142758Y-91381859D01*
X128194134Y-91337341D01*
X128252484Y-91310132D01*
X128438820Y-91179657D01*
X128599657Y-91018820D01*
X128730134Y-90832482D01*
X128826265Y-90626326D01*
X128826269Y-90626317D01*
X128878872Y-90430000D01*
X128033012Y-90430000D01*
X128065925Y-90372993D01*
X128100000Y-90245826D01*
X128100000Y-90114174D01*
X128065925Y-89987007D01*
X128033012Y-89930000D01*
X128878872Y-89930000D01*
X128878872Y-89929999D01*
X128826269Y-89733682D01*
X128826265Y-89733673D01*
X128730134Y-89527517D01*
X128599657Y-89341179D01*
X128438820Y-89180342D01*
X128252482Y-89049865D01*
X128194133Y-89022657D01*
X128141694Y-88976484D01*
X128122542Y-88909291D01*
X128142758Y-88842410D01*
X128194129Y-88797895D01*
X128252734Y-88770568D01*
X128439139Y-88640047D01*
X128600047Y-88479139D01*
X128730568Y-88292734D01*
X128826739Y-88086496D01*
X128885635Y-87866692D01*
X128905468Y-87640000D01*
X128885635Y-87413308D01*
X128826739Y-87193504D01*
X128730568Y-86987266D01*
X128600047Y-86800861D01*
X128600045Y-86800858D01*
X128439141Y-86639954D01*
X128252734Y-86509432D01*
X128252728Y-86509429D01*
X128194725Y-86482382D01*
X128142285Y-86436210D01*
X128123133Y-86369017D01*
X128143348Y-86302135D01*
X128194725Y-86257618D01*
X128195319Y-86257341D01*
X128252734Y-86230568D01*
X128439139Y-86100047D01*
X128600047Y-85939139D01*
X128730568Y-85752734D01*
X128826739Y-85546496D01*
X128885635Y-85326692D01*
X128905468Y-85100000D01*
X128885635Y-84873308D01*
X128840916Y-84706415D01*
X128826741Y-84653511D01*
X128826738Y-84653502D01*
X128807579Y-84612416D01*
X128730568Y-84447266D01*
X128600047Y-84260861D01*
X128600045Y-84260858D01*
X128439143Y-84099956D01*
X128414536Y-84082726D01*
X128370912Y-84028149D01*
X128363719Y-83958650D01*
X128395241Y-83896296D01*
X128455471Y-83860882D01*
X128472404Y-83857861D01*
X128507483Y-83854091D01*
X128642331Y-83803796D01*
X128757546Y-83717546D01*
X128843796Y-83602331D01*
X128894091Y-83467483D01*
X128900500Y-83407873D01*
X128900499Y-81712128D01*
X128894091Y-81652517D01*
X128878419Y-81610499D01*
X128843797Y-81517671D01*
X128843793Y-81517664D01*
X128757547Y-81402455D01*
X128757544Y-81402452D01*
X128642335Y-81316206D01*
X128642328Y-81316202D01*
X128507482Y-81265908D01*
X128507483Y-81265908D01*
X128447883Y-81259501D01*
X128447881Y-81259500D01*
X128447873Y-81259500D01*
X128447864Y-81259500D01*
X126752129Y-81259500D01*
X126752123Y-81259501D01*
X126692516Y-81265908D01*
X126557671Y-81316202D01*
X126557664Y-81316206D01*
X126442455Y-81402452D01*
X126442452Y-81402455D01*
X126356206Y-81517664D01*
X126356202Y-81517671D01*
X126305908Y-81652517D01*
X126305240Y-81658735D01*
X126299501Y-81712123D01*
X126299500Y-81712135D01*
X126299500Y-81835500D01*
X126279815Y-81902539D01*
X126227011Y-81948294D01*
X126175500Y-81959500D01*
X126026669Y-81959500D01*
X126026653Y-81959499D01*
X126019057Y-81959499D01*
X125860943Y-81959499D01*
X125746397Y-81990192D01*
X125708214Y-82000423D01*
X125690762Y-82010500D01*
X125690759Y-82010501D01*
X125571290Y-82079475D01*
X125571282Y-82079481D01*
X123619481Y-84031282D01*
X123619480Y-84031284D01*
X123579833Y-84099956D01*
X123569361Y-84118094D01*
X123569359Y-84118096D01*
X123540425Y-84168209D01*
X123540424Y-84168210D01*
X123524544Y-84227472D01*
X123499499Y-84320943D01*
X123499499Y-84320945D01*
X123499499Y-84489046D01*
X123499500Y-84489059D01*
X123499500Y-85417587D01*
X123479815Y-85484626D01*
X123472450Y-85494896D01*
X123470186Y-85497734D01*
X123374211Y-85650476D01*
X123314631Y-85820745D01*
X123314630Y-85820750D01*
X123294435Y-85999996D01*
X123294435Y-86000003D01*
X123314630Y-86179249D01*
X123314631Y-86179254D01*
X123374211Y-86349523D01*
X123470184Y-86502262D01*
X123597738Y-86629816D01*
X123640998Y-86656998D01*
X123727856Y-86711575D01*
X123750478Y-86725789D01*
X123920745Y-86785368D01*
X123920750Y-86785369D01*
X124099996Y-86805565D01*
X124100000Y-86805565D01*
X124100004Y-86805565D01*
X124279249Y-86785369D01*
X124279252Y-86785368D01*
X124279255Y-86785368D01*
X124449522Y-86725789D01*
X124602262Y-86629816D01*
X124729816Y-86502262D01*
X124825789Y-86349522D01*
X124885368Y-86179255D01*
X124894293Y-86100045D01*
X124905565Y-86000003D01*
X124905565Y-85999996D01*
X124885369Y-85820750D01*
X124885368Y-85820745D01*
X124838888Y-85687913D01*
X124825789Y-85650478D01*
X124729816Y-85497738D01*
X124729814Y-85497736D01*
X124729813Y-85497734D01*
X124727550Y-85494896D01*
X124726659Y-85492715D01*
X124726111Y-85491842D01*
X124726264Y-85491745D01*
X124701144Y-85430209D01*
X124700500Y-85417587D01*
X124700500Y-84700097D01*
X124720185Y-84633058D01*
X124736819Y-84612416D01*
X126087820Y-83261415D01*
X126149143Y-83227930D01*
X126218835Y-83232914D01*
X126274768Y-83274786D01*
X126299185Y-83340250D01*
X126299501Y-83349096D01*
X126299501Y-83407876D01*
X126305908Y-83467483D01*
X126356202Y-83602328D01*
X126356206Y-83602335D01*
X126442452Y-83717544D01*
X126442455Y-83717547D01*
X126557664Y-83803793D01*
X126557671Y-83803797D01*
X126602618Y-83820561D01*
X126692517Y-83854091D01*
X126727596Y-83857862D01*
X126792144Y-83884599D01*
X126831993Y-83941991D01*
X126834488Y-84011816D01*
X126798836Y-84071905D01*
X126785464Y-84082725D01*
X126760858Y-84099954D01*
X126599954Y-84260858D01*
X126469432Y-84447265D01*
X126469431Y-84447267D01*
X126373261Y-84653502D01*
X126373258Y-84653511D01*
X126314366Y-84873302D01*
X126314364Y-84873313D01*
X126294532Y-85099998D01*
X126294532Y-85100001D01*
X126314364Y-85326686D01*
X126314366Y-85326697D01*
X126373258Y-85546488D01*
X126373261Y-85546497D01*
X126469431Y-85752732D01*
X126469432Y-85752734D01*
X126599954Y-85939141D01*
X126760858Y-86100045D01*
X126760861Y-86100047D01*
X126947266Y-86230568D01*
X127004681Y-86257341D01*
X127005275Y-86257618D01*
X127057714Y-86303791D01*
X127076866Y-86370984D01*
X127056650Y-86437865D01*
X127005275Y-86482382D01*
X126947267Y-86509431D01*
X126947265Y-86509432D01*
X126760858Y-86639954D01*
X126599954Y-86800858D01*
X126469432Y-86987265D01*
X126469431Y-86987267D01*
X126373261Y-87193502D01*
X126373258Y-87193511D01*
X126314366Y-87413302D01*
X126314364Y-87413313D01*
X126294532Y-87639998D01*
X126294532Y-87640001D01*
X126314364Y-87866686D01*
X126314366Y-87866697D01*
X126373258Y-88086488D01*
X126373261Y-88086497D01*
X126469431Y-88292732D01*
X126469432Y-88292734D01*
X126599954Y-88479141D01*
X126760858Y-88640045D01*
X126763894Y-88642171D01*
X126947266Y-88770568D01*
X127005865Y-88797893D01*
X127058305Y-88844065D01*
X127077457Y-88911258D01*
X127057242Y-88978139D01*
X127005867Y-89022657D01*
X126947515Y-89049867D01*
X126761179Y-89180342D01*
X126600342Y-89341179D01*
X126469865Y-89527517D01*
X126373734Y-89733673D01*
X126373730Y-89733682D01*
X126321127Y-89929999D01*
X126321128Y-89930000D01*
X127166988Y-89930000D01*
X127134075Y-89987007D01*
X127100000Y-90114174D01*
X127100000Y-90245826D01*
X127134075Y-90372993D01*
X127166988Y-90430000D01*
X126321128Y-90430000D01*
X126373730Y-90626317D01*
X126373734Y-90626326D01*
X126469865Y-90832482D01*
X126600342Y-91018820D01*
X126761179Y-91179657D01*
X126947518Y-91310134D01*
X126947520Y-91310135D01*
X127005865Y-91337342D01*
X127058305Y-91383514D01*
X127077457Y-91450707D01*
X127057242Y-91517589D01*
X127005867Y-91562105D01*
X126947268Y-91589431D01*
X126947264Y-91589433D01*
X126760858Y-91719954D01*
X126599954Y-91880858D01*
X126469432Y-92067265D01*
X126469431Y-92067267D01*
X126373261Y-92273502D01*
X126373258Y-92273511D01*
X126314366Y-92493302D01*
X126314364Y-92493313D01*
X126294532Y-92719998D01*
X126294532Y-92720001D01*
X126314364Y-92946686D01*
X126314366Y-92946697D01*
X126340152Y-93042931D01*
X126338489Y-93112781D01*
X126308058Y-93162705D01*
X125807584Y-93663181D01*
X125746261Y-93696666D01*
X125719903Y-93699500D01*
X125486670Y-93699500D01*
X125486654Y-93699499D01*
X125479058Y-93699499D01*
X125320943Y-93699499D01*
X125244579Y-93719961D01*
X125168214Y-93740423D01*
X125168209Y-93740426D01*
X125031290Y-93819475D01*
X125031282Y-93819481D01*
X124719481Y-94131282D01*
X124719477Y-94131287D01*
X124700253Y-94164586D01*
X124700250Y-94164592D01*
X124675762Y-94207007D01*
X124645193Y-94259954D01*
X124640423Y-94268215D01*
X124599499Y-94420943D01*
X124599499Y-94420945D01*
X124599499Y-94589046D01*
X124599500Y-94589059D01*
X124599500Y-96817587D01*
X124579815Y-96884626D01*
X124572450Y-96894896D01*
X124570186Y-96897734D01*
X124474211Y-97050476D01*
X124414631Y-97220745D01*
X124414630Y-97220750D01*
X124394435Y-97399996D01*
X124394435Y-97400003D01*
X124414630Y-97579249D01*
X124414631Y-97579254D01*
X124474211Y-97749523D01*
X124570184Y-97902262D01*
X124697738Y-98029816D01*
X124788080Y-98086582D01*
X124831771Y-98114035D01*
X124850478Y-98125789D01*
X124938154Y-98156468D01*
X125020745Y-98185368D01*
X125020750Y-98185369D01*
X125199996Y-98205565D01*
X125200000Y-98205565D01*
X125200004Y-98205565D01*
X125379249Y-98185369D01*
X125379252Y-98185368D01*
X125379255Y-98185368D01*
X125549522Y-98125789D01*
X125702262Y-98029816D01*
X125829816Y-97902262D01*
X125925789Y-97749522D01*
X125985368Y-97579255D01*
X125985556Y-97577585D01*
X126005565Y-97400003D01*
X126005565Y-97399996D01*
X125985369Y-97220750D01*
X125985368Y-97220745D01*
X125969502Y-97175403D01*
X125925789Y-97050478D01*
X125900947Y-97010943D01*
X125829813Y-96897734D01*
X125827550Y-96894896D01*
X125826659Y-96892715D01*
X125826111Y-96891842D01*
X125826264Y-96891745D01*
X125801144Y-96830209D01*
X125800500Y-96817587D01*
X125800500Y-95024500D01*
X125820185Y-94957461D01*
X125872989Y-94911706D01*
X125924500Y-94900500D01*
X125933331Y-94900500D01*
X125933347Y-94900501D01*
X125940943Y-94900501D01*
X126099053Y-94900501D01*
X126099057Y-94900501D01*
X126161903Y-94883661D01*
X126231749Y-94885324D01*
X126289612Y-94924486D01*
X126317117Y-94988714D01*
X126314327Y-95027801D01*
X126315306Y-95027974D01*
X126314364Y-95033313D01*
X126294532Y-95259998D01*
X126294532Y-95260001D01*
X126314364Y-95486686D01*
X126314366Y-95486697D01*
X126373258Y-95706488D01*
X126373261Y-95706497D01*
X126469431Y-95912732D01*
X126469432Y-95912734D01*
X126599954Y-96099141D01*
X126760858Y-96260045D01*
X126763894Y-96262171D01*
X126947266Y-96390568D01*
X127005275Y-96417618D01*
X127057714Y-96463791D01*
X127076866Y-96530984D01*
X127056650Y-96597865D01*
X127005275Y-96642382D01*
X126947267Y-96669431D01*
X126947265Y-96669432D01*
X126760858Y-96799954D01*
X126599954Y-96960858D01*
X126469432Y-97147265D01*
X126469431Y-97147267D01*
X126373261Y-97353502D01*
X126373261Y-97353504D01*
X126314366Y-97573302D01*
X126314364Y-97573313D01*
X126294532Y-97799998D01*
X126294532Y-97800001D01*
X126314364Y-98026686D01*
X126314366Y-98026697D01*
X126373258Y-98246488D01*
X126373261Y-98246497D01*
X126469431Y-98452732D01*
X126469432Y-98452734D01*
X126599954Y-98639141D01*
X126760858Y-98800045D01*
X126763894Y-98802171D01*
X126947266Y-98930568D01*
X127005275Y-98957618D01*
X127057714Y-99003791D01*
X127076866Y-99070984D01*
X127056650Y-99137865D01*
X127005275Y-99182382D01*
X126947267Y-99209431D01*
X126947265Y-99209432D01*
X126760858Y-99339954D01*
X126599954Y-99500858D01*
X126469432Y-99687265D01*
X126469431Y-99687267D01*
X126373261Y-99893502D01*
X126373258Y-99893511D01*
X126314366Y-100113302D01*
X126314364Y-100113313D01*
X126294532Y-100339998D01*
X126294532Y-100340001D01*
X126314364Y-100566686D01*
X126314366Y-100566697D01*
X126373258Y-100786488D01*
X126373261Y-100786496D01*
X126469432Y-100992734D01*
X126469435Y-100992738D01*
X126469870Y-100993492D01*
X126469961Y-100993868D01*
X126471720Y-100997640D01*
X126470962Y-100997993D01*
X126486348Y-101061391D01*
X126463501Y-101127419D01*
X126408583Y-101170614D01*
X126362488Y-101179500D01*
X119740943Y-101179500D01*
X119588215Y-101220423D01*
X119568536Y-101231785D01*
X119568535Y-101231785D01*
X119451290Y-101299475D01*
X119451282Y-101299481D01*
X119339478Y-101411286D01*
X119339477Y-101411287D01*
X119281464Y-101469299D01*
X119220141Y-101502783D01*
X119207668Y-101504837D01*
X119120750Y-101514630D01*
X118950477Y-101574210D01*
X118847684Y-101638800D01*
X118780447Y-101657800D01*
X118713612Y-101637432D01*
X118668398Y-101584164D01*
X118659161Y-101514908D01*
X118661932Y-101501732D01*
X118685063Y-101415408D01*
X118705659Y-101180000D01*
X118685063Y-100944592D01*
X118638626Y-100771285D01*
X118623905Y-100716344D01*
X118623904Y-100716343D01*
X118623903Y-100716337D01*
X118524035Y-100502171D01*
X118465841Y-100419060D01*
X118388494Y-100308597D01*
X118221402Y-100141506D01*
X118221396Y-100141501D01*
X118035842Y-100011575D01*
X117992217Y-99956998D01*
X117985023Y-99887500D01*
X118016546Y-99825145D01*
X118035842Y-99808425D01*
X118147844Y-99730000D01*
X118221401Y-99678495D01*
X118388495Y-99511401D01*
X118524035Y-99317830D01*
X118623903Y-99103663D01*
X118685063Y-98875408D01*
X118705659Y-98640000D01*
X118685063Y-98404592D01*
X118623903Y-98176337D01*
X118524035Y-97962171D01*
X118482086Y-97902262D01*
X118388496Y-97768600D01*
X118369418Y-97749522D01*
X118266179Y-97646283D01*
X118232696Y-97584963D01*
X118237680Y-97515271D01*
X118279551Y-97459337D01*
X118310529Y-97442422D01*
X118442086Y-97393354D01*
X118442093Y-97393350D01*
X118557187Y-97307190D01*
X118557190Y-97307187D01*
X118643350Y-97192093D01*
X118643354Y-97192086D01*
X118693596Y-97057379D01*
X118693598Y-97057372D01*
X118699999Y-96997844D01*
X118700000Y-96997827D01*
X118700000Y-96350000D01*
X117783012Y-96350000D01*
X117815925Y-96292993D01*
X117850000Y-96165826D01*
X117850000Y-96034174D01*
X117815925Y-95907007D01*
X117783012Y-95850000D01*
X118700000Y-95850000D01*
X118700000Y-95202172D01*
X118699999Y-95202155D01*
X118693598Y-95142627D01*
X118693596Y-95142620D01*
X118643354Y-95007913D01*
X118643350Y-95007906D01*
X118557190Y-94892812D01*
X118557187Y-94892809D01*
X118442093Y-94806649D01*
X118442086Y-94806645D01*
X118307379Y-94756403D01*
X118307372Y-94756401D01*
X118247844Y-94750000D01*
X117600000Y-94750000D01*
X117600000Y-95666988D01*
X117542993Y-95634075D01*
X117415826Y-95600000D01*
X117284174Y-95600000D01*
X117157007Y-95634075D01*
X117100000Y-95666988D01*
X117100000Y-94750000D01*
X116524500Y-94750000D01*
X116457461Y-94730315D01*
X116411706Y-94677511D01*
X116400500Y-94626000D01*
X116400500Y-89292503D01*
X116420185Y-89225464D01*
X116472989Y-89179709D01*
X116542147Y-89169765D01*
X116556593Y-89172728D01*
X116585010Y-89180342D01*
X116714592Y-89215063D01*
X116902918Y-89231539D01*
X116949999Y-89235659D01*
X116950000Y-89235659D01*
X116950001Y-89235659D01*
X116989234Y-89232226D01*
X117185408Y-89215063D01*
X117413663Y-89153903D01*
X117627830Y-89054035D01*
X117821401Y-88918495D01*
X117988495Y-88751401D01*
X118124035Y-88557830D01*
X118223903Y-88343663D01*
X118285063Y-88115408D01*
X118305659Y-87880000D01*
X118285063Y-87644592D01*
X118223903Y-87416337D01*
X118124035Y-87202171D01*
X118117972Y-87193511D01*
X117988494Y-87008597D01*
X117821402Y-86841506D01*
X117821396Y-86841501D01*
X117635842Y-86711575D01*
X117592217Y-86656998D01*
X117585023Y-86587500D01*
X117616546Y-86525145D01*
X117635842Y-86508425D01*
X117737006Y-86437589D01*
X117821401Y-86378495D01*
X117988495Y-86211401D01*
X118124035Y-86017830D01*
X118223903Y-85803663D01*
X118285063Y-85575408D01*
X118305659Y-85340000D01*
X118285063Y-85104592D01*
X118223903Y-84876337D01*
X118124035Y-84662171D01*
X118117972Y-84653511D01*
X117988494Y-84468597D01*
X117821402Y-84301506D01*
X117821401Y-84301505D01*
X117635405Y-84171269D01*
X117591781Y-84116692D01*
X117584588Y-84047193D01*
X117616110Y-83984839D01*
X117635405Y-83968119D01*
X117821082Y-83838105D01*
X117988105Y-83671082D01*
X118123600Y-83477578D01*
X118223429Y-83263492D01*
X118223432Y-83263486D01*
X118280636Y-83050000D01*
X117383012Y-83050000D01*
X117415925Y-82992993D01*
X117450000Y-82865826D01*
X117450000Y-82734174D01*
X117415925Y-82607007D01*
X117383012Y-82550000D01*
X118280636Y-82550000D01*
X118280635Y-82549999D01*
X118223432Y-82336513D01*
X118223429Y-82336507D01*
X118123600Y-82122422D01*
X118123599Y-82122420D01*
X117988113Y-81928926D01*
X117988108Y-81928920D01*
X117866053Y-81806865D01*
X117832568Y-81745542D01*
X117837552Y-81675850D01*
X117879424Y-81619917D01*
X117910400Y-81603002D01*
X118042331Y-81553796D01*
X118157546Y-81467546D01*
X118243796Y-81352331D01*
X118294091Y-81217483D01*
X118300500Y-81157873D01*
X118300499Y-79599998D01*
X176394390Y-79599998D01*
X176394390Y-79600001D01*
X176414804Y-79885433D01*
X176475628Y-80165037D01*
X176575635Y-80433166D01*
X176712770Y-80684309D01*
X176712775Y-80684317D01*
X176884254Y-80913387D01*
X176884270Y-80913405D01*
X177086594Y-81115729D01*
X177086612Y-81115745D01*
X177315682Y-81287224D01*
X177315690Y-81287229D01*
X177566833Y-81424364D01*
X177566832Y-81424364D01*
X177566836Y-81424365D01*
X177566839Y-81424367D01*
X177834954Y-81524369D01*
X177834960Y-81524370D01*
X177834962Y-81524371D01*
X178114566Y-81585195D01*
X178114568Y-81585195D01*
X178114572Y-81585196D01*
X178363535Y-81603002D01*
X178399999Y-81605610D01*
X178400000Y-81605610D01*
X178400001Y-81605610D01*
X178436465Y-81603002D01*
X178685428Y-81585196D01*
X178829768Y-81553797D01*
X178965037Y-81524371D01*
X178965037Y-81524370D01*
X178965046Y-81524369D01*
X179233161Y-81424367D01*
X179484315Y-81287226D01*
X179713395Y-81115739D01*
X179915739Y-80913395D01*
X180087226Y-80684315D01*
X180224367Y-80433161D01*
X180324369Y-80165046D01*
X180385196Y-79885428D01*
X180405610Y-79600000D01*
X180385196Y-79314572D01*
X180382573Y-79302516D01*
X180324371Y-79034962D01*
X180324370Y-79034960D01*
X180324369Y-79034954D01*
X180224367Y-78766839D01*
X180087226Y-78515685D01*
X180087224Y-78515682D01*
X179915745Y-78286612D01*
X179915729Y-78286594D01*
X179713405Y-78084270D01*
X179713387Y-78084254D01*
X179670481Y-78052135D01*
X189099500Y-78052135D01*
X189099500Y-81147870D01*
X189099501Y-81147876D01*
X189105908Y-81207483D01*
X189156202Y-81342328D01*
X189156206Y-81342335D01*
X189242452Y-81457544D01*
X189242455Y-81457547D01*
X189357664Y-81543793D01*
X189357671Y-81543797D01*
X189492517Y-81594091D01*
X189492516Y-81594091D01*
X189499444Y-81594835D01*
X189552127Y-81600500D01*
X192647872Y-81600499D01*
X192707483Y-81594091D01*
X192842331Y-81543796D01*
X192957546Y-81457546D01*
X193043796Y-81342331D01*
X193094091Y-81207483D01*
X193100500Y-81147873D01*
X193100499Y-78052128D01*
X193094091Y-77992517D01*
X193064347Y-77912770D01*
X193043797Y-77857671D01*
X193043793Y-77857664D01*
X192957547Y-77742455D01*
X192957544Y-77742452D01*
X192842335Y-77656206D01*
X192842328Y-77656202D01*
X192707482Y-77605908D01*
X192707483Y-77605908D01*
X192647883Y-77599501D01*
X192647881Y-77599500D01*
X192647873Y-77599500D01*
X192647864Y-77599500D01*
X189552129Y-77599500D01*
X189552123Y-77599501D01*
X189492516Y-77605908D01*
X189357671Y-77656202D01*
X189357664Y-77656206D01*
X189242455Y-77742452D01*
X189242452Y-77742455D01*
X189156206Y-77857664D01*
X189156202Y-77857671D01*
X189105908Y-77992517D01*
X189099501Y-78052116D01*
X189099501Y-78052123D01*
X189099500Y-78052135D01*
X179670481Y-78052135D01*
X179484317Y-77912775D01*
X179484309Y-77912770D01*
X179233166Y-77775635D01*
X179233167Y-77775635D01*
X179125915Y-77735632D01*
X178965046Y-77675631D01*
X178965043Y-77675630D01*
X178965037Y-77675628D01*
X178685433Y-77614804D01*
X178400001Y-77594390D01*
X178399999Y-77594390D01*
X178114566Y-77614804D01*
X177834962Y-77675628D01*
X177566833Y-77775635D01*
X177315690Y-77912770D01*
X177315682Y-77912775D01*
X177086612Y-78084254D01*
X177086594Y-78084270D01*
X176884270Y-78286594D01*
X176884254Y-78286612D01*
X176712775Y-78515682D01*
X176712770Y-78515690D01*
X176575635Y-78766833D01*
X176475628Y-79034962D01*
X176414804Y-79314566D01*
X176394390Y-79599998D01*
X118300499Y-79599998D01*
X118300499Y-79362128D01*
X118294091Y-79302517D01*
X118243796Y-79167669D01*
X118243795Y-79167668D01*
X118243793Y-79167664D01*
X118157547Y-79052455D01*
X118157544Y-79052452D01*
X118042335Y-78966206D01*
X118042328Y-78966202D01*
X117907482Y-78915908D01*
X117907483Y-78915908D01*
X117847883Y-78909501D01*
X117847881Y-78909500D01*
X117847873Y-78909500D01*
X117847864Y-78909500D01*
X116052129Y-78909500D01*
X116052123Y-78909501D01*
X115992516Y-78915908D01*
X115857671Y-78966202D01*
X115857664Y-78966206D01*
X115742455Y-79052452D01*
X115742452Y-79052455D01*
X115656206Y-79167664D01*
X115656202Y-79167671D01*
X115605908Y-79302517D01*
X115599501Y-79362116D01*
X115599501Y-79362123D01*
X115599500Y-79362135D01*
X115599500Y-80709900D01*
X115579815Y-80776939D01*
X115563182Y-80797581D01*
X115431286Y-80929478D01*
X115431285Y-80929477D01*
X115431284Y-80929480D01*
X115319481Y-81041282D01*
X115319477Y-81041287D01*
X115276494Y-81115738D01*
X115276494Y-81115739D01*
X115240423Y-81178214D01*
X115229901Y-81217482D01*
X115199499Y-81330943D01*
X115199499Y-81330945D01*
X115199499Y-81499046D01*
X115199500Y-81499059D01*
X115199500Y-97003330D01*
X115199499Y-97003348D01*
X115199499Y-97169054D01*
X115199498Y-97169054D01*
X115240424Y-97321789D01*
X115240425Y-97321790D01*
X115258735Y-97353503D01*
X115258736Y-97353504D01*
X115319477Y-97458712D01*
X115319481Y-97458717D01*
X115438349Y-97577585D01*
X115438355Y-97577590D01*
X116017233Y-98156468D01*
X116050718Y-98217791D01*
X116049327Y-98276241D01*
X116014939Y-98404583D01*
X116014936Y-98404596D01*
X115994341Y-98639999D01*
X115994341Y-98640000D01*
X116014936Y-98875403D01*
X116014938Y-98875413D01*
X116049327Y-99003756D01*
X116047664Y-99073606D01*
X116017233Y-99123530D01*
X115281286Y-99859478D01*
X115169481Y-99971282D01*
X115169480Y-99971284D01*
X115125093Y-100048165D01*
X115090423Y-100108215D01*
X115049499Y-100260943D01*
X115049499Y-100260945D01*
X115049499Y-100429046D01*
X115049500Y-100429059D01*
X115049500Y-115943330D01*
X115049499Y-115943348D01*
X115049499Y-116109054D01*
X115049498Y-116109054D01*
X112975057Y-116109054D01*
X112835842Y-116011575D01*
X112792217Y-115956998D01*
X112785023Y-115887500D01*
X112816546Y-115825145D01*
X112835842Y-115808425D01*
X112907706Y-115758105D01*
X113021401Y-115678495D01*
X113188495Y-115511401D01*
X113324035Y-115317830D01*
X113423903Y-115103663D01*
X113485063Y-114875408D01*
X113505659Y-114640000D01*
X113485063Y-114404592D01*
X113423903Y-114176337D01*
X113324035Y-113962171D01*
X113244740Y-113848926D01*
X113188496Y-113768600D01*
X113188495Y-113768599D01*
X113066567Y-113646671D01*
X113033084Y-113585351D01*
X113038068Y-113515659D01*
X113079939Y-113459725D01*
X113110915Y-113442810D01*
X113242331Y-113393796D01*
X113357546Y-113307546D01*
X113443796Y-113192331D01*
X113494091Y-113057483D01*
X113500500Y-112997873D01*
X113500499Y-111202128D01*
X113494091Y-111142517D01*
X113493857Y-111141890D01*
X113443797Y-111007671D01*
X113443793Y-111007664D01*
X113357547Y-110892455D01*
X113357544Y-110892452D01*
X113242335Y-110806206D01*
X113242328Y-110806202D01*
X113107482Y-110755908D01*
X113107483Y-110755908D01*
X113047883Y-110749501D01*
X113047881Y-110749500D01*
X113047873Y-110749500D01*
X113047864Y-110749500D01*
X111252129Y-110749500D01*
X111252123Y-110749501D01*
X111192516Y-110755908D01*
X111057671Y-110806202D01*
X111057664Y-110806206D01*
X110942455Y-110892452D01*
X110942452Y-110892455D01*
X110856206Y-111007664D01*
X110856202Y-111007671D01*
X110805908Y-111142517D01*
X110799501Y-111202116D01*
X110799501Y-111202123D01*
X110799500Y-111202135D01*
X110799500Y-112997870D01*
X110799501Y-112997876D01*
X110805908Y-113057483D01*
X110856202Y-113192328D01*
X110856206Y-113192335D01*
X110942452Y-113307544D01*
X110942455Y-113307547D01*
X111057664Y-113393793D01*
X111057671Y-113393797D01*
X111189081Y-113442810D01*
X111245015Y-113484681D01*
X111269432Y-113550145D01*
X111254580Y-113618418D01*
X111233430Y-113646673D01*
X111111503Y-113768600D01*
X110975965Y-113962169D01*
X110975964Y-113962171D01*
X110876098Y-114176335D01*
X110876094Y-114176344D01*
X110814938Y-114404586D01*
X110814936Y-114404596D01*
X110794341Y-114639999D01*
X101500500Y-114639999D01*
X101500500Y-98639999D01*
X111344341Y-98639999D01*
X111344341Y-98640000D01*
X111364936Y-98875403D01*
X111364938Y-98875413D01*
X111426094Y-99103655D01*
X111426096Y-99103659D01*
X111426097Y-99103663D01*
X111511592Y-99287007D01*
X111525965Y-99317830D01*
X111525967Y-99317834D01*
X111661501Y-99511395D01*
X111661506Y-99511402D01*
X111828597Y-99678493D01*
X111828603Y-99678498D01*
X112014158Y-99808425D01*
X112057783Y-99863002D01*
X112064977Y-99932500D01*
X112033454Y-99994855D01*
X112014158Y-100011575D01*
X111828597Y-100141505D01*
X111661505Y-100308597D01*
X111525965Y-100502169D01*
X111525964Y-100502171D01*
X111426098Y-100716335D01*
X111426094Y-100716344D01*
X111364938Y-100944586D01*
X111364936Y-100944596D01*
X111344341Y-101179999D01*
X111344341Y-101180000D01*
X111364936Y-101415403D01*
X111364938Y-101415413D01*
X111426094Y-101643655D01*
X111426096Y-101643659D01*
X111426097Y-101643663D01*
X111497944Y-101797738D01*
X111525965Y-101857830D01*
X111525967Y-101857834D01*
X111661501Y-102051395D01*
X111661506Y-102051402D01*
X111828597Y-102218493D01*
X111828603Y-102218498D01*
X112014158Y-102348425D01*
X112057783Y-102403002D01*
X112064977Y-102472500D01*
X112033454Y-102534855D01*
X112014158Y-102551575D01*
X111828597Y-102681505D01*
X111661505Y-102848597D01*
X111525965Y-103042169D01*
X111525964Y-103042171D01*
X111426098Y-103256335D01*
X111426094Y-103256344D01*
X111364938Y-103484586D01*
X111364936Y-103484596D01*
X111344341Y-103719999D01*
X111344341Y-103720000D01*
X111364936Y-103955403D01*
X111364938Y-103955413D01*
X111426094Y-104183655D01*
X111426096Y-104183659D01*
X111426097Y-104183663D01*
X111501416Y-104345185D01*
X111525965Y-104397830D01*
X111525967Y-104397834D01*
X111541456Y-104419954D01*
X111661505Y-104591401D01*
X111828599Y-104758495D01*
X111902156Y-104810000D01*
X112022165Y-104894032D01*
X112022167Y-104894033D01*
X112022170Y-104894035D01*
X112236337Y-104993903D01*
X112464592Y-105055063D01*
X112652918Y-105071539D01*
X112699999Y-105075659D01*
X112700000Y-105075659D01*
X112700001Y-105075659D01*
X112739234Y-105072226D01*
X112935408Y-105055063D01*
X113163663Y-104993903D01*
X113377830Y-104894035D01*
X113571401Y-104758495D01*
X113738495Y-104591401D01*
X113874035Y-104397830D01*
X113973903Y-104183663D01*
X114035063Y-103955408D01*
X114055659Y-103720000D01*
X114035063Y-103484592D01*
X113973903Y-103256337D01*
X113874035Y-103042171D01*
X113862565Y-103025789D01*
X113738494Y-102848597D01*
X113571402Y-102681506D01*
X113571396Y-102681501D01*
X113385842Y-102551575D01*
X113342217Y-102496998D01*
X113335023Y-102427500D01*
X113366546Y-102365145D01*
X113385842Y-102348425D01*
X113436297Y-102313096D01*
X113571401Y-102218495D01*
X113738495Y-102051401D01*
X113874035Y-101857830D01*
X113973903Y-101643663D01*
X114035063Y-101415408D01*
X114055659Y-101180000D01*
X114035063Y-100944592D01*
X113988626Y-100771285D01*
X113973905Y-100716344D01*
X113973904Y-100716343D01*
X113973903Y-100716337D01*
X113874035Y-100502171D01*
X113815841Y-100419060D01*
X113738494Y-100308597D01*
X113571402Y-100141506D01*
X113571396Y-100141501D01*
X113385842Y-100011575D01*
X113342217Y-99956998D01*
X113335023Y-99887500D01*
X113366546Y-99825145D01*
X113385842Y-99808425D01*
X113497844Y-99730000D01*
X113571401Y-99678495D01*
X113738495Y-99511401D01*
X113874035Y-99317830D01*
X113973903Y-99103663D01*
X114035063Y-98875408D01*
X114055659Y-98640000D01*
X114035063Y-98404592D01*
X113973903Y-98176337D01*
X113874035Y-97962171D01*
X113832086Y-97902262D01*
X113738496Y-97768600D01*
X113719418Y-97749522D01*
X113616179Y-97646283D01*
X113582696Y-97584963D01*
X113587680Y-97515271D01*
X113629551Y-97459337D01*
X113660529Y-97442422D01*
X113792086Y-97393354D01*
X113792093Y-97393350D01*
X113907187Y-97307190D01*
X113907190Y-97307187D01*
X113993350Y-97192093D01*
X113993354Y-97192086D01*
X114043596Y-97057379D01*
X114043598Y-97057372D01*
X114049999Y-96997844D01*
X114050000Y-96997827D01*
X114050000Y-96350000D01*
X113133012Y-96350000D01*
X113165925Y-96292993D01*
X113200000Y-96165826D01*
X113200000Y-96034174D01*
X113165925Y-95907007D01*
X113133012Y-95850000D01*
X114050000Y-95850000D01*
X114050000Y-95202172D01*
X114049999Y-95202155D01*
X114043598Y-95142627D01*
X114043596Y-95142620D01*
X113993354Y-95007913D01*
X113993350Y-95007906D01*
X113907190Y-94892812D01*
X113907187Y-94892809D01*
X113792093Y-94806649D01*
X113792086Y-94806645D01*
X113657379Y-94756403D01*
X113657372Y-94756401D01*
X113597844Y-94750000D01*
X112950000Y-94750000D01*
X112950000Y-95666988D01*
X112892993Y-95634075D01*
X112765826Y-95600000D01*
X112634174Y-95600000D01*
X112507007Y-95634075D01*
X112450000Y-95666988D01*
X112450000Y-94750000D01*
X111802155Y-94750000D01*
X111742627Y-94756401D01*
X111742620Y-94756403D01*
X111607913Y-94806645D01*
X111607906Y-94806649D01*
X111492812Y-94892809D01*
X111492809Y-94892812D01*
X111406649Y-95007906D01*
X111406645Y-95007913D01*
X111356403Y-95142620D01*
X111356401Y-95142627D01*
X111350000Y-95202155D01*
X111350000Y-95850000D01*
X112266988Y-95850000D01*
X112234075Y-95907007D01*
X112200000Y-96034174D01*
X112200000Y-96165826D01*
X112234075Y-96292993D01*
X112266988Y-96350000D01*
X111350000Y-96350000D01*
X111350000Y-96997844D01*
X111356401Y-97057372D01*
X111356403Y-97057379D01*
X111406645Y-97192086D01*
X111406649Y-97192093D01*
X111492809Y-97307187D01*
X111492812Y-97307190D01*
X111607906Y-97393350D01*
X111607913Y-97393354D01*
X111739470Y-97442421D01*
X111795403Y-97484292D01*
X111819821Y-97549756D01*
X111804970Y-97618029D01*
X111783819Y-97646284D01*
X111661503Y-97768600D01*
X111525965Y-97962169D01*
X111525964Y-97962171D01*
X111426098Y-98176335D01*
X111426094Y-98176344D01*
X111364938Y-98404586D01*
X111364936Y-98404596D01*
X111344341Y-98639999D01*
X101500500Y-98639999D01*
X101500500Y-85339999D01*
X110944341Y-85339999D01*
X110944341Y-85340000D01*
X110964936Y-85575403D01*
X110964938Y-85575413D01*
X111026094Y-85803655D01*
X111026096Y-85803659D01*
X111026097Y-85803663D01*
X111089122Y-85938820D01*
X111125965Y-86017830D01*
X111125967Y-86017834D01*
X111261501Y-86211395D01*
X111261506Y-86211402D01*
X111428597Y-86378493D01*
X111428603Y-86378498D01*
X111614158Y-86508425D01*
X111657783Y-86563002D01*
X111664977Y-86632500D01*
X111633454Y-86694855D01*
X111614158Y-86711575D01*
X111428597Y-86841505D01*
X111261505Y-87008597D01*
X111125965Y-87202169D01*
X111125964Y-87202171D01*
X111089672Y-87280000D01*
X111027510Y-87413308D01*
X111026098Y-87416335D01*
X111026094Y-87416344D01*
X110964938Y-87644586D01*
X110964936Y-87644596D01*
X110944341Y-87879999D01*
X110944341Y-87880000D01*
X110964936Y-88115403D01*
X110964938Y-88115413D01*
X111026094Y-88343655D01*
X111026096Y-88343659D01*
X111026097Y-88343663D01*
X111075182Y-88448926D01*
X111125965Y-88557830D01*
X111125967Y-88557834D01*
X111185197Y-88642422D01*
X111261505Y-88751401D01*
X111428599Y-88918495D01*
X111511416Y-88976484D01*
X111622165Y-89054032D01*
X111622167Y-89054033D01*
X111622170Y-89054035D01*
X111836337Y-89153903D01*
X112064592Y-89215063D01*
X112252918Y-89231539D01*
X112299999Y-89235659D01*
X112300000Y-89235659D01*
X112300001Y-89235659D01*
X112339234Y-89232226D01*
X112535408Y-89215063D01*
X112763663Y-89153903D01*
X112977830Y-89054035D01*
X113171401Y-88918495D01*
X113338495Y-88751401D01*
X113474035Y-88557830D01*
X113573903Y-88343663D01*
X113635063Y-88115408D01*
X113655659Y-87880000D01*
X113635063Y-87644592D01*
X113573903Y-87416337D01*
X113474035Y-87202171D01*
X113467972Y-87193511D01*
X113338494Y-87008597D01*
X113171402Y-86841506D01*
X113171396Y-86841501D01*
X112985842Y-86711575D01*
X112942217Y-86656998D01*
X112935023Y-86587500D01*
X112966546Y-86525145D01*
X112985842Y-86508425D01*
X113087006Y-86437589D01*
X113171401Y-86378495D01*
X113338495Y-86211401D01*
X113474035Y-86017830D01*
X113573903Y-85803663D01*
X113635063Y-85575408D01*
X113655659Y-85340000D01*
X113635063Y-85104592D01*
X113573903Y-84876337D01*
X113474035Y-84662171D01*
X113467972Y-84653511D01*
X113338494Y-84468597D01*
X113171402Y-84301506D01*
X113171401Y-84301505D01*
X112985405Y-84171269D01*
X112941781Y-84116692D01*
X112934588Y-84047193D01*
X112966110Y-83984839D01*
X112985405Y-83968119D01*
X113171082Y-83838105D01*
X113338105Y-83671082D01*
X113473600Y-83477578D01*
X113573429Y-83263492D01*
X113573432Y-83263486D01*
X113630636Y-83050000D01*
X112733012Y-83050000D01*
X112765925Y-82992993D01*
X112800000Y-82865826D01*
X112800000Y-82734174D01*
X112765925Y-82607007D01*
X112733012Y-82550000D01*
X113630636Y-82550000D01*
X113630635Y-82549999D01*
X113573432Y-82336513D01*
X113573429Y-82336507D01*
X113473600Y-82122422D01*
X113473599Y-82122420D01*
X113338113Y-81928926D01*
X113338108Y-81928920D01*
X113216053Y-81806865D01*
X113182568Y-81745542D01*
X113187552Y-81675850D01*
X113229424Y-81619917D01*
X113260400Y-81603002D01*
X113392331Y-81553796D01*
X113507546Y-81467546D01*
X113593796Y-81352331D01*
X113644091Y-81217483D01*
X113650500Y-81157873D01*
X113650499Y-79362128D01*
X113644091Y-79302517D01*
X113593796Y-79167669D01*
X113593795Y-79167668D01*
X113593793Y-79167664D01*
X113507547Y-79052455D01*
X113507544Y-79052452D01*
X113392335Y-78966206D01*
X113392328Y-78966202D01*
X113257482Y-78915908D01*
X113257483Y-78915908D01*
X113197883Y-78909501D01*
X113197881Y-78909500D01*
X113197873Y-78909500D01*
X113197864Y-78909500D01*
X111402129Y-78909500D01*
X111402123Y-78909501D01*
X111342516Y-78915908D01*
X111207671Y-78966202D01*
X111207664Y-78966206D01*
X111092455Y-79052452D01*
X111092452Y-79052455D01*
X111006206Y-79167664D01*
X111006202Y-79167671D01*
X110955908Y-79302517D01*
X110949501Y-79362116D01*
X110949501Y-79362123D01*
X110949500Y-79362135D01*
X110949500Y-81157870D01*
X110949501Y-81157876D01*
X110955908Y-81217483D01*
X111006202Y-81352328D01*
X111006206Y-81352335D01*
X111092452Y-81467544D01*
X111092455Y-81467547D01*
X111207664Y-81553793D01*
X111207671Y-81553797D01*
X111224179Y-81559954D01*
X111339598Y-81603002D01*
X111395531Y-81644873D01*
X111419949Y-81710337D01*
X111405098Y-81778610D01*
X111383947Y-81806865D01*
X111261886Y-81928926D01*
X111126400Y-82122420D01*
X111126399Y-82122422D01*
X111026570Y-82336507D01*
X111026567Y-82336513D01*
X110969364Y-82549999D01*
X110969364Y-82550000D01*
X111866988Y-82550000D01*
X111834075Y-82607007D01*
X111800000Y-82734174D01*
X111800000Y-82865826D01*
X111834075Y-82992993D01*
X111866988Y-83050000D01*
X110969364Y-83050000D01*
X111026567Y-83263486D01*
X111026570Y-83263492D01*
X111126399Y-83477578D01*
X111261894Y-83671082D01*
X111428917Y-83838105D01*
X111614595Y-83968119D01*
X111658219Y-84022696D01*
X111665412Y-84092195D01*
X111633890Y-84154549D01*
X111614595Y-84171269D01*
X111428594Y-84301508D01*
X111261505Y-84468597D01*
X111125965Y-84662169D01*
X111125964Y-84662171D01*
X111064961Y-84792993D01*
X111027510Y-84873308D01*
X111026098Y-84876335D01*
X111026094Y-84876344D01*
X110964938Y-85104586D01*
X110964936Y-85104596D01*
X110944341Y-85339999D01*
X101500500Y-85339999D01*
X101500500Y-68624500D01*
X101520185Y-68557461D01*
X101572989Y-68511706D01*
X101624500Y-68500500D01*
X205375500Y-68500500D01*
X205442539Y-68520185D01*
G37*
G04 #@! TD.AperFunction*
M02*
