M48
; DRILL file {KiCad 8.0.6} date 2026-06-14T10:08:12+0530
; FORMAT={-:-/ absolute / metric / decimal}
; #@! TF.CreationDate,2026-06-14T10:08:12+05:30
; #@! TF.GenerationSoftware,Kicad,Pcbnew,8.0.6
; #@! TF.FileFunction,Plated,1,2,PTH
FMAT,2
METRIC
; #@! TA.AperFunction,Plated,PTH,ViaDrill
T1C0.300
; #@! TA.AperFunction,Plated,PTH,ComponentDrill
T2C1.000
; #@! TA.AperFunction,Plated,PTH,ComponentDrill
T3C2.400
%
G90
G05
T1
X119.3Y-102.3
X120.4Y-106.3
X121.4Y-84.5
X122.0Y-107.9
X122.5Y-111.6
X123.5Y-106.8
X123.5Y-119.7
X123.6Y-102.9
X124.1Y-86.0
X125.2Y-97.4
X139.3Y-102.8
X139.9Y-107.1
X140.1Y-109.7
X140.3Y-113.2
X144.2Y-109.3
X144.3Y-111.1
X146.2Y-127.4
X146.3Y-123.7
X149.1Y-102.1
T2
X112.15Y-112.1
X112.15Y-114.64
X112.15Y-117.18
X112.15Y-119.72
X112.3Y-80.26
X112.3Y-82.8
X112.3Y-85.34
X112.3Y-87.88
X112.7Y-96.1
X112.7Y-98.64
X112.7Y-101.18
X112.7Y-103.72
X116.8Y-112.1
X116.8Y-114.64
X116.8Y-117.18
X116.8Y-119.72
X116.95Y-80.26
X116.95Y-82.8
X116.95Y-85.34
X116.95Y-87.88
X117.35Y-96.1
X117.35Y-98.64
X117.35Y-101.18
X117.35Y-103.72
X127.6Y-82.56
X127.6Y-85.1
X127.6Y-87.64
X127.6Y-90.18
X127.6Y-92.72
X127.6Y-95.26
X127.6Y-97.8
X127.6Y-100.34
X127.6Y-102.88
X127.6Y-105.42
X127.6Y-107.96
X127.6Y-110.5
X127.6Y-113.04
X127.6Y-115.58
X127.6Y-118.12
X142.84Y-82.56
X142.84Y-85.1
X142.84Y-87.64
X142.84Y-90.18
X142.84Y-92.72
X142.84Y-95.26
X142.84Y-97.8
X142.84Y-100.34
X142.84Y-102.88
X142.84Y-105.42
X142.84Y-107.96
X142.84Y-110.5
X142.84Y-113.04
X142.84Y-115.58
X142.84Y-118.12
X152.55Y-86.78
X152.55Y-89.32
X152.55Y-91.86
X152.55Y-94.4
X152.55Y-96.94
X152.55Y-99.48
X152.55Y-102.02
X152.55Y-104.56
X152.55Y-107.1
X152.55Y-109.64
X152.55Y-112.18
X152.55Y-114.72
X157.2Y-86.78
X157.2Y-89.32
X157.2Y-91.86
X157.2Y-94.4
X157.2Y-96.94
X157.2Y-99.48
X157.2Y-102.02
X157.2Y-104.56
X157.2Y-107.1
X157.2Y-109.64
X157.2Y-112.18
X157.2Y-114.72
X161.85Y-86.78
X161.85Y-89.32
X161.85Y-91.86
X161.85Y-94.4
X161.85Y-96.94
X161.85Y-99.48
X161.85Y-102.02
X161.85Y-104.56
X161.85Y-107.1
X161.85Y-109.64
X161.85Y-112.18
X161.85Y-114.72
T3
X178.4Y-79.6
X191.1Y-79.6
M30
