G04 #@! TF.GenerationSoftware,KiCad,Pcbnew,8.0.6*
G04 #@! TF.CreationDate,2026-06-14T10:10:02+05:30*
G04 #@! TF.ProjectId,DumE,44756d45-2e6b-4696-9361-645f70636258,rev?*
G04 #@! TF.SameCoordinates,Original*
G04 #@! TF.FileFunction,Legend,Top*
G04 #@! TF.FilePolarity,Positive*
%FSLAX46Y46*%
G04 Gerber Fmt 4.6, Leading zero omitted, Abs format (unit mm)*
G04 Created by KiCad (PCBNEW 8.0.6) date 2026-06-14 10:10:02*
%MOMM*%
%LPD*%
G01*
G04 APERTURE LIST*
G04 Aperture macros list*
%AMRoundRect*
0 Rectangle with rounded corners*
0 $1 Rounding radius*
0 $2 $3 $4 $5 $6 $7 $8 $9 X,Y pos of 4 corners*
0 Add a 4 corners polygon primitive as box body*
4,1,4,$2,$3,$4,$5,$6,$7,$8,$9,$2,$3,0*
0 Add four circle primitives for the rounded corners*
1,1,$1+$1,$2,$3*
1,1,$1+$1,$4,$5*
1,1,$1+$1,$6,$7*
1,1,$1+$1,$8,$9*
0 Add four rect primitives between the rounded corners*
20,1,$1+$1,$2,$3,$4,$5,0*
20,1,$1+$1,$4,$5,$6,$7,0*
20,1,$1+$1,$6,$7,$8,$9,0*
20,1,$1+$1,$8,$9,$2,$3,0*%
G04 Aperture macros list end*
%ADD10C,0.300000*%
%ADD11C,0.150000*%
%ADD12C,0.000000*%
%ADD13C,0.120000*%
%ADD14C,2.600000*%
%ADD15R,3.000000X3.000000*%
%ADD16C,3.000000*%
%ADD17RoundRect,0.218750X-0.218750X-0.256250X0.218750X-0.256250X0.218750X0.256250X-0.218750X0.256250X0*%
%ADD18R,1.700000X1.700000*%
%ADD19O,1.700000X1.700000*%
%ADD20R,1.600000X1.600000*%
%ADD21O,1.600000X1.600000*%
%ADD22R,1.500000X1.500000*%
%ADD23RoundRect,0.200000X-0.200000X-0.275000X0.200000X-0.275000X0.200000X0.275000X-0.200000X0.275000X0*%
%ADD24R,1.200000X0.500000*%
%ADD25R,0.700000X0.700000*%
G04 APERTURE END LIST*
D10*
X105300828Y-134659774D02*
X106800828Y-134159774D01*
X106800828Y-134159774D02*
X105300828Y-133659774D01*
X105443685Y-133231203D02*
X105372257Y-133159775D01*
X105372257Y-133159775D02*
X105300828Y-133016918D01*
X105300828Y-133016918D02*
X105300828Y-132659775D01*
X105300828Y-132659775D02*
X105372257Y-132516918D01*
X105372257Y-132516918D02*
X105443685Y-132445489D01*
X105443685Y-132445489D02*
X105586542Y-132374060D01*
X105586542Y-132374060D02*
X105729400Y-132374060D01*
X105729400Y-132374060D02*
X105943685Y-132445489D01*
X105943685Y-132445489D02*
X106800828Y-133302632D01*
X106800828Y-133302632D02*
X106800828Y-132374060D01*
X106657971Y-131731204D02*
X106729400Y-131659775D01*
X106729400Y-131659775D02*
X106800828Y-131731204D01*
X106800828Y-131731204D02*
X106729400Y-131802632D01*
X106729400Y-131802632D02*
X106657971Y-131731204D01*
X106657971Y-131731204D02*
X106800828Y-131731204D01*
X106800828Y-130231203D02*
X106800828Y-131088346D01*
X106800828Y-130659775D02*
X105300828Y-130659775D01*
X105300828Y-130659775D02*
X105515114Y-130802632D01*
X105515114Y-130802632D02*
X105657971Y-130945489D01*
X105657971Y-130945489D02*
X105729400Y-131088346D01*
X103825304Y-133530951D02*
X103825304Y-134273808D01*
X103825304Y-133902380D02*
X102525304Y-133902380D01*
X102525304Y-133902380D02*
X102711019Y-134026189D01*
X102711019Y-134026189D02*
X102834828Y-134149999D01*
X102834828Y-134149999D02*
X102896733Y-134273808D01*
X102958638Y-132416666D02*
X103825304Y-132416666D01*
X102463400Y-132726190D02*
X103391971Y-133035713D01*
X103391971Y-133035713D02*
X103391971Y-132230952D01*
X102463400Y-130807142D02*
X104134828Y-131921428D01*
X102525304Y-130002380D02*
X103453876Y-130002380D01*
X103453876Y-130002380D02*
X103639590Y-130064285D01*
X103639590Y-130064285D02*
X103763400Y-130188094D01*
X103763400Y-130188094D02*
X103825304Y-130373809D01*
X103825304Y-130373809D02*
X103825304Y-130497618D01*
X102525304Y-129383333D02*
X103577685Y-129383333D01*
X103577685Y-129383333D02*
X103701495Y-129321428D01*
X103701495Y-129321428D02*
X103763400Y-129259523D01*
X103763400Y-129259523D02*
X103825304Y-129135714D01*
X103825304Y-129135714D02*
X103825304Y-128888095D01*
X103825304Y-128888095D02*
X103763400Y-128764285D01*
X103763400Y-128764285D02*
X103701495Y-128702380D01*
X103701495Y-128702380D02*
X103577685Y-128640476D01*
X103577685Y-128640476D02*
X102525304Y-128640476D01*
X103825304Y-128021428D02*
X102525304Y-128021428D01*
X102525304Y-128021428D02*
X103825304Y-127278571D01*
X103825304Y-127278571D02*
X102525304Y-127278571D01*
X103144352Y-126659523D02*
X103144352Y-126226189D01*
X103825304Y-126040475D02*
X103825304Y-126659523D01*
X103825304Y-126659523D02*
X102525304Y-126659523D01*
X102525304Y-126659523D02*
X102525304Y-126040475D01*
X102463400Y-124554761D02*
X104134828Y-125669047D01*
X102649114Y-124183332D02*
X102587209Y-124121428D01*
X102587209Y-124121428D02*
X102525304Y-123997618D01*
X102525304Y-123997618D02*
X102525304Y-123688094D01*
X102525304Y-123688094D02*
X102587209Y-123564285D01*
X102587209Y-123564285D02*
X102649114Y-123502380D01*
X102649114Y-123502380D02*
X102772923Y-123440475D01*
X102772923Y-123440475D02*
X102896733Y-123440475D01*
X102896733Y-123440475D02*
X103082447Y-123502380D01*
X103082447Y-123502380D02*
X103825304Y-124245237D01*
X103825304Y-124245237D02*
X103825304Y-123440475D01*
X102525304Y-122635714D02*
X102525304Y-122511904D01*
X102525304Y-122511904D02*
X102587209Y-122388095D01*
X102587209Y-122388095D02*
X102649114Y-122326190D01*
X102649114Y-122326190D02*
X102772923Y-122264285D01*
X102772923Y-122264285D02*
X103020542Y-122202380D01*
X103020542Y-122202380D02*
X103330066Y-122202380D01*
X103330066Y-122202380D02*
X103577685Y-122264285D01*
X103577685Y-122264285D02*
X103701495Y-122326190D01*
X103701495Y-122326190D02*
X103763400Y-122388095D01*
X103763400Y-122388095D02*
X103825304Y-122511904D01*
X103825304Y-122511904D02*
X103825304Y-122635714D01*
X103825304Y-122635714D02*
X103763400Y-122759523D01*
X103763400Y-122759523D02*
X103701495Y-122821428D01*
X103701495Y-122821428D02*
X103577685Y-122883333D01*
X103577685Y-122883333D02*
X103330066Y-122945237D01*
X103330066Y-122945237D02*
X103020542Y-122945237D01*
X103020542Y-122945237D02*
X102772923Y-122883333D01*
X102772923Y-122883333D02*
X102649114Y-122821428D01*
X102649114Y-122821428D02*
X102587209Y-122759523D01*
X102587209Y-122759523D02*
X102525304Y-122635714D01*
X102649114Y-121707142D02*
X102587209Y-121645238D01*
X102587209Y-121645238D02*
X102525304Y-121521428D01*
X102525304Y-121521428D02*
X102525304Y-121211904D01*
X102525304Y-121211904D02*
X102587209Y-121088095D01*
X102587209Y-121088095D02*
X102649114Y-121026190D01*
X102649114Y-121026190D02*
X102772923Y-120964285D01*
X102772923Y-120964285D02*
X102896733Y-120964285D01*
X102896733Y-120964285D02*
X103082447Y-121026190D01*
X103082447Y-121026190D02*
X103825304Y-121769047D01*
X103825304Y-121769047D02*
X103825304Y-120964285D01*
X102525304Y-119850000D02*
X102525304Y-120097619D01*
X102525304Y-120097619D02*
X102587209Y-120221428D01*
X102587209Y-120221428D02*
X102649114Y-120283333D01*
X102649114Y-120283333D02*
X102834828Y-120407143D01*
X102834828Y-120407143D02*
X103082447Y-120469047D01*
X103082447Y-120469047D02*
X103577685Y-120469047D01*
X103577685Y-120469047D02*
X103701495Y-120407143D01*
X103701495Y-120407143D02*
X103763400Y-120345238D01*
X103763400Y-120345238D02*
X103825304Y-120221428D01*
X103825304Y-120221428D02*
X103825304Y-119973809D01*
X103825304Y-119973809D02*
X103763400Y-119850000D01*
X103763400Y-119850000D02*
X103701495Y-119788095D01*
X103701495Y-119788095D02*
X103577685Y-119726190D01*
X103577685Y-119726190D02*
X103268161Y-119726190D01*
X103268161Y-119726190D02*
X103144352Y-119788095D01*
X103144352Y-119788095D02*
X103082447Y-119850000D01*
X103082447Y-119850000D02*
X103020542Y-119973809D01*
X103020542Y-119973809D02*
X103020542Y-120221428D01*
X103020542Y-120221428D02*
X103082447Y-120345238D01*
X103082447Y-120345238D02*
X103144352Y-120407143D01*
X103144352Y-120407143D02*
X103268161Y-120469047D01*
X185385912Y-113394060D02*
X185385912Y-113108346D01*
X185385912Y-113108346D02*
X185314484Y-112965489D01*
X185314484Y-112965489D02*
X185243055Y-112894060D01*
X185243055Y-112894060D02*
X185028769Y-112751203D01*
X185028769Y-112751203D02*
X184743055Y-112679774D01*
X184743055Y-112679774D02*
X184171626Y-112679774D01*
X184171626Y-112679774D02*
X184028769Y-112751203D01*
X184028769Y-112751203D02*
X183957341Y-112822632D01*
X183957341Y-112822632D02*
X183885912Y-112965489D01*
X183885912Y-112965489D02*
X183885912Y-113251203D01*
X183885912Y-113251203D02*
X183957341Y-113394060D01*
X183957341Y-113394060D02*
X184028769Y-113465489D01*
X184028769Y-113465489D02*
X184171626Y-113536917D01*
X184171626Y-113536917D02*
X184528769Y-113536917D01*
X184528769Y-113536917D02*
X184671626Y-113465489D01*
X184671626Y-113465489D02*
X184743055Y-113394060D01*
X184743055Y-113394060D02*
X184814484Y-113251203D01*
X184814484Y-113251203D02*
X184814484Y-112965489D01*
X184814484Y-112965489D02*
X184743055Y-112822632D01*
X184743055Y-112822632D02*
X184671626Y-112751203D01*
X184671626Y-112751203D02*
X184528769Y-112679774D01*
X183885912Y-112251203D02*
X185385912Y-111751203D01*
X185385912Y-111751203D02*
X183885912Y-111251203D01*
X184600198Y-109108347D02*
X184671626Y-108894061D01*
X184671626Y-108894061D02*
X184743055Y-108822632D01*
X184743055Y-108822632D02*
X184885912Y-108751204D01*
X184885912Y-108751204D02*
X185100198Y-108751204D01*
X185100198Y-108751204D02*
X185243055Y-108822632D01*
X185243055Y-108822632D02*
X185314484Y-108894061D01*
X185314484Y-108894061D02*
X185385912Y-109036918D01*
X185385912Y-109036918D02*
X185385912Y-109608347D01*
X185385912Y-109608347D02*
X183885912Y-109608347D01*
X183885912Y-109608347D02*
X183885912Y-109108347D01*
X183885912Y-109108347D02*
X183957341Y-108965490D01*
X183957341Y-108965490D02*
X184028769Y-108894061D01*
X184028769Y-108894061D02*
X184171626Y-108822632D01*
X184171626Y-108822632D02*
X184314484Y-108822632D01*
X184314484Y-108822632D02*
X184457341Y-108894061D01*
X184457341Y-108894061D02*
X184528769Y-108965490D01*
X184528769Y-108965490D02*
X184600198Y-109108347D01*
X184600198Y-109108347D02*
X184600198Y-109608347D01*
X184957341Y-108179775D02*
X184957341Y-107465490D01*
X185385912Y-108322632D02*
X183885912Y-107822632D01*
X183885912Y-107822632D02*
X185385912Y-107322632D01*
X183885912Y-107036918D02*
X183885912Y-106179776D01*
X185385912Y-106608347D02*
X183885912Y-106608347D01*
X183885912Y-105894061D02*
X183885912Y-105036919D01*
X185385912Y-105465490D02*
X183885912Y-105465490D01*
X184600198Y-104536919D02*
X184600198Y-104036919D01*
X185385912Y-103822633D02*
X185385912Y-104536919D01*
X185385912Y-104536919D02*
X183885912Y-104536919D01*
X183885912Y-104536919D02*
X183885912Y-103822633D01*
X185385912Y-102322633D02*
X184671626Y-102822633D01*
X185385912Y-103179776D02*
X183885912Y-103179776D01*
X183885912Y-103179776D02*
X183885912Y-102608347D01*
X183885912Y-102608347D02*
X183957341Y-102465490D01*
X183957341Y-102465490D02*
X184028769Y-102394061D01*
X184028769Y-102394061D02*
X184171626Y-102322633D01*
X184171626Y-102322633D02*
X184385912Y-102322633D01*
X184385912Y-102322633D02*
X184528769Y-102394061D01*
X184528769Y-102394061D02*
X184600198Y-102465490D01*
X184600198Y-102465490D02*
X184671626Y-102608347D01*
X184671626Y-102608347D02*
X184671626Y-103179776D01*
X184671626Y-101394061D02*
X185385912Y-101394061D01*
X183885912Y-101894061D02*
X184671626Y-101394061D01*
X184671626Y-101394061D02*
X183885912Y-100894061D01*
X187800828Y-113465489D02*
X186300828Y-113465489D01*
X187015114Y-113465489D02*
X187015114Y-112608346D01*
X187800828Y-112608346D02*
X186300828Y-112608346D01*
X186300828Y-111608345D02*
X186300828Y-111322631D01*
X186300828Y-111322631D02*
X186372257Y-111179774D01*
X186372257Y-111179774D02*
X186515114Y-111036917D01*
X186515114Y-111036917D02*
X186800828Y-110965488D01*
X186800828Y-110965488D02*
X187300828Y-110965488D01*
X187300828Y-110965488D02*
X187586542Y-111036917D01*
X187586542Y-111036917D02*
X187729400Y-111179774D01*
X187729400Y-111179774D02*
X187800828Y-111322631D01*
X187800828Y-111322631D02*
X187800828Y-111608345D01*
X187800828Y-111608345D02*
X187729400Y-111751203D01*
X187729400Y-111751203D02*
X187586542Y-111894060D01*
X187586542Y-111894060D02*
X187300828Y-111965488D01*
X187300828Y-111965488D02*
X186800828Y-111965488D01*
X186800828Y-111965488D02*
X186515114Y-111894060D01*
X186515114Y-111894060D02*
X186372257Y-111751203D01*
X186372257Y-111751203D02*
X186300828Y-111608345D01*
X187800828Y-109608345D02*
X187800828Y-110322631D01*
X187800828Y-110322631D02*
X186300828Y-110322631D01*
X187800828Y-109108345D02*
X186300828Y-109108345D01*
X186300828Y-109108345D02*
X186300828Y-108751202D01*
X186300828Y-108751202D02*
X186372257Y-108536916D01*
X186372257Y-108536916D02*
X186515114Y-108394059D01*
X186515114Y-108394059D02*
X186657971Y-108322630D01*
X186657971Y-108322630D02*
X186943685Y-108251202D01*
X186943685Y-108251202D02*
X187157971Y-108251202D01*
X187157971Y-108251202D02*
X187443685Y-108322630D01*
X187443685Y-108322630D02*
X187586542Y-108394059D01*
X187586542Y-108394059D02*
X187729400Y-108536916D01*
X187729400Y-108536916D02*
X187800828Y-108751202D01*
X187800828Y-108751202D02*
X187800828Y-109108345D01*
X187015114Y-107608345D02*
X187015114Y-107108345D01*
X187800828Y-106894059D02*
X187800828Y-107608345D01*
X187800828Y-107608345D02*
X186300828Y-107608345D01*
X186300828Y-107608345D02*
X186300828Y-106894059D01*
X187800828Y-105394059D02*
X187086542Y-105894059D01*
X187800828Y-106251202D02*
X186300828Y-106251202D01*
X186300828Y-106251202D02*
X186300828Y-105679773D01*
X186300828Y-105679773D02*
X186372257Y-105536916D01*
X186372257Y-105536916D02*
X186443685Y-105465487D01*
X186443685Y-105465487D02*
X186586542Y-105394059D01*
X186586542Y-105394059D02*
X186800828Y-105394059D01*
X186800828Y-105394059D02*
X186943685Y-105465487D01*
X186943685Y-105465487D02*
X187015114Y-105536916D01*
X187015114Y-105536916D02*
X187086542Y-105679773D01*
X187086542Y-105679773D02*
X187086542Y-106251202D01*
D11*
X166901009Y-104515714D02*
X166948628Y-104372857D01*
X166948628Y-104372857D02*
X166996247Y-104325238D01*
X166996247Y-104325238D02*
X167091485Y-104277619D01*
X167091485Y-104277619D02*
X167234342Y-104277619D01*
X167234342Y-104277619D02*
X167329580Y-104325238D01*
X167329580Y-104325238D02*
X167377200Y-104372857D01*
X167377200Y-104372857D02*
X167424819Y-104468095D01*
X167424819Y-104468095D02*
X167424819Y-104849047D01*
X167424819Y-104849047D02*
X166424819Y-104849047D01*
X166424819Y-104849047D02*
X166424819Y-104515714D01*
X166424819Y-104515714D02*
X166472438Y-104420476D01*
X166472438Y-104420476D02*
X166520057Y-104372857D01*
X166520057Y-104372857D02*
X166615295Y-104325238D01*
X166615295Y-104325238D02*
X166710533Y-104325238D01*
X166710533Y-104325238D02*
X166805771Y-104372857D01*
X166805771Y-104372857D02*
X166853390Y-104420476D01*
X166853390Y-104420476D02*
X166901009Y-104515714D01*
X166901009Y-104515714D02*
X166901009Y-104849047D01*
X166424819Y-103991904D02*
X166424819Y-103420476D01*
X167424819Y-103706190D02*
X166424819Y-103706190D01*
X167424819Y-102563333D02*
X167424819Y-103134761D01*
X167424819Y-102849047D02*
X166424819Y-102849047D01*
X166424819Y-102849047D02*
X166567676Y-102944285D01*
X166567676Y-102944285D02*
X166662914Y-103039523D01*
X166662914Y-103039523D02*
X166710533Y-103134761D01*
X142361905Y-73024819D02*
X142361905Y-72024819D01*
X142361905Y-72024819D02*
X142600000Y-72024819D01*
X142600000Y-72024819D02*
X142742857Y-72072438D01*
X142742857Y-72072438D02*
X142838095Y-72167676D01*
X142838095Y-72167676D02*
X142885714Y-72262914D01*
X142885714Y-72262914D02*
X142933333Y-72453390D01*
X142933333Y-72453390D02*
X142933333Y-72596247D01*
X142933333Y-72596247D02*
X142885714Y-72786723D01*
X142885714Y-72786723D02*
X142838095Y-72881961D01*
X142838095Y-72881961D02*
X142742857Y-72977200D01*
X142742857Y-72977200D02*
X142600000Y-73024819D01*
X142600000Y-73024819D02*
X142361905Y-73024819D01*
X143885714Y-73024819D02*
X143314286Y-73024819D01*
X143600000Y-73024819D02*
X143600000Y-72024819D01*
X143600000Y-72024819D02*
X143504762Y-72167676D01*
X143504762Y-72167676D02*
X143409524Y-72262914D01*
X143409524Y-72262914D02*
X143314286Y-72310533D01*
X111395238Y-76944819D02*
X111395238Y-77659104D01*
X111395238Y-77659104D02*
X111347619Y-77801961D01*
X111347619Y-77801961D02*
X111252381Y-77897200D01*
X111252381Y-77897200D02*
X111109524Y-77944819D01*
X111109524Y-77944819D02*
X111014286Y-77944819D01*
X111871429Y-77944819D02*
X111871429Y-76944819D01*
X111871429Y-76944819D02*
X112204762Y-77659104D01*
X112204762Y-77659104D02*
X112538095Y-76944819D01*
X112538095Y-76944819D02*
X112538095Y-77944819D01*
X112919048Y-76944819D02*
X113538095Y-76944819D01*
X113538095Y-76944819D02*
X113204762Y-77325771D01*
X113204762Y-77325771D02*
X113347619Y-77325771D01*
X113347619Y-77325771D02*
X113442857Y-77373390D01*
X113442857Y-77373390D02*
X113490476Y-77421009D01*
X113490476Y-77421009D02*
X113538095Y-77516247D01*
X113538095Y-77516247D02*
X113538095Y-77754342D01*
X113538095Y-77754342D02*
X113490476Y-77849580D01*
X113490476Y-77849580D02*
X113442857Y-77897200D01*
X113442857Y-77897200D02*
X113347619Y-77944819D01*
X113347619Y-77944819D02*
X113061905Y-77944819D01*
X113061905Y-77944819D02*
X112966667Y-77897200D01*
X112966667Y-77897200D02*
X112919048Y-77849580D01*
X157060714Y-80669104D02*
X157536904Y-80669104D01*
X156965476Y-80954819D02*
X157298809Y-79954819D01*
X157298809Y-79954819D02*
X157632142Y-80954819D01*
X158489285Y-80954819D02*
X157917857Y-80954819D01*
X158203571Y-80954819D02*
X158203571Y-79954819D01*
X158203571Y-79954819D02*
X158108333Y-80097676D01*
X158108333Y-80097676D02*
X158013095Y-80192914D01*
X158013095Y-80192914D02*
X157917857Y-80240533D01*
X133958095Y-117574819D02*
X133958095Y-118384342D01*
X133958095Y-118384342D02*
X134005714Y-118479580D01*
X134005714Y-118479580D02*
X134053333Y-118527200D01*
X134053333Y-118527200D02*
X134148571Y-118574819D01*
X134148571Y-118574819D02*
X134339047Y-118574819D01*
X134339047Y-118574819D02*
X134434285Y-118527200D01*
X134434285Y-118527200D02*
X134481904Y-118479580D01*
X134481904Y-118479580D02*
X134529523Y-118384342D01*
X134529523Y-118384342D02*
X134529523Y-117574819D01*
X134958095Y-118527200D02*
X135100952Y-118574819D01*
X135100952Y-118574819D02*
X135339047Y-118574819D01*
X135339047Y-118574819D02*
X135434285Y-118527200D01*
X135434285Y-118527200D02*
X135481904Y-118479580D01*
X135481904Y-118479580D02*
X135529523Y-118384342D01*
X135529523Y-118384342D02*
X135529523Y-118289104D01*
X135529523Y-118289104D02*
X135481904Y-118193866D01*
X135481904Y-118193866D02*
X135434285Y-118146247D01*
X135434285Y-118146247D02*
X135339047Y-118098628D01*
X135339047Y-118098628D02*
X135148571Y-118051009D01*
X135148571Y-118051009D02*
X135053333Y-118003390D01*
X135053333Y-118003390D02*
X135005714Y-117955771D01*
X135005714Y-117955771D02*
X134958095Y-117860533D01*
X134958095Y-117860533D02*
X134958095Y-117765295D01*
X134958095Y-117765295D02*
X135005714Y-117670057D01*
X135005714Y-117670057D02*
X135053333Y-117622438D01*
X135053333Y-117622438D02*
X135148571Y-117574819D01*
X135148571Y-117574819D02*
X135386666Y-117574819D01*
X135386666Y-117574819D02*
X135529523Y-117622438D01*
X136291428Y-118051009D02*
X136434285Y-118098628D01*
X136434285Y-118098628D02*
X136481904Y-118146247D01*
X136481904Y-118146247D02*
X136529523Y-118241485D01*
X136529523Y-118241485D02*
X136529523Y-118384342D01*
X136529523Y-118384342D02*
X136481904Y-118479580D01*
X136481904Y-118479580D02*
X136434285Y-118527200D01*
X136434285Y-118527200D02*
X136339047Y-118574819D01*
X136339047Y-118574819D02*
X135958095Y-118574819D01*
X135958095Y-118574819D02*
X135958095Y-117574819D01*
X135958095Y-117574819D02*
X136291428Y-117574819D01*
X136291428Y-117574819D02*
X136386666Y-117622438D01*
X136386666Y-117622438D02*
X136434285Y-117670057D01*
X136434285Y-117670057D02*
X136481904Y-117765295D01*
X136481904Y-117765295D02*
X136481904Y-117860533D01*
X136481904Y-117860533D02*
X136434285Y-117955771D01*
X136434285Y-117955771D02*
X136386666Y-118003390D01*
X136386666Y-118003390D02*
X136291428Y-118051009D01*
X136291428Y-118051009D02*
X135958095Y-118051009D01*
X116445238Y-92784819D02*
X116445238Y-93499104D01*
X116445238Y-93499104D02*
X116397619Y-93641961D01*
X116397619Y-93641961D02*
X116302381Y-93737200D01*
X116302381Y-93737200D02*
X116159524Y-93784819D01*
X116159524Y-93784819D02*
X116064286Y-93784819D01*
X116921429Y-93784819D02*
X116921429Y-92784819D01*
X116921429Y-92784819D02*
X117254762Y-93499104D01*
X117254762Y-93499104D02*
X117588095Y-92784819D01*
X117588095Y-92784819D02*
X117588095Y-93784819D01*
X118492857Y-92784819D02*
X118302381Y-92784819D01*
X118302381Y-92784819D02*
X118207143Y-92832438D01*
X118207143Y-92832438D02*
X118159524Y-92880057D01*
X118159524Y-92880057D02*
X118064286Y-93022914D01*
X118064286Y-93022914D02*
X118016667Y-93213390D01*
X118016667Y-93213390D02*
X118016667Y-93594342D01*
X118016667Y-93594342D02*
X118064286Y-93689580D01*
X118064286Y-93689580D02*
X118111905Y-93737200D01*
X118111905Y-93737200D02*
X118207143Y-93784819D01*
X118207143Y-93784819D02*
X118397619Y-93784819D01*
X118397619Y-93784819D02*
X118492857Y-93737200D01*
X118492857Y-93737200D02*
X118540476Y-93689580D01*
X118540476Y-93689580D02*
X118588095Y-93594342D01*
X118588095Y-93594342D02*
X118588095Y-93356247D01*
X118588095Y-93356247D02*
X118540476Y-93261009D01*
X118540476Y-93261009D02*
X118492857Y-93213390D01*
X118492857Y-93213390D02*
X118397619Y-93165771D01*
X118397619Y-93165771D02*
X118207143Y-93165771D01*
X118207143Y-93165771D02*
X118111905Y-93213390D01*
X118111905Y-93213390D02*
X118064286Y-93261009D01*
X118064286Y-93261009D02*
X118016667Y-93356247D01*
X111795238Y-92784819D02*
X111795238Y-93499104D01*
X111795238Y-93499104D02*
X111747619Y-93641961D01*
X111747619Y-93641961D02*
X111652381Y-93737200D01*
X111652381Y-93737200D02*
X111509524Y-93784819D01*
X111509524Y-93784819D02*
X111414286Y-93784819D01*
X112271429Y-93784819D02*
X112271429Y-92784819D01*
X112271429Y-92784819D02*
X112604762Y-93499104D01*
X112604762Y-93499104D02*
X112938095Y-92784819D01*
X112938095Y-92784819D02*
X112938095Y-93784819D01*
X113890476Y-92784819D02*
X113414286Y-92784819D01*
X113414286Y-92784819D02*
X113366667Y-93261009D01*
X113366667Y-93261009D02*
X113414286Y-93213390D01*
X113414286Y-93213390D02*
X113509524Y-93165771D01*
X113509524Y-93165771D02*
X113747619Y-93165771D01*
X113747619Y-93165771D02*
X113842857Y-93213390D01*
X113842857Y-93213390D02*
X113890476Y-93261009D01*
X113890476Y-93261009D02*
X113938095Y-93356247D01*
X113938095Y-93356247D02*
X113938095Y-93594342D01*
X113938095Y-93594342D02*
X113890476Y-93689580D01*
X113890476Y-93689580D02*
X113842857Y-93737200D01*
X113842857Y-93737200D02*
X113747619Y-93784819D01*
X113747619Y-93784819D02*
X113509524Y-93784819D01*
X113509524Y-93784819D02*
X113414286Y-93737200D01*
X113414286Y-93737200D02*
X113366667Y-93689580D01*
X116045238Y-76944819D02*
X116045238Y-77659104D01*
X116045238Y-77659104D02*
X115997619Y-77801961D01*
X115997619Y-77801961D02*
X115902381Y-77897200D01*
X115902381Y-77897200D02*
X115759524Y-77944819D01*
X115759524Y-77944819D02*
X115664286Y-77944819D01*
X116521429Y-77944819D02*
X116521429Y-76944819D01*
X116521429Y-76944819D02*
X116854762Y-77659104D01*
X116854762Y-77659104D02*
X117188095Y-76944819D01*
X117188095Y-76944819D02*
X117188095Y-77944819D01*
X118092857Y-77278152D02*
X118092857Y-77944819D01*
X117854762Y-76897200D02*
X117616667Y-77611485D01*
X117616667Y-77611485D02*
X118235714Y-77611485D01*
X127466667Y-126807200D02*
X127609524Y-126854819D01*
X127609524Y-126854819D02*
X127847619Y-126854819D01*
X127847619Y-126854819D02*
X127942857Y-126807200D01*
X127942857Y-126807200D02*
X127990476Y-126759580D01*
X127990476Y-126759580D02*
X128038095Y-126664342D01*
X128038095Y-126664342D02*
X128038095Y-126569104D01*
X128038095Y-126569104D02*
X127990476Y-126473866D01*
X127990476Y-126473866D02*
X127942857Y-126426247D01*
X127942857Y-126426247D02*
X127847619Y-126378628D01*
X127847619Y-126378628D02*
X127657143Y-126331009D01*
X127657143Y-126331009D02*
X127561905Y-126283390D01*
X127561905Y-126283390D02*
X127514286Y-126235771D01*
X127514286Y-126235771D02*
X127466667Y-126140533D01*
X127466667Y-126140533D02*
X127466667Y-126045295D01*
X127466667Y-126045295D02*
X127514286Y-125950057D01*
X127514286Y-125950057D02*
X127561905Y-125902438D01*
X127561905Y-125902438D02*
X127657143Y-125854819D01*
X127657143Y-125854819D02*
X127895238Y-125854819D01*
X127895238Y-125854819D02*
X128038095Y-125902438D01*
X128371429Y-125854819D02*
X128609524Y-126854819D01*
X128609524Y-126854819D02*
X128800000Y-126140533D01*
X128800000Y-126140533D02*
X128990476Y-126854819D01*
X128990476Y-126854819D02*
X129228572Y-125854819D01*
X130133333Y-126854819D02*
X129561905Y-126854819D01*
X129847619Y-126854819D02*
X129847619Y-125854819D01*
X129847619Y-125854819D02*
X129752381Y-125997676D01*
X129752381Y-125997676D02*
X129657143Y-126092914D01*
X129657143Y-126092914D02*
X129561905Y-126140533D01*
X157133333Y-121924819D02*
X156800000Y-121448628D01*
X156561905Y-121924819D02*
X156561905Y-120924819D01*
X156561905Y-120924819D02*
X156942857Y-120924819D01*
X156942857Y-120924819D02*
X157038095Y-120972438D01*
X157038095Y-120972438D02*
X157085714Y-121020057D01*
X157085714Y-121020057D02*
X157133333Y-121115295D01*
X157133333Y-121115295D02*
X157133333Y-121258152D01*
X157133333Y-121258152D02*
X157085714Y-121353390D01*
X157085714Y-121353390D02*
X157038095Y-121401009D01*
X157038095Y-121401009D02*
X156942857Y-121448628D01*
X156942857Y-121448628D02*
X156561905Y-121448628D01*
X158085714Y-121924819D02*
X157514286Y-121924819D01*
X157800000Y-121924819D02*
X157800000Y-120924819D01*
X157800000Y-120924819D02*
X157704762Y-121067676D01*
X157704762Y-121067676D02*
X157609524Y-121162914D01*
X157609524Y-121162914D02*
X157514286Y-121210533D01*
X142466667Y-126307200D02*
X142609524Y-126354819D01*
X142609524Y-126354819D02*
X142847619Y-126354819D01*
X142847619Y-126354819D02*
X142942857Y-126307200D01*
X142942857Y-126307200D02*
X142990476Y-126259580D01*
X142990476Y-126259580D02*
X143038095Y-126164342D01*
X143038095Y-126164342D02*
X143038095Y-126069104D01*
X143038095Y-126069104D02*
X142990476Y-125973866D01*
X142990476Y-125973866D02*
X142942857Y-125926247D01*
X142942857Y-125926247D02*
X142847619Y-125878628D01*
X142847619Y-125878628D02*
X142657143Y-125831009D01*
X142657143Y-125831009D02*
X142561905Y-125783390D01*
X142561905Y-125783390D02*
X142514286Y-125735771D01*
X142514286Y-125735771D02*
X142466667Y-125640533D01*
X142466667Y-125640533D02*
X142466667Y-125545295D01*
X142466667Y-125545295D02*
X142514286Y-125450057D01*
X142514286Y-125450057D02*
X142561905Y-125402438D01*
X142561905Y-125402438D02*
X142657143Y-125354819D01*
X142657143Y-125354819D02*
X142895238Y-125354819D01*
X142895238Y-125354819D02*
X143038095Y-125402438D01*
X143371429Y-125354819D02*
X143609524Y-126354819D01*
X143609524Y-126354819D02*
X143800000Y-125640533D01*
X143800000Y-125640533D02*
X143990476Y-126354819D01*
X143990476Y-126354819D02*
X144228572Y-125354819D01*
X144561905Y-125450057D02*
X144609524Y-125402438D01*
X144609524Y-125402438D02*
X144704762Y-125354819D01*
X144704762Y-125354819D02*
X144942857Y-125354819D01*
X144942857Y-125354819D02*
X145038095Y-125402438D01*
X145038095Y-125402438D02*
X145085714Y-125450057D01*
X145085714Y-125450057D02*
X145133333Y-125545295D01*
X145133333Y-125545295D02*
X145133333Y-125640533D01*
X145133333Y-125640533D02*
X145085714Y-125783390D01*
X145085714Y-125783390D02*
X144514286Y-126354819D01*
X144514286Y-126354819D02*
X145133333Y-126354819D01*
X157333333Y-118054819D02*
X157000000Y-117578628D01*
X156761905Y-118054819D02*
X156761905Y-117054819D01*
X156761905Y-117054819D02*
X157142857Y-117054819D01*
X157142857Y-117054819D02*
X157238095Y-117102438D01*
X157238095Y-117102438D02*
X157285714Y-117150057D01*
X157285714Y-117150057D02*
X157333333Y-117245295D01*
X157333333Y-117245295D02*
X157333333Y-117388152D01*
X157333333Y-117388152D02*
X157285714Y-117483390D01*
X157285714Y-117483390D02*
X157238095Y-117531009D01*
X157238095Y-117531009D02*
X157142857Y-117578628D01*
X157142857Y-117578628D02*
X156761905Y-117578628D01*
X157714286Y-117150057D02*
X157761905Y-117102438D01*
X157761905Y-117102438D02*
X157857143Y-117054819D01*
X157857143Y-117054819D02*
X158095238Y-117054819D01*
X158095238Y-117054819D02*
X158190476Y-117102438D01*
X158190476Y-117102438D02*
X158238095Y-117150057D01*
X158238095Y-117150057D02*
X158285714Y-117245295D01*
X158285714Y-117245295D02*
X158285714Y-117340533D01*
X158285714Y-117340533D02*
X158238095Y-117483390D01*
X158238095Y-117483390D02*
X157666667Y-118054819D01*
X157666667Y-118054819D02*
X158285714Y-118054819D01*
X111245238Y-108784819D02*
X111245238Y-109499104D01*
X111245238Y-109499104D02*
X111197619Y-109641961D01*
X111197619Y-109641961D02*
X111102381Y-109737200D01*
X111102381Y-109737200D02*
X110959524Y-109784819D01*
X110959524Y-109784819D02*
X110864286Y-109784819D01*
X111721429Y-109784819D02*
X111721429Y-108784819D01*
X111721429Y-108784819D02*
X112054762Y-109499104D01*
X112054762Y-109499104D02*
X112388095Y-108784819D01*
X112388095Y-108784819D02*
X112388095Y-109784819D01*
X112769048Y-108784819D02*
X113435714Y-108784819D01*
X113435714Y-108784819D02*
X113007143Y-109784819D01*
X161016666Y-83904819D02*
X161016666Y-84619104D01*
X161016666Y-84619104D02*
X160969047Y-84761961D01*
X160969047Y-84761961D02*
X160873809Y-84857200D01*
X160873809Y-84857200D02*
X160730952Y-84904819D01*
X160730952Y-84904819D02*
X160635714Y-84904819D01*
X161492857Y-84904819D02*
X161492857Y-83904819D01*
X161492857Y-83904819D02*
X161873809Y-83904819D01*
X161873809Y-83904819D02*
X161969047Y-83952438D01*
X161969047Y-83952438D02*
X162016666Y-84000057D01*
X162016666Y-84000057D02*
X162064285Y-84095295D01*
X162064285Y-84095295D02*
X162064285Y-84238152D01*
X162064285Y-84238152D02*
X162016666Y-84333390D01*
X162016666Y-84333390D02*
X161969047Y-84381009D01*
X161969047Y-84381009D02*
X161873809Y-84428628D01*
X161873809Y-84428628D02*
X161492857Y-84428628D01*
X162397619Y-83904819D02*
X163016666Y-83904819D01*
X163016666Y-83904819D02*
X162683333Y-84285771D01*
X162683333Y-84285771D02*
X162826190Y-84285771D01*
X162826190Y-84285771D02*
X162921428Y-84333390D01*
X162921428Y-84333390D02*
X162969047Y-84381009D01*
X162969047Y-84381009D02*
X163016666Y-84476247D01*
X163016666Y-84476247D02*
X163016666Y-84714342D01*
X163016666Y-84714342D02*
X162969047Y-84809580D01*
X162969047Y-84809580D02*
X162921428Y-84857200D01*
X162921428Y-84857200D02*
X162826190Y-84904819D01*
X162826190Y-84904819D02*
X162540476Y-84904819D01*
X162540476Y-84904819D02*
X162445238Y-84857200D01*
X162445238Y-84857200D02*
X162397619Y-84809580D01*
X151716666Y-83904819D02*
X151716666Y-84619104D01*
X151716666Y-84619104D02*
X151669047Y-84761961D01*
X151669047Y-84761961D02*
X151573809Y-84857200D01*
X151573809Y-84857200D02*
X151430952Y-84904819D01*
X151430952Y-84904819D02*
X151335714Y-84904819D01*
X152192857Y-84904819D02*
X152192857Y-83904819D01*
X152192857Y-83904819D02*
X152573809Y-83904819D01*
X152573809Y-83904819D02*
X152669047Y-83952438D01*
X152669047Y-83952438D02*
X152716666Y-84000057D01*
X152716666Y-84000057D02*
X152764285Y-84095295D01*
X152764285Y-84095295D02*
X152764285Y-84238152D01*
X152764285Y-84238152D02*
X152716666Y-84333390D01*
X152716666Y-84333390D02*
X152669047Y-84381009D01*
X152669047Y-84381009D02*
X152573809Y-84428628D01*
X152573809Y-84428628D02*
X152192857Y-84428628D01*
X153716666Y-84904819D02*
X153145238Y-84904819D01*
X153430952Y-84904819D02*
X153430952Y-83904819D01*
X153430952Y-83904819D02*
X153335714Y-84047676D01*
X153335714Y-84047676D02*
X153240476Y-84142914D01*
X153240476Y-84142914D02*
X153145238Y-84190533D01*
X156366666Y-83904819D02*
X156366666Y-84619104D01*
X156366666Y-84619104D02*
X156319047Y-84761961D01*
X156319047Y-84761961D02*
X156223809Y-84857200D01*
X156223809Y-84857200D02*
X156080952Y-84904819D01*
X156080952Y-84904819D02*
X155985714Y-84904819D01*
X156842857Y-84904819D02*
X156842857Y-83904819D01*
X156842857Y-83904819D02*
X157223809Y-83904819D01*
X157223809Y-83904819D02*
X157319047Y-83952438D01*
X157319047Y-83952438D02*
X157366666Y-84000057D01*
X157366666Y-84000057D02*
X157414285Y-84095295D01*
X157414285Y-84095295D02*
X157414285Y-84238152D01*
X157414285Y-84238152D02*
X157366666Y-84333390D01*
X157366666Y-84333390D02*
X157319047Y-84381009D01*
X157319047Y-84381009D02*
X157223809Y-84428628D01*
X157223809Y-84428628D02*
X156842857Y-84428628D01*
X157795238Y-84000057D02*
X157842857Y-83952438D01*
X157842857Y-83952438D02*
X157938095Y-83904819D01*
X157938095Y-83904819D02*
X158176190Y-83904819D01*
X158176190Y-83904819D02*
X158271428Y-83952438D01*
X158271428Y-83952438D02*
X158319047Y-84000057D01*
X158319047Y-84000057D02*
X158366666Y-84095295D01*
X158366666Y-84095295D02*
X158366666Y-84190533D01*
X158366666Y-84190533D02*
X158319047Y-84333390D01*
X158319047Y-84333390D02*
X157747619Y-84904819D01*
X157747619Y-84904819D02*
X158366666Y-84904819D01*
X134166667Y-71607200D02*
X134309524Y-71654819D01*
X134309524Y-71654819D02*
X134547619Y-71654819D01*
X134547619Y-71654819D02*
X134642857Y-71607200D01*
X134642857Y-71607200D02*
X134690476Y-71559580D01*
X134690476Y-71559580D02*
X134738095Y-71464342D01*
X134738095Y-71464342D02*
X134738095Y-71369104D01*
X134738095Y-71369104D02*
X134690476Y-71273866D01*
X134690476Y-71273866D02*
X134642857Y-71226247D01*
X134642857Y-71226247D02*
X134547619Y-71178628D01*
X134547619Y-71178628D02*
X134357143Y-71131009D01*
X134357143Y-71131009D02*
X134261905Y-71083390D01*
X134261905Y-71083390D02*
X134214286Y-71035771D01*
X134214286Y-71035771D02*
X134166667Y-70940533D01*
X134166667Y-70940533D02*
X134166667Y-70845295D01*
X134166667Y-70845295D02*
X134214286Y-70750057D01*
X134214286Y-70750057D02*
X134261905Y-70702438D01*
X134261905Y-70702438D02*
X134357143Y-70654819D01*
X134357143Y-70654819D02*
X134595238Y-70654819D01*
X134595238Y-70654819D02*
X134738095Y-70702438D01*
X135071429Y-70654819D02*
X135309524Y-71654819D01*
X135309524Y-71654819D02*
X135500000Y-70940533D01*
X135500000Y-70940533D02*
X135690476Y-71654819D01*
X135690476Y-71654819D02*
X135928572Y-70654819D01*
X136214286Y-70654819D02*
X136833333Y-70654819D01*
X136833333Y-70654819D02*
X136500000Y-71035771D01*
X136500000Y-71035771D02*
X136642857Y-71035771D01*
X136642857Y-71035771D02*
X136738095Y-71083390D01*
X136738095Y-71083390D02*
X136785714Y-71131009D01*
X136785714Y-71131009D02*
X136833333Y-71226247D01*
X136833333Y-71226247D02*
X136833333Y-71464342D01*
X136833333Y-71464342D02*
X136785714Y-71559580D01*
X136785714Y-71559580D02*
X136738095Y-71607200D01*
X136738095Y-71607200D02*
X136642857Y-71654819D01*
X136642857Y-71654819D02*
X136357143Y-71654819D01*
X136357143Y-71654819D02*
X136261905Y-71607200D01*
X136261905Y-71607200D02*
X136214286Y-71559580D01*
X115895238Y-108784819D02*
X115895238Y-109499104D01*
X115895238Y-109499104D02*
X115847619Y-109641961D01*
X115847619Y-109641961D02*
X115752381Y-109737200D01*
X115752381Y-109737200D02*
X115609524Y-109784819D01*
X115609524Y-109784819D02*
X115514286Y-109784819D01*
X116371429Y-109784819D02*
X116371429Y-108784819D01*
X116371429Y-108784819D02*
X116704762Y-109499104D01*
X116704762Y-109499104D02*
X117038095Y-108784819D01*
X117038095Y-108784819D02*
X117038095Y-109784819D01*
X117657143Y-109213390D02*
X117561905Y-109165771D01*
X117561905Y-109165771D02*
X117514286Y-109118152D01*
X117514286Y-109118152D02*
X117466667Y-109022914D01*
X117466667Y-109022914D02*
X117466667Y-108975295D01*
X117466667Y-108975295D02*
X117514286Y-108880057D01*
X117514286Y-108880057D02*
X117561905Y-108832438D01*
X117561905Y-108832438D02*
X117657143Y-108784819D01*
X117657143Y-108784819D02*
X117847619Y-108784819D01*
X117847619Y-108784819D02*
X117942857Y-108832438D01*
X117942857Y-108832438D02*
X117990476Y-108880057D01*
X117990476Y-108880057D02*
X118038095Y-108975295D01*
X118038095Y-108975295D02*
X118038095Y-109022914D01*
X118038095Y-109022914D02*
X117990476Y-109118152D01*
X117990476Y-109118152D02*
X117942857Y-109165771D01*
X117942857Y-109165771D02*
X117847619Y-109213390D01*
X117847619Y-109213390D02*
X117657143Y-109213390D01*
X117657143Y-109213390D02*
X117561905Y-109261009D01*
X117561905Y-109261009D02*
X117514286Y-109308628D01*
X117514286Y-109308628D02*
X117466667Y-109403866D01*
X117466667Y-109403866D02*
X117466667Y-109594342D01*
X117466667Y-109594342D02*
X117514286Y-109689580D01*
X117514286Y-109689580D02*
X117561905Y-109737200D01*
X117561905Y-109737200D02*
X117657143Y-109784819D01*
X117657143Y-109784819D02*
X117847619Y-109784819D01*
X117847619Y-109784819D02*
X117942857Y-109737200D01*
X117942857Y-109737200D02*
X117990476Y-109689580D01*
X117990476Y-109689580D02*
X118038095Y-109594342D01*
X118038095Y-109594342D02*
X118038095Y-109403866D01*
X118038095Y-109403866D02*
X117990476Y-109308628D01*
X117990476Y-109308628D02*
X117942857Y-109261009D01*
X117942857Y-109261009D02*
X117847619Y-109213390D01*
D12*
G36*
X111071701Y-132108086D02*
G01*
X111132279Y-132111951D01*
X111187809Y-132118455D01*
X111232323Y-132127462D01*
X111239266Y-132129516D01*
X111309207Y-132151766D01*
X111317255Y-132691565D01*
X111319241Y-132808803D01*
X111321596Y-132921102D01*
X111324223Y-133025376D01*
X111327024Y-133118539D01*
X111329902Y-133197506D01*
X111332761Y-133259192D01*
X111335502Y-133300510D01*
X111336811Y-133312653D01*
X111340971Y-133351658D01*
X111345437Y-133409892D01*
X111349848Y-133481583D01*
X111353846Y-133560957D01*
X111356747Y-133632873D01*
X111365176Y-133871803D01*
X111270377Y-133867363D01*
X111205513Y-133864325D01*
X111133293Y-133860942D01*
X111080504Y-133858467D01*
X111033898Y-133854663D01*
X110997521Y-133848675D01*
X110978176Y-133841688D01*
X110977061Y-133840470D01*
X110973304Y-133823017D01*
X110969659Y-133786348D01*
X110966599Y-133736256D01*
X110964925Y-133691727D01*
X110962863Y-133631216D01*
X110959668Y-133553797D01*
X110955703Y-133467527D01*
X110951330Y-133380467D01*
X110949020Y-133337666D01*
X110944451Y-133253802D01*
X110939860Y-133166971D01*
X110935658Y-133085090D01*
X110932253Y-133016078D01*
X110930914Y-132987493D01*
X110928599Y-132939601D01*
X110925115Y-132871556D01*
X110920719Y-132788177D01*
X110915668Y-132694284D01*
X110910219Y-132594695D01*
X110904720Y-132495847D01*
X110898615Y-132381420D01*
X110894495Y-132290206D01*
X110892329Y-132220487D01*
X110892089Y-132170545D01*
X110893744Y-132138662D01*
X110897266Y-132123119D01*
X110898265Y-132121745D01*
X110919357Y-132113690D01*
X110959272Y-132108820D01*
X111012043Y-132106997D01*
X111071701Y-132108086D01*
G37*
G36*
X110748433Y-132140725D02*
G01*
X110752272Y-132142316D01*
X110797534Y-132161228D01*
X110805336Y-132496197D01*
X110808056Y-132598218D01*
X110811478Y-132703728D01*
X110815359Y-132806568D01*
X110819456Y-132900580D01*
X110823526Y-132979605D01*
X110825956Y-133018759D01*
X110835324Y-133154789D01*
X110843322Y-133268265D01*
X110850148Y-133361598D01*
X110856001Y-133437198D01*
X110861081Y-133497473D01*
X110865587Y-133544835D01*
X110869716Y-133581692D01*
X110873670Y-133610454D01*
X110875978Y-133624478D01*
X110886001Y-133696858D01*
X110886541Y-133750031D01*
X110877303Y-133788052D01*
X110862437Y-133810541D01*
X110826198Y-133832834D01*
X110775764Y-133836364D01*
X110709994Y-133821179D01*
X110698621Y-133817249D01*
X110640620Y-133796462D01*
X110626291Y-133663986D01*
X110620593Y-133604507D01*
X110614345Y-133528009D01*
X110608142Y-133442458D01*
X110602577Y-133355824D01*
X110600114Y-133312653D01*
X110596970Y-133242245D01*
X110594309Y-133158098D01*
X110592132Y-133063266D01*
X110590440Y-132960800D01*
X110589236Y-132853753D01*
X110588520Y-132745178D01*
X110588295Y-132638125D01*
X110588562Y-132535648D01*
X110589323Y-132440798D01*
X110590578Y-132356628D01*
X110592330Y-132286190D01*
X110594581Y-132232536D01*
X110597331Y-132198718D01*
X110599535Y-132188519D01*
X110618005Y-132169600D01*
X110649404Y-132149712D01*
X110659145Y-132144988D01*
X110692596Y-132131983D01*
X110717809Y-132130692D01*
X110748433Y-132140725D01*
G37*
G36*
X109884282Y-131905959D02*
G01*
X109941175Y-131923025D01*
X109999051Y-131946998D01*
X110048114Y-131974222D01*
X110058767Y-131981799D01*
X110089192Y-132002180D01*
X110115821Y-132009501D01*
X110151335Y-132006668D01*
X110160635Y-132005136D01*
X110240119Y-131996588D01*
X110304544Y-132001692D01*
X110356215Y-132019005D01*
X110400617Y-132050441D01*
X110443496Y-132098453D01*
X110478795Y-132155020D01*
X110499715Y-132209074D01*
X110503221Y-132236415D01*
X110506187Y-132288150D01*
X110508601Y-132363666D01*
X110510452Y-132462349D01*
X110511728Y-132583587D01*
X110512416Y-132726765D01*
X110512518Y-132881767D01*
X110512536Y-133004069D01*
X110512831Y-133118830D01*
X110513378Y-133223610D01*
X110514151Y-133315969D01*
X110515123Y-133393466D01*
X110516268Y-133453662D01*
X110517562Y-133494116D01*
X110518978Y-133512388D01*
X110519214Y-133513090D01*
X110530251Y-133540341D01*
X110541991Y-133583632D01*
X110552567Y-133634125D01*
X110560114Y-133682979D01*
X110562777Y-133719425D01*
X110559837Y-133757921D01*
X110548409Y-133781438D01*
X110532019Y-133794957D01*
X110492060Y-133807561D01*
X110442400Y-133803340D01*
X110399050Y-133787027D01*
X110385629Y-133772906D01*
X110362615Y-133741388D01*
X110332919Y-133696734D01*
X110299455Y-133643210D01*
X110289394Y-133626525D01*
X110244649Y-133553229D01*
X110211157Y-133501808D01*
X110188978Y-133472338D01*
X110178173Y-133464894D01*
X110178801Y-133479554D01*
X110181541Y-133489300D01*
X110200263Y-133538680D01*
X110228490Y-133599759D01*
X110261702Y-133663529D01*
X110295382Y-133720977D01*
X110305616Y-133736697D01*
X110329598Y-133773488D01*
X110340840Y-133796206D01*
X110341042Y-133811205D01*
X110331902Y-133824835D01*
X110329816Y-133827170D01*
X110308647Y-133845042D01*
X110295082Y-133850360D01*
X110284255Y-133839740D01*
X110266051Y-133811163D01*
X110243369Y-133769479D01*
X110227328Y-133737084D01*
X110199193Y-133680532D01*
X110169736Y-133625178D01*
X110143723Y-133579847D01*
X110134485Y-133565183D01*
X110109884Y-133528022D01*
X110095654Y-133507472D01*
X110088252Y-133499361D01*
X110084138Y-133499514D01*
X110081213Y-133502407D01*
X110082915Y-133516058D01*
X110094239Y-133543952D01*
X110104224Y-133563921D01*
X110123316Y-133605377D01*
X110143983Y-133658711D01*
X110159936Y-133706623D01*
X110179048Y-133774363D01*
X110188828Y-133821983D01*
X110189208Y-133852597D01*
X110180116Y-133869318D01*
X110161485Y-133875260D01*
X110156171Y-133875430D01*
X110133964Y-133869885D01*
X110111711Y-133850354D01*
X110084559Y-133812492D01*
X110082815Y-133809773D01*
X110068783Y-133783638D01*
X110008938Y-133672174D01*
X109973969Y-133584535D01*
X109961157Y-133555725D01*
X109952026Y-133548841D01*
X109947371Y-133560962D01*
X109947990Y-133589168D01*
X109954677Y-133630540D01*
X109957740Y-133644067D01*
X109969336Y-133687830D01*
X109980829Y-133723943D01*
X109987876Y-133740820D01*
X109998101Y-133765051D01*
X110000000Y-133775273D01*
X110005099Y-133792793D01*
X110018262Y-133824706D01*
X110031265Y-133852820D01*
X110048346Y-133890474D01*
X110059702Y-133919811D01*
X110062530Y-133931364D01*
X110052087Y-133943110D01*
X110024483Y-133961584D01*
X109985310Y-133983120D01*
X109978114Y-133986718D01*
X109928037Y-134014240D01*
X109867405Y-134051761D01*
X109803171Y-134094549D01*
X109742292Y-134137868D01*
X109691722Y-134176985D01*
X109667187Y-134198373D01*
X109635462Y-134215708D01*
X109583472Y-134229541D01*
X109515755Y-134239601D01*
X109436848Y-134245619D01*
X109351289Y-134247324D01*
X109263615Y-134244448D01*
X109178365Y-134236719D01*
X109133204Y-134230142D01*
X109115653Y-134226755D01*
X109100535Y-134221411D01*
X109085011Y-134211337D01*
X109066243Y-134193760D01*
X109041392Y-134165908D01*
X109007619Y-134125009D01*
X108962086Y-134068289D01*
X108942908Y-134044263D01*
X108915092Y-134005864D01*
X108881345Y-133953910D01*
X108844489Y-133893382D01*
X108807347Y-133829262D01*
X108772740Y-133766530D01*
X108743490Y-133710167D01*
X108722419Y-133665155D01*
X108712630Y-133637813D01*
X108705129Y-133591120D01*
X108700429Y-133536334D01*
X108699665Y-133510781D01*
X108699809Y-133489617D01*
X108701175Y-133470156D01*
X108704865Y-133449579D01*
X108711983Y-133425064D01*
X108723631Y-133393792D01*
X108740913Y-133352940D01*
X108764931Y-133299689D01*
X108796789Y-133231219D01*
X108837590Y-133144708D01*
X108867617Y-133081290D01*
X108893285Y-133027043D01*
X108917467Y-132975841D01*
X108936460Y-132935525D01*
X108942792Y-132922033D01*
X108978762Y-132872255D01*
X109028856Y-132839511D01*
X109087381Y-132825574D01*
X109148642Y-132832217D01*
X109184304Y-132846799D01*
X109216898Y-132868415D01*
X109255456Y-132899529D01*
X109276379Y-132918710D01*
X109327867Y-132968734D01*
X109320486Y-133100049D01*
X109313885Y-133172819D01*
X109302674Y-133253174D01*
X109288887Y-133327335D01*
X109283607Y-133350172D01*
X109254109Y-133468980D01*
X109193732Y-133498979D01*
X109117811Y-133547908D01*
X109057259Y-133609766D01*
X109014363Y-133680642D01*
X108991411Y-133756626D01*
X108990688Y-133833806D01*
X108992298Y-133843466D01*
X109003452Y-133877095D01*
X109017048Y-133886898D01*
X109028964Y-133873111D01*
X109034827Y-133841038D01*
X109048298Y-133776805D01*
X109078022Y-133708993D01*
X109119080Y-133646032D01*
X109166551Y-133596350D01*
X109185813Y-133582348D01*
X109226311Y-133560388D01*
X109267012Y-133543663D01*
X109276387Y-133540884D01*
X109306458Y-133528955D01*
X109319463Y-133508884D01*
X109322041Y-133493270D01*
X109323660Y-133481487D01*
X110062530Y-133481487D01*
X110068783Y-133487740D01*
X110075037Y-133481487D01*
X110068783Y-133475233D01*
X110062530Y-133481487D01*
X109323660Y-133481487D01*
X109329554Y-133438583D01*
X109341462Y-133375946D01*
X109356203Y-133311536D01*
X109372218Y-133251530D01*
X109387944Y-133202104D01*
X109401821Y-133169434D01*
X109405256Y-133164005D01*
X109448950Y-133124729D01*
X109509510Y-133098501D01*
X109581185Y-133087692D01*
X109590930Y-133087543D01*
X109651160Y-133093135D01*
X109716947Y-133108098D01*
X109779745Y-133129710D01*
X109831006Y-133155247D01*
X109851969Y-133170682D01*
X109874206Y-133184690D01*
X109883830Y-133180119D01*
X109877557Y-133161597D01*
X109867566Y-133148700D01*
X109837906Y-133122924D01*
X109796763Y-133095712D01*
X109752264Y-133071558D01*
X109712534Y-133054960D01*
X109689430Y-133050142D01*
X109668158Y-133044698D01*
X109665392Y-133034595D01*
X109679252Y-133020897D01*
X109710373Y-133001155D01*
X109752721Y-132978435D01*
X109800263Y-132955802D01*
X109846966Y-132936322D01*
X109882649Y-132924202D01*
X109926834Y-132917350D01*
X109988043Y-132915560D01*
X110058845Y-132918643D01*
X110131809Y-132926414D01*
X110162580Y-132931251D01*
X110206351Y-132938919D01*
X110169380Y-132910055D01*
X110094585Y-132867032D01*
X110006724Y-132842781D01*
X109909682Y-132837679D01*
X109807343Y-132852105D01*
X109748387Y-132869120D01*
X109700703Y-132885395D01*
X109659692Y-132899210D01*
X109633257Y-132907908D01*
X109631068Y-132908597D01*
X109624833Y-132906872D01*
X109635452Y-132893798D01*
X109659273Y-132872344D01*
X109692639Y-132845478D01*
X109731895Y-132816167D01*
X109773388Y-132787379D01*
X109805976Y-132766573D01*
X109849590Y-132740006D01*
X109875287Y-132723425D01*
X109886371Y-132713568D01*
X109886142Y-132707174D01*
X109877903Y-132700983D01*
X109874576Y-132698819D01*
X109841084Y-132689887D01*
X109790925Y-132693842D01*
X109728116Y-132709509D01*
X109656674Y-132735712D01*
X109580615Y-132771275D01*
X109528324Y-132800195D01*
X109498653Y-132813614D01*
X109481522Y-132812872D01*
X109480538Y-132811669D01*
X109478230Y-132794974D01*
X109477625Y-132758756D01*
X109478697Y-132708442D01*
X109481238Y-132652710D01*
X109486141Y-132582638D01*
X109492168Y-132532904D01*
X109500136Y-132498839D01*
X109510860Y-132475769D01*
X109512603Y-132473187D01*
X109563617Y-132385728D01*
X109592046Y-132298649D01*
X109599803Y-132217552D01*
X109597121Y-132163477D01*
X109590056Y-132114264D01*
X109581572Y-132083992D01*
X109571838Y-132055243D01*
X109573069Y-132033114D01*
X109588251Y-132011659D01*
X109620368Y-131984934D01*
X109637772Y-131972059D01*
X109688857Y-131942101D01*
X109748923Y-131917590D01*
X109807174Y-131902438D01*
X109838169Y-131899458D01*
X109884282Y-131905959D01*
G37*
G36*
X108813044Y-131792086D02*
G01*
X108908421Y-131805247D01*
X109012013Y-131824313D01*
X109102015Y-131847601D01*
X109194033Y-131880283D01*
X109282120Y-131919563D01*
X109360326Y-131962642D01*
X109422704Y-132006722D01*
X109446455Y-132028636D01*
X109492824Y-132088476D01*
X109517824Y-132152100D01*
X109524766Y-132221702D01*
X109522100Y-132258116D01*
X109510851Y-132286060D01*
X109486144Y-132316022D01*
X109476212Y-132326139D01*
X109440385Y-132356329D01*
X109408614Y-132373071D01*
X109398049Y-132374966D01*
X109378603Y-132370829D01*
X109340126Y-132359276D01*
X109286946Y-132341832D01*
X109223394Y-132320023D01*
X109153797Y-132295374D01*
X109082483Y-132269410D01*
X109013784Y-132243656D01*
X108952025Y-132219637D01*
X108918217Y-132205911D01*
X108888128Y-132194100D01*
X108843462Y-132177357D01*
X108793236Y-132159054D01*
X108786903Y-132156784D01*
X108717916Y-132131176D01*
X108668621Y-132110166D01*
X108634702Y-132091348D01*
X108611838Y-132072313D01*
X108595712Y-132050655D01*
X108595306Y-132049970D01*
X108578289Y-132002842D01*
X108574310Y-131947507D01*
X108582079Y-131891337D01*
X108600308Y-131841704D01*
X108627708Y-131805979D01*
X108639339Y-131798065D01*
X108676367Y-131788345D01*
X108734981Y-131786402D01*
X108813044Y-131792086D01*
G37*
G36*
X108580027Y-132151065D02*
G01*
X108640398Y-132164783D01*
X108715018Y-132185886D01*
X108799607Y-132212931D01*
X108889886Y-132244475D01*
X108981575Y-132279078D01*
X109070397Y-132315296D01*
X109152070Y-132351688D01*
X109162087Y-132356427D01*
X109238775Y-132393575D01*
X109295731Y-132424505D01*
X109335865Y-132453628D01*
X109362086Y-132485355D01*
X109377304Y-132524097D01*
X109384428Y-132574266D01*
X109386367Y-132640272D01*
X109386211Y-132696227D01*
X109385363Y-132757974D01*
X109383760Y-132811233D01*
X109381622Y-132850691D01*
X109379172Y-132871035D01*
X109378894Y-132871876D01*
X109366518Y-132874914D01*
X109339423Y-132858415D01*
X109320943Y-132843386D01*
X109242502Y-132786943D01*
X109164293Y-132750969D01*
X109088981Y-132736047D01*
X109019229Y-132742760D01*
X108966551Y-132765755D01*
X108916908Y-132797094D01*
X108823766Y-132747171D01*
X108776387Y-132721793D01*
X108733921Y-132699074D01*
X108703983Y-132683089D01*
X108699360Y-132680628D01*
X108673656Y-132667848D01*
X108632670Y-132648412D01*
X108583950Y-132625883D01*
X108568045Y-132618641D01*
X108494374Y-132585093D01*
X108440150Y-132559551D01*
X108402032Y-132539713D01*
X108376678Y-132523275D01*
X108360747Y-132507936D01*
X108350896Y-132491392D01*
X108343785Y-132471340D01*
X108341080Y-132462235D01*
X108327101Y-132382803D01*
X108332432Y-132309934D01*
X108356370Y-132247916D01*
X108381470Y-132215561D01*
X108424902Y-132183099D01*
X108478182Y-132158344D01*
X108529497Y-132146524D01*
X108538185Y-132146173D01*
X108580027Y-132151065D01*
G37*
G36*
X108334850Y-132585489D02*
G01*
X108375648Y-132603918D01*
X108429868Y-132629456D01*
X108493545Y-132660125D01*
X108562710Y-132693950D01*
X108633396Y-132728952D01*
X108701637Y-132763155D01*
X108763466Y-132794582D01*
X108814915Y-132821256D01*
X108852017Y-132841200D01*
X108870805Y-132852436D01*
X108871319Y-132852835D01*
X108880324Y-132860560D01*
X108884197Y-132869178D01*
X108882152Y-132884328D01*
X108873404Y-132911648D01*
X108857166Y-132956778D01*
X108856630Y-132958258D01*
X108826820Y-133031043D01*
X108795832Y-133085251D01*
X108759926Y-133127184D01*
X108752063Y-133134441D01*
X108728627Y-133152323D01*
X108705372Y-133160247D01*
X108675983Y-133158141D01*
X108634146Y-133145934D01*
X108597673Y-133132693D01*
X108550878Y-133115552D01*
X108489897Y-133093790D01*
X108424244Y-133070784D01*
X108386706Y-133057836D01*
X108302808Y-133028971D01*
X108239452Y-133006555D01*
X108193488Y-132989025D01*
X108161764Y-132974817D01*
X108141127Y-132962369D01*
X108128427Y-132950117D01*
X108120512Y-132936499D01*
X108115403Y-132923277D01*
X108101349Y-132855925D01*
X108104514Y-132788843D01*
X108118653Y-132743641D01*
X108144142Y-132704255D01*
X108180914Y-132664863D01*
X108223636Y-132629364D01*
X108266979Y-132601658D01*
X108305612Y-132585644D01*
X108334205Y-132585221D01*
X108334850Y-132585489D01*
G37*
G36*
X108214012Y-133082459D02*
G01*
X108290534Y-133096064D01*
X108361693Y-133115742D01*
X108419963Y-133134702D01*
X108481273Y-133154150D01*
X108530526Y-133169322D01*
X108595862Y-133192036D01*
X108639431Y-133215417D01*
X108664414Y-133241989D01*
X108673989Y-133274273D01*
X108674347Y-133283436D01*
X108666152Y-133327213D01*
X108647660Y-133365030D01*
X108630573Y-133406265D01*
X108622573Y-133465796D01*
X108623538Y-133538667D01*
X108633350Y-133619917D01*
X108651889Y-133704587D01*
X108656250Y-133720178D01*
X108670031Y-133769143D01*
X108680591Y-133809349D01*
X108686296Y-133834461D01*
X108686853Y-133838867D01*
X108675260Y-133846022D01*
X108641795Y-133845463D01*
X108627449Y-133843721D01*
X108593137Y-133837872D01*
X108547023Y-133828003D01*
X108486311Y-133813433D01*
X108408207Y-133793482D01*
X108309916Y-133767469D01*
X108267897Y-133756178D01*
X108220784Y-133742788D01*
X108164498Y-133725835D01*
X108125574Y-133713580D01*
X108082449Y-133700407D01*
X108047690Y-133691126D01*
X108029621Y-133687838D01*
X108007737Y-133677497D01*
X107979043Y-133650126D01*
X107947636Y-133611206D01*
X107917610Y-133566218D01*
X107893061Y-133520643D01*
X107880281Y-133487985D01*
X107866250Y-133402141D01*
X107874086Y-133316752D01*
X107901910Y-133236475D01*
X107947843Y-133165965D01*
X108010006Y-133109879D01*
X108040096Y-133091953D01*
X108082837Y-133079963D01*
X108142794Y-133076945D01*
X108214012Y-133082459D01*
G37*
D13*
X169650000Y-131000000D02*
X169650000Y-76500000D01*
X199850000Y-131000000D02*
X169650000Y-131000000D01*
X169650000Y-76500000D02*
X199850000Y-76500000D01*
X199850000Y-76500000D02*
X199850000Y-131000000D01*
X141615000Y-73265000D02*
X141615000Y-74735000D01*
X141615000Y-74735000D02*
X143900000Y-74735000D01*
X143900000Y-73265000D02*
X141615000Y-73265000D01*
X110970000Y-81530000D02*
X110970000Y-89210000D01*
X110970000Y-81530000D02*
X113630000Y-81530000D01*
X110970000Y-89210000D02*
X113630000Y-89210000D01*
X112300000Y-78930000D02*
X113630000Y-78930000D01*
X113630000Y-78930000D02*
X113630000Y-80260000D01*
X113630000Y-81530000D02*
X113630000Y-89210000D01*
X126200000Y-78620000D02*
X126200000Y-81290000D01*
X126200000Y-83830000D02*
X126200000Y-122060000D01*
X126200000Y-122060000D02*
X131280000Y-122060000D01*
X128870000Y-81290000D02*
X126200000Y-81290000D01*
X128870000Y-83830000D02*
X126200000Y-83830000D01*
X128870000Y-83830000D02*
X128870000Y-81290000D01*
X128870000Y-83830000D02*
X128870000Y-119390000D01*
X128870000Y-119390000D02*
X126200000Y-119390000D01*
X131280000Y-114180000D02*
X139160000Y-114180000D01*
X131280000Y-124600000D02*
X131280000Y-114180000D01*
X139160000Y-114180000D02*
X139160000Y-124600000D01*
X139160000Y-124600000D02*
X131280000Y-124600000D01*
X141570000Y-81290000D02*
X141570000Y-119390000D01*
X141570000Y-81290000D02*
X144240000Y-81290000D01*
X141570000Y-119390000D02*
X144240000Y-119390000D01*
X144240000Y-78620000D02*
X126200000Y-78620000D01*
X144240000Y-122060000D02*
X139160000Y-122060000D01*
X144240000Y-122060000D02*
X144240000Y-78620000D01*
X116020000Y-97370000D02*
X116020000Y-105050000D01*
X116020000Y-97370000D02*
X118680000Y-97370000D01*
X116020000Y-105050000D02*
X118680000Y-105050000D01*
X117350000Y-94770000D02*
X118680000Y-94770000D01*
X118680000Y-94770000D02*
X118680000Y-96100000D01*
X118680000Y-97370000D02*
X118680000Y-105050000D01*
X111370000Y-97370000D02*
X111370000Y-105050000D01*
X111370000Y-97370000D02*
X114030000Y-97370000D01*
X111370000Y-105050000D02*
X114030000Y-105050000D01*
X112700000Y-94770000D02*
X114030000Y-94770000D01*
X114030000Y-94770000D02*
X114030000Y-96100000D01*
X114030000Y-97370000D02*
X114030000Y-105050000D01*
X115620000Y-81530000D02*
X115620000Y-89210000D01*
X115620000Y-81530000D02*
X118280000Y-81530000D01*
X115620000Y-89210000D02*
X118280000Y-89210000D01*
X116950000Y-78930000D02*
X118280000Y-78930000D01*
X118280000Y-78930000D02*
X118280000Y-80260000D01*
X118280000Y-81530000D02*
X118280000Y-89210000D01*
X125740000Y-127150000D02*
X131860000Y-127150000D01*
X125740000Y-130850000D02*
X125740000Y-127150000D01*
X131860000Y-127150000D02*
X131860000Y-130850000D01*
X131860000Y-130850000D02*
X125740000Y-130850000D01*
X157062742Y-122377500D02*
X157537258Y-122377500D01*
X157062742Y-123422500D02*
X157537258Y-123422500D01*
X139840000Y-126950000D02*
X145960000Y-126950000D01*
X139840000Y-130650000D02*
X139840000Y-126950000D01*
X145960000Y-126950000D02*
X145960000Y-130650000D01*
X145960000Y-130650000D02*
X139840000Y-130650000D01*
X157087742Y-118377500D02*
X157562258Y-118377500D01*
X157087742Y-119422500D02*
X157562258Y-119422500D01*
X110820000Y-113370000D02*
X110820000Y-121050000D01*
X110820000Y-113370000D02*
X113480000Y-113370000D01*
X110820000Y-121050000D02*
X113480000Y-121050000D01*
X112150000Y-110770000D02*
X113480000Y-110770000D01*
X113480000Y-110770000D02*
X113480000Y-112100000D01*
X113480000Y-113370000D02*
X113480000Y-121050000D01*
X160520000Y-85450000D02*
X161850000Y-85450000D01*
X160520000Y-86780000D02*
X160520000Y-85450000D01*
X160520000Y-88050000D02*
X160520000Y-116050000D01*
X160520000Y-88050000D02*
X163180000Y-88050000D01*
X160520000Y-116050000D02*
X163180000Y-116050000D01*
X163180000Y-88050000D02*
X163180000Y-116050000D01*
X151220000Y-85450000D02*
X152550000Y-85450000D01*
X151220000Y-86780000D02*
X151220000Y-85450000D01*
X151220000Y-88050000D02*
X151220000Y-116050000D01*
X151220000Y-88050000D02*
X153880000Y-88050000D01*
X151220000Y-116050000D02*
X153880000Y-116050000D01*
X153880000Y-88050000D02*
X153880000Y-116050000D01*
X155870000Y-85450000D02*
X157200000Y-85450000D01*
X155870000Y-86780000D02*
X155870000Y-85450000D01*
X155870000Y-88050000D02*
X155870000Y-116050000D01*
X155870000Y-88050000D02*
X158530000Y-88050000D01*
X155870000Y-116050000D02*
X158530000Y-116050000D01*
X158530000Y-88050000D02*
X158530000Y-116050000D01*
X131850000Y-74450000D02*
X132661000Y-74450000D01*
X133840000Y-73590000D02*
X136961000Y-73590000D01*
X133840000Y-76410000D02*
X136961000Y-76410000D01*
X115470000Y-113370000D02*
X115470000Y-121050000D01*
X115470000Y-113370000D02*
X118130000Y-113370000D01*
X115470000Y-121050000D02*
X118130000Y-121050000D01*
X116800000Y-110770000D02*
X118130000Y-110770000D01*
X118130000Y-110770000D02*
X118130000Y-112100000D01*
X118130000Y-113370000D02*
X118130000Y-121050000D01*
%LPC*%
D14*
X173650000Y-118500000D03*
X195850000Y-103750000D03*
X173650000Y-90500000D03*
D15*
X191100000Y-79600000D03*
D16*
X178400000Y-79600000D03*
D17*
X142312500Y-74000000D03*
X143887500Y-74000000D03*
D18*
X112300000Y-80260000D03*
D19*
X112300000Y-82800000D03*
X112300000Y-85340000D03*
X112300000Y-87880000D03*
D20*
X127600000Y-82560000D03*
D21*
X127600000Y-85100000D03*
X127600000Y-87640000D03*
X127600000Y-90180000D03*
X127600000Y-92720000D03*
X127600000Y-95260000D03*
X127600000Y-97800000D03*
X127600000Y-100340000D03*
X127600000Y-102880000D03*
X127600000Y-105420000D03*
X127600000Y-107960000D03*
X127600000Y-110500000D03*
X127600000Y-113040000D03*
X127600000Y-115580000D03*
X127600000Y-118120000D03*
X142840000Y-118120000D03*
X142840000Y-115580000D03*
X142840000Y-113040000D03*
X142840000Y-110500000D03*
X142840000Y-107960000D03*
X142840000Y-105420000D03*
X142840000Y-102880000D03*
X142840000Y-100340000D03*
X142840000Y-97800000D03*
X142840000Y-95260000D03*
X142840000Y-92720000D03*
X142840000Y-90180000D03*
X142840000Y-87640000D03*
X142840000Y-85100000D03*
X142840000Y-82560000D03*
D18*
X117350000Y-96100000D03*
D19*
X117350000Y-98640000D03*
X117350000Y-101180000D03*
X117350000Y-103720000D03*
D18*
X112700000Y-96100000D03*
D19*
X112700000Y-98640000D03*
X112700000Y-101180000D03*
X112700000Y-103720000D03*
D18*
X116950000Y-80260000D03*
D19*
X116950000Y-82800000D03*
X116950000Y-85340000D03*
X116950000Y-87880000D03*
D22*
X124900000Y-129000000D03*
X132700000Y-129000000D03*
D23*
X156475000Y-122900000D03*
X158125000Y-122900000D03*
D22*
X146800000Y-128800000D03*
X139000000Y-128800000D03*
D23*
X156500000Y-118900000D03*
X158150000Y-118900000D03*
D18*
X112150000Y-112100000D03*
D19*
X112150000Y-114640000D03*
X112150000Y-117180000D03*
X112150000Y-119720000D03*
D18*
X161850000Y-86780000D03*
D19*
X161850000Y-89320000D03*
X161850000Y-91860000D03*
X161850000Y-94400000D03*
X161850000Y-96940000D03*
X161850000Y-99480000D03*
X161850000Y-102020000D03*
X161850000Y-104560000D03*
X161850000Y-107100000D03*
X161850000Y-109640000D03*
X161850000Y-112180000D03*
X161850000Y-114720000D03*
D18*
X152550000Y-86780000D03*
D19*
X152550000Y-89320000D03*
X152550000Y-91860000D03*
X152550000Y-94400000D03*
X152550000Y-96940000D03*
X152550000Y-99480000D03*
X152550000Y-102020000D03*
X152550000Y-104560000D03*
X152550000Y-107100000D03*
X152550000Y-109640000D03*
X152550000Y-112180000D03*
X152550000Y-114720000D03*
D18*
X157200000Y-86780000D03*
D19*
X157200000Y-89320000D03*
X157200000Y-91860000D03*
X157200000Y-94400000D03*
X157200000Y-96940000D03*
X157200000Y-99480000D03*
X157200000Y-102020000D03*
X157200000Y-104560000D03*
X157200000Y-107100000D03*
X157200000Y-109640000D03*
X157200000Y-112180000D03*
X157200000Y-114720000D03*
D24*
X132450000Y-75000000D03*
X138350000Y-75000000D03*
D25*
X133250000Y-74000000D03*
X133250000Y-76000000D03*
X137550000Y-74000000D03*
X137550000Y-76000000D03*
D18*
X116800000Y-112100000D03*
D19*
X116800000Y-114640000D03*
X116800000Y-117180000D03*
X116800000Y-119720000D03*
%LPD*%
M02*
