G04 #@! TF.GenerationSoftware,KiCad,Pcbnew,8.0.6*
G04 #@! TF.CreationDate,2026-06-14T10:10:02+05:30*
G04 #@! TF.ProjectId,DumE,44756d45-2e6b-4696-9361-645f70636258,rev?*
G04 #@! TF.SameCoordinates,Original*
G04 #@! TF.FileFunction,Soldermask,Top*
G04 #@! TF.FilePolarity,Negative*
%FSLAX46Y46*%
G04 Gerber Fmt 4.6, Leading zero omitted, Abs format (unit mm)*
G04 Created by KiCad (PCBNEW 8.0.6) date 2026-06-14 10:10:02*
%MOMM*%
%LPD*%
G01*
G04 APERTURE LIST*
G04 Aperture macros list*
%AMRoundRect*
0 Rectangle with rounded corners*
0 $1 Rounding radius*
0 $2 $3 $4 $5 $6 $7 $8 $9 X,Y pos of 4 corners*
0 Add a 4 corners polygon primitive as box body*
4,1,4,$2,$3,$4,$5,$6,$7,$8,$9,$2,$3,0*
0 Add four circle primitives for the rounded corners*
1,1,$1+$1,$2,$3*
1,1,$1+$1,$4,$5*
1,1,$1+$1,$6,$7*
1,1,$1+$1,$8,$9*
0 Add four rect primitives between the rounded corners*
20,1,$1+$1,$2,$3,$4,$5,0*
20,1,$1+$1,$4,$5,$6,$7,0*
20,1,$1+$1,$6,$7,$8,$9,0*
20,1,$1+$1,$8,$9,$2,$3,0*%
G04 Aperture macros list end*
%ADD10C,2.600000*%
%ADD11R,3.000000X3.000000*%
%ADD12C,3.000000*%
%ADD13RoundRect,0.218750X-0.218750X-0.256250X0.218750X-0.256250X0.218750X0.256250X-0.218750X0.256250X0*%
%ADD14R,1.700000X1.700000*%
%ADD15O,1.700000X1.700000*%
%ADD16R,1.600000X1.600000*%
%ADD17O,1.600000X1.600000*%
%ADD18R,1.500000X1.500000*%
%ADD19RoundRect,0.200000X-0.200000X-0.275000X0.200000X-0.275000X0.200000X0.275000X-0.200000X0.275000X0*%
%ADD20R,1.200000X0.500000*%
%ADD21R,0.700000X0.700000*%
G04 APERTURE END LIST*
D10*
X173650000Y-118500000D03*
X195850000Y-103750000D03*
X173650000Y-90500000D03*
D11*
X191100000Y-79600000D03*
D12*
X178400000Y-79600000D03*
D13*
X142312500Y-74000000D03*
X143887500Y-74000000D03*
D14*
X112300000Y-80260000D03*
D15*
X112300000Y-82800000D03*
X112300000Y-85340000D03*
X112300000Y-87880000D03*
D16*
X127600000Y-82560000D03*
D17*
X127600000Y-85100000D03*
X127600000Y-87640000D03*
X127600000Y-90180000D03*
X127600000Y-92720000D03*
X127600000Y-95260000D03*
X127600000Y-97800000D03*
X127600000Y-100340000D03*
X127600000Y-102880000D03*
X127600000Y-105420000D03*
X127600000Y-107960000D03*
X127600000Y-110500000D03*
X127600000Y-113040000D03*
X127600000Y-115580000D03*
X127600000Y-118120000D03*
X142840000Y-118120000D03*
X142840000Y-115580000D03*
X142840000Y-113040000D03*
X142840000Y-110500000D03*
X142840000Y-107960000D03*
X142840000Y-105420000D03*
X142840000Y-102880000D03*
X142840000Y-100340000D03*
X142840000Y-97800000D03*
X142840000Y-95260000D03*
X142840000Y-92720000D03*
X142840000Y-90180000D03*
X142840000Y-87640000D03*
X142840000Y-85100000D03*
X142840000Y-82560000D03*
D14*
X117350000Y-96100000D03*
D15*
X117350000Y-98640000D03*
X117350000Y-101180000D03*
X117350000Y-103720000D03*
D14*
X112700000Y-96100000D03*
D15*
X112700000Y-98640000D03*
X112700000Y-101180000D03*
X112700000Y-103720000D03*
D14*
X116950000Y-80260000D03*
D15*
X116950000Y-82800000D03*
X116950000Y-85340000D03*
X116950000Y-87880000D03*
D18*
X124900000Y-129000000D03*
X132700000Y-129000000D03*
D19*
X156475000Y-122900000D03*
X158125000Y-122900000D03*
D18*
X146800000Y-128800000D03*
X139000000Y-128800000D03*
D19*
X156500000Y-118900000D03*
X158150000Y-118900000D03*
D14*
X112150000Y-112100000D03*
D15*
X112150000Y-114640000D03*
X112150000Y-117180000D03*
X112150000Y-119720000D03*
D14*
X161850000Y-86780000D03*
D15*
X161850000Y-89320000D03*
X161850000Y-91860000D03*
X161850000Y-94400000D03*
X161850000Y-96940000D03*
X161850000Y-99480000D03*
X161850000Y-102020000D03*
X161850000Y-104560000D03*
X161850000Y-107100000D03*
X161850000Y-109640000D03*
X161850000Y-112180000D03*
X161850000Y-114720000D03*
D14*
X152550000Y-86780000D03*
D15*
X152550000Y-89320000D03*
X152550000Y-91860000D03*
X152550000Y-94400000D03*
X152550000Y-96940000D03*
X152550000Y-99480000D03*
X152550000Y-102020000D03*
X152550000Y-104560000D03*
X152550000Y-107100000D03*
X152550000Y-109640000D03*
X152550000Y-112180000D03*
X152550000Y-114720000D03*
D14*
X157200000Y-86780000D03*
D15*
X157200000Y-89320000D03*
X157200000Y-91860000D03*
X157200000Y-94400000D03*
X157200000Y-96940000D03*
X157200000Y-99480000D03*
X157200000Y-102020000D03*
X157200000Y-104560000D03*
X157200000Y-107100000D03*
X157200000Y-109640000D03*
X157200000Y-112180000D03*
X157200000Y-114720000D03*
D20*
X132450000Y-75000000D03*
X138350000Y-75000000D03*
D21*
X133250000Y-74000000D03*
X133250000Y-76000000D03*
X137550000Y-74000000D03*
X137550000Y-76000000D03*
D14*
X116800000Y-112100000D03*
D15*
X116800000Y-114640000D03*
X116800000Y-117180000D03*
X116800000Y-119720000D03*
M02*
