%TF.GenerationSoftware,KiCad,Pcbnew,8.0.6*%
%TF.CreationDate,2026-06-14T10:08:21+05:30*%
%TF.ProjectId,DumE,44756d45-2e6b-4696-9361-645f70636258,rev?*%
%TF.SameCoordinates,Original*%
%TF.FileFunction,Drillmap*%
%TF.FilePolarity,Positive*%
%FSLAX45Y45*%
G04 Gerber Fmt 4.5, Leading zero omitted, Abs format (unit mm)*
G04 Created by KiCad (PCBNEW 8.0.6) date 2026-06-14 10:08:21*
%MOMM*%
%LPD*%
G01*
G04 APERTURE LIST*
%ADD10C,0.050000*%
%ADD11C,0.200000*%
%ADD12C,0.100000*%
%ADD13C,0.240000*%
G04 APERTURE END LIST*
D10*
X10100000Y-6800000D02*
X10100000Y-6900000D01*
X20600000Y-6800000D02*
X10100000Y-6800000D01*
X20600000Y-13600000D02*
X20600000Y-6800000D01*
X10100000Y-13600000D02*
X20600000Y-13600000D01*
X10100000Y-6900000D02*
X10100000Y-13600000D01*
D11*
D12*
X11915000Y-10215000D02*
X11945000Y-10245000D01*
X11945000Y-10215000D02*
X11915000Y-10245000D01*
X12025000Y-10615000D02*
X12055000Y-10645000D01*
X12055000Y-10615000D02*
X12025000Y-10645000D01*
X12125000Y-8435000D02*
X12155000Y-8465000D01*
X12155000Y-8435000D02*
X12125000Y-8465000D01*
X12185000Y-10775000D02*
X12215000Y-10805000D01*
X12215000Y-10775000D02*
X12185000Y-10805000D01*
X12235000Y-11145000D02*
X12265000Y-11175000D01*
X12265000Y-11145000D02*
X12235000Y-11175000D01*
X12335000Y-10665000D02*
X12365000Y-10695000D01*
X12365000Y-10665000D02*
X12335000Y-10695000D01*
X12335000Y-11955000D02*
X12365000Y-11985000D01*
X12365000Y-11955000D02*
X12335000Y-11985000D01*
X12345000Y-10275000D02*
X12375000Y-10305000D01*
X12375000Y-10275000D02*
X12345000Y-10305000D01*
X12395000Y-8585000D02*
X12425000Y-8615000D01*
X12425000Y-8585000D02*
X12395000Y-8615000D01*
X12505000Y-9725000D02*
X12535000Y-9755000D01*
X12535000Y-9725000D02*
X12505000Y-9755000D01*
X13915000Y-10265000D02*
X13945000Y-10295000D01*
X13945000Y-10265000D02*
X13915000Y-10295000D01*
X13975000Y-10695000D02*
X14005000Y-10725000D01*
X14005000Y-10695000D02*
X13975000Y-10725000D01*
X13995000Y-10955000D02*
X14025000Y-10985000D01*
X14025000Y-10955000D02*
X13995000Y-10985000D01*
X14015000Y-11305000D02*
X14045000Y-11335000D01*
X14045000Y-11305000D02*
X14015000Y-11335000D01*
X14405000Y-10915000D02*
X14435000Y-10945000D01*
X14435000Y-10915000D02*
X14405000Y-10945000D01*
X14415000Y-11095000D02*
X14445000Y-11125000D01*
X14445000Y-11095000D02*
X14415000Y-11125000D01*
X14605000Y-12725000D02*
X14635000Y-12755000D01*
X14635000Y-12725000D02*
X14605000Y-12755000D01*
X14615000Y-12355000D02*
X14645000Y-12385000D01*
X14645000Y-12355000D02*
X14615000Y-12385000D01*
X14895000Y-10195000D02*
X14925000Y-10225000D01*
X14925000Y-10195000D02*
X14895000Y-10225000D01*
X11265000Y-11210000D02*
G75*
G02*
X11165000Y-11210000I-50000J0D01*
G01*
X11165000Y-11210000D02*
G75*
G02*
X11265000Y-11210000I50000J0D01*
G01*
X11265000Y-11464000D02*
G75*
G02*
X11165000Y-11464000I-50000J0D01*
G01*
X11165000Y-11464000D02*
G75*
G02*
X11265000Y-11464000I50000J0D01*
G01*
X11265000Y-11718000D02*
G75*
G02*
X11165000Y-11718000I-50000J0D01*
G01*
X11165000Y-11718000D02*
G75*
G02*
X11265000Y-11718000I50000J0D01*
G01*
X11265000Y-11972000D02*
G75*
G02*
X11165000Y-11972000I-50000J0D01*
G01*
X11165000Y-11972000D02*
G75*
G02*
X11265000Y-11972000I50000J0D01*
G01*
X11280000Y-8026000D02*
G75*
G02*
X11180000Y-8026000I-50000J0D01*
G01*
X11180000Y-8026000D02*
G75*
G02*
X11280000Y-8026000I50000J0D01*
G01*
X11280000Y-8280000D02*
G75*
G02*
X11180000Y-8280000I-50000J0D01*
G01*
X11180000Y-8280000D02*
G75*
G02*
X11280000Y-8280000I50000J0D01*
G01*
X11280000Y-8534000D02*
G75*
G02*
X11180000Y-8534000I-50000J0D01*
G01*
X11180000Y-8534000D02*
G75*
G02*
X11280000Y-8534000I50000J0D01*
G01*
X11280000Y-8788000D02*
G75*
G02*
X11180000Y-8788000I-50000J0D01*
G01*
X11180000Y-8788000D02*
G75*
G02*
X11280000Y-8788000I50000J0D01*
G01*
X11320000Y-9610000D02*
G75*
G02*
X11220000Y-9610000I-50000J0D01*
G01*
X11220000Y-9610000D02*
G75*
G02*
X11320000Y-9610000I50000J0D01*
G01*
X11320000Y-9864000D02*
G75*
G02*
X11220000Y-9864000I-50000J0D01*
G01*
X11220000Y-9864000D02*
G75*
G02*
X11320000Y-9864000I50000J0D01*
G01*
X11320000Y-10118000D02*
G75*
G02*
X11220000Y-10118000I-50000J0D01*
G01*
X11220000Y-10118000D02*
G75*
G02*
X11320000Y-10118000I50000J0D01*
G01*
X11320000Y-10372000D02*
G75*
G02*
X11220000Y-10372000I-50000J0D01*
G01*
X11220000Y-10372000D02*
G75*
G02*
X11320000Y-10372000I50000J0D01*
G01*
X11730000Y-11210000D02*
G75*
G02*
X11630000Y-11210000I-50000J0D01*
G01*
X11630000Y-11210000D02*
G75*
G02*
X11730000Y-11210000I50000J0D01*
G01*
X11730000Y-11464000D02*
G75*
G02*
X11630000Y-11464000I-50000J0D01*
G01*
X11630000Y-11464000D02*
G75*
G02*
X11730000Y-11464000I50000J0D01*
G01*
X11730000Y-11718000D02*
G75*
G02*
X11630000Y-11718000I-50000J0D01*
G01*
X11630000Y-11718000D02*
G75*
G02*
X11730000Y-11718000I50000J0D01*
G01*
X11730000Y-11972000D02*
G75*
G02*
X11630000Y-11972000I-50000J0D01*
G01*
X11630000Y-11972000D02*
G75*
G02*
X11730000Y-11972000I50000J0D01*
G01*
X11745000Y-8026000D02*
G75*
G02*
X11645000Y-8026000I-50000J0D01*
G01*
X11645000Y-8026000D02*
G75*
G02*
X11745000Y-8026000I50000J0D01*
G01*
X11745000Y-8280000D02*
G75*
G02*
X11645000Y-8280000I-50000J0D01*
G01*
X11645000Y-8280000D02*
G75*
G02*
X11745000Y-8280000I50000J0D01*
G01*
X11745000Y-8534000D02*
G75*
G02*
X11645000Y-8534000I-50000J0D01*
G01*
X11645000Y-8534000D02*
G75*
G02*
X11745000Y-8534000I50000J0D01*
G01*
X11745000Y-8788000D02*
G75*
G02*
X11645000Y-8788000I-50000J0D01*
G01*
X11645000Y-8788000D02*
G75*
G02*
X11745000Y-8788000I50000J0D01*
G01*
X11785000Y-9610000D02*
G75*
G02*
X11685000Y-9610000I-50000J0D01*
G01*
X11685000Y-9610000D02*
G75*
G02*
X11785000Y-9610000I50000J0D01*
G01*
X11785000Y-9864000D02*
G75*
G02*
X11685000Y-9864000I-50000J0D01*
G01*
X11685000Y-9864000D02*
G75*
G02*
X11785000Y-9864000I50000J0D01*
G01*
X11785000Y-10118000D02*
G75*
G02*
X11685000Y-10118000I-50000J0D01*
G01*
X11685000Y-10118000D02*
G75*
G02*
X11785000Y-10118000I50000J0D01*
G01*
X11785000Y-10372000D02*
G75*
G02*
X11685000Y-10372000I-50000J0D01*
G01*
X11685000Y-10372000D02*
G75*
G02*
X11785000Y-10372000I50000J0D01*
G01*
X12810000Y-8256000D02*
G75*
G02*
X12710000Y-8256000I-50000J0D01*
G01*
X12710000Y-8256000D02*
G75*
G02*
X12810000Y-8256000I50000J0D01*
G01*
X12810000Y-8510000D02*
G75*
G02*
X12710000Y-8510000I-50000J0D01*
G01*
X12710000Y-8510000D02*
G75*
G02*
X12810000Y-8510000I50000J0D01*
G01*
X12810000Y-8764000D02*
G75*
G02*
X12710000Y-8764000I-50000J0D01*
G01*
X12710000Y-8764000D02*
G75*
G02*
X12810000Y-8764000I50000J0D01*
G01*
X12810000Y-9018000D02*
G75*
G02*
X12710000Y-9018000I-50000J0D01*
G01*
X12710000Y-9018000D02*
G75*
G02*
X12810000Y-9018000I50000J0D01*
G01*
X12810000Y-9272000D02*
G75*
G02*
X12710000Y-9272000I-50000J0D01*
G01*
X12710000Y-9272000D02*
G75*
G02*
X12810000Y-9272000I50000J0D01*
G01*
X12810000Y-9526000D02*
G75*
G02*
X12710000Y-9526000I-50000J0D01*
G01*
X12710000Y-9526000D02*
G75*
G02*
X12810000Y-9526000I50000J0D01*
G01*
X12810000Y-9780000D02*
G75*
G02*
X12710000Y-9780000I-50000J0D01*
G01*
X12710000Y-9780000D02*
G75*
G02*
X12810000Y-9780000I50000J0D01*
G01*
X12810000Y-10034000D02*
G75*
G02*
X12710000Y-10034000I-50000J0D01*
G01*
X12710000Y-10034000D02*
G75*
G02*
X12810000Y-10034000I50000J0D01*
G01*
X12810000Y-10288000D02*
G75*
G02*
X12710000Y-10288000I-50000J0D01*
G01*
X12710000Y-10288000D02*
G75*
G02*
X12810000Y-10288000I50000J0D01*
G01*
X12810000Y-10542000D02*
G75*
G02*
X12710000Y-10542000I-50000J0D01*
G01*
X12710000Y-10542000D02*
G75*
G02*
X12810000Y-10542000I50000J0D01*
G01*
X12810000Y-10796000D02*
G75*
G02*
X12710000Y-10796000I-50000J0D01*
G01*
X12710000Y-10796000D02*
G75*
G02*
X12810000Y-10796000I50000J0D01*
G01*
X12810000Y-11050000D02*
G75*
G02*
X12710000Y-11050000I-50000J0D01*
G01*
X12710000Y-11050000D02*
G75*
G02*
X12810000Y-11050000I50000J0D01*
G01*
X12810000Y-11304000D02*
G75*
G02*
X12710000Y-11304000I-50000J0D01*
G01*
X12710000Y-11304000D02*
G75*
G02*
X12810000Y-11304000I50000J0D01*
G01*
X12810000Y-11558000D02*
G75*
G02*
X12710000Y-11558000I-50000J0D01*
G01*
X12710000Y-11558000D02*
G75*
G02*
X12810000Y-11558000I50000J0D01*
G01*
X12810000Y-11812000D02*
G75*
G02*
X12710000Y-11812000I-50000J0D01*
G01*
X12710000Y-11812000D02*
G75*
G02*
X12810000Y-11812000I50000J0D01*
G01*
X14334000Y-8256000D02*
G75*
G02*
X14234000Y-8256000I-50000J0D01*
G01*
X14234000Y-8256000D02*
G75*
G02*
X14334000Y-8256000I50000J0D01*
G01*
X14334000Y-8510000D02*
G75*
G02*
X14234000Y-8510000I-50000J0D01*
G01*
X14234000Y-8510000D02*
G75*
G02*
X14334000Y-8510000I50000J0D01*
G01*
X14334000Y-8764000D02*
G75*
G02*
X14234000Y-8764000I-50000J0D01*
G01*
X14234000Y-8764000D02*
G75*
G02*
X14334000Y-8764000I50000J0D01*
G01*
X14334000Y-9018000D02*
G75*
G02*
X14234000Y-9018000I-50000J0D01*
G01*
X14234000Y-9018000D02*
G75*
G02*
X14334000Y-9018000I50000J0D01*
G01*
X14334000Y-9272000D02*
G75*
G02*
X14234000Y-9272000I-50000J0D01*
G01*
X14234000Y-9272000D02*
G75*
G02*
X14334000Y-9272000I50000J0D01*
G01*
X14334000Y-9526000D02*
G75*
G02*
X14234000Y-9526000I-50000J0D01*
G01*
X14234000Y-9526000D02*
G75*
G02*
X14334000Y-9526000I50000J0D01*
G01*
X14334000Y-9780000D02*
G75*
G02*
X14234000Y-9780000I-50000J0D01*
G01*
X14234000Y-9780000D02*
G75*
G02*
X14334000Y-9780000I50000J0D01*
G01*
X14334000Y-10034000D02*
G75*
G02*
X14234000Y-10034000I-50000J0D01*
G01*
X14234000Y-10034000D02*
G75*
G02*
X14334000Y-10034000I50000J0D01*
G01*
X14334000Y-10288000D02*
G75*
G02*
X14234000Y-10288000I-50000J0D01*
G01*
X14234000Y-10288000D02*
G75*
G02*
X14334000Y-10288000I50000J0D01*
G01*
X14334000Y-10542000D02*
G75*
G02*
X14234000Y-10542000I-50000J0D01*
G01*
X14234000Y-10542000D02*
G75*
G02*
X14334000Y-10542000I50000J0D01*
G01*
X14334000Y-10796000D02*
G75*
G02*
X14234000Y-10796000I-50000J0D01*
G01*
X14234000Y-10796000D02*
G75*
G02*
X14334000Y-10796000I50000J0D01*
G01*
X14334000Y-11050000D02*
G75*
G02*
X14234000Y-11050000I-50000J0D01*
G01*
X14234000Y-11050000D02*
G75*
G02*
X14334000Y-11050000I50000J0D01*
G01*
X14334000Y-11304000D02*
G75*
G02*
X14234000Y-11304000I-50000J0D01*
G01*
X14234000Y-11304000D02*
G75*
G02*
X14334000Y-11304000I50000J0D01*
G01*
X14334000Y-11558000D02*
G75*
G02*
X14234000Y-11558000I-50000J0D01*
G01*
X14234000Y-11558000D02*
G75*
G02*
X14334000Y-11558000I50000J0D01*
G01*
X14334000Y-11812000D02*
G75*
G02*
X14234000Y-11812000I-50000J0D01*
G01*
X14234000Y-11812000D02*
G75*
G02*
X14334000Y-11812000I50000J0D01*
G01*
X15305000Y-8678000D02*
G75*
G02*
X15205000Y-8678000I-50000J0D01*
G01*
X15205000Y-8678000D02*
G75*
G02*
X15305000Y-8678000I50000J0D01*
G01*
X15305000Y-8932000D02*
G75*
G02*
X15205000Y-8932000I-50000J0D01*
G01*
X15205000Y-8932000D02*
G75*
G02*
X15305000Y-8932000I50000J0D01*
G01*
X15305000Y-9186000D02*
G75*
G02*
X15205000Y-9186000I-50000J0D01*
G01*
X15205000Y-9186000D02*
G75*
G02*
X15305000Y-9186000I50000J0D01*
G01*
X15305000Y-9440000D02*
G75*
G02*
X15205000Y-9440000I-50000J0D01*
G01*
X15205000Y-9440000D02*
G75*
G02*
X15305000Y-9440000I50000J0D01*
G01*
X15305000Y-9694000D02*
G75*
G02*
X15205000Y-9694000I-50000J0D01*
G01*
X15205000Y-9694000D02*
G75*
G02*
X15305000Y-9694000I50000J0D01*
G01*
X15305000Y-9948000D02*
G75*
G02*
X15205000Y-9948000I-50000J0D01*
G01*
X15205000Y-9948000D02*
G75*
G02*
X15305000Y-9948000I50000J0D01*
G01*
X15305000Y-10202000D02*
G75*
G02*
X15205000Y-10202000I-50000J0D01*
G01*
X15205000Y-10202000D02*
G75*
G02*
X15305000Y-10202000I50000J0D01*
G01*
X15305000Y-10456000D02*
G75*
G02*
X15205000Y-10456000I-50000J0D01*
G01*
X15205000Y-10456000D02*
G75*
G02*
X15305000Y-10456000I50000J0D01*
G01*
X15305000Y-10710000D02*
G75*
G02*
X15205000Y-10710000I-50000J0D01*
G01*
X15205000Y-10710000D02*
G75*
G02*
X15305000Y-10710000I50000J0D01*
G01*
X15305000Y-10964000D02*
G75*
G02*
X15205000Y-10964000I-50000J0D01*
G01*
X15205000Y-10964000D02*
G75*
G02*
X15305000Y-10964000I50000J0D01*
G01*
X15305000Y-11218000D02*
G75*
G02*
X15205000Y-11218000I-50000J0D01*
G01*
X15205000Y-11218000D02*
G75*
G02*
X15305000Y-11218000I50000J0D01*
G01*
X15305000Y-11472000D02*
G75*
G02*
X15205000Y-11472000I-50000J0D01*
G01*
X15205000Y-11472000D02*
G75*
G02*
X15305000Y-11472000I50000J0D01*
G01*
X15770000Y-8678000D02*
G75*
G02*
X15670000Y-8678000I-50000J0D01*
G01*
X15670000Y-8678000D02*
G75*
G02*
X15770000Y-8678000I50000J0D01*
G01*
X15770000Y-8932000D02*
G75*
G02*
X15670000Y-8932000I-50000J0D01*
G01*
X15670000Y-8932000D02*
G75*
G02*
X15770000Y-8932000I50000J0D01*
G01*
X15770000Y-9186000D02*
G75*
G02*
X15670000Y-9186000I-50000J0D01*
G01*
X15670000Y-9186000D02*
G75*
G02*
X15770000Y-9186000I50000J0D01*
G01*
X15770000Y-9440000D02*
G75*
G02*
X15670000Y-9440000I-50000J0D01*
G01*
X15670000Y-9440000D02*
G75*
G02*
X15770000Y-9440000I50000J0D01*
G01*
X15770000Y-9694000D02*
G75*
G02*
X15670000Y-9694000I-50000J0D01*
G01*
X15670000Y-9694000D02*
G75*
G02*
X15770000Y-9694000I50000J0D01*
G01*
X15770000Y-9948000D02*
G75*
G02*
X15670000Y-9948000I-50000J0D01*
G01*
X15670000Y-9948000D02*
G75*
G02*
X15770000Y-9948000I50000J0D01*
G01*
X15770000Y-10202000D02*
G75*
G02*
X15670000Y-10202000I-50000J0D01*
G01*
X15670000Y-10202000D02*
G75*
G02*
X15770000Y-10202000I50000J0D01*
G01*
X15770000Y-10456000D02*
G75*
G02*
X15670000Y-10456000I-50000J0D01*
G01*
X15670000Y-10456000D02*
G75*
G02*
X15770000Y-10456000I50000J0D01*
G01*
X15770000Y-10710000D02*
G75*
G02*
X15670000Y-10710000I-50000J0D01*
G01*
X15670000Y-10710000D02*
G75*
G02*
X15770000Y-10710000I50000J0D01*
G01*
X15770000Y-10964000D02*
G75*
G02*
X15670000Y-10964000I-50000J0D01*
G01*
X15670000Y-10964000D02*
G75*
G02*
X15770000Y-10964000I50000J0D01*
G01*
X15770000Y-11218000D02*
G75*
G02*
X15670000Y-11218000I-50000J0D01*
G01*
X15670000Y-11218000D02*
G75*
G02*
X15770000Y-11218000I50000J0D01*
G01*
X15770000Y-11472000D02*
G75*
G02*
X15670000Y-11472000I-50000J0D01*
G01*
X15670000Y-11472000D02*
G75*
G02*
X15770000Y-11472000I50000J0D01*
G01*
X16235000Y-8678000D02*
G75*
G02*
X16135000Y-8678000I-50000J0D01*
G01*
X16135000Y-8678000D02*
G75*
G02*
X16235000Y-8678000I50000J0D01*
G01*
X16235000Y-8932000D02*
G75*
G02*
X16135000Y-8932000I-50000J0D01*
G01*
X16135000Y-8932000D02*
G75*
G02*
X16235000Y-8932000I50000J0D01*
G01*
X16235000Y-9186000D02*
G75*
G02*
X16135000Y-9186000I-50000J0D01*
G01*
X16135000Y-9186000D02*
G75*
G02*
X16235000Y-9186000I50000J0D01*
G01*
X16235000Y-9440000D02*
G75*
G02*
X16135000Y-9440000I-50000J0D01*
G01*
X16135000Y-9440000D02*
G75*
G02*
X16235000Y-9440000I50000J0D01*
G01*
X16235000Y-9694000D02*
G75*
G02*
X16135000Y-9694000I-50000J0D01*
G01*
X16135000Y-9694000D02*
G75*
G02*
X16235000Y-9694000I50000J0D01*
G01*
X16235000Y-9948000D02*
G75*
G02*
X16135000Y-9948000I-50000J0D01*
G01*
X16135000Y-9948000D02*
G75*
G02*
X16235000Y-9948000I50000J0D01*
G01*
X16235000Y-10202000D02*
G75*
G02*
X16135000Y-10202000I-50000J0D01*
G01*
X16135000Y-10202000D02*
G75*
G02*
X16235000Y-10202000I50000J0D01*
G01*
X16235000Y-10456000D02*
G75*
G02*
X16135000Y-10456000I-50000J0D01*
G01*
X16135000Y-10456000D02*
G75*
G02*
X16235000Y-10456000I50000J0D01*
G01*
X16235000Y-10710000D02*
G75*
G02*
X16135000Y-10710000I-50000J0D01*
G01*
X16135000Y-10710000D02*
G75*
G02*
X16235000Y-10710000I50000J0D01*
G01*
X16235000Y-10964000D02*
G75*
G02*
X16135000Y-10964000I-50000J0D01*
G01*
X16135000Y-10964000D02*
G75*
G02*
X16235000Y-10964000I50000J0D01*
G01*
X16235000Y-11218000D02*
G75*
G02*
X16135000Y-11218000I-50000J0D01*
G01*
X16135000Y-11218000D02*
G75*
G02*
X16235000Y-11218000I50000J0D01*
G01*
X16235000Y-11472000D02*
G75*
G02*
X16135000Y-11472000I-50000J0D01*
G01*
X16135000Y-11472000D02*
G75*
G02*
X16235000Y-11472000I50000J0D01*
G01*
D13*
X17840000Y-7840000D02*
X17840000Y-8080000D01*
X17720000Y-7960000D02*
X17960000Y-7960000D01*
X19110000Y-7840000D02*
X19110000Y-8080000D01*
X18990000Y-7960000D02*
X19230000Y-7960000D01*
D11*
X10358277Y-13913984D02*
X10358277Y-13713984D01*
X10358277Y-13713984D02*
X10405896Y-13713984D01*
X10405896Y-13713984D02*
X10434467Y-13723508D01*
X10434467Y-13723508D02*
X10453515Y-13742555D01*
X10453515Y-13742555D02*
X10463039Y-13761603D01*
X10463039Y-13761603D02*
X10472563Y-13799698D01*
X10472563Y-13799698D02*
X10472563Y-13828269D01*
X10472563Y-13828269D02*
X10463039Y-13866365D01*
X10463039Y-13866365D02*
X10453515Y-13885412D01*
X10453515Y-13885412D02*
X10434467Y-13904460D01*
X10434467Y-13904460D02*
X10405896Y-13913984D01*
X10405896Y-13913984D02*
X10358277Y-13913984D01*
X10558277Y-13913984D02*
X10558277Y-13780650D01*
X10558277Y-13818746D02*
X10567801Y-13799698D01*
X10567801Y-13799698D02*
X10577324Y-13790174D01*
X10577324Y-13790174D02*
X10596372Y-13780650D01*
X10596372Y-13780650D02*
X10615420Y-13780650D01*
X10682086Y-13913984D02*
X10682086Y-13780650D01*
X10682086Y-13713984D02*
X10672563Y-13723508D01*
X10672563Y-13723508D02*
X10682086Y-13733031D01*
X10682086Y-13733031D02*
X10691610Y-13723508D01*
X10691610Y-13723508D02*
X10682086Y-13713984D01*
X10682086Y-13713984D02*
X10682086Y-13733031D01*
X10805896Y-13913984D02*
X10786848Y-13904460D01*
X10786848Y-13904460D02*
X10777324Y-13885412D01*
X10777324Y-13885412D02*
X10777324Y-13713984D01*
X10910658Y-13913984D02*
X10891610Y-13904460D01*
X10891610Y-13904460D02*
X10882086Y-13885412D01*
X10882086Y-13885412D02*
X10882086Y-13713984D01*
X11139229Y-13913984D02*
X11139229Y-13713984D01*
X11139229Y-13713984D02*
X11205896Y-13856841D01*
X11205896Y-13856841D02*
X11272562Y-13713984D01*
X11272562Y-13713984D02*
X11272562Y-13913984D01*
X11453515Y-13913984D02*
X11453515Y-13809222D01*
X11453515Y-13809222D02*
X11443991Y-13790174D01*
X11443991Y-13790174D02*
X11424943Y-13780650D01*
X11424943Y-13780650D02*
X11386848Y-13780650D01*
X11386848Y-13780650D02*
X11367801Y-13790174D01*
X11453515Y-13904460D02*
X11434467Y-13913984D01*
X11434467Y-13913984D02*
X11386848Y-13913984D01*
X11386848Y-13913984D02*
X11367801Y-13904460D01*
X11367801Y-13904460D02*
X11358277Y-13885412D01*
X11358277Y-13885412D02*
X11358277Y-13866365D01*
X11358277Y-13866365D02*
X11367801Y-13847317D01*
X11367801Y-13847317D02*
X11386848Y-13837793D01*
X11386848Y-13837793D02*
X11434467Y-13837793D01*
X11434467Y-13837793D02*
X11453515Y-13828269D01*
X11548753Y-13780650D02*
X11548753Y-13980650D01*
X11548753Y-13790174D02*
X11567801Y-13780650D01*
X11567801Y-13780650D02*
X11605896Y-13780650D01*
X11605896Y-13780650D02*
X11624943Y-13790174D01*
X11624943Y-13790174D02*
X11634467Y-13799698D01*
X11634467Y-13799698D02*
X11643991Y-13818746D01*
X11643991Y-13818746D02*
X11643991Y-13875888D01*
X11643991Y-13875888D02*
X11634467Y-13894936D01*
X11634467Y-13894936D02*
X11624943Y-13904460D01*
X11624943Y-13904460D02*
X11605896Y-13913984D01*
X11605896Y-13913984D02*
X11567801Y-13913984D01*
X11567801Y-13913984D02*
X11548753Y-13904460D01*
X11729705Y-13894936D02*
X11739229Y-13904460D01*
X11739229Y-13904460D02*
X11729705Y-13913984D01*
X11729705Y-13913984D02*
X11720182Y-13904460D01*
X11720182Y-13904460D02*
X11729705Y-13894936D01*
X11729705Y-13894936D02*
X11729705Y-13913984D01*
X11729705Y-13790174D02*
X11739229Y-13799698D01*
X11739229Y-13799698D02*
X11729705Y-13809222D01*
X11729705Y-13809222D02*
X11720182Y-13799698D01*
X11720182Y-13799698D02*
X11729705Y-13790174D01*
X11729705Y-13790174D02*
X11729705Y-13809222D01*
D12*
X10067500Y-14227500D02*
X10097500Y-14257500D01*
X10097500Y-14227500D02*
X10067500Y-14257500D01*
D11*
X10396372Y-14133984D02*
X10415420Y-14133984D01*
X10415420Y-14133984D02*
X10434467Y-14143508D01*
X10434467Y-14143508D02*
X10443991Y-14153031D01*
X10443991Y-14153031D02*
X10453515Y-14172079D01*
X10453515Y-14172079D02*
X10463039Y-14210174D01*
X10463039Y-14210174D02*
X10463039Y-14257793D01*
X10463039Y-14257793D02*
X10453515Y-14295888D01*
X10453515Y-14295888D02*
X10443991Y-14314936D01*
X10443991Y-14314936D02*
X10434467Y-14324460D01*
X10434467Y-14324460D02*
X10415420Y-14333984D01*
X10415420Y-14333984D02*
X10396372Y-14333984D01*
X10396372Y-14333984D02*
X10377324Y-14324460D01*
X10377324Y-14324460D02*
X10367801Y-14314936D01*
X10367801Y-14314936D02*
X10358277Y-14295888D01*
X10358277Y-14295888D02*
X10348753Y-14257793D01*
X10348753Y-14257793D02*
X10348753Y-14210174D01*
X10348753Y-14210174D02*
X10358277Y-14172079D01*
X10358277Y-14172079D02*
X10367801Y-14153031D01*
X10367801Y-14153031D02*
X10377324Y-14143508D01*
X10377324Y-14143508D02*
X10396372Y-14133984D01*
X10548753Y-14314936D02*
X10558277Y-14324460D01*
X10558277Y-14324460D02*
X10548753Y-14333984D01*
X10548753Y-14333984D02*
X10539229Y-14324460D01*
X10539229Y-14324460D02*
X10548753Y-14314936D01*
X10548753Y-14314936D02*
X10548753Y-14333984D01*
X10624944Y-14133984D02*
X10748753Y-14133984D01*
X10748753Y-14133984D02*
X10682086Y-14210174D01*
X10682086Y-14210174D02*
X10710658Y-14210174D01*
X10710658Y-14210174D02*
X10729705Y-14219698D01*
X10729705Y-14219698D02*
X10739229Y-14229222D01*
X10739229Y-14229222D02*
X10748753Y-14248269D01*
X10748753Y-14248269D02*
X10748753Y-14295888D01*
X10748753Y-14295888D02*
X10739229Y-14314936D01*
X10739229Y-14314936D02*
X10729705Y-14324460D01*
X10729705Y-14324460D02*
X10710658Y-14333984D01*
X10710658Y-14333984D02*
X10653515Y-14333984D01*
X10653515Y-14333984D02*
X10634467Y-14324460D01*
X10634467Y-14324460D02*
X10624944Y-14314936D01*
X10872563Y-14133984D02*
X10891610Y-14133984D01*
X10891610Y-14133984D02*
X10910658Y-14143508D01*
X10910658Y-14143508D02*
X10920182Y-14153031D01*
X10920182Y-14153031D02*
X10929705Y-14172079D01*
X10929705Y-14172079D02*
X10939229Y-14210174D01*
X10939229Y-14210174D02*
X10939229Y-14257793D01*
X10939229Y-14257793D02*
X10929705Y-14295888D01*
X10929705Y-14295888D02*
X10920182Y-14314936D01*
X10920182Y-14314936D02*
X10910658Y-14324460D01*
X10910658Y-14324460D02*
X10891610Y-14333984D01*
X10891610Y-14333984D02*
X10872563Y-14333984D01*
X10872563Y-14333984D02*
X10853515Y-14324460D01*
X10853515Y-14324460D02*
X10843991Y-14314936D01*
X10843991Y-14314936D02*
X10834467Y-14295888D01*
X10834467Y-14295888D02*
X10824944Y-14257793D01*
X10824944Y-14257793D02*
X10824944Y-14210174D01*
X10824944Y-14210174D02*
X10834467Y-14172079D01*
X10834467Y-14172079D02*
X10843991Y-14153031D01*
X10843991Y-14153031D02*
X10853515Y-14143508D01*
X10853515Y-14143508D02*
X10872563Y-14133984D01*
X11063039Y-14133984D02*
X11082086Y-14133984D01*
X11082086Y-14133984D02*
X11101134Y-14143508D01*
X11101134Y-14143508D02*
X11110658Y-14153031D01*
X11110658Y-14153031D02*
X11120182Y-14172079D01*
X11120182Y-14172079D02*
X11129705Y-14210174D01*
X11129705Y-14210174D02*
X11129705Y-14257793D01*
X11129705Y-14257793D02*
X11120182Y-14295888D01*
X11120182Y-14295888D02*
X11110658Y-14314936D01*
X11110658Y-14314936D02*
X11101134Y-14324460D01*
X11101134Y-14324460D02*
X11082086Y-14333984D01*
X11082086Y-14333984D02*
X11063039Y-14333984D01*
X11063039Y-14333984D02*
X11043991Y-14324460D01*
X11043991Y-14324460D02*
X11034467Y-14314936D01*
X11034467Y-14314936D02*
X11024944Y-14295888D01*
X11024944Y-14295888D02*
X11015420Y-14257793D01*
X11015420Y-14257793D02*
X11015420Y-14210174D01*
X11015420Y-14210174D02*
X11024944Y-14172079D01*
X11024944Y-14172079D02*
X11034467Y-14153031D01*
X11034467Y-14153031D02*
X11043991Y-14143508D01*
X11043991Y-14143508D02*
X11063039Y-14133984D01*
X11215420Y-14333984D02*
X11215420Y-14200650D01*
X11215420Y-14219698D02*
X11224943Y-14210174D01*
X11224943Y-14210174D02*
X11243991Y-14200650D01*
X11243991Y-14200650D02*
X11272563Y-14200650D01*
X11272563Y-14200650D02*
X11291610Y-14210174D01*
X11291610Y-14210174D02*
X11301134Y-14229222D01*
X11301134Y-14229222D02*
X11301134Y-14333984D01*
X11301134Y-14229222D02*
X11310658Y-14210174D01*
X11310658Y-14210174D02*
X11329705Y-14200650D01*
X11329705Y-14200650D02*
X11358277Y-14200650D01*
X11358277Y-14200650D02*
X11377324Y-14210174D01*
X11377324Y-14210174D02*
X11386848Y-14229222D01*
X11386848Y-14229222D02*
X11386848Y-14333984D01*
X11482086Y-14333984D02*
X11482086Y-14200650D01*
X11482086Y-14219698D02*
X11491610Y-14210174D01*
X11491610Y-14210174D02*
X11510658Y-14200650D01*
X11510658Y-14200650D02*
X11539229Y-14200650D01*
X11539229Y-14200650D02*
X11558277Y-14210174D01*
X11558277Y-14210174D02*
X11567801Y-14229222D01*
X11567801Y-14229222D02*
X11567801Y-14333984D01*
X11567801Y-14229222D02*
X11577324Y-14210174D01*
X11577324Y-14210174D02*
X11596372Y-14200650D01*
X11596372Y-14200650D02*
X11624943Y-14200650D01*
X11624943Y-14200650D02*
X11643991Y-14210174D01*
X11643991Y-14210174D02*
X11653515Y-14229222D01*
X11653515Y-14229222D02*
X11653515Y-14333984D01*
X12043991Y-14124460D02*
X11872563Y-14381603D01*
X12301134Y-14133984D02*
X12320182Y-14133984D01*
X12320182Y-14133984D02*
X12339229Y-14143508D01*
X12339229Y-14143508D02*
X12348753Y-14153031D01*
X12348753Y-14153031D02*
X12358277Y-14172079D01*
X12358277Y-14172079D02*
X12367801Y-14210174D01*
X12367801Y-14210174D02*
X12367801Y-14257793D01*
X12367801Y-14257793D02*
X12358277Y-14295888D01*
X12358277Y-14295888D02*
X12348753Y-14314936D01*
X12348753Y-14314936D02*
X12339229Y-14324460D01*
X12339229Y-14324460D02*
X12320182Y-14333984D01*
X12320182Y-14333984D02*
X12301134Y-14333984D01*
X12301134Y-14333984D02*
X12282086Y-14324460D01*
X12282086Y-14324460D02*
X12272563Y-14314936D01*
X12272563Y-14314936D02*
X12263039Y-14295888D01*
X12263039Y-14295888D02*
X12253515Y-14257793D01*
X12253515Y-14257793D02*
X12253515Y-14210174D01*
X12253515Y-14210174D02*
X12263039Y-14172079D01*
X12263039Y-14172079D02*
X12272563Y-14153031D01*
X12272563Y-14153031D02*
X12282086Y-14143508D01*
X12282086Y-14143508D02*
X12301134Y-14133984D01*
X12453515Y-14314936D02*
X12463039Y-14324460D01*
X12463039Y-14324460D02*
X12453515Y-14333984D01*
X12453515Y-14333984D02*
X12443991Y-14324460D01*
X12443991Y-14324460D02*
X12453515Y-14314936D01*
X12453515Y-14314936D02*
X12453515Y-14333984D01*
X12586848Y-14133984D02*
X12605896Y-14133984D01*
X12605896Y-14133984D02*
X12624944Y-14143508D01*
X12624944Y-14143508D02*
X12634467Y-14153031D01*
X12634467Y-14153031D02*
X12643991Y-14172079D01*
X12643991Y-14172079D02*
X12653515Y-14210174D01*
X12653515Y-14210174D02*
X12653515Y-14257793D01*
X12653515Y-14257793D02*
X12643991Y-14295888D01*
X12643991Y-14295888D02*
X12634467Y-14314936D01*
X12634467Y-14314936D02*
X12624944Y-14324460D01*
X12624944Y-14324460D02*
X12605896Y-14333984D01*
X12605896Y-14333984D02*
X12586848Y-14333984D01*
X12586848Y-14333984D02*
X12567801Y-14324460D01*
X12567801Y-14324460D02*
X12558277Y-14314936D01*
X12558277Y-14314936D02*
X12548753Y-14295888D01*
X12548753Y-14295888D02*
X12539229Y-14257793D01*
X12539229Y-14257793D02*
X12539229Y-14210174D01*
X12539229Y-14210174D02*
X12548753Y-14172079D01*
X12548753Y-14172079D02*
X12558277Y-14153031D01*
X12558277Y-14153031D02*
X12567801Y-14143508D01*
X12567801Y-14143508D02*
X12586848Y-14133984D01*
X12843991Y-14333984D02*
X12729706Y-14333984D01*
X12786848Y-14333984D02*
X12786848Y-14133984D01*
X12786848Y-14133984D02*
X12767801Y-14162555D01*
X12767801Y-14162555D02*
X12748753Y-14181603D01*
X12748753Y-14181603D02*
X12729706Y-14191127D01*
X13034467Y-14333984D02*
X12920182Y-14333984D01*
X12977325Y-14333984D02*
X12977325Y-14133984D01*
X12977325Y-14133984D02*
X12958277Y-14162555D01*
X12958277Y-14162555D02*
X12939229Y-14181603D01*
X12939229Y-14181603D02*
X12920182Y-14191127D01*
X13148753Y-14219698D02*
X13129706Y-14210174D01*
X13129706Y-14210174D02*
X13120182Y-14200650D01*
X13120182Y-14200650D02*
X13110658Y-14181603D01*
X13110658Y-14181603D02*
X13110658Y-14172079D01*
X13110658Y-14172079D02*
X13120182Y-14153031D01*
X13120182Y-14153031D02*
X13129706Y-14143508D01*
X13129706Y-14143508D02*
X13148753Y-14133984D01*
X13148753Y-14133984D02*
X13186848Y-14133984D01*
X13186848Y-14133984D02*
X13205896Y-14143508D01*
X13205896Y-14143508D02*
X13215420Y-14153031D01*
X13215420Y-14153031D02*
X13224944Y-14172079D01*
X13224944Y-14172079D02*
X13224944Y-14181603D01*
X13224944Y-14181603D02*
X13215420Y-14200650D01*
X13215420Y-14200650D02*
X13205896Y-14210174D01*
X13205896Y-14210174D02*
X13186848Y-14219698D01*
X13186848Y-14219698D02*
X13148753Y-14219698D01*
X13148753Y-14219698D02*
X13129706Y-14229222D01*
X13129706Y-14229222D02*
X13120182Y-14238746D01*
X13120182Y-14238746D02*
X13110658Y-14257793D01*
X13110658Y-14257793D02*
X13110658Y-14295888D01*
X13110658Y-14295888D02*
X13120182Y-14314936D01*
X13120182Y-14314936D02*
X13129706Y-14324460D01*
X13129706Y-14324460D02*
X13148753Y-14333984D01*
X13148753Y-14333984D02*
X13186848Y-14333984D01*
X13186848Y-14333984D02*
X13205896Y-14324460D01*
X13205896Y-14324460D02*
X13215420Y-14314936D01*
X13215420Y-14314936D02*
X13224944Y-14295888D01*
X13224944Y-14295888D02*
X13224944Y-14257793D01*
X13224944Y-14257793D02*
X13215420Y-14238746D01*
X13215420Y-14238746D02*
X13205896Y-14229222D01*
X13205896Y-14229222D02*
X13186848Y-14219698D01*
X13301134Y-14133984D02*
X13301134Y-14172079D01*
X13377325Y-14133984D02*
X13377325Y-14172079D01*
X13672563Y-14410174D02*
X13663039Y-14400650D01*
X13663039Y-14400650D02*
X13643991Y-14372079D01*
X13643991Y-14372079D02*
X13634468Y-14353031D01*
X13634468Y-14353031D02*
X13624944Y-14324460D01*
X13624944Y-14324460D02*
X13615420Y-14276841D01*
X13615420Y-14276841D02*
X13615420Y-14238746D01*
X13615420Y-14238746D02*
X13624944Y-14191127D01*
X13624944Y-14191127D02*
X13634468Y-14162555D01*
X13634468Y-14162555D02*
X13643991Y-14143508D01*
X13643991Y-14143508D02*
X13663039Y-14114936D01*
X13663039Y-14114936D02*
X13672563Y-14105412D01*
X13853515Y-14333984D02*
X13739229Y-14333984D01*
X13796372Y-14333984D02*
X13796372Y-14133984D01*
X13796372Y-14133984D02*
X13777325Y-14162555D01*
X13777325Y-14162555D02*
X13758277Y-14181603D01*
X13758277Y-14181603D02*
X13739229Y-14191127D01*
X13948753Y-14333984D02*
X13986848Y-14333984D01*
X13986848Y-14333984D02*
X14005896Y-14324460D01*
X14005896Y-14324460D02*
X14015420Y-14314936D01*
X14015420Y-14314936D02*
X14034468Y-14286365D01*
X14034468Y-14286365D02*
X14043991Y-14248269D01*
X14043991Y-14248269D02*
X14043991Y-14172079D01*
X14043991Y-14172079D02*
X14034468Y-14153031D01*
X14034468Y-14153031D02*
X14024944Y-14143508D01*
X14024944Y-14143508D02*
X14005896Y-14133984D01*
X14005896Y-14133984D02*
X13967801Y-14133984D01*
X13967801Y-14133984D02*
X13948753Y-14143508D01*
X13948753Y-14143508D02*
X13939229Y-14153031D01*
X13939229Y-14153031D02*
X13929706Y-14172079D01*
X13929706Y-14172079D02*
X13929706Y-14219698D01*
X13929706Y-14219698D02*
X13939229Y-14238746D01*
X13939229Y-14238746D02*
X13948753Y-14248269D01*
X13948753Y-14248269D02*
X13967801Y-14257793D01*
X13967801Y-14257793D02*
X14005896Y-14257793D01*
X14005896Y-14257793D02*
X14024944Y-14248269D01*
X14024944Y-14248269D02*
X14034468Y-14238746D01*
X14034468Y-14238746D02*
X14043991Y-14219698D01*
X14282087Y-14333984D02*
X14282087Y-14133984D01*
X14367801Y-14333984D02*
X14367801Y-14229222D01*
X14367801Y-14229222D02*
X14358277Y-14210174D01*
X14358277Y-14210174D02*
X14339230Y-14200650D01*
X14339230Y-14200650D02*
X14310658Y-14200650D01*
X14310658Y-14200650D02*
X14291610Y-14210174D01*
X14291610Y-14210174D02*
X14282087Y-14219698D01*
X14491610Y-14333984D02*
X14472563Y-14324460D01*
X14472563Y-14324460D02*
X14463039Y-14314936D01*
X14463039Y-14314936D02*
X14453515Y-14295888D01*
X14453515Y-14295888D02*
X14453515Y-14238746D01*
X14453515Y-14238746D02*
X14463039Y-14219698D01*
X14463039Y-14219698D02*
X14472563Y-14210174D01*
X14472563Y-14210174D02*
X14491610Y-14200650D01*
X14491610Y-14200650D02*
X14520182Y-14200650D01*
X14520182Y-14200650D02*
X14539230Y-14210174D01*
X14539230Y-14210174D02*
X14548753Y-14219698D01*
X14548753Y-14219698D02*
X14558277Y-14238746D01*
X14558277Y-14238746D02*
X14558277Y-14295888D01*
X14558277Y-14295888D02*
X14548753Y-14314936D01*
X14548753Y-14314936D02*
X14539230Y-14324460D01*
X14539230Y-14324460D02*
X14520182Y-14333984D01*
X14520182Y-14333984D02*
X14491610Y-14333984D01*
X14672563Y-14333984D02*
X14653515Y-14324460D01*
X14653515Y-14324460D02*
X14643991Y-14305412D01*
X14643991Y-14305412D02*
X14643991Y-14133984D01*
X14824944Y-14324460D02*
X14805896Y-14333984D01*
X14805896Y-14333984D02*
X14767801Y-14333984D01*
X14767801Y-14333984D02*
X14748753Y-14324460D01*
X14748753Y-14324460D02*
X14739230Y-14305412D01*
X14739230Y-14305412D02*
X14739230Y-14229222D01*
X14739230Y-14229222D02*
X14748753Y-14210174D01*
X14748753Y-14210174D02*
X14767801Y-14200650D01*
X14767801Y-14200650D02*
X14805896Y-14200650D01*
X14805896Y-14200650D02*
X14824944Y-14210174D01*
X14824944Y-14210174D02*
X14834468Y-14229222D01*
X14834468Y-14229222D02*
X14834468Y-14248269D01*
X14834468Y-14248269D02*
X14739230Y-14267317D01*
X14910658Y-14324460D02*
X14929706Y-14333984D01*
X14929706Y-14333984D02*
X14967801Y-14333984D01*
X14967801Y-14333984D02*
X14986849Y-14324460D01*
X14986849Y-14324460D02*
X14996372Y-14305412D01*
X14996372Y-14305412D02*
X14996372Y-14295888D01*
X14996372Y-14295888D02*
X14986849Y-14276841D01*
X14986849Y-14276841D02*
X14967801Y-14267317D01*
X14967801Y-14267317D02*
X14939230Y-14267317D01*
X14939230Y-14267317D02*
X14920182Y-14257793D01*
X14920182Y-14257793D02*
X14910658Y-14238746D01*
X14910658Y-14238746D02*
X14910658Y-14229222D01*
X14910658Y-14229222D02*
X14920182Y-14210174D01*
X14920182Y-14210174D02*
X14939230Y-14200650D01*
X14939230Y-14200650D02*
X14967801Y-14200650D01*
X14967801Y-14200650D02*
X14986849Y-14210174D01*
X15063039Y-14410174D02*
X15072563Y-14400650D01*
X15072563Y-14400650D02*
X15091611Y-14372079D01*
X15091611Y-14372079D02*
X15101134Y-14353031D01*
X15101134Y-14353031D02*
X15110658Y-14324460D01*
X15110658Y-14324460D02*
X15120182Y-14276841D01*
X15120182Y-14276841D02*
X15120182Y-14238746D01*
X15120182Y-14238746D02*
X15110658Y-14191127D01*
X15110658Y-14191127D02*
X15101134Y-14162555D01*
X15101134Y-14162555D02*
X15091611Y-14143508D01*
X15091611Y-14143508D02*
X15072563Y-14114936D01*
X15072563Y-14114936D02*
X15063039Y-14105412D01*
D12*
X10097500Y-14506500D02*
G75*
G02*
X9997500Y-14506500I-50000J0D01*
G01*
X9997500Y-14506500D02*
G75*
G02*
X10097500Y-14506500I50000J0D01*
G01*
D11*
X10463039Y-14597984D02*
X10348753Y-14597984D01*
X10405896Y-14597984D02*
X10405896Y-14397984D01*
X10405896Y-14397984D02*
X10386848Y-14426555D01*
X10386848Y-14426555D02*
X10367801Y-14445603D01*
X10367801Y-14445603D02*
X10348753Y-14455127D01*
X10548753Y-14578936D02*
X10558277Y-14588460D01*
X10558277Y-14588460D02*
X10548753Y-14597984D01*
X10548753Y-14597984D02*
X10539229Y-14588460D01*
X10539229Y-14588460D02*
X10548753Y-14578936D01*
X10548753Y-14578936D02*
X10548753Y-14597984D01*
X10682086Y-14397984D02*
X10701134Y-14397984D01*
X10701134Y-14397984D02*
X10720182Y-14407508D01*
X10720182Y-14407508D02*
X10729705Y-14417031D01*
X10729705Y-14417031D02*
X10739229Y-14436079D01*
X10739229Y-14436079D02*
X10748753Y-14474174D01*
X10748753Y-14474174D02*
X10748753Y-14521793D01*
X10748753Y-14521793D02*
X10739229Y-14559888D01*
X10739229Y-14559888D02*
X10729705Y-14578936D01*
X10729705Y-14578936D02*
X10720182Y-14588460D01*
X10720182Y-14588460D02*
X10701134Y-14597984D01*
X10701134Y-14597984D02*
X10682086Y-14597984D01*
X10682086Y-14597984D02*
X10663039Y-14588460D01*
X10663039Y-14588460D02*
X10653515Y-14578936D01*
X10653515Y-14578936D02*
X10643991Y-14559888D01*
X10643991Y-14559888D02*
X10634467Y-14521793D01*
X10634467Y-14521793D02*
X10634467Y-14474174D01*
X10634467Y-14474174D02*
X10643991Y-14436079D01*
X10643991Y-14436079D02*
X10653515Y-14417031D01*
X10653515Y-14417031D02*
X10663039Y-14407508D01*
X10663039Y-14407508D02*
X10682086Y-14397984D01*
X10872563Y-14397984D02*
X10891610Y-14397984D01*
X10891610Y-14397984D02*
X10910658Y-14407508D01*
X10910658Y-14407508D02*
X10920182Y-14417031D01*
X10920182Y-14417031D02*
X10929705Y-14436079D01*
X10929705Y-14436079D02*
X10939229Y-14474174D01*
X10939229Y-14474174D02*
X10939229Y-14521793D01*
X10939229Y-14521793D02*
X10929705Y-14559888D01*
X10929705Y-14559888D02*
X10920182Y-14578936D01*
X10920182Y-14578936D02*
X10910658Y-14588460D01*
X10910658Y-14588460D02*
X10891610Y-14597984D01*
X10891610Y-14597984D02*
X10872563Y-14597984D01*
X10872563Y-14597984D02*
X10853515Y-14588460D01*
X10853515Y-14588460D02*
X10843991Y-14578936D01*
X10843991Y-14578936D02*
X10834467Y-14559888D01*
X10834467Y-14559888D02*
X10824944Y-14521793D01*
X10824944Y-14521793D02*
X10824944Y-14474174D01*
X10824944Y-14474174D02*
X10834467Y-14436079D01*
X10834467Y-14436079D02*
X10843991Y-14417031D01*
X10843991Y-14417031D02*
X10853515Y-14407508D01*
X10853515Y-14407508D02*
X10872563Y-14397984D01*
X11063039Y-14397984D02*
X11082086Y-14397984D01*
X11082086Y-14397984D02*
X11101134Y-14407508D01*
X11101134Y-14407508D02*
X11110658Y-14417031D01*
X11110658Y-14417031D02*
X11120182Y-14436079D01*
X11120182Y-14436079D02*
X11129705Y-14474174D01*
X11129705Y-14474174D02*
X11129705Y-14521793D01*
X11129705Y-14521793D02*
X11120182Y-14559888D01*
X11120182Y-14559888D02*
X11110658Y-14578936D01*
X11110658Y-14578936D02*
X11101134Y-14588460D01*
X11101134Y-14588460D02*
X11082086Y-14597984D01*
X11082086Y-14597984D02*
X11063039Y-14597984D01*
X11063039Y-14597984D02*
X11043991Y-14588460D01*
X11043991Y-14588460D02*
X11034467Y-14578936D01*
X11034467Y-14578936D02*
X11024944Y-14559888D01*
X11024944Y-14559888D02*
X11015420Y-14521793D01*
X11015420Y-14521793D02*
X11015420Y-14474174D01*
X11015420Y-14474174D02*
X11024944Y-14436079D01*
X11024944Y-14436079D02*
X11034467Y-14417031D01*
X11034467Y-14417031D02*
X11043991Y-14407508D01*
X11043991Y-14407508D02*
X11063039Y-14397984D01*
X11215420Y-14597984D02*
X11215420Y-14464650D01*
X11215420Y-14483698D02*
X11224943Y-14474174D01*
X11224943Y-14474174D02*
X11243991Y-14464650D01*
X11243991Y-14464650D02*
X11272563Y-14464650D01*
X11272563Y-14464650D02*
X11291610Y-14474174D01*
X11291610Y-14474174D02*
X11301134Y-14493222D01*
X11301134Y-14493222D02*
X11301134Y-14597984D01*
X11301134Y-14493222D02*
X11310658Y-14474174D01*
X11310658Y-14474174D02*
X11329705Y-14464650D01*
X11329705Y-14464650D02*
X11358277Y-14464650D01*
X11358277Y-14464650D02*
X11377324Y-14474174D01*
X11377324Y-14474174D02*
X11386848Y-14493222D01*
X11386848Y-14493222D02*
X11386848Y-14597984D01*
X11482086Y-14597984D02*
X11482086Y-14464650D01*
X11482086Y-14483698D02*
X11491610Y-14474174D01*
X11491610Y-14474174D02*
X11510658Y-14464650D01*
X11510658Y-14464650D02*
X11539229Y-14464650D01*
X11539229Y-14464650D02*
X11558277Y-14474174D01*
X11558277Y-14474174D02*
X11567801Y-14493222D01*
X11567801Y-14493222D02*
X11567801Y-14597984D01*
X11567801Y-14493222D02*
X11577324Y-14474174D01*
X11577324Y-14474174D02*
X11596372Y-14464650D01*
X11596372Y-14464650D02*
X11624943Y-14464650D01*
X11624943Y-14464650D02*
X11643991Y-14474174D01*
X11643991Y-14474174D02*
X11653515Y-14493222D01*
X11653515Y-14493222D02*
X11653515Y-14597984D01*
X12043991Y-14388460D02*
X11872563Y-14645603D01*
X12301134Y-14397984D02*
X12320182Y-14397984D01*
X12320182Y-14397984D02*
X12339229Y-14407508D01*
X12339229Y-14407508D02*
X12348753Y-14417031D01*
X12348753Y-14417031D02*
X12358277Y-14436079D01*
X12358277Y-14436079D02*
X12367801Y-14474174D01*
X12367801Y-14474174D02*
X12367801Y-14521793D01*
X12367801Y-14521793D02*
X12358277Y-14559888D01*
X12358277Y-14559888D02*
X12348753Y-14578936D01*
X12348753Y-14578936D02*
X12339229Y-14588460D01*
X12339229Y-14588460D02*
X12320182Y-14597984D01*
X12320182Y-14597984D02*
X12301134Y-14597984D01*
X12301134Y-14597984D02*
X12282086Y-14588460D01*
X12282086Y-14588460D02*
X12272563Y-14578936D01*
X12272563Y-14578936D02*
X12263039Y-14559888D01*
X12263039Y-14559888D02*
X12253515Y-14521793D01*
X12253515Y-14521793D02*
X12253515Y-14474174D01*
X12253515Y-14474174D02*
X12263039Y-14436079D01*
X12263039Y-14436079D02*
X12272563Y-14417031D01*
X12272563Y-14417031D02*
X12282086Y-14407508D01*
X12282086Y-14407508D02*
X12301134Y-14397984D01*
X12453515Y-14578936D02*
X12463039Y-14588460D01*
X12463039Y-14588460D02*
X12453515Y-14597984D01*
X12453515Y-14597984D02*
X12443991Y-14588460D01*
X12443991Y-14588460D02*
X12453515Y-14578936D01*
X12453515Y-14578936D02*
X12453515Y-14597984D01*
X12586848Y-14397984D02*
X12605896Y-14397984D01*
X12605896Y-14397984D02*
X12624944Y-14407508D01*
X12624944Y-14407508D02*
X12634467Y-14417031D01*
X12634467Y-14417031D02*
X12643991Y-14436079D01*
X12643991Y-14436079D02*
X12653515Y-14474174D01*
X12653515Y-14474174D02*
X12653515Y-14521793D01*
X12653515Y-14521793D02*
X12643991Y-14559888D01*
X12643991Y-14559888D02*
X12634467Y-14578936D01*
X12634467Y-14578936D02*
X12624944Y-14588460D01*
X12624944Y-14588460D02*
X12605896Y-14597984D01*
X12605896Y-14597984D02*
X12586848Y-14597984D01*
X12586848Y-14597984D02*
X12567801Y-14588460D01*
X12567801Y-14588460D02*
X12558277Y-14578936D01*
X12558277Y-14578936D02*
X12548753Y-14559888D01*
X12548753Y-14559888D02*
X12539229Y-14521793D01*
X12539229Y-14521793D02*
X12539229Y-14474174D01*
X12539229Y-14474174D02*
X12548753Y-14436079D01*
X12548753Y-14436079D02*
X12558277Y-14417031D01*
X12558277Y-14417031D02*
X12567801Y-14407508D01*
X12567801Y-14407508D02*
X12586848Y-14397984D01*
X12720182Y-14397984D02*
X12843991Y-14397984D01*
X12843991Y-14397984D02*
X12777325Y-14474174D01*
X12777325Y-14474174D02*
X12805896Y-14474174D01*
X12805896Y-14474174D02*
X12824944Y-14483698D01*
X12824944Y-14483698D02*
X12834467Y-14493222D01*
X12834467Y-14493222D02*
X12843991Y-14512269D01*
X12843991Y-14512269D02*
X12843991Y-14559888D01*
X12843991Y-14559888D02*
X12834467Y-14578936D01*
X12834467Y-14578936D02*
X12824944Y-14588460D01*
X12824944Y-14588460D02*
X12805896Y-14597984D01*
X12805896Y-14597984D02*
X12748753Y-14597984D01*
X12748753Y-14597984D02*
X12729706Y-14588460D01*
X12729706Y-14588460D02*
X12720182Y-14578936D01*
X12939229Y-14597984D02*
X12977325Y-14597984D01*
X12977325Y-14597984D02*
X12996372Y-14588460D01*
X12996372Y-14588460D02*
X13005896Y-14578936D01*
X13005896Y-14578936D02*
X13024944Y-14550365D01*
X13024944Y-14550365D02*
X13034467Y-14512269D01*
X13034467Y-14512269D02*
X13034467Y-14436079D01*
X13034467Y-14436079D02*
X13024944Y-14417031D01*
X13024944Y-14417031D02*
X13015420Y-14407508D01*
X13015420Y-14407508D02*
X12996372Y-14397984D01*
X12996372Y-14397984D02*
X12958277Y-14397984D01*
X12958277Y-14397984D02*
X12939229Y-14407508D01*
X12939229Y-14407508D02*
X12929706Y-14417031D01*
X12929706Y-14417031D02*
X12920182Y-14436079D01*
X12920182Y-14436079D02*
X12920182Y-14483698D01*
X12920182Y-14483698D02*
X12929706Y-14502746D01*
X12929706Y-14502746D02*
X12939229Y-14512269D01*
X12939229Y-14512269D02*
X12958277Y-14521793D01*
X12958277Y-14521793D02*
X12996372Y-14521793D01*
X12996372Y-14521793D02*
X13015420Y-14512269D01*
X13015420Y-14512269D02*
X13024944Y-14502746D01*
X13024944Y-14502746D02*
X13034467Y-14483698D01*
X13205896Y-14464650D02*
X13205896Y-14597984D01*
X13158277Y-14388460D02*
X13110658Y-14531317D01*
X13110658Y-14531317D02*
X13234467Y-14531317D01*
X13301134Y-14397984D02*
X13301134Y-14436079D01*
X13377325Y-14397984D02*
X13377325Y-14436079D01*
X13672563Y-14674174D02*
X13663039Y-14664650D01*
X13663039Y-14664650D02*
X13643991Y-14636079D01*
X13643991Y-14636079D02*
X13634468Y-14617031D01*
X13634468Y-14617031D02*
X13624944Y-14588460D01*
X13624944Y-14588460D02*
X13615420Y-14540841D01*
X13615420Y-14540841D02*
X13615420Y-14502746D01*
X13615420Y-14502746D02*
X13624944Y-14455127D01*
X13624944Y-14455127D02*
X13634468Y-14426555D01*
X13634468Y-14426555D02*
X13643991Y-14407508D01*
X13643991Y-14407508D02*
X13663039Y-14378936D01*
X13663039Y-14378936D02*
X13672563Y-14369412D01*
X13758277Y-14597984D02*
X13796372Y-14597984D01*
X13796372Y-14597984D02*
X13815420Y-14588460D01*
X13815420Y-14588460D02*
X13824944Y-14578936D01*
X13824944Y-14578936D02*
X13843991Y-14550365D01*
X13843991Y-14550365D02*
X13853515Y-14512269D01*
X13853515Y-14512269D02*
X13853515Y-14436079D01*
X13853515Y-14436079D02*
X13843991Y-14417031D01*
X13843991Y-14417031D02*
X13834468Y-14407508D01*
X13834468Y-14407508D02*
X13815420Y-14397984D01*
X13815420Y-14397984D02*
X13777325Y-14397984D01*
X13777325Y-14397984D02*
X13758277Y-14407508D01*
X13758277Y-14407508D02*
X13748753Y-14417031D01*
X13748753Y-14417031D02*
X13739229Y-14436079D01*
X13739229Y-14436079D02*
X13739229Y-14483698D01*
X13739229Y-14483698D02*
X13748753Y-14502746D01*
X13748753Y-14502746D02*
X13758277Y-14512269D01*
X13758277Y-14512269D02*
X13777325Y-14521793D01*
X13777325Y-14521793D02*
X13815420Y-14521793D01*
X13815420Y-14521793D02*
X13834468Y-14512269D01*
X13834468Y-14512269D02*
X13843991Y-14502746D01*
X13843991Y-14502746D02*
X13853515Y-14483698D01*
X13977325Y-14397984D02*
X13996372Y-14397984D01*
X13996372Y-14397984D02*
X14015420Y-14407508D01*
X14015420Y-14407508D02*
X14024944Y-14417031D01*
X14024944Y-14417031D02*
X14034468Y-14436079D01*
X14034468Y-14436079D02*
X14043991Y-14474174D01*
X14043991Y-14474174D02*
X14043991Y-14521793D01*
X14043991Y-14521793D02*
X14034468Y-14559888D01*
X14034468Y-14559888D02*
X14024944Y-14578936D01*
X14024944Y-14578936D02*
X14015420Y-14588460D01*
X14015420Y-14588460D02*
X13996372Y-14597984D01*
X13996372Y-14597984D02*
X13977325Y-14597984D01*
X13977325Y-14597984D02*
X13958277Y-14588460D01*
X13958277Y-14588460D02*
X13948753Y-14578936D01*
X13948753Y-14578936D02*
X13939229Y-14559888D01*
X13939229Y-14559888D02*
X13929706Y-14521793D01*
X13929706Y-14521793D02*
X13929706Y-14474174D01*
X13929706Y-14474174D02*
X13939229Y-14436079D01*
X13939229Y-14436079D02*
X13948753Y-14417031D01*
X13948753Y-14417031D02*
X13958277Y-14407508D01*
X13958277Y-14407508D02*
X13977325Y-14397984D01*
X14282087Y-14597984D02*
X14282087Y-14397984D01*
X14367801Y-14597984D02*
X14367801Y-14493222D01*
X14367801Y-14493222D02*
X14358277Y-14474174D01*
X14358277Y-14474174D02*
X14339230Y-14464650D01*
X14339230Y-14464650D02*
X14310658Y-14464650D01*
X14310658Y-14464650D02*
X14291610Y-14474174D01*
X14291610Y-14474174D02*
X14282087Y-14483698D01*
X14491610Y-14597984D02*
X14472563Y-14588460D01*
X14472563Y-14588460D02*
X14463039Y-14578936D01*
X14463039Y-14578936D02*
X14453515Y-14559888D01*
X14453515Y-14559888D02*
X14453515Y-14502746D01*
X14453515Y-14502746D02*
X14463039Y-14483698D01*
X14463039Y-14483698D02*
X14472563Y-14474174D01*
X14472563Y-14474174D02*
X14491610Y-14464650D01*
X14491610Y-14464650D02*
X14520182Y-14464650D01*
X14520182Y-14464650D02*
X14539230Y-14474174D01*
X14539230Y-14474174D02*
X14548753Y-14483698D01*
X14548753Y-14483698D02*
X14558277Y-14502746D01*
X14558277Y-14502746D02*
X14558277Y-14559888D01*
X14558277Y-14559888D02*
X14548753Y-14578936D01*
X14548753Y-14578936D02*
X14539230Y-14588460D01*
X14539230Y-14588460D02*
X14520182Y-14597984D01*
X14520182Y-14597984D02*
X14491610Y-14597984D01*
X14672563Y-14597984D02*
X14653515Y-14588460D01*
X14653515Y-14588460D02*
X14643991Y-14569412D01*
X14643991Y-14569412D02*
X14643991Y-14397984D01*
X14824944Y-14588460D02*
X14805896Y-14597984D01*
X14805896Y-14597984D02*
X14767801Y-14597984D01*
X14767801Y-14597984D02*
X14748753Y-14588460D01*
X14748753Y-14588460D02*
X14739230Y-14569412D01*
X14739230Y-14569412D02*
X14739230Y-14493222D01*
X14739230Y-14493222D02*
X14748753Y-14474174D01*
X14748753Y-14474174D02*
X14767801Y-14464650D01*
X14767801Y-14464650D02*
X14805896Y-14464650D01*
X14805896Y-14464650D02*
X14824944Y-14474174D01*
X14824944Y-14474174D02*
X14834468Y-14493222D01*
X14834468Y-14493222D02*
X14834468Y-14512269D01*
X14834468Y-14512269D02*
X14739230Y-14531317D01*
X14910658Y-14588460D02*
X14929706Y-14597984D01*
X14929706Y-14597984D02*
X14967801Y-14597984D01*
X14967801Y-14597984D02*
X14986849Y-14588460D01*
X14986849Y-14588460D02*
X14996372Y-14569412D01*
X14996372Y-14569412D02*
X14996372Y-14559888D01*
X14996372Y-14559888D02*
X14986849Y-14540841D01*
X14986849Y-14540841D02*
X14967801Y-14531317D01*
X14967801Y-14531317D02*
X14939230Y-14531317D01*
X14939230Y-14531317D02*
X14920182Y-14521793D01*
X14920182Y-14521793D02*
X14910658Y-14502746D01*
X14910658Y-14502746D02*
X14910658Y-14493222D01*
X14910658Y-14493222D02*
X14920182Y-14474174D01*
X14920182Y-14474174D02*
X14939230Y-14464650D01*
X14939230Y-14464650D02*
X14967801Y-14464650D01*
X14967801Y-14464650D02*
X14986849Y-14474174D01*
X15063039Y-14674174D02*
X15072563Y-14664650D01*
X15072563Y-14664650D02*
X15091611Y-14636079D01*
X15091611Y-14636079D02*
X15101134Y-14617031D01*
X15101134Y-14617031D02*
X15110658Y-14588460D01*
X15110658Y-14588460D02*
X15120182Y-14540841D01*
X15120182Y-14540841D02*
X15120182Y-14502746D01*
X15120182Y-14502746D02*
X15110658Y-14455127D01*
X15110658Y-14455127D02*
X15101134Y-14426555D01*
X15101134Y-14426555D02*
X15091611Y-14407508D01*
X15091611Y-14407508D02*
X15072563Y-14378936D01*
X15072563Y-14378936D02*
X15063039Y-14369412D01*
X9997500Y-14670500D02*
X9997500Y-14870500D01*
X9897500Y-14770500D02*
X10097500Y-14770500D01*
X10348753Y-14681031D02*
X10358277Y-14671508D01*
X10358277Y-14671508D02*
X10377324Y-14661984D01*
X10377324Y-14661984D02*
X10424944Y-14661984D01*
X10424944Y-14661984D02*
X10443991Y-14671508D01*
X10443991Y-14671508D02*
X10453515Y-14681031D01*
X10453515Y-14681031D02*
X10463039Y-14700079D01*
X10463039Y-14700079D02*
X10463039Y-14719127D01*
X10463039Y-14719127D02*
X10453515Y-14747698D01*
X10453515Y-14747698D02*
X10339229Y-14861984D01*
X10339229Y-14861984D02*
X10463039Y-14861984D01*
X10548753Y-14842936D02*
X10558277Y-14852460D01*
X10558277Y-14852460D02*
X10548753Y-14861984D01*
X10548753Y-14861984D02*
X10539229Y-14852460D01*
X10539229Y-14852460D02*
X10548753Y-14842936D01*
X10548753Y-14842936D02*
X10548753Y-14861984D01*
X10729705Y-14728650D02*
X10729705Y-14861984D01*
X10682086Y-14652460D02*
X10634467Y-14795317D01*
X10634467Y-14795317D02*
X10758277Y-14795317D01*
X10872563Y-14661984D02*
X10891610Y-14661984D01*
X10891610Y-14661984D02*
X10910658Y-14671508D01*
X10910658Y-14671508D02*
X10920182Y-14681031D01*
X10920182Y-14681031D02*
X10929705Y-14700079D01*
X10929705Y-14700079D02*
X10939229Y-14738174D01*
X10939229Y-14738174D02*
X10939229Y-14785793D01*
X10939229Y-14785793D02*
X10929705Y-14823888D01*
X10929705Y-14823888D02*
X10920182Y-14842936D01*
X10920182Y-14842936D02*
X10910658Y-14852460D01*
X10910658Y-14852460D02*
X10891610Y-14861984D01*
X10891610Y-14861984D02*
X10872563Y-14861984D01*
X10872563Y-14861984D02*
X10853515Y-14852460D01*
X10853515Y-14852460D02*
X10843991Y-14842936D01*
X10843991Y-14842936D02*
X10834467Y-14823888D01*
X10834467Y-14823888D02*
X10824944Y-14785793D01*
X10824944Y-14785793D02*
X10824944Y-14738174D01*
X10824944Y-14738174D02*
X10834467Y-14700079D01*
X10834467Y-14700079D02*
X10843991Y-14681031D01*
X10843991Y-14681031D02*
X10853515Y-14671508D01*
X10853515Y-14671508D02*
X10872563Y-14661984D01*
X11063039Y-14661984D02*
X11082086Y-14661984D01*
X11082086Y-14661984D02*
X11101134Y-14671508D01*
X11101134Y-14671508D02*
X11110658Y-14681031D01*
X11110658Y-14681031D02*
X11120182Y-14700079D01*
X11120182Y-14700079D02*
X11129705Y-14738174D01*
X11129705Y-14738174D02*
X11129705Y-14785793D01*
X11129705Y-14785793D02*
X11120182Y-14823888D01*
X11120182Y-14823888D02*
X11110658Y-14842936D01*
X11110658Y-14842936D02*
X11101134Y-14852460D01*
X11101134Y-14852460D02*
X11082086Y-14861984D01*
X11082086Y-14861984D02*
X11063039Y-14861984D01*
X11063039Y-14861984D02*
X11043991Y-14852460D01*
X11043991Y-14852460D02*
X11034467Y-14842936D01*
X11034467Y-14842936D02*
X11024944Y-14823888D01*
X11024944Y-14823888D02*
X11015420Y-14785793D01*
X11015420Y-14785793D02*
X11015420Y-14738174D01*
X11015420Y-14738174D02*
X11024944Y-14700079D01*
X11024944Y-14700079D02*
X11034467Y-14681031D01*
X11034467Y-14681031D02*
X11043991Y-14671508D01*
X11043991Y-14671508D02*
X11063039Y-14661984D01*
X11215420Y-14861984D02*
X11215420Y-14728650D01*
X11215420Y-14747698D02*
X11224943Y-14738174D01*
X11224943Y-14738174D02*
X11243991Y-14728650D01*
X11243991Y-14728650D02*
X11272563Y-14728650D01*
X11272563Y-14728650D02*
X11291610Y-14738174D01*
X11291610Y-14738174D02*
X11301134Y-14757222D01*
X11301134Y-14757222D02*
X11301134Y-14861984D01*
X11301134Y-14757222D02*
X11310658Y-14738174D01*
X11310658Y-14738174D02*
X11329705Y-14728650D01*
X11329705Y-14728650D02*
X11358277Y-14728650D01*
X11358277Y-14728650D02*
X11377324Y-14738174D01*
X11377324Y-14738174D02*
X11386848Y-14757222D01*
X11386848Y-14757222D02*
X11386848Y-14861984D01*
X11482086Y-14861984D02*
X11482086Y-14728650D01*
X11482086Y-14747698D02*
X11491610Y-14738174D01*
X11491610Y-14738174D02*
X11510658Y-14728650D01*
X11510658Y-14728650D02*
X11539229Y-14728650D01*
X11539229Y-14728650D02*
X11558277Y-14738174D01*
X11558277Y-14738174D02*
X11567801Y-14757222D01*
X11567801Y-14757222D02*
X11567801Y-14861984D01*
X11567801Y-14757222D02*
X11577324Y-14738174D01*
X11577324Y-14738174D02*
X11596372Y-14728650D01*
X11596372Y-14728650D02*
X11624943Y-14728650D01*
X11624943Y-14728650D02*
X11643991Y-14738174D01*
X11643991Y-14738174D02*
X11653515Y-14757222D01*
X11653515Y-14757222D02*
X11653515Y-14861984D01*
X12043991Y-14652460D02*
X11872563Y-14909603D01*
X12301134Y-14661984D02*
X12320182Y-14661984D01*
X12320182Y-14661984D02*
X12339229Y-14671508D01*
X12339229Y-14671508D02*
X12348753Y-14681031D01*
X12348753Y-14681031D02*
X12358277Y-14700079D01*
X12358277Y-14700079D02*
X12367801Y-14738174D01*
X12367801Y-14738174D02*
X12367801Y-14785793D01*
X12367801Y-14785793D02*
X12358277Y-14823888D01*
X12358277Y-14823888D02*
X12348753Y-14842936D01*
X12348753Y-14842936D02*
X12339229Y-14852460D01*
X12339229Y-14852460D02*
X12320182Y-14861984D01*
X12320182Y-14861984D02*
X12301134Y-14861984D01*
X12301134Y-14861984D02*
X12282086Y-14852460D01*
X12282086Y-14852460D02*
X12272563Y-14842936D01*
X12272563Y-14842936D02*
X12263039Y-14823888D01*
X12263039Y-14823888D02*
X12253515Y-14785793D01*
X12253515Y-14785793D02*
X12253515Y-14738174D01*
X12253515Y-14738174D02*
X12263039Y-14700079D01*
X12263039Y-14700079D02*
X12272563Y-14681031D01*
X12272563Y-14681031D02*
X12282086Y-14671508D01*
X12282086Y-14671508D02*
X12301134Y-14661984D01*
X12453515Y-14842936D02*
X12463039Y-14852460D01*
X12463039Y-14852460D02*
X12453515Y-14861984D01*
X12453515Y-14861984D02*
X12443991Y-14852460D01*
X12443991Y-14852460D02*
X12453515Y-14842936D01*
X12453515Y-14842936D02*
X12453515Y-14861984D01*
X12586848Y-14661984D02*
X12605896Y-14661984D01*
X12605896Y-14661984D02*
X12624944Y-14671508D01*
X12624944Y-14671508D02*
X12634467Y-14681031D01*
X12634467Y-14681031D02*
X12643991Y-14700079D01*
X12643991Y-14700079D02*
X12653515Y-14738174D01*
X12653515Y-14738174D02*
X12653515Y-14785793D01*
X12653515Y-14785793D02*
X12643991Y-14823888D01*
X12643991Y-14823888D02*
X12634467Y-14842936D01*
X12634467Y-14842936D02*
X12624944Y-14852460D01*
X12624944Y-14852460D02*
X12605896Y-14861984D01*
X12605896Y-14861984D02*
X12586848Y-14861984D01*
X12586848Y-14861984D02*
X12567801Y-14852460D01*
X12567801Y-14852460D02*
X12558277Y-14842936D01*
X12558277Y-14842936D02*
X12548753Y-14823888D01*
X12548753Y-14823888D02*
X12539229Y-14785793D01*
X12539229Y-14785793D02*
X12539229Y-14738174D01*
X12539229Y-14738174D02*
X12548753Y-14700079D01*
X12548753Y-14700079D02*
X12558277Y-14681031D01*
X12558277Y-14681031D02*
X12567801Y-14671508D01*
X12567801Y-14671508D02*
X12586848Y-14661984D01*
X12748753Y-14861984D02*
X12786848Y-14861984D01*
X12786848Y-14861984D02*
X12805896Y-14852460D01*
X12805896Y-14852460D02*
X12815420Y-14842936D01*
X12815420Y-14842936D02*
X12834467Y-14814365D01*
X12834467Y-14814365D02*
X12843991Y-14776269D01*
X12843991Y-14776269D02*
X12843991Y-14700079D01*
X12843991Y-14700079D02*
X12834467Y-14681031D01*
X12834467Y-14681031D02*
X12824944Y-14671508D01*
X12824944Y-14671508D02*
X12805896Y-14661984D01*
X12805896Y-14661984D02*
X12767801Y-14661984D01*
X12767801Y-14661984D02*
X12748753Y-14671508D01*
X12748753Y-14671508D02*
X12739229Y-14681031D01*
X12739229Y-14681031D02*
X12729706Y-14700079D01*
X12729706Y-14700079D02*
X12729706Y-14747698D01*
X12729706Y-14747698D02*
X12739229Y-14766746D01*
X12739229Y-14766746D02*
X12748753Y-14776269D01*
X12748753Y-14776269D02*
X12767801Y-14785793D01*
X12767801Y-14785793D02*
X12805896Y-14785793D01*
X12805896Y-14785793D02*
X12824944Y-14776269D01*
X12824944Y-14776269D02*
X12834467Y-14766746D01*
X12834467Y-14766746D02*
X12843991Y-14747698D01*
X13015420Y-14728650D02*
X13015420Y-14861984D01*
X12967801Y-14652460D02*
X12920182Y-14795317D01*
X12920182Y-14795317D02*
X13043991Y-14795317D01*
X13215420Y-14661984D02*
X13120182Y-14661984D01*
X13120182Y-14661984D02*
X13110658Y-14757222D01*
X13110658Y-14757222D02*
X13120182Y-14747698D01*
X13120182Y-14747698D02*
X13139229Y-14738174D01*
X13139229Y-14738174D02*
X13186848Y-14738174D01*
X13186848Y-14738174D02*
X13205896Y-14747698D01*
X13205896Y-14747698D02*
X13215420Y-14757222D01*
X13215420Y-14757222D02*
X13224944Y-14776269D01*
X13224944Y-14776269D02*
X13224944Y-14823888D01*
X13224944Y-14823888D02*
X13215420Y-14842936D01*
X13215420Y-14842936D02*
X13205896Y-14852460D01*
X13205896Y-14852460D02*
X13186848Y-14861984D01*
X13186848Y-14861984D02*
X13139229Y-14861984D01*
X13139229Y-14861984D02*
X13120182Y-14852460D01*
X13120182Y-14852460D02*
X13110658Y-14842936D01*
X13301134Y-14661984D02*
X13301134Y-14700079D01*
X13377325Y-14661984D02*
X13377325Y-14700079D01*
X13672563Y-14938174D02*
X13663039Y-14928650D01*
X13663039Y-14928650D02*
X13643991Y-14900079D01*
X13643991Y-14900079D02*
X13634468Y-14881031D01*
X13634468Y-14881031D02*
X13624944Y-14852460D01*
X13624944Y-14852460D02*
X13615420Y-14804841D01*
X13615420Y-14804841D02*
X13615420Y-14766746D01*
X13615420Y-14766746D02*
X13624944Y-14719127D01*
X13624944Y-14719127D02*
X13634468Y-14690555D01*
X13634468Y-14690555D02*
X13643991Y-14671508D01*
X13643991Y-14671508D02*
X13663039Y-14642936D01*
X13663039Y-14642936D02*
X13672563Y-14633412D01*
X13739229Y-14681031D02*
X13748753Y-14671508D01*
X13748753Y-14671508D02*
X13767801Y-14661984D01*
X13767801Y-14661984D02*
X13815420Y-14661984D01*
X13815420Y-14661984D02*
X13834468Y-14671508D01*
X13834468Y-14671508D02*
X13843991Y-14681031D01*
X13843991Y-14681031D02*
X13853515Y-14700079D01*
X13853515Y-14700079D02*
X13853515Y-14719127D01*
X13853515Y-14719127D02*
X13843991Y-14747698D01*
X13843991Y-14747698D02*
X13729706Y-14861984D01*
X13729706Y-14861984D02*
X13853515Y-14861984D01*
X14091610Y-14861984D02*
X14091610Y-14661984D01*
X14177325Y-14861984D02*
X14177325Y-14757222D01*
X14177325Y-14757222D02*
X14167801Y-14738174D01*
X14167801Y-14738174D02*
X14148753Y-14728650D01*
X14148753Y-14728650D02*
X14120182Y-14728650D01*
X14120182Y-14728650D02*
X14101134Y-14738174D01*
X14101134Y-14738174D02*
X14091610Y-14747698D01*
X14301134Y-14861984D02*
X14282087Y-14852460D01*
X14282087Y-14852460D02*
X14272563Y-14842936D01*
X14272563Y-14842936D02*
X14263039Y-14823888D01*
X14263039Y-14823888D02*
X14263039Y-14766746D01*
X14263039Y-14766746D02*
X14272563Y-14747698D01*
X14272563Y-14747698D02*
X14282087Y-14738174D01*
X14282087Y-14738174D02*
X14301134Y-14728650D01*
X14301134Y-14728650D02*
X14329706Y-14728650D01*
X14329706Y-14728650D02*
X14348753Y-14738174D01*
X14348753Y-14738174D02*
X14358277Y-14747698D01*
X14358277Y-14747698D02*
X14367801Y-14766746D01*
X14367801Y-14766746D02*
X14367801Y-14823888D01*
X14367801Y-14823888D02*
X14358277Y-14842936D01*
X14358277Y-14842936D02*
X14348753Y-14852460D01*
X14348753Y-14852460D02*
X14329706Y-14861984D01*
X14329706Y-14861984D02*
X14301134Y-14861984D01*
X14482087Y-14861984D02*
X14463039Y-14852460D01*
X14463039Y-14852460D02*
X14453515Y-14833412D01*
X14453515Y-14833412D02*
X14453515Y-14661984D01*
X14634468Y-14852460D02*
X14615420Y-14861984D01*
X14615420Y-14861984D02*
X14577325Y-14861984D01*
X14577325Y-14861984D02*
X14558277Y-14852460D01*
X14558277Y-14852460D02*
X14548753Y-14833412D01*
X14548753Y-14833412D02*
X14548753Y-14757222D01*
X14548753Y-14757222D02*
X14558277Y-14738174D01*
X14558277Y-14738174D02*
X14577325Y-14728650D01*
X14577325Y-14728650D02*
X14615420Y-14728650D01*
X14615420Y-14728650D02*
X14634468Y-14738174D01*
X14634468Y-14738174D02*
X14643991Y-14757222D01*
X14643991Y-14757222D02*
X14643991Y-14776269D01*
X14643991Y-14776269D02*
X14548753Y-14795317D01*
X14720182Y-14852460D02*
X14739230Y-14861984D01*
X14739230Y-14861984D02*
X14777325Y-14861984D01*
X14777325Y-14861984D02*
X14796372Y-14852460D01*
X14796372Y-14852460D02*
X14805896Y-14833412D01*
X14805896Y-14833412D02*
X14805896Y-14823888D01*
X14805896Y-14823888D02*
X14796372Y-14804841D01*
X14796372Y-14804841D02*
X14777325Y-14795317D01*
X14777325Y-14795317D02*
X14748753Y-14795317D01*
X14748753Y-14795317D02*
X14729706Y-14785793D01*
X14729706Y-14785793D02*
X14720182Y-14766746D01*
X14720182Y-14766746D02*
X14720182Y-14757222D01*
X14720182Y-14757222D02*
X14729706Y-14738174D01*
X14729706Y-14738174D02*
X14748753Y-14728650D01*
X14748753Y-14728650D02*
X14777325Y-14728650D01*
X14777325Y-14728650D02*
X14796372Y-14738174D01*
X14872563Y-14938174D02*
X14882087Y-14928650D01*
X14882087Y-14928650D02*
X14901134Y-14900079D01*
X14901134Y-14900079D02*
X14910658Y-14881031D01*
X14910658Y-14881031D02*
X14920182Y-14852460D01*
X14920182Y-14852460D02*
X14929706Y-14804841D01*
X14929706Y-14804841D02*
X14929706Y-14766746D01*
X14929706Y-14766746D02*
X14920182Y-14719127D01*
X14920182Y-14719127D02*
X14910658Y-14690555D01*
X14910658Y-14690555D02*
X14901134Y-14671508D01*
X14901134Y-14671508D02*
X14882087Y-14642936D01*
X14882087Y-14642936D02*
X14872563Y-14633412D01*
M02*
