G04 #@! TF.GenerationSoftware,KiCad,Pcbnew,8.0.6*
G04 #@! TF.CreationDate,2026-06-14T10:10:02+05:30*
G04 #@! TF.ProjectId,DumE,44756d45-2e6b-4696-9361-645f70636258,rev?*
G04 #@! TF.SameCoordinates,Original*
G04 #@! TF.FileFunction,Copper,L1,Top*
G04 #@! TF.FilePolarity,Positive*
%FSLAX46Y46*%
G04 Gerber Fmt 4.6, Leading zero omitted, Abs format (unit mm)*
G04 Created by KiCad (PCBNEW 8.0.6) date 2026-06-14 10:10:02*
%MOMM*%
%LPD*%
G01*
G04 APERTURE LIST*
G04 Aperture macros list*
%AMRoundRect*
0 Rectangle with rounded corners*
0 $1 Rounding radius*
0 $2 $3 $4 $5 $6 $7 $8 $9 X,Y pos of 4 corners*
0 Add a 4 corners polygon primitive as box body*
4,1,4,$2,$3,$4,$5,$6,$7,$8,$9,$2,$3,0*
0 Add four circle primitives for the rounded corners*
1,1,$1+$1,$2,$3*
1,1,$1+$1,$4,$5*
1,1,$1+$1,$6,$7*
1,1,$1+$1,$8,$9*
0 Add four rect primitives between the rounded corners*
20,1,$1+$1,$2,$3,$4,$5,0*
20,1,$1+$1,$4,$5,$6,$7,0*
20,1,$1+$1,$6,$7,$8,$9,0*
20,1,$1+$1,$8,$9,$2,$3,0*%
G04 Aperture macros list end*
G04 #@! TA.AperFunction,ComponentPad*
%ADD10R,3.000000X3.000000*%
G04 #@! TD*
G04 #@! TA.AperFunction,ComponentPad*
%ADD11C,3.000000*%
G04 #@! TD*
G04 #@! TA.AperFunction,SMDPad,CuDef*
%ADD12RoundRect,0.218750X-0.218750X-0.256250X0.218750X-0.256250X0.218750X0.256250X-0.218750X0.256250X0*%
G04 #@! TD*
G04 #@! TA.AperFunction,ComponentPad*
%ADD13R,1.700000X1.700000*%
G04 #@! TD*
G04 #@! TA.AperFunction,ComponentPad*
%ADD14O,1.700000X1.700000*%
G04 #@! TD*
G04 #@! TA.AperFunction,ComponentPad*
%ADD15R,1.600000X1.600000*%
G04 #@! TD*
G04 #@! TA.AperFunction,ComponentPad*
%ADD16O,1.600000X1.600000*%
G04 #@! TD*
G04 #@! TA.AperFunction,SMDPad,CuDef*
%ADD17R,1.500000X1.500000*%
G04 #@! TD*
G04 #@! TA.AperFunction,SMDPad,CuDef*
%ADD18RoundRect,0.200000X-0.200000X-0.275000X0.200000X-0.275000X0.200000X0.275000X-0.200000X0.275000X0*%
G04 #@! TD*
G04 #@! TA.AperFunction,SMDPad,CuDef*
%ADD19R,1.200000X0.500000*%
G04 #@! TD*
G04 #@! TA.AperFunction,SMDPad,CuDef*
%ADD20R,0.700000X0.700000*%
G04 #@! TD*
G04 #@! TA.AperFunction,ViaPad*
%ADD21C,0.600000*%
G04 #@! TD*
G04 #@! TA.AperFunction,Conductor*
%ADD22C,0.200000*%
G04 #@! TD*
G04 APERTURE END LIST*
D10*
X191100000Y-79600000D03*
D11*
X178400000Y-79600000D03*
D12*
X142312500Y-74000000D03*
X143887500Y-74000000D03*
D13*
X112300000Y-80260000D03*
D14*
X112300000Y-82800000D03*
X112300000Y-85340000D03*
X112300000Y-87880000D03*
D15*
X127600000Y-82560000D03*
D16*
X127600000Y-85100000D03*
X127600000Y-87640000D03*
X127600000Y-90180000D03*
X127600000Y-92720000D03*
X127600000Y-95260000D03*
X127600000Y-97800000D03*
X127600000Y-100340000D03*
X127600000Y-102880000D03*
X127600000Y-105420000D03*
X127600000Y-107960000D03*
X127600000Y-110500000D03*
X127600000Y-113040000D03*
X127600000Y-115580000D03*
X127600000Y-118120000D03*
X142840000Y-118120000D03*
X142840000Y-115580000D03*
X142840000Y-113040000D03*
X142840000Y-110500000D03*
X142840000Y-107960000D03*
X142840000Y-105420000D03*
X142840000Y-102880000D03*
X142840000Y-100340000D03*
X142840000Y-97800000D03*
X142840000Y-95260000D03*
X142840000Y-92720000D03*
X142840000Y-90180000D03*
X142840000Y-87640000D03*
X142840000Y-85100000D03*
X142840000Y-82560000D03*
D13*
X117350000Y-96100000D03*
D14*
X117350000Y-98640000D03*
X117350000Y-101180000D03*
X117350000Y-103720000D03*
D13*
X112700000Y-96100000D03*
D14*
X112700000Y-98640000D03*
X112700000Y-101180000D03*
X112700000Y-103720000D03*
D13*
X116950000Y-80260000D03*
D14*
X116950000Y-82800000D03*
X116950000Y-85340000D03*
X116950000Y-87880000D03*
D17*
X124900000Y-129000000D03*
X132700000Y-129000000D03*
D18*
X156475000Y-122900000D03*
X158125000Y-122900000D03*
D17*
X146800000Y-128800000D03*
X139000000Y-128800000D03*
D18*
X156500000Y-118900000D03*
X158150000Y-118900000D03*
D13*
X112150000Y-112100000D03*
D14*
X112150000Y-114640000D03*
X112150000Y-117180000D03*
X112150000Y-119720000D03*
D13*
X161850000Y-86780000D03*
D14*
X161850000Y-89320000D03*
X161850000Y-91860000D03*
X161850000Y-94400000D03*
X161850000Y-96940000D03*
X161850000Y-99480000D03*
X161850000Y-102020000D03*
X161850000Y-104560000D03*
X161850000Y-107100000D03*
X161850000Y-109640000D03*
X161850000Y-112180000D03*
X161850000Y-114720000D03*
D13*
X152550000Y-86780000D03*
D14*
X152550000Y-89320000D03*
X152550000Y-91860000D03*
X152550000Y-94400000D03*
X152550000Y-96940000D03*
X152550000Y-99480000D03*
X152550000Y-102020000D03*
X152550000Y-104560000D03*
X152550000Y-107100000D03*
X152550000Y-109640000D03*
X152550000Y-112180000D03*
X152550000Y-114720000D03*
D13*
X157200000Y-86780000D03*
D14*
X157200000Y-89320000D03*
X157200000Y-91860000D03*
X157200000Y-94400000D03*
X157200000Y-96940000D03*
X157200000Y-99480000D03*
X157200000Y-102020000D03*
X157200000Y-104560000D03*
X157200000Y-107100000D03*
X157200000Y-109640000D03*
X157200000Y-112180000D03*
X157200000Y-114720000D03*
D19*
X132450000Y-75000000D03*
X138350000Y-75000000D03*
D20*
X133250000Y-74000000D03*
X133250000Y-76000000D03*
X137550000Y-74000000D03*
X137550000Y-76000000D03*
D13*
X116800000Y-112100000D03*
D14*
X116800000Y-114640000D03*
X116800000Y-117180000D03*
X116800000Y-119720000D03*
D21*
X144300000Y-111100000D03*
X140300000Y-113200000D03*
X146300000Y-123700000D03*
X146200000Y-127400000D03*
X120400000Y-106300000D03*
X122500000Y-111600000D03*
X122000000Y-107900000D03*
X119300000Y-102300000D03*
X139900000Y-107100000D03*
X139300000Y-102800000D03*
X149100000Y-102100000D03*
X125200000Y-97400000D03*
X121400000Y-84500000D03*
X123600000Y-102900000D03*
X123500000Y-106800000D03*
X123500000Y-119700000D03*
X140100000Y-109700000D03*
X144200000Y-109300000D03*
X124100000Y-86000000D03*
D22*
X137000000Y-74000000D02*
X137550000Y-74000000D01*
X135000000Y-76000000D02*
X137000000Y-74000000D01*
X133250000Y-76000000D02*
X135000000Y-76000000D01*
X137450000Y-75900000D02*
X137550000Y-76000000D01*
X137450000Y-74550000D02*
X137450000Y-75900000D01*
X137550000Y-74000000D02*
X137550000Y-74450000D01*
X137550000Y-74450000D02*
X137450000Y-74550000D01*
X133350000Y-75900000D02*
X133250000Y-76000000D01*
X133250000Y-74000000D02*
X133350000Y-74100000D01*
X133350000Y-74100000D02*
X133350000Y-75900000D01*
X172800000Y-74000000D02*
X178400000Y-79600000D01*
X143887500Y-74000000D02*
X172800000Y-74000000D01*
X138350000Y-75000000D02*
X140800000Y-75000000D01*
X142840000Y-77040000D02*
X142840000Y-82560000D01*
X140800000Y-75000000D02*
X142840000Y-77040000D01*
X154900000Y-91300000D02*
X154900000Y-107290000D01*
X141740000Y-97344365D02*
X142724365Y-96360000D01*
X144300000Y-96300000D02*
X144300000Y-94600000D01*
X148190000Y-90710000D02*
X154310000Y-90710000D01*
X144300000Y-94600000D02*
X148190000Y-90710000D01*
X127600000Y-102880000D02*
X136320000Y-102880000D01*
X136320000Y-102880000D02*
X141740000Y-97460000D01*
X141740000Y-97460000D02*
X141740000Y-97344365D01*
X142724365Y-96360000D02*
X144240000Y-96360000D01*
X154310000Y-90710000D02*
X154900000Y-91300000D01*
X144240000Y-96360000D02*
X144300000Y-96300000D01*
X154900000Y-107290000D02*
X152550000Y-109640000D01*
X112150000Y-114640000D02*
X116800000Y-114640000D01*
X145900000Y-109500000D02*
X145900000Y-106400000D01*
X145900000Y-106400000D02*
X147740000Y-104560000D01*
X144300000Y-111100000D02*
X145900000Y-109500000D01*
X127600000Y-113040000D02*
X140140000Y-113040000D01*
X147740000Y-104560000D02*
X152550000Y-104560000D01*
X140140000Y-113040000D02*
X140300000Y-113200000D01*
X146200000Y-128200000D02*
X146800000Y-128800000D01*
X159200000Y-127800000D02*
X158200000Y-128800000D01*
X158150000Y-118900000D02*
X159200000Y-119950000D01*
X159200000Y-119950000D02*
X159200000Y-127800000D01*
X144500000Y-121900000D02*
X146300000Y-123700000D01*
X126500000Y-109060000D02*
X126500000Y-121900000D01*
X127600000Y-107960000D02*
X126500000Y-109060000D01*
X126500000Y-121900000D02*
X144500000Y-121900000D01*
X158200000Y-128800000D02*
X146800000Y-128800000D01*
X146200000Y-127400000D02*
X146200000Y-128200000D01*
X115280000Y-106300000D02*
X120400000Y-106300000D01*
X122500000Y-108400000D02*
X122500000Y-111600000D01*
X122000000Y-107900000D02*
X122500000Y-108400000D01*
X112700000Y-103720000D02*
X115280000Y-106300000D01*
X113850000Y-102330000D02*
X119270000Y-102330000D01*
X139400000Y-106600000D02*
X139900000Y-107100000D01*
X139400000Y-102900000D02*
X139400000Y-106600000D01*
X139300000Y-102800000D02*
X139400000Y-102900000D01*
X112700000Y-101180000D02*
X113850000Y-102330000D01*
X119270000Y-102330000D02*
X119300000Y-102300000D01*
X124580000Y-104320000D02*
X136320000Y-104320000D01*
X136320000Y-104320000D02*
X142840000Y-97800000D01*
X112150000Y-112100000D02*
X116800000Y-112100000D01*
X116800000Y-112100000D02*
X124580000Y-104320000D01*
X117350000Y-101180000D02*
X123270000Y-95260000D01*
X123270000Y-95260000D02*
X127600000Y-95260000D01*
X149100000Y-102100000D02*
X149180000Y-102020000D01*
X149180000Y-102020000D02*
X152550000Y-102020000D01*
X118880000Y-103720000D02*
X125200000Y-97400000D01*
X117350000Y-103720000D02*
X118880000Y-103720000D01*
X160170000Y-85100000D02*
X161850000Y-86780000D01*
X161850000Y-112180000D02*
X161850000Y-109640000D01*
X116800000Y-119720000D02*
X116800000Y-129600000D01*
X137760000Y-90180000D02*
X142840000Y-85100000D01*
X119700000Y-82800000D02*
X121400000Y-84500000D01*
X161850000Y-91860000D02*
X161850000Y-94400000D01*
X123300000Y-92000000D02*
X125780000Y-92000000D01*
X112700000Y-96100000D02*
X117350000Y-96100000D01*
X161850000Y-86780000D02*
X161850000Y-89320000D01*
X161850000Y-104560000D02*
X161850000Y-107100000D01*
X142840000Y-85100000D02*
X160170000Y-85100000D01*
X118500000Y-131300000D02*
X132500000Y-131300000D01*
X161850000Y-96940000D02*
X161850000Y-99480000D01*
X132900000Y-128800000D02*
X132700000Y-129000000D01*
X132700000Y-131100000D02*
X132700000Y-129000000D01*
X132500000Y-131300000D02*
X132700000Y-131100000D01*
X161850000Y-94400000D02*
X161850000Y-96940000D01*
X119200000Y-96100000D02*
X123300000Y-92000000D01*
X116800000Y-129600000D02*
X118500000Y-131300000D01*
X112300000Y-82800000D02*
X116950000Y-82800000D01*
X161850000Y-107100000D02*
X161850000Y-109640000D01*
X161850000Y-102020000D02*
X161850000Y-104560000D01*
X116950000Y-82800000D02*
X119700000Y-82800000D01*
X161850000Y-114720000D02*
X161850000Y-112180000D01*
X161850000Y-89320000D02*
X161850000Y-91860000D01*
X139000000Y-128800000D02*
X132900000Y-128800000D01*
X161850000Y-99480000D02*
X161850000Y-102020000D01*
X117350000Y-96100000D02*
X119200000Y-96100000D01*
X125780000Y-92000000D02*
X127600000Y-90180000D01*
X127600000Y-90180000D02*
X137760000Y-90180000D01*
X112150000Y-119720000D02*
X116800000Y-119720000D01*
X123600000Y-101800000D02*
X127600000Y-97800000D01*
X123500000Y-119700000D02*
X123500000Y-106800000D01*
X123600000Y-102900000D02*
X123600000Y-101800000D01*
X144200000Y-106400000D02*
X147190000Y-103410000D01*
X154310000Y-103410000D02*
X154500000Y-103600000D01*
X127600000Y-110500000D02*
X139300000Y-110500000D01*
X154500000Y-105150000D02*
X152550000Y-107100000D01*
X147190000Y-103410000D02*
X154310000Y-103410000D01*
X154500000Y-103600000D02*
X154500000Y-105150000D01*
X144200000Y-109300000D02*
X144200000Y-106400000D01*
X139300000Y-110500000D02*
X140100000Y-109700000D01*
X155600000Y-90260000D02*
X155600000Y-109130000D01*
X146130000Y-88170000D02*
X153510000Y-88170000D01*
X142724365Y-93820000D02*
X143380000Y-93820000D01*
X155600000Y-109130000D02*
X152550000Y-112180000D01*
X143380000Y-93820000D02*
X145300000Y-91900000D01*
X136560000Y-100340000D02*
X141740000Y-95160000D01*
X127600000Y-100340000D02*
X136560000Y-100340000D01*
X145300000Y-89000000D02*
X146130000Y-88170000D01*
X153510000Y-88170000D02*
X155600000Y-90260000D01*
X141740000Y-95160000D02*
X141740000Y-94804365D01*
X145300000Y-91900000D02*
X145300000Y-89000000D01*
X141740000Y-94804365D02*
X142724365Y-93820000D01*
X144900000Y-95100000D02*
X148140000Y-91860000D01*
X144900000Y-100820000D02*
X144900000Y-95100000D01*
X142840000Y-102880000D02*
X144900000Y-100820000D01*
X148140000Y-91860000D02*
X152550000Y-91860000D01*
X142840000Y-95260000D02*
X148780000Y-89320000D01*
X148780000Y-89320000D02*
X152550000Y-89320000D01*
X141740000Y-107504365D02*
X142644365Y-106600000D01*
X146800000Y-103015635D02*
X146800000Y-97900000D01*
X143215635Y-106600000D02*
X146800000Y-103015635D01*
X141740000Y-117020000D02*
X141740000Y-107504365D01*
X147760000Y-96940000D02*
X152550000Y-96940000D01*
X142644365Y-106600000D02*
X143215635Y-106600000D01*
X146800000Y-97900000D02*
X147760000Y-96940000D01*
X142840000Y-118120000D02*
X141740000Y-117020000D01*
X127360000Y-85340000D02*
X127600000Y-85100000D01*
X112300000Y-85340000D02*
X116950000Y-85340000D01*
X116950000Y-85340000D02*
X127360000Y-85340000D01*
X112300000Y-87880000D02*
X116950000Y-87880000D01*
X116950000Y-87880000D02*
X122220000Y-87880000D01*
X122220000Y-87880000D02*
X124100000Y-86000000D01*
X144600000Y-88400000D02*
X146220000Y-86780000D01*
X142840000Y-92720000D02*
X144600000Y-90960000D01*
X146220000Y-86780000D02*
X152550000Y-86780000D01*
X144600000Y-90960000D02*
X144600000Y-88400000D01*
X124900000Y-129000000D02*
X124900000Y-108120000D01*
X157900000Y-126800000D02*
X158125000Y-126575000D01*
X127100000Y-126800000D02*
X157900000Y-126800000D01*
X158125000Y-126575000D02*
X158125000Y-122900000D01*
X124900000Y-129000000D02*
X127100000Y-126800000D01*
X124900000Y-108120000D02*
X127600000Y-105420000D01*
X148900000Y-94400000D02*
X152550000Y-94400000D01*
X145900000Y-102360000D02*
X145900000Y-97400000D01*
X142840000Y-105420000D02*
X145900000Y-102360000D01*
X145900000Y-97400000D02*
X148900000Y-94400000D01*
X157200000Y-118200000D02*
X156500000Y-118900000D01*
X157200000Y-109640000D02*
X157200000Y-107100000D01*
X157200000Y-107100000D02*
X157200000Y-104560000D01*
X157200000Y-96940000D02*
X157200000Y-99480000D01*
X157200000Y-99480000D02*
X157200000Y-102020000D01*
X157200000Y-94400000D02*
X157200000Y-96940000D01*
X157200000Y-86780000D02*
X157200000Y-89320000D01*
X157200000Y-114720000D02*
X157200000Y-112180000D01*
X157200000Y-104560000D02*
X157200000Y-102020000D01*
X146160000Y-118900000D02*
X156500000Y-118900000D01*
X157200000Y-114720000D02*
X157200000Y-118200000D01*
X157200000Y-112180000D02*
X157200000Y-109640000D01*
X156500000Y-122875000D02*
X156475000Y-122900000D01*
X112300000Y-80260000D02*
X116950000Y-80260000D01*
X157200000Y-91860000D02*
X157200000Y-89320000D01*
X112700000Y-98640000D02*
X117350000Y-98640000D01*
X156500000Y-118900000D02*
X156500000Y-122875000D01*
X112150000Y-117180000D02*
X116800000Y-117180000D01*
X142840000Y-115580000D02*
X146160000Y-118900000D01*
X157200000Y-91860000D02*
X157200000Y-94400000D01*
X137550000Y-74000000D02*
X142312500Y-74000000D01*
G04 #@! TA.AperFunction,Conductor*
G36*
X115542540Y-80880185D02*
G01*
X115588295Y-80932989D01*
X115599501Y-80984500D01*
X115599501Y-81157876D01*
X115605908Y-81217483D01*
X115656202Y-81352328D01*
X115656206Y-81352335D01*
X115742452Y-81467544D01*
X115742455Y-81467547D01*
X115857664Y-81553793D01*
X115857671Y-81553797D01*
X115919902Y-81577007D01*
X115989598Y-81603002D01*
X116045531Y-81644873D01*
X116069949Y-81710337D01*
X116055098Y-81778610D01*
X116033947Y-81806865D01*
X115911886Y-81928926D01*
X115776400Y-82122420D01*
X115776399Y-82122422D01*
X115676570Y-82336507D01*
X115676567Y-82336513D01*
X115619364Y-82549999D01*
X115619364Y-82550000D01*
X116516988Y-82550000D01*
X116484075Y-82607007D01*
X116450000Y-82734174D01*
X116450000Y-82865826D01*
X116484075Y-82992993D01*
X116516988Y-83050000D01*
X115619364Y-83050000D01*
X115676567Y-83263486D01*
X115676570Y-83263492D01*
X115776399Y-83477578D01*
X115911894Y-83671082D01*
X116078917Y-83838105D01*
X116264595Y-83968119D01*
X116308219Y-84022696D01*
X116315412Y-84092195D01*
X116283890Y-84154549D01*
X116264595Y-84171269D01*
X116078594Y-84301508D01*
X115911506Y-84468596D01*
X115775965Y-84662170D01*
X115775962Y-84662175D01*
X115773289Y-84667909D01*
X115727115Y-84720346D01*
X115660909Y-84739500D01*
X113589091Y-84739500D01*
X113522052Y-84719815D01*
X113476711Y-84667909D01*
X113474037Y-84662175D01*
X113474034Y-84662170D01*
X113474033Y-84662169D01*
X113338495Y-84468599D01*
X113338494Y-84468597D01*
X113171402Y-84301506D01*
X113171401Y-84301505D01*
X112985405Y-84171269D01*
X112941781Y-84116692D01*
X112934588Y-84047193D01*
X112966110Y-83984839D01*
X112985405Y-83968119D01*
X113171082Y-83838105D01*
X113338105Y-83671082D01*
X113473600Y-83477578D01*
X113573429Y-83263492D01*
X113573432Y-83263486D01*
X113630636Y-83050000D01*
X112733012Y-83050000D01*
X112765925Y-82992993D01*
X112800000Y-82865826D01*
X112800000Y-82734174D01*
X112765925Y-82607007D01*
X112733012Y-82550000D01*
X113630636Y-82550000D01*
X113630635Y-82549999D01*
X113573432Y-82336513D01*
X113573429Y-82336507D01*
X113473600Y-82122422D01*
X113473599Y-82122420D01*
X113338113Y-81928926D01*
X113338108Y-81928920D01*
X113216053Y-81806865D01*
X113182568Y-81745542D01*
X113187552Y-81675850D01*
X113229424Y-81619917D01*
X113260400Y-81603002D01*
X113392331Y-81553796D01*
X113507546Y-81467546D01*
X113593796Y-81352331D01*
X113644091Y-81217483D01*
X113650500Y-81157873D01*
X113650500Y-80984500D01*
X113670185Y-80917461D01*
X113722989Y-80871706D01*
X113774500Y-80860500D01*
X115475501Y-80860500D01*
X115542540Y-80880185D01*
G37*
G04 #@! TD.AperFunction*
G04 #@! TA.AperFunction,Conductor*
G36*
X162100000Y-114286988D02*
G01*
X162042993Y-114254075D01*
X161915826Y-114220000D01*
X161784174Y-114220000D01*
X161657007Y-114254075D01*
X161600000Y-114286988D01*
X161600000Y-112613012D01*
X161657007Y-112645925D01*
X161784174Y-112680000D01*
X161915826Y-112680000D01*
X162042993Y-112645925D01*
X162100000Y-112613012D01*
X162100000Y-114286988D01*
G37*
G04 #@! TD.AperFunction*
G04 #@! TA.AperFunction,Conductor*
G36*
X162100000Y-111746988D02*
G01*
X162042993Y-111714075D01*
X161915826Y-111680000D01*
X161784174Y-111680000D01*
X161657007Y-111714075D01*
X161600000Y-111746988D01*
X161600000Y-110073012D01*
X161657007Y-110105925D01*
X161784174Y-110140000D01*
X161915826Y-110140000D01*
X162042993Y-110105925D01*
X162100000Y-110073012D01*
X162100000Y-111746988D01*
G37*
G04 #@! TD.AperFunction*
G04 #@! TA.AperFunction,Conductor*
G36*
X162100000Y-109206988D02*
G01*
X162042993Y-109174075D01*
X161915826Y-109140000D01*
X161784174Y-109140000D01*
X161657007Y-109174075D01*
X161600000Y-109206988D01*
X161600000Y-107533012D01*
X161657007Y-107565925D01*
X161784174Y-107600000D01*
X161915826Y-107600000D01*
X162042993Y-107565925D01*
X162100000Y-107533012D01*
X162100000Y-109206988D01*
G37*
G04 #@! TD.AperFunction*
G04 #@! TA.AperFunction,Conductor*
G36*
X162100000Y-106666988D02*
G01*
X162042993Y-106634075D01*
X161915826Y-106600000D01*
X161784174Y-106600000D01*
X161657007Y-106634075D01*
X161600000Y-106666988D01*
X161600000Y-104993012D01*
X161657007Y-105025925D01*
X161784174Y-105060000D01*
X161915826Y-105060000D01*
X162042993Y-105025925D01*
X162100000Y-104993012D01*
X162100000Y-106666988D01*
G37*
G04 #@! TD.AperFunction*
G04 #@! TA.AperFunction,Conductor*
G36*
X162100000Y-104126988D02*
G01*
X162042993Y-104094075D01*
X161915826Y-104060000D01*
X161784174Y-104060000D01*
X161657007Y-104094075D01*
X161600000Y-104126988D01*
X161600000Y-102453012D01*
X161657007Y-102485925D01*
X161784174Y-102520000D01*
X161915826Y-102520000D01*
X162042993Y-102485925D01*
X162100000Y-102453012D01*
X162100000Y-104126988D01*
G37*
G04 #@! TD.AperFunction*
G04 #@! TA.AperFunction,Conductor*
G36*
X162100000Y-101586988D02*
G01*
X162042993Y-101554075D01*
X161915826Y-101520000D01*
X161784174Y-101520000D01*
X161657007Y-101554075D01*
X161600000Y-101586988D01*
X161600000Y-99913012D01*
X161657007Y-99945925D01*
X161784174Y-99980000D01*
X161915826Y-99980000D01*
X162042993Y-99945925D01*
X162100000Y-99913012D01*
X162100000Y-101586988D01*
G37*
G04 #@! TD.AperFunction*
G04 #@! TA.AperFunction,Conductor*
G36*
X162100000Y-99046988D02*
G01*
X162042993Y-99014075D01*
X161915826Y-98980000D01*
X161784174Y-98980000D01*
X161657007Y-99014075D01*
X161600000Y-99046988D01*
X161600000Y-97373012D01*
X161657007Y-97405925D01*
X161784174Y-97440000D01*
X161915826Y-97440000D01*
X162042993Y-97405925D01*
X162100000Y-97373012D01*
X162100000Y-99046988D01*
G37*
G04 #@! TD.AperFunction*
G04 #@! TA.AperFunction,Conductor*
G36*
X162100000Y-96506988D02*
G01*
X162042993Y-96474075D01*
X161915826Y-96440000D01*
X161784174Y-96440000D01*
X161657007Y-96474075D01*
X161600000Y-96506988D01*
X161600000Y-94833012D01*
X161657007Y-94865925D01*
X161784174Y-94900000D01*
X161915826Y-94900000D01*
X162042993Y-94865925D01*
X162100000Y-94833012D01*
X162100000Y-96506988D01*
G37*
G04 #@! TD.AperFunction*
G04 #@! TA.AperFunction,Conductor*
G36*
X162100000Y-93966988D02*
G01*
X162042993Y-93934075D01*
X161915826Y-93900000D01*
X161784174Y-93900000D01*
X161657007Y-93934075D01*
X161600000Y-93966988D01*
X161600000Y-92293012D01*
X161657007Y-92325925D01*
X161784174Y-92360000D01*
X161915826Y-92360000D01*
X162042993Y-92325925D01*
X162100000Y-92293012D01*
X162100000Y-93966988D01*
G37*
G04 #@! TD.AperFunction*
G04 #@! TA.AperFunction,Conductor*
G36*
X162100000Y-91426988D02*
G01*
X162042993Y-91394075D01*
X161915826Y-91360000D01*
X161784174Y-91360000D01*
X161657007Y-91394075D01*
X161600000Y-91426988D01*
X161600000Y-89753012D01*
X161657007Y-89785925D01*
X161784174Y-89820000D01*
X161915826Y-89820000D01*
X162042993Y-89785925D01*
X162100000Y-89753012D01*
X162100000Y-91426988D01*
G37*
G04 #@! TD.AperFunction*
G04 #@! TA.AperFunction,Conductor*
G36*
X162100000Y-88886988D02*
G01*
X162042993Y-88854075D01*
X161915826Y-88820000D01*
X161784174Y-88820000D01*
X161657007Y-88854075D01*
X161600000Y-88886988D01*
X161600000Y-87213012D01*
X161657007Y-87245925D01*
X161784174Y-87280000D01*
X161915826Y-87280000D01*
X162042993Y-87245925D01*
X162100000Y-87213012D01*
X162100000Y-88886988D01*
G37*
G04 #@! TD.AperFunction*
G04 #@! TA.AperFunction,Conductor*
G36*
X205442539Y-68520185D02*
G01*
X205488294Y-68572989D01*
X205499500Y-68624500D01*
X205499500Y-135375500D01*
X205479815Y-135442539D01*
X205427011Y-135488294D01*
X205375500Y-135499500D01*
X101624500Y-135499500D01*
X101557461Y-135479815D01*
X101511706Y-135427011D01*
X101500500Y-135375500D01*
X101500500Y-114639999D01*
X110794341Y-114639999D01*
X110794341Y-114640000D01*
X110814936Y-114875403D01*
X110814938Y-114875413D01*
X110876094Y-115103655D01*
X110876096Y-115103659D01*
X110876097Y-115103663D01*
X110948839Y-115259658D01*
X110975965Y-115317830D01*
X110975967Y-115317834D01*
X111111501Y-115511395D01*
X111111506Y-115511402D01*
X111278597Y-115678493D01*
X111278603Y-115678498D01*
X111464158Y-115808425D01*
X111507783Y-115863002D01*
X111514977Y-115932500D01*
X111483454Y-115994855D01*
X111464158Y-116011575D01*
X111278597Y-116141505D01*
X111111505Y-116308597D01*
X110975965Y-116502169D01*
X110975964Y-116502171D01*
X110876098Y-116716335D01*
X110876094Y-116716344D01*
X110814938Y-116944586D01*
X110814936Y-116944596D01*
X110794341Y-117179999D01*
X110794341Y-117180000D01*
X110814936Y-117415403D01*
X110814938Y-117415413D01*
X110876094Y-117643655D01*
X110876096Y-117643659D01*
X110876097Y-117643663D01*
X110947631Y-117797067D01*
X110975965Y-117857830D01*
X110975967Y-117857834D01*
X111023635Y-117925910D01*
X111111505Y-118051401D01*
X111278599Y-118218495D01*
X111461690Y-118346697D01*
X111464594Y-118348730D01*
X111508219Y-118403307D01*
X111515413Y-118472805D01*
X111483890Y-118535160D01*
X111464595Y-118551880D01*
X111278922Y-118681890D01*
X111278920Y-118681891D01*
X111111891Y-118848920D01*
X111111886Y-118848926D01*
X110976400Y-119042420D01*
X110976399Y-119042422D01*
X110876570Y-119256507D01*
X110876567Y-119256513D01*
X110819364Y-119469999D01*
X110819364Y-119470000D01*
X111716988Y-119470000D01*
X111684075Y-119527007D01*
X111650000Y-119654174D01*
X111650000Y-119785826D01*
X111684075Y-119912993D01*
X111716988Y-119970000D01*
X110819364Y-119970000D01*
X110876567Y-120183486D01*
X110876570Y-120183492D01*
X110976399Y-120397578D01*
X111111894Y-120591082D01*
X111278917Y-120758105D01*
X111472421Y-120893600D01*
X111686507Y-120993429D01*
X111686516Y-120993433D01*
X111900000Y-121050634D01*
X111900000Y-120153012D01*
X111957007Y-120185925D01*
X112084174Y-120220000D01*
X112215826Y-120220000D01*
X112342993Y-120185925D01*
X112400000Y-120153012D01*
X112400000Y-121050633D01*
X112613483Y-120993433D01*
X112613492Y-120993429D01*
X112827578Y-120893600D01*
X113021082Y-120758105D01*
X113188105Y-120591082D01*
X113323600Y-120397578D01*
X113423429Y-120183492D01*
X113423432Y-120183486D01*
X113480636Y-119970000D01*
X112583012Y-119970000D01*
X112615925Y-119912993D01*
X112650000Y-119785826D01*
X112650000Y-119654174D01*
X112615925Y-119527007D01*
X112583012Y-119470000D01*
X113480636Y-119470000D01*
X113480635Y-119469999D01*
X113423432Y-119256513D01*
X113423429Y-119256507D01*
X113323600Y-119042422D01*
X113323599Y-119042420D01*
X113188113Y-118848926D01*
X113188108Y-118848920D01*
X113021078Y-118681890D01*
X112835405Y-118551879D01*
X112791780Y-118497302D01*
X112784588Y-118427804D01*
X112816110Y-118365449D01*
X112835406Y-118348730D01*
X113021401Y-118218495D01*
X113188495Y-118051401D01*
X113324035Y-117857830D01*
X113326707Y-117852097D01*
X113372878Y-117799658D01*
X113439091Y-117780500D01*
X115510909Y-117780500D01*
X115577948Y-117800185D01*
X115623292Y-117852097D01*
X115625965Y-117857830D01*
X115761505Y-118051401D01*
X115928599Y-118218495D01*
X116111690Y-118346697D01*
X116114594Y-118348730D01*
X116158219Y-118403307D01*
X116165413Y-118472805D01*
X116133890Y-118535160D01*
X116114595Y-118551880D01*
X115928922Y-118681890D01*
X115928920Y-118681891D01*
X115761891Y-118848920D01*
X115761886Y-118848926D01*
X115626400Y-119042420D01*
X115626399Y-119042422D01*
X115526570Y-119256507D01*
X115526567Y-119256513D01*
X115469364Y-119469999D01*
X115469364Y-119470000D01*
X116366988Y-119470000D01*
X116334075Y-119527007D01*
X116300000Y-119654174D01*
X116300000Y-119785826D01*
X116334075Y-119912993D01*
X116366988Y-119970000D01*
X115469364Y-119970000D01*
X115526567Y-120183486D01*
X115526570Y-120183492D01*
X115626399Y-120397578D01*
X115761894Y-120591082D01*
X115928917Y-120758105D01*
X116122421Y-120893600D01*
X116336507Y-120993429D01*
X116336516Y-120993433D01*
X116550000Y-121050634D01*
X116550000Y-120153012D01*
X116607007Y-120185925D01*
X116734174Y-120220000D01*
X116865826Y-120220000D01*
X116992993Y-120185925D01*
X117050000Y-120153012D01*
X117050000Y-121050633D01*
X117263483Y-120993433D01*
X117263492Y-120993429D01*
X117477578Y-120893600D01*
X117671082Y-120758105D01*
X117838105Y-120591082D01*
X117973600Y-120397578D01*
X118073429Y-120183492D01*
X118073432Y-120183486D01*
X118130636Y-119970000D01*
X117233012Y-119970000D01*
X117265925Y-119912993D01*
X117300000Y-119785826D01*
X117300000Y-119654174D01*
X117265925Y-119527007D01*
X117233012Y-119470000D01*
X118130636Y-119470000D01*
X118130635Y-119469999D01*
X118073432Y-119256513D01*
X118073429Y-119256507D01*
X117973600Y-119042422D01*
X117973599Y-119042420D01*
X117838113Y-118848926D01*
X117838108Y-118848920D01*
X117671078Y-118681890D01*
X117485405Y-118551879D01*
X117441780Y-118497302D01*
X117434588Y-118427804D01*
X117466110Y-118365449D01*
X117485406Y-118348730D01*
X117671401Y-118218495D01*
X117838495Y-118051401D01*
X117974035Y-117857830D01*
X118073903Y-117643663D01*
X118135063Y-117415408D01*
X118155659Y-117180000D01*
X118135063Y-116944592D01*
X118073903Y-116716337D01*
X117974035Y-116502171D01*
X117974034Y-116502169D01*
X117838494Y-116308597D01*
X117671402Y-116141506D01*
X117671396Y-116141501D01*
X117485842Y-116011575D01*
X117442217Y-115956998D01*
X117435023Y-115887500D01*
X117466546Y-115825145D01*
X117485842Y-115808425D01*
X117557706Y-115758105D01*
X117671401Y-115678495D01*
X117838495Y-115511401D01*
X117974035Y-115317830D01*
X118073903Y-115103663D01*
X118135063Y-114875408D01*
X118155659Y-114640000D01*
X118135063Y-114404592D01*
X118073903Y-114176337D01*
X117974035Y-113962171D01*
X117974034Y-113962169D01*
X117838496Y-113768600D01*
X117787526Y-113717630D01*
X117716567Y-113646671D01*
X117683084Y-113585351D01*
X117688068Y-113515659D01*
X117729939Y-113459725D01*
X117760915Y-113442810D01*
X117892331Y-113393796D01*
X118007546Y-113307546D01*
X118093796Y-113192331D01*
X118144091Y-113057483D01*
X118150500Y-112997873D01*
X118150499Y-111650095D01*
X118170184Y-111583057D01*
X118186813Y-111562420D01*
X121270897Y-108478337D01*
X121332220Y-108444852D01*
X121401912Y-108449836D01*
X121446259Y-108478337D01*
X121497738Y-108529816D01*
X121650478Y-108625789D01*
X121816455Y-108683867D01*
X121873230Y-108724588D01*
X121898978Y-108789540D01*
X121899500Y-108800908D01*
X121899500Y-111017587D01*
X121879815Y-111084626D01*
X121872450Y-111094896D01*
X121870186Y-111097734D01*
X121774211Y-111250476D01*
X121714631Y-111420745D01*
X121714630Y-111420750D01*
X121694435Y-111599996D01*
X121694435Y-111600003D01*
X121714630Y-111779249D01*
X121714631Y-111779254D01*
X121774211Y-111949523D01*
X121831033Y-112039954D01*
X121870184Y-112102262D01*
X121997738Y-112229816D01*
X122150478Y-112325789D01*
X122285379Y-112372993D01*
X122320745Y-112385368D01*
X122320750Y-112385369D01*
X122499996Y-112405565D01*
X122500000Y-112405565D01*
X122500004Y-112405565D01*
X122679249Y-112385369D01*
X122679250Y-112385368D01*
X122679255Y-112385368D01*
X122734545Y-112366020D01*
X122804322Y-112362458D01*
X122864950Y-112397186D01*
X122897178Y-112459179D01*
X122899500Y-112483062D01*
X122899500Y-119117587D01*
X122879815Y-119184626D01*
X122872450Y-119194896D01*
X122870186Y-119197734D01*
X122774211Y-119350476D01*
X122714631Y-119520745D01*
X122714630Y-119520750D01*
X122694435Y-119699996D01*
X122694435Y-119700003D01*
X122714630Y-119879249D01*
X122714631Y-119879254D01*
X122774211Y-120049523D01*
X122845147Y-120162416D01*
X122870184Y-120202262D01*
X122997738Y-120329816D01*
X123150478Y-120425789D01*
X123320745Y-120485368D01*
X123320750Y-120485369D01*
X123499996Y-120505565D01*
X123500000Y-120505565D01*
X123500004Y-120505565D01*
X123679249Y-120485369D01*
X123679252Y-120485368D01*
X123679255Y-120485368D01*
X123849522Y-120425789D01*
X124002262Y-120329816D01*
X124087819Y-120244259D01*
X124149142Y-120210774D01*
X124218834Y-120215758D01*
X124274767Y-120257630D01*
X124299184Y-120323094D01*
X124299500Y-120331940D01*
X124299500Y-127625500D01*
X124279815Y-127692539D01*
X124227011Y-127738294D01*
X124175502Y-127749500D01*
X124102130Y-127749500D01*
X124102123Y-127749501D01*
X124042516Y-127755908D01*
X123907671Y-127806202D01*
X123907664Y-127806206D01*
X123792455Y-127892452D01*
X123792452Y-127892455D01*
X123706206Y-128007664D01*
X123706202Y-128007671D01*
X123655908Y-128142517D01*
X123649501Y-128202116D01*
X123649500Y-128202135D01*
X123649500Y-129797870D01*
X123649501Y-129797876D01*
X123655908Y-129857483D01*
X123706202Y-129992328D01*
X123706206Y-129992335D01*
X123792452Y-130107544D01*
X123792455Y-130107547D01*
X123907664Y-130193793D01*
X123907671Y-130193797D01*
X124042517Y-130244091D01*
X124042516Y-130244091D01*
X124049444Y-130244835D01*
X124102127Y-130250500D01*
X125697872Y-130250499D01*
X125757483Y-130244091D01*
X125892331Y-130193796D01*
X126007546Y-130107546D01*
X126093796Y-129992331D01*
X126144091Y-129857483D01*
X126150500Y-129797873D01*
X126150500Y-129797844D01*
X131450000Y-129797844D01*
X131456401Y-129857372D01*
X131456403Y-129857379D01*
X131506645Y-129992086D01*
X131506649Y-129992093D01*
X131592809Y-130107187D01*
X131592812Y-130107190D01*
X131707906Y-130193350D01*
X131707913Y-130193354D01*
X131842620Y-130243596D01*
X131842627Y-130243598D01*
X131902155Y-130249999D01*
X131902172Y-130250000D01*
X132450000Y-130250000D01*
X132950000Y-130250000D01*
X133497828Y-130250000D01*
X133497844Y-130249999D01*
X133557372Y-130243598D01*
X133557379Y-130243596D01*
X133692086Y-130193354D01*
X133692093Y-130193350D01*
X133807187Y-130107190D01*
X133807190Y-130107187D01*
X133893350Y-129992093D01*
X133893354Y-129992086D01*
X133943596Y-129857379D01*
X133943598Y-129857372D01*
X133949999Y-129797844D01*
X133950000Y-129797827D01*
X133950000Y-129597844D01*
X137750000Y-129597844D01*
X137756401Y-129657372D01*
X137756403Y-129657379D01*
X137806645Y-129792086D01*
X137806649Y-129792093D01*
X137892809Y-129907187D01*
X137892812Y-129907190D01*
X138007906Y-129993350D01*
X138007913Y-129993354D01*
X138142620Y-130043596D01*
X138142627Y-130043598D01*
X138202155Y-130049999D01*
X138202172Y-130050000D01*
X138750000Y-130050000D01*
X139250000Y-130050000D01*
X139797828Y-130050000D01*
X139797844Y-130049999D01*
X139857372Y-130043598D01*
X139857379Y-130043596D01*
X139992086Y-129993354D01*
X139992093Y-129993350D01*
X140107187Y-129907190D01*
X140107190Y-129907187D01*
X140193350Y-129792093D01*
X140193354Y-129792086D01*
X140243596Y-129657379D01*
X140243598Y-129657372D01*
X140249999Y-129597844D01*
X140250000Y-129597827D01*
X140250000Y-129050000D01*
X139250000Y-129050000D01*
X139250000Y-130050000D01*
X138750000Y-130050000D01*
X138750000Y-129050000D01*
X137750000Y-129050000D01*
X137750000Y-129597844D01*
X133950000Y-129597844D01*
X133950000Y-129250000D01*
X132950000Y-129250000D01*
X132950000Y-130250000D01*
X132450000Y-130250000D01*
X132450000Y-129250000D01*
X131450000Y-129250000D01*
X131450000Y-129797844D01*
X126150500Y-129797844D01*
X126150499Y-128650095D01*
X126170184Y-128583057D01*
X126186813Y-128562420D01*
X126547079Y-128202155D01*
X131450000Y-128202155D01*
X131450000Y-128750000D01*
X132450000Y-128750000D01*
X132950000Y-128750000D01*
X133950000Y-128750000D01*
X133950000Y-128202172D01*
X133949999Y-128202155D01*
X133943598Y-128142627D01*
X133943596Y-128142620D01*
X133893354Y-128007913D01*
X133893350Y-128007906D01*
X133807190Y-127892812D01*
X133807187Y-127892809D01*
X133692093Y-127806649D01*
X133692086Y-127806645D01*
X133557379Y-127756403D01*
X133557372Y-127756401D01*
X133497844Y-127750000D01*
X132950000Y-127750000D01*
X132950000Y-128750000D01*
X132450000Y-128750000D01*
X132450000Y-127750000D01*
X131902155Y-127750000D01*
X131842627Y-127756401D01*
X131842620Y-127756403D01*
X131707913Y-127806645D01*
X131707906Y-127806649D01*
X131592812Y-127892809D01*
X131592809Y-127892812D01*
X131506649Y-128007906D01*
X131506645Y-128007913D01*
X131456403Y-128142620D01*
X131456401Y-128142627D01*
X131450000Y-128202155D01*
X126547079Y-128202155D01*
X127312416Y-127436819D01*
X127373739Y-127403334D01*
X127400097Y-127400500D01*
X137910731Y-127400500D01*
X137977770Y-127420185D01*
X138023525Y-127472989D01*
X138033469Y-127542147D01*
X138004444Y-127605703D01*
X137985042Y-127623766D01*
X137892812Y-127692809D01*
X137892809Y-127692812D01*
X137806649Y-127807906D01*
X137806645Y-127807913D01*
X137756403Y-127942620D01*
X137756401Y-127942627D01*
X137750000Y-128002155D01*
X137750000Y-128550000D01*
X140250000Y-128550000D01*
X140250000Y-128002172D01*
X140249999Y-128002155D01*
X140243598Y-127942627D01*
X140243596Y-127942620D01*
X140193354Y-127807913D01*
X140193350Y-127807906D01*
X140107190Y-127692812D01*
X140107187Y-127692809D01*
X140014958Y-127623766D01*
X139973087Y-127567832D01*
X139968103Y-127498141D01*
X140001589Y-127436818D01*
X140062912Y-127403334D01*
X140089269Y-127400500D01*
X145283678Y-127400500D01*
X145350717Y-127420185D01*
X145396472Y-127472989D01*
X145406898Y-127510617D01*
X145414630Y-127579249D01*
X145474210Y-127749522D01*
X145539100Y-127852793D01*
X145558100Y-127920030D01*
X145556309Y-127934758D01*
X145556738Y-127934805D01*
X145555909Y-127942516D01*
X145555909Y-127942517D01*
X145549501Y-128002123D01*
X145549500Y-128002135D01*
X145549500Y-129597870D01*
X145549501Y-129597876D01*
X145555908Y-129657483D01*
X145606202Y-129792328D01*
X145606206Y-129792335D01*
X145692452Y-129907544D01*
X145692455Y-129907547D01*
X145807664Y-129993793D01*
X145807671Y-129993797D01*
X145942517Y-130044091D01*
X145942516Y-130044091D01*
X145949444Y-130044835D01*
X146002127Y-130050500D01*
X147597872Y-130050499D01*
X147657483Y-130044091D01*
X147792331Y-129993796D01*
X147907546Y-129907546D01*
X147993796Y-129792331D01*
X148044091Y-129657483D01*
X148050500Y-129597873D01*
X148050500Y-129524500D01*
X148070185Y-129457461D01*
X148122989Y-129411706D01*
X148174500Y-129400500D01*
X158113331Y-129400500D01*
X158113347Y-129400501D01*
X158120943Y-129400501D01*
X158279054Y-129400501D01*
X158279057Y-129400501D01*
X158431785Y-129359577D01*
X158481904Y-129330639D01*
X158568716Y-129280520D01*
X158680520Y-129168716D01*
X158680520Y-129168714D01*
X158690728Y-129158507D01*
X158690729Y-129158504D01*
X159680520Y-128168716D01*
X159759577Y-128031784D01*
X159800501Y-127879057D01*
X159800501Y-127720942D01*
X159800501Y-127713347D01*
X159800500Y-127713329D01*
X159800500Y-119870944D01*
X159800500Y-119870943D01*
X159800003Y-119869086D01*
X159759577Y-119718215D01*
X159730639Y-119668095D01*
X159680520Y-119581284D01*
X159568716Y-119469480D01*
X159568715Y-119469479D01*
X159564385Y-119465149D01*
X159564374Y-119465139D01*
X159086819Y-118987584D01*
X159053334Y-118926261D01*
X159050500Y-118899903D01*
X159050500Y-118568386D01*
X159050500Y-118568384D01*
X159044086Y-118497804D01*
X159006746Y-118377973D01*
X172099500Y-118377973D01*
X172099500Y-118622026D01*
X172135437Y-118848926D01*
X172137679Y-118863076D01*
X172213096Y-119095185D01*
X172301514Y-119268716D01*
X172323896Y-119312642D01*
X172467339Y-119510076D01*
X172467343Y-119510081D01*
X172639918Y-119682656D01*
X172639923Y-119682660D01*
X172781920Y-119785826D01*
X172837361Y-119826106D01*
X173054815Y-119936904D01*
X173286924Y-120012321D01*
X173527973Y-120050500D01*
X173527974Y-120050500D01*
X173772026Y-120050500D01*
X173772027Y-120050500D01*
X174013076Y-120012321D01*
X174245185Y-119936904D01*
X174462639Y-119826106D01*
X174660083Y-119682655D01*
X174832655Y-119510083D01*
X174976106Y-119312639D01*
X175086904Y-119095185D01*
X175162321Y-118863076D01*
X175200500Y-118622027D01*
X175200500Y-118377973D01*
X175162321Y-118136924D01*
X175086904Y-117904815D01*
X174976106Y-117687361D01*
X174942174Y-117640657D01*
X174832660Y-117489923D01*
X174832656Y-117489918D01*
X174660081Y-117317343D01*
X174660076Y-117317339D01*
X174462642Y-117173896D01*
X174462641Y-117173895D01*
X174462639Y-117173894D01*
X174245185Y-117063096D01*
X174013076Y-116987679D01*
X174013074Y-116987678D01*
X174013072Y-116987678D01*
X173844769Y-116961021D01*
X173772027Y-116949500D01*
X173527973Y-116949500D01*
X173472093Y-116958350D01*
X173286927Y-116987678D01*
X173054812Y-117063097D01*
X172837357Y-117173896D01*
X172639923Y-117317339D01*
X172639918Y-117317343D01*
X172467343Y-117489918D01*
X172467339Y-117489923D01*
X172323896Y-117687357D01*
X172213097Y-117904812D01*
X172137678Y-118136927D01*
X172099500Y-118377973D01*
X159006746Y-118377973D01*
X158993478Y-118335394D01*
X158905472Y-118189815D01*
X158905470Y-118189813D01*
X158905469Y-118189811D01*
X158785188Y-118069530D01*
X158639606Y-117981522D01*
X158598304Y-117968652D01*
X158477196Y-117930914D01*
X158477194Y-117930913D01*
X158477192Y-117930913D01*
X158427778Y-117926423D01*
X158406616Y-117924500D01*
X157924500Y-117924500D01*
X157857461Y-117904815D01*
X157811706Y-117852011D01*
X157800500Y-117800500D01*
X157800500Y-116009090D01*
X157820185Y-115942051D01*
X157872101Y-115896706D01*
X157877830Y-115894035D01*
X158071401Y-115758495D01*
X158238495Y-115591401D01*
X158374035Y-115397830D01*
X158473903Y-115183663D01*
X158535063Y-114955408D01*
X158555659Y-114720000D01*
X158535063Y-114484592D01*
X158473903Y-114256337D01*
X158374035Y-114042171D01*
X158372547Y-114040045D01*
X158238494Y-113848597D01*
X158071402Y-113681506D01*
X158071396Y-113681501D01*
X157885842Y-113551575D01*
X157842217Y-113496998D01*
X157835023Y-113427500D01*
X157866546Y-113365145D01*
X157885842Y-113348425D01*
X158002561Y-113266697D01*
X158071401Y-113218495D01*
X158238495Y-113051401D01*
X158374035Y-112857830D01*
X158473903Y-112643663D01*
X158535063Y-112415408D01*
X158555659Y-112180000D01*
X158535063Y-111944592D01*
X158473903Y-111716337D01*
X158374035Y-111502171D01*
X158372547Y-111500045D01*
X158238494Y-111308597D01*
X158071402Y-111141506D01*
X158071396Y-111141501D01*
X157885842Y-111011575D01*
X157842217Y-110956998D01*
X157835023Y-110887500D01*
X157866546Y-110825145D01*
X157885842Y-110808425D01*
X158021864Y-110713181D01*
X158071401Y-110678495D01*
X158238495Y-110511401D01*
X158374035Y-110317830D01*
X158473903Y-110103663D01*
X158535063Y-109875408D01*
X158555659Y-109640000D01*
X158535063Y-109404592D01*
X158473903Y-109176337D01*
X158374035Y-108962171D01*
X158372547Y-108960045D01*
X158238494Y-108768597D01*
X158071402Y-108601506D01*
X158071396Y-108601501D01*
X157885842Y-108471575D01*
X157842217Y-108416998D01*
X157835023Y-108347500D01*
X157866546Y-108285145D01*
X157885842Y-108268425D01*
X157984905Y-108199060D01*
X158071401Y-108138495D01*
X158238495Y-107971401D01*
X158374035Y-107777830D01*
X158473903Y-107563663D01*
X158535063Y-107335408D01*
X158555659Y-107100000D01*
X158535063Y-106864592D01*
X158473903Y-106636337D01*
X158374035Y-106422171D01*
X158372547Y-106420045D01*
X158238494Y-106228597D01*
X158071402Y-106061506D01*
X158071396Y-106061501D01*
X157885842Y-105931575D01*
X157842217Y-105876998D01*
X157835023Y-105807500D01*
X157866546Y-105745145D01*
X157885842Y-105728425D01*
X157963727Y-105673889D01*
X158071401Y-105598495D01*
X158238495Y-105431401D01*
X158374035Y-105237830D01*
X158473903Y-105023663D01*
X158535063Y-104795408D01*
X158555659Y-104560000D01*
X158535063Y-104324592D01*
X158473903Y-104096337D01*
X158374035Y-103882171D01*
X158372547Y-103880045D01*
X158238494Y-103688597D01*
X158071402Y-103521506D01*
X158071396Y-103521501D01*
X157885842Y-103391575D01*
X157842217Y-103336998D01*
X157835023Y-103267500D01*
X157866546Y-103205145D01*
X157885842Y-103188425D01*
X157984277Y-103119500D01*
X158071401Y-103058495D01*
X158238495Y-102891401D01*
X158374035Y-102697830D01*
X158473903Y-102483663D01*
X158535063Y-102255408D01*
X158555659Y-102020000D01*
X158535063Y-101784592D01*
X158476690Y-101566739D01*
X158473905Y-101556344D01*
X158473904Y-101556343D01*
X158473903Y-101556337D01*
X158374035Y-101342171D01*
X158374034Y-101342169D01*
X158238494Y-101148597D01*
X158071402Y-100981506D01*
X158071396Y-100981501D01*
X157885842Y-100851575D01*
X157842217Y-100796998D01*
X157835023Y-100727500D01*
X157866546Y-100665145D01*
X157885842Y-100648425D01*
X157908026Y-100632891D01*
X158071401Y-100518495D01*
X158238495Y-100351401D01*
X158374035Y-100157830D01*
X158473903Y-99943663D01*
X158535063Y-99715408D01*
X158555659Y-99480000D01*
X158535063Y-99244592D01*
X158473903Y-99016337D01*
X158374035Y-98802171D01*
X158372547Y-98800045D01*
X158238494Y-98608597D01*
X158071402Y-98441506D01*
X158071396Y-98441501D01*
X157885842Y-98311575D01*
X157842217Y-98256998D01*
X157835023Y-98187500D01*
X157866546Y-98125145D01*
X157885842Y-98108425D01*
X157998107Y-98029816D01*
X158071401Y-97978495D01*
X158238495Y-97811401D01*
X158374035Y-97617830D01*
X158473903Y-97403663D01*
X158535063Y-97175408D01*
X158555659Y-96940000D01*
X158535063Y-96704592D01*
X158473903Y-96476337D01*
X158374035Y-96262171D01*
X158374034Y-96262169D01*
X158238494Y-96068597D01*
X158071402Y-95901506D01*
X158071396Y-95901501D01*
X157885842Y-95771575D01*
X157842217Y-95716998D01*
X157835023Y-95647500D01*
X157866546Y-95585145D01*
X157885842Y-95568425D01*
X158002561Y-95486697D01*
X158071401Y-95438495D01*
X158238495Y-95271401D01*
X158374035Y-95077830D01*
X158473903Y-94863663D01*
X158535063Y-94635408D01*
X158555659Y-94400000D01*
X158535063Y-94164592D01*
X158473903Y-93936337D01*
X158374035Y-93722171D01*
X158374034Y-93722169D01*
X158238494Y-93528597D01*
X158071402Y-93361506D01*
X158071396Y-93361501D01*
X157885842Y-93231575D01*
X157842217Y-93176998D01*
X157835023Y-93107500D01*
X157866546Y-93045145D01*
X157885842Y-93028425D01*
X158002561Y-92946697D01*
X158071401Y-92898495D01*
X158238495Y-92731401D01*
X158374035Y-92537830D01*
X158473903Y-92323663D01*
X158535063Y-92095408D01*
X158555659Y-91860000D01*
X158535063Y-91624592D01*
X158473903Y-91396337D01*
X158374035Y-91182171D01*
X158372547Y-91180045D01*
X158238494Y-90988597D01*
X158071402Y-90821506D01*
X158071396Y-90821501D01*
X157885842Y-90691575D01*
X157842217Y-90636998D01*
X157835023Y-90567500D01*
X157866546Y-90505145D01*
X157885842Y-90488425D01*
X158002561Y-90406697D01*
X158071401Y-90358495D01*
X158238495Y-90191401D01*
X158374035Y-89997830D01*
X158473903Y-89783663D01*
X158535063Y-89555408D01*
X158555659Y-89320000D01*
X158535063Y-89084592D01*
X158473903Y-88856337D01*
X158374035Y-88642171D01*
X158372546Y-88640045D01*
X158238496Y-88448600D01*
X158189395Y-88399499D01*
X158116567Y-88326671D01*
X158083084Y-88265351D01*
X158088068Y-88195659D01*
X158129939Y-88139725D01*
X158160915Y-88122810D01*
X158292331Y-88073796D01*
X158407546Y-87987546D01*
X158493796Y-87872331D01*
X158544091Y-87737483D01*
X158550500Y-87677873D01*
X158550499Y-85882155D01*
X160500000Y-85882155D01*
X160500000Y-86530000D01*
X161416988Y-86530000D01*
X161384075Y-86587007D01*
X161350000Y-86714174D01*
X161350000Y-86845826D01*
X161384075Y-86972993D01*
X161416988Y-87030000D01*
X160500000Y-87030000D01*
X160500000Y-87677844D01*
X160506401Y-87737372D01*
X160506403Y-87737379D01*
X160556645Y-87872086D01*
X160556649Y-87872093D01*
X160642809Y-87987187D01*
X160642812Y-87987190D01*
X160757906Y-88073350D01*
X160757913Y-88073354D01*
X160889986Y-88122614D01*
X160945920Y-88164485D01*
X160970337Y-88229949D01*
X160955486Y-88298222D01*
X160934335Y-88326477D01*
X160811886Y-88448926D01*
X160676400Y-88642420D01*
X160676399Y-88642422D01*
X160576570Y-88856507D01*
X160576567Y-88856513D01*
X160519364Y-89069999D01*
X160519364Y-89070000D01*
X161416988Y-89070000D01*
X161384075Y-89127007D01*
X161350000Y-89254174D01*
X161350000Y-89385826D01*
X161384075Y-89512993D01*
X161416988Y-89570000D01*
X160519364Y-89570000D01*
X160576567Y-89783486D01*
X160576570Y-89783492D01*
X160676399Y-89997578D01*
X160811894Y-90191082D01*
X160978917Y-90358105D01*
X161165031Y-90488425D01*
X161208656Y-90543003D01*
X161215848Y-90612501D01*
X161184326Y-90674856D01*
X161165031Y-90691575D01*
X160978922Y-90821890D01*
X160978920Y-90821891D01*
X160811891Y-90988920D01*
X160811886Y-90988926D01*
X160676400Y-91182420D01*
X160676399Y-91182422D01*
X160576570Y-91396507D01*
X160576567Y-91396513D01*
X160519364Y-91609999D01*
X160519364Y-91610000D01*
X161416988Y-91610000D01*
X161384075Y-91667007D01*
X161350000Y-91794174D01*
X161350000Y-91925826D01*
X161384075Y-92052993D01*
X161416988Y-92110000D01*
X160519364Y-92110000D01*
X160576567Y-92323486D01*
X160576570Y-92323492D01*
X160676399Y-92537578D01*
X160811894Y-92731082D01*
X160978917Y-92898105D01*
X161165031Y-93028425D01*
X161208656Y-93083003D01*
X161215848Y-93152501D01*
X161184326Y-93214856D01*
X161165031Y-93231575D01*
X160978922Y-93361890D01*
X160978920Y-93361891D01*
X160811891Y-93528920D01*
X160811886Y-93528926D01*
X160676400Y-93722420D01*
X160676399Y-93722422D01*
X160576570Y-93936507D01*
X160576567Y-93936513D01*
X160519364Y-94149999D01*
X160519364Y-94150000D01*
X161416988Y-94150000D01*
X161384075Y-94207007D01*
X161350000Y-94334174D01*
X161350000Y-94465826D01*
X161384075Y-94592993D01*
X161416988Y-94650000D01*
X160519364Y-94650000D01*
X160576567Y-94863486D01*
X160576570Y-94863492D01*
X160676399Y-95077578D01*
X160811894Y-95271082D01*
X160978917Y-95438105D01*
X161165031Y-95568425D01*
X161208656Y-95623003D01*
X161215848Y-95692501D01*
X161184326Y-95754856D01*
X161165031Y-95771575D01*
X160978922Y-95901890D01*
X160978920Y-95901891D01*
X160811891Y-96068920D01*
X160811886Y-96068926D01*
X160676400Y-96262420D01*
X160676399Y-96262422D01*
X160576570Y-96476507D01*
X160576567Y-96476513D01*
X160519364Y-96689999D01*
X160519364Y-96690000D01*
X161416988Y-96690000D01*
X161384075Y-96747007D01*
X161350000Y-96874174D01*
X161350000Y-97005826D01*
X161384075Y-97132993D01*
X161416988Y-97190000D01*
X160519364Y-97190000D01*
X160576567Y-97403486D01*
X160576570Y-97403492D01*
X160676399Y-97617578D01*
X160811894Y-97811082D01*
X160978917Y-97978105D01*
X161165031Y-98108425D01*
X161208656Y-98163003D01*
X161215848Y-98232501D01*
X161184326Y-98294856D01*
X161165031Y-98311575D01*
X160978922Y-98441890D01*
X160978920Y-98441891D01*
X160811891Y-98608920D01*
X160811886Y-98608926D01*
X160676400Y-98802420D01*
X160676399Y-98802422D01*
X160576570Y-99016507D01*
X160576567Y-99016513D01*
X160519364Y-99229999D01*
X160519364Y-99230000D01*
X161416988Y-99230000D01*
X161384075Y-99287007D01*
X161350000Y-99414174D01*
X161350000Y-99545826D01*
X161384075Y-99672993D01*
X161416988Y-99730000D01*
X160519364Y-99730000D01*
X160576567Y-99943486D01*
X160576570Y-99943492D01*
X160676399Y-100157578D01*
X160811894Y-100351082D01*
X160978917Y-100518105D01*
X161165031Y-100648425D01*
X161208656Y-100703003D01*
X161215848Y-100772501D01*
X161184326Y-100834856D01*
X161165031Y-100851575D01*
X160978922Y-100981890D01*
X160978920Y-100981891D01*
X160811891Y-101148920D01*
X160811886Y-101148926D01*
X160676400Y-101342420D01*
X160676399Y-101342422D01*
X160576570Y-101556507D01*
X160576567Y-101556513D01*
X160519364Y-101769999D01*
X160519364Y-101770000D01*
X161416988Y-101770000D01*
X161384075Y-101827007D01*
X161350000Y-101954174D01*
X161350000Y-102085826D01*
X161384075Y-102212993D01*
X161416988Y-102270000D01*
X160519364Y-102270000D01*
X160576567Y-102483486D01*
X160576570Y-102483492D01*
X160676399Y-102697578D01*
X160811894Y-102891082D01*
X160978917Y-103058105D01*
X161165031Y-103188425D01*
X161208656Y-103243003D01*
X161215848Y-103312501D01*
X161184326Y-103374856D01*
X161165031Y-103391575D01*
X160978922Y-103521890D01*
X160978920Y-103521891D01*
X160811891Y-103688920D01*
X160811886Y-103688926D01*
X160676400Y-103882420D01*
X160676399Y-103882422D01*
X160576570Y-104096507D01*
X160576567Y-104096513D01*
X160519364Y-104309999D01*
X160519364Y-104310000D01*
X161416988Y-104310000D01*
X161384075Y-104367007D01*
X161350000Y-104494174D01*
X161350000Y-104625826D01*
X161384075Y-104752993D01*
X161416988Y-104810000D01*
X160519364Y-104810000D01*
X160576567Y-105023486D01*
X160576570Y-105023492D01*
X160676399Y-105237578D01*
X160811894Y-105431082D01*
X160978917Y-105598105D01*
X161165031Y-105728425D01*
X161208656Y-105783003D01*
X161215848Y-105852501D01*
X161184326Y-105914856D01*
X161165031Y-105931575D01*
X160978922Y-106061890D01*
X160978920Y-106061891D01*
X160811891Y-106228920D01*
X160811886Y-106228926D01*
X160676400Y-106422420D01*
X160676399Y-106422422D01*
X160576570Y-106636507D01*
X160576567Y-106636513D01*
X160519364Y-106849999D01*
X160519364Y-106850000D01*
X161416988Y-106850000D01*
X161384075Y-106907007D01*
X161350000Y-107034174D01*
X161350000Y-107165826D01*
X161384075Y-107292993D01*
X161416988Y-107350000D01*
X160519364Y-107350000D01*
X160576567Y-107563486D01*
X160576570Y-107563492D01*
X160676399Y-107777578D01*
X160811894Y-107971082D01*
X160978917Y-108138105D01*
X161165031Y-108268425D01*
X161208656Y-108323003D01*
X161215848Y-108392501D01*
X161184326Y-108454856D01*
X161165031Y-108471575D01*
X160978922Y-108601890D01*
X160978920Y-108601891D01*
X160811891Y-108768920D01*
X160811886Y-108768926D01*
X160676400Y-108962420D01*
X160676399Y-108962422D01*
X160576570Y-109176507D01*
X160576567Y-109176513D01*
X160519364Y-109389999D01*
X160519364Y-109390000D01*
X161416988Y-109390000D01*
X161384075Y-109447007D01*
X161350000Y-109574174D01*
X161350000Y-109705826D01*
X161384075Y-109832993D01*
X161416988Y-109890000D01*
X160519364Y-109890000D01*
X160576567Y-110103486D01*
X160576570Y-110103492D01*
X160676399Y-110317578D01*
X160811894Y-110511082D01*
X160978917Y-110678105D01*
X161165031Y-110808425D01*
X161208656Y-110863003D01*
X161215848Y-110932501D01*
X161184326Y-110994856D01*
X161165031Y-111011575D01*
X160978922Y-111141890D01*
X160978920Y-111141891D01*
X160811891Y-111308920D01*
X160811886Y-111308926D01*
X160676400Y-111502420D01*
X160676399Y-111502422D01*
X160576570Y-111716507D01*
X160576567Y-111716513D01*
X160519364Y-111929999D01*
X160519364Y-111930000D01*
X161416988Y-111930000D01*
X161384075Y-111987007D01*
X161350000Y-112114174D01*
X161350000Y-112245826D01*
X161384075Y-112372993D01*
X161416988Y-112430000D01*
X160519364Y-112430000D01*
X160576567Y-112643486D01*
X160576570Y-112643492D01*
X160676399Y-112857578D01*
X160811894Y-113051082D01*
X160978917Y-113218105D01*
X161165031Y-113348425D01*
X161208656Y-113403003D01*
X161215848Y-113472501D01*
X161184326Y-113534856D01*
X161165031Y-113551575D01*
X160978922Y-113681890D01*
X160978920Y-113681891D01*
X160811891Y-113848920D01*
X160811886Y-113848926D01*
X160676400Y-114042420D01*
X160676399Y-114042422D01*
X160576570Y-114256507D01*
X160576567Y-114256513D01*
X160519364Y-114469999D01*
X160519364Y-114470000D01*
X161416988Y-114470000D01*
X161384075Y-114527007D01*
X161350000Y-114654174D01*
X161350000Y-114785826D01*
X161384075Y-114912993D01*
X161416988Y-114970000D01*
X160519364Y-114970000D01*
X160576567Y-115183486D01*
X160576570Y-115183492D01*
X160676399Y-115397578D01*
X160811894Y-115591082D01*
X160978917Y-115758105D01*
X161172421Y-115893600D01*
X161386507Y-115993429D01*
X161386516Y-115993433D01*
X161600000Y-116050634D01*
X161600000Y-115153012D01*
X161657007Y-115185925D01*
X161784174Y-115220000D01*
X161915826Y-115220000D01*
X162042993Y-115185925D01*
X162100000Y-115153012D01*
X162100000Y-116050633D01*
X162313483Y-115993433D01*
X162313492Y-115993429D01*
X162527578Y-115893600D01*
X162721082Y-115758105D01*
X162888105Y-115591082D01*
X163023600Y-115397578D01*
X163123429Y-115183492D01*
X163123432Y-115183486D01*
X163180636Y-114970000D01*
X162283012Y-114970000D01*
X162315925Y-114912993D01*
X162350000Y-114785826D01*
X162350000Y-114654174D01*
X162315925Y-114527007D01*
X162283012Y-114470000D01*
X163180636Y-114470000D01*
X163180635Y-114469999D01*
X163123432Y-114256513D01*
X163123429Y-114256507D01*
X163023600Y-114042422D01*
X163023599Y-114042420D01*
X162888113Y-113848926D01*
X162888108Y-113848920D01*
X162721082Y-113681894D01*
X162534968Y-113551575D01*
X162491344Y-113496998D01*
X162484151Y-113427499D01*
X162515673Y-113365145D01*
X162534968Y-113348425D01*
X162721082Y-113218105D01*
X162888105Y-113051082D01*
X163023600Y-112857578D01*
X163123429Y-112643492D01*
X163123432Y-112643486D01*
X163180636Y-112430000D01*
X162283012Y-112430000D01*
X162315925Y-112372993D01*
X162350000Y-112245826D01*
X162350000Y-112114174D01*
X162315925Y-111987007D01*
X162283012Y-111930000D01*
X163180636Y-111930000D01*
X163180635Y-111929999D01*
X163123432Y-111716513D01*
X163123429Y-111716507D01*
X163023600Y-111502422D01*
X163023599Y-111502420D01*
X162888113Y-111308926D01*
X162888108Y-111308920D01*
X162721082Y-111141894D01*
X162534968Y-111011575D01*
X162491344Y-110956998D01*
X162484151Y-110887499D01*
X162515673Y-110825145D01*
X162534968Y-110808425D01*
X162721082Y-110678105D01*
X162888105Y-110511082D01*
X163023600Y-110317578D01*
X163123429Y-110103492D01*
X163123432Y-110103486D01*
X163180636Y-109890000D01*
X162283012Y-109890000D01*
X162315925Y-109832993D01*
X162350000Y-109705826D01*
X162350000Y-109574174D01*
X162315925Y-109447007D01*
X162283012Y-109390000D01*
X163180636Y-109390000D01*
X163180635Y-109389999D01*
X163123432Y-109176513D01*
X163123429Y-109176507D01*
X163023600Y-108962422D01*
X163023599Y-108962420D01*
X162888113Y-108768926D01*
X162888108Y-108768920D01*
X162721082Y-108601894D01*
X162534968Y-108471575D01*
X162491344Y-108416998D01*
X162484151Y-108347499D01*
X162515673Y-108285145D01*
X162534968Y-108268425D01*
X162721082Y-108138105D01*
X162888105Y-107971082D01*
X163023600Y-107777578D01*
X163123429Y-107563492D01*
X163123432Y-107563486D01*
X163180636Y-107350000D01*
X162283012Y-107350000D01*
X162315925Y-107292993D01*
X162350000Y-107165826D01*
X162350000Y-107034174D01*
X162315925Y-106907007D01*
X162283012Y-106850000D01*
X163180636Y-106850000D01*
X163180635Y-106849999D01*
X163123432Y-106636513D01*
X163123429Y-106636507D01*
X163023600Y-106422422D01*
X163023599Y-106422420D01*
X162888113Y-106228926D01*
X162888108Y-106228920D01*
X162721082Y-106061894D01*
X162534968Y-105931575D01*
X162491344Y-105876998D01*
X162484151Y-105807499D01*
X162515673Y-105745145D01*
X162534968Y-105728425D01*
X162721082Y-105598105D01*
X162888105Y-105431082D01*
X163023600Y-105237578D01*
X163123429Y-105023492D01*
X163123432Y-105023486D01*
X163180636Y-104810000D01*
X162283012Y-104810000D01*
X162315925Y-104752993D01*
X162350000Y-104625826D01*
X162350000Y-104494174D01*
X162315925Y-104367007D01*
X162283012Y-104310000D01*
X163180636Y-104310000D01*
X163180635Y-104309999D01*
X163123432Y-104096513D01*
X163123429Y-104096507D01*
X163023600Y-103882422D01*
X163023599Y-103882420D01*
X162888113Y-103688926D01*
X162888108Y-103688920D01*
X162827161Y-103627973D01*
X194299500Y-103627973D01*
X194299500Y-103872027D01*
X194311021Y-103944769D01*
X194335055Y-104096513D01*
X194337679Y-104113076D01*
X194413096Y-104345185D01*
X194522549Y-104560000D01*
X194523896Y-104562642D01*
X194667339Y-104760076D01*
X194667343Y-104760081D01*
X194839918Y-104932656D01*
X194839923Y-104932660D01*
X195005236Y-105052766D01*
X195037361Y-105076106D01*
X195254815Y-105186904D01*
X195486924Y-105262321D01*
X195727973Y-105300500D01*
X195727974Y-105300500D01*
X195972026Y-105300500D01*
X195972027Y-105300500D01*
X196213076Y-105262321D01*
X196445185Y-105186904D01*
X196662639Y-105076106D01*
X196860083Y-104932655D01*
X197032655Y-104760083D01*
X197176106Y-104562639D01*
X197286904Y-104345185D01*
X197362321Y-104113076D01*
X197400500Y-103872027D01*
X197400500Y-103627973D01*
X197362321Y-103386924D01*
X197286904Y-103154815D01*
X197176106Y-102937361D01*
X197142710Y-102891395D01*
X197032660Y-102739923D01*
X197032656Y-102739918D01*
X196860081Y-102567343D01*
X196860076Y-102567339D01*
X196662642Y-102423896D01*
X196662641Y-102423895D01*
X196662639Y-102423894D01*
X196445185Y-102313096D01*
X196213076Y-102237679D01*
X196213074Y-102237678D01*
X196213072Y-102237678D01*
X196044769Y-102211021D01*
X195972027Y-102199500D01*
X195727973Y-102199500D01*
X195672093Y-102208350D01*
X195486927Y-102237678D01*
X195254812Y-102313097D01*
X195037357Y-102423896D01*
X194839923Y-102567339D01*
X194839918Y-102567343D01*
X194667343Y-102739918D01*
X194667339Y-102739923D01*
X194523896Y-102937357D01*
X194413097Y-103154812D01*
X194337678Y-103386927D01*
X194303710Y-103601391D01*
X194299500Y-103627973D01*
X162827161Y-103627973D01*
X162721082Y-103521894D01*
X162534968Y-103391575D01*
X162491344Y-103336998D01*
X162484151Y-103267499D01*
X162515673Y-103205145D01*
X162534968Y-103188425D01*
X162721082Y-103058105D01*
X162888105Y-102891082D01*
X163023600Y-102697578D01*
X163123429Y-102483492D01*
X163123432Y-102483486D01*
X163180636Y-102270000D01*
X162283012Y-102270000D01*
X162315925Y-102212993D01*
X162350000Y-102085826D01*
X162350000Y-101954174D01*
X162315925Y-101827007D01*
X162283012Y-101770000D01*
X163180636Y-101770000D01*
X163180635Y-101769999D01*
X163123432Y-101556513D01*
X163123429Y-101556507D01*
X163023600Y-101342422D01*
X163023599Y-101342420D01*
X162888113Y-101148926D01*
X162888108Y-101148920D01*
X162721082Y-100981894D01*
X162534968Y-100851575D01*
X162491344Y-100796998D01*
X162484151Y-100727499D01*
X162515673Y-100665145D01*
X162534968Y-100648425D01*
X162721082Y-100518105D01*
X162888105Y-100351082D01*
X163023600Y-100157578D01*
X163123429Y-99943492D01*
X163123432Y-99943486D01*
X163180636Y-99730000D01*
X162283012Y-99730000D01*
X162315925Y-99672993D01*
X162350000Y-99545826D01*
X162350000Y-99414174D01*
X162315925Y-99287007D01*
X162283012Y-99230000D01*
X163180636Y-99230000D01*
X163180635Y-99229999D01*
X163123432Y-99016513D01*
X163123429Y-99016507D01*
X163023600Y-98802422D01*
X163023599Y-98802420D01*
X162888113Y-98608926D01*
X162888108Y-98608920D01*
X162721082Y-98441894D01*
X162534968Y-98311575D01*
X162491344Y-98256998D01*
X162484151Y-98187499D01*
X162515673Y-98125145D01*
X162534968Y-98108425D01*
X162721082Y-97978105D01*
X162888105Y-97811082D01*
X163023600Y-97617578D01*
X163123429Y-97403492D01*
X163123432Y-97403486D01*
X163180636Y-97190000D01*
X162283012Y-97190000D01*
X162315925Y-97132993D01*
X162350000Y-97005826D01*
X162350000Y-96874174D01*
X162315925Y-96747007D01*
X162283012Y-96690000D01*
X163180636Y-96690000D01*
X163180635Y-96689999D01*
X163123432Y-96476513D01*
X163123429Y-96476507D01*
X163023600Y-96262422D01*
X163023599Y-96262420D01*
X162888113Y-96068926D01*
X162888108Y-96068920D01*
X162721082Y-95901894D01*
X162534968Y-95771575D01*
X162491344Y-95716998D01*
X162484151Y-95647499D01*
X162515673Y-95585145D01*
X162534968Y-95568425D01*
X162721082Y-95438105D01*
X162888105Y-95271082D01*
X163023600Y-95077578D01*
X163123429Y-94863492D01*
X163123432Y-94863486D01*
X163180636Y-94650000D01*
X162283012Y-94650000D01*
X162315925Y-94592993D01*
X162350000Y-94465826D01*
X162350000Y-94334174D01*
X162315925Y-94207007D01*
X162283012Y-94150000D01*
X163180636Y-94150000D01*
X163180635Y-94149999D01*
X163123432Y-93936513D01*
X163123429Y-93936507D01*
X163023600Y-93722422D01*
X163023599Y-93722420D01*
X162888113Y-93528926D01*
X162888108Y-93528920D01*
X162721082Y-93361894D01*
X162534968Y-93231575D01*
X162491344Y-93176998D01*
X162484151Y-93107499D01*
X162515673Y-93045145D01*
X162534968Y-93028425D01*
X162721082Y-92898105D01*
X162888105Y-92731082D01*
X163023600Y-92537578D01*
X163123429Y-92323492D01*
X163123432Y-92323486D01*
X163180636Y-92110000D01*
X162283012Y-92110000D01*
X162315925Y-92052993D01*
X162350000Y-91925826D01*
X162350000Y-91794174D01*
X162315925Y-91667007D01*
X162283012Y-91610000D01*
X163180636Y-91610000D01*
X163180635Y-91609999D01*
X163123432Y-91396513D01*
X163123429Y-91396507D01*
X163023600Y-91182422D01*
X163023599Y-91182420D01*
X162888113Y-90988926D01*
X162888108Y-90988920D01*
X162721082Y-90821894D01*
X162534968Y-90691575D01*
X162491344Y-90636998D01*
X162484151Y-90567499D01*
X162515673Y-90505145D01*
X162534968Y-90488425D01*
X162692708Y-90377973D01*
X172099500Y-90377973D01*
X172099500Y-90622027D01*
X172100181Y-90626326D01*
X172131155Y-90821890D01*
X172137679Y-90863076D01*
X172213096Y-91095185D01*
X172322838Y-91310567D01*
X172323896Y-91312642D01*
X172467339Y-91510076D01*
X172467343Y-91510081D01*
X172639918Y-91682656D01*
X172639923Y-91682660D01*
X172793410Y-91794174D01*
X172837361Y-91826106D01*
X173054815Y-91936904D01*
X173286924Y-92012321D01*
X173527973Y-92050500D01*
X173527974Y-92050500D01*
X173772026Y-92050500D01*
X173772027Y-92050500D01*
X174013076Y-92012321D01*
X174245185Y-91936904D01*
X174462639Y-91826106D01*
X174660083Y-91682655D01*
X174832655Y-91510083D01*
X174976106Y-91312639D01*
X175086904Y-91095185D01*
X175162321Y-90863076D01*
X175200500Y-90622027D01*
X175200500Y-90377973D01*
X175162321Y-90136924D01*
X175086904Y-89904815D01*
X174976106Y-89687361D01*
X174938646Y-89635801D01*
X174832660Y-89489923D01*
X174832656Y-89489918D01*
X174660081Y-89317343D01*
X174660076Y-89317339D01*
X174462642Y-89173896D01*
X174462641Y-89173895D01*
X174462639Y-89173894D01*
X174245185Y-89063096D01*
X174013076Y-88987679D01*
X174013074Y-88987678D01*
X174013072Y-88987678D01*
X173844769Y-88961021D01*
X173772027Y-88949500D01*
X173527973Y-88949500D01*
X173472093Y-88958350D01*
X173286927Y-88987678D01*
X173054812Y-89063097D01*
X172837357Y-89173896D01*
X172639923Y-89317339D01*
X172639918Y-89317343D01*
X172467343Y-89489918D01*
X172467339Y-89489923D01*
X172323896Y-89687357D01*
X172213097Y-89904812D01*
X172137678Y-90136927D01*
X172129050Y-90191402D01*
X172099500Y-90377973D01*
X162692708Y-90377973D01*
X162721082Y-90358105D01*
X162888105Y-90191082D01*
X163023600Y-89997578D01*
X163123429Y-89783492D01*
X163123432Y-89783486D01*
X163180636Y-89570000D01*
X162283012Y-89570000D01*
X162315925Y-89512993D01*
X162350000Y-89385826D01*
X162350000Y-89254174D01*
X162315925Y-89127007D01*
X162283012Y-89070000D01*
X163180636Y-89070000D01*
X163180635Y-89069999D01*
X163123432Y-88856513D01*
X163123429Y-88856507D01*
X163023600Y-88642422D01*
X163023599Y-88642420D01*
X162888113Y-88448926D01*
X162888108Y-88448920D01*
X162765665Y-88326477D01*
X162732180Y-88265154D01*
X162737164Y-88195462D01*
X162779036Y-88139529D01*
X162810013Y-88122614D01*
X162942086Y-88073354D01*
X162942093Y-88073350D01*
X163057187Y-87987190D01*
X163057190Y-87987187D01*
X163143350Y-87872093D01*
X163143354Y-87872086D01*
X163193596Y-87737379D01*
X163193598Y-87737372D01*
X163199999Y-87677844D01*
X163200000Y-87677827D01*
X163200000Y-87030000D01*
X162283012Y-87030000D01*
X162315925Y-86972993D01*
X162350000Y-86845826D01*
X162350000Y-86714174D01*
X162315925Y-86587007D01*
X162283012Y-86530000D01*
X163200000Y-86530000D01*
X163200000Y-85882172D01*
X163199999Y-85882155D01*
X163193598Y-85822627D01*
X163193596Y-85822620D01*
X163143354Y-85687913D01*
X163143350Y-85687906D01*
X163057190Y-85572812D01*
X163057187Y-85572809D01*
X162942093Y-85486649D01*
X162942086Y-85486645D01*
X162807379Y-85436403D01*
X162807372Y-85436401D01*
X162747844Y-85430000D01*
X162100000Y-85430000D01*
X162100000Y-86346988D01*
X162042993Y-86314075D01*
X161915826Y-86280000D01*
X161784174Y-86280000D01*
X161657007Y-86314075D01*
X161600000Y-86346988D01*
X161600000Y-85430000D01*
X160952155Y-85430000D01*
X160892627Y-85436401D01*
X160892620Y-85436403D01*
X160757913Y-85486645D01*
X160757906Y-85486649D01*
X160642812Y-85572809D01*
X160642809Y-85572812D01*
X160556649Y-85687906D01*
X160556645Y-85687913D01*
X160506403Y-85822620D01*
X160506401Y-85822627D01*
X160500000Y-85882155D01*
X158550499Y-85882155D01*
X158550499Y-85882128D01*
X158544091Y-85822517D01*
X158537059Y-85803664D01*
X158493797Y-85687671D01*
X158493793Y-85687664D01*
X158407547Y-85572455D01*
X158407544Y-85572452D01*
X158292335Y-85486206D01*
X158292328Y-85486202D01*
X158157482Y-85435908D01*
X158157483Y-85435908D01*
X158097883Y-85429501D01*
X158097881Y-85429500D01*
X158097873Y-85429500D01*
X158097864Y-85429500D01*
X156302129Y-85429500D01*
X156302123Y-85429501D01*
X156242516Y-85435908D01*
X156107671Y-85486202D01*
X156107664Y-85486206D01*
X155992455Y-85572452D01*
X155992452Y-85572455D01*
X155906206Y-85687664D01*
X155906202Y-85687671D01*
X155855908Y-85822517D01*
X155849501Y-85882116D01*
X155849501Y-85882123D01*
X155849500Y-85882135D01*
X155849500Y-87677870D01*
X155849501Y-87677876D01*
X155855908Y-87737483D01*
X155906202Y-87872328D01*
X155906206Y-87872335D01*
X155992452Y-87987544D01*
X155992455Y-87987547D01*
X156107664Y-88073793D01*
X156107671Y-88073797D01*
X156239081Y-88122810D01*
X156295015Y-88164681D01*
X156319432Y-88230145D01*
X156304580Y-88298418D01*
X156283430Y-88326673D01*
X156161503Y-88448600D01*
X156025965Y-88642169D01*
X156025964Y-88642171D01*
X155926098Y-88856335D01*
X155926094Y-88856344D01*
X155864938Y-89084586D01*
X155864936Y-89084596D01*
X155844341Y-89319999D01*
X155844341Y-89320000D01*
X155846777Y-89347844D01*
X155833010Y-89416344D01*
X155784395Y-89466528D01*
X155716367Y-89482461D01*
X155650523Y-89459086D01*
X155635568Y-89446333D01*
X153997590Y-87808355D01*
X153997588Y-87808352D01*
X153936818Y-87747582D01*
X153903333Y-87686259D01*
X153900499Y-87659910D01*
X153900499Y-85882128D01*
X153894091Y-85822517D01*
X153887059Y-85803664D01*
X153843797Y-85687671D01*
X153843793Y-85687664D01*
X153757547Y-85572455D01*
X153757544Y-85572452D01*
X153642335Y-85486206D01*
X153642328Y-85486202D01*
X153507482Y-85435908D01*
X153507483Y-85435908D01*
X153447883Y-85429501D01*
X153447881Y-85429500D01*
X153447873Y-85429500D01*
X153447864Y-85429500D01*
X151652129Y-85429500D01*
X151652123Y-85429501D01*
X151592516Y-85435908D01*
X151457671Y-85486202D01*
X151457664Y-85486206D01*
X151342455Y-85572452D01*
X151342452Y-85572455D01*
X151256206Y-85687664D01*
X151256202Y-85687671D01*
X151205908Y-85822517D01*
X151199501Y-85882116D01*
X151199501Y-85882123D01*
X151199500Y-85882135D01*
X151199500Y-86055500D01*
X151179815Y-86122539D01*
X151127011Y-86168294D01*
X151075500Y-86179500D01*
X146306669Y-86179500D01*
X146306653Y-86179499D01*
X146299057Y-86179499D01*
X146140943Y-86179499D01*
X146026397Y-86210192D01*
X145988214Y-86220423D01*
X145970646Y-86230567D01*
X145970643Y-86230568D01*
X145851290Y-86299475D01*
X145851282Y-86299481D01*
X145739478Y-86411286D01*
X144351346Y-87799417D01*
X144290023Y-87832902D01*
X144220331Y-87827918D01*
X144164398Y-87786046D01*
X144139981Y-87720582D01*
X144140137Y-87700928D01*
X144141421Y-87686259D01*
X144145468Y-87640000D01*
X144125635Y-87413308D01*
X144066739Y-87193504D01*
X143970568Y-86987266D01*
X143840047Y-86800861D01*
X143840045Y-86800858D01*
X143679141Y-86639954D01*
X143492734Y-86509432D01*
X143492732Y-86509431D01*
X143434725Y-86482382D01*
X143434132Y-86482105D01*
X143381694Y-86435934D01*
X143362542Y-86368740D01*
X143382758Y-86301859D01*
X143434134Y-86257341D01*
X143492484Y-86230132D01*
X143678820Y-86099657D01*
X143839657Y-85938820D01*
X143970134Y-85752482D01*
X144066265Y-85546326D01*
X144066269Y-85546317D01*
X144118872Y-85350000D01*
X143273012Y-85350000D01*
X143305925Y-85292993D01*
X143340000Y-85165826D01*
X143340000Y-85034174D01*
X143305925Y-84907007D01*
X143273012Y-84850000D01*
X144118872Y-84850000D01*
X144118872Y-84849999D01*
X144066269Y-84653682D01*
X144066265Y-84653673D01*
X143970134Y-84447517D01*
X143839657Y-84261179D01*
X143678820Y-84100342D01*
X143492482Y-83969865D01*
X143434133Y-83942657D01*
X143381694Y-83896484D01*
X143362542Y-83829291D01*
X143382758Y-83762410D01*
X143434129Y-83717895D01*
X143492734Y-83690568D01*
X143679139Y-83560047D01*
X143840047Y-83399139D01*
X143970568Y-83212734D01*
X144066739Y-83006496D01*
X144125635Y-82786692D01*
X144145468Y-82560000D01*
X144125635Y-82333308D01*
X144066739Y-82113504D01*
X143970568Y-81907266D01*
X143840047Y-81720861D01*
X143840045Y-81720858D01*
X143679140Y-81559953D01*
X143493377Y-81429881D01*
X143449752Y-81375304D01*
X143440500Y-81328306D01*
X143440500Y-77129060D01*
X143440501Y-77129047D01*
X143440501Y-76960944D01*
X143410907Y-76850499D01*
X143399577Y-76808216D01*
X143341457Y-76707548D01*
X143320524Y-76671290D01*
X143320518Y-76671282D01*
X143007737Y-76358501D01*
X141819773Y-75170538D01*
X141786289Y-75109216D01*
X141791273Y-75039524D01*
X141833145Y-74983591D01*
X141898609Y-74959174D01*
X141940611Y-74964421D01*
X141940698Y-74964019D01*
X141945332Y-74965011D01*
X141946457Y-74965151D01*
X141947315Y-74965436D01*
X142045826Y-74975500D01*
X142045831Y-74975500D01*
X142579169Y-74975500D01*
X142579174Y-74975500D01*
X142677685Y-74965436D01*
X142837287Y-74912549D01*
X142980391Y-74824281D01*
X143012319Y-74792353D01*
X143073642Y-74758868D01*
X143143334Y-74763852D01*
X143187681Y-74792353D01*
X143219608Y-74824280D01*
X143219612Y-74824283D01*
X143362704Y-74912544D01*
X143362707Y-74912545D01*
X143362713Y-74912549D01*
X143522315Y-74965436D01*
X143620826Y-74975500D01*
X143620831Y-74975500D01*
X144154169Y-74975500D01*
X144154174Y-74975500D01*
X144252685Y-74965436D01*
X144412287Y-74912549D01*
X144555391Y-74824281D01*
X144674281Y-74705391D01*
X144702648Y-74659401D01*
X144754594Y-74612679D01*
X144808185Y-74600500D01*
X172499903Y-74600500D01*
X172566942Y-74620185D01*
X172587584Y-74636819D01*
X176560137Y-78609372D01*
X176593622Y-78670695D01*
X176588638Y-78740387D01*
X176581291Y-78756475D01*
X176575635Y-78766833D01*
X176475628Y-79034962D01*
X176414804Y-79314566D01*
X176394390Y-79599998D01*
X176394390Y-79600001D01*
X176414804Y-79885433D01*
X176475628Y-80165037D01*
X176575635Y-80433166D01*
X176712770Y-80684309D01*
X176712775Y-80684317D01*
X176884254Y-80913387D01*
X176884270Y-80913405D01*
X177086594Y-81115729D01*
X177086612Y-81115745D01*
X177315682Y-81287224D01*
X177315690Y-81287229D01*
X177566833Y-81424364D01*
X177566832Y-81424364D01*
X177566836Y-81424365D01*
X177566839Y-81424367D01*
X177834954Y-81524369D01*
X177834960Y-81524370D01*
X177834962Y-81524371D01*
X178114566Y-81585195D01*
X178114568Y-81585195D01*
X178114572Y-81585196D01*
X178363535Y-81603002D01*
X178399999Y-81605610D01*
X178400000Y-81605610D01*
X178400001Y-81605610D01*
X178436465Y-81603002D01*
X178685428Y-81585196D01*
X178829768Y-81553797D01*
X178965037Y-81524371D01*
X178965037Y-81524370D01*
X178965046Y-81524369D01*
X179233161Y-81424367D01*
X179484315Y-81287226D01*
X179713395Y-81115739D01*
X179915739Y-80913395D01*
X180087226Y-80684315D01*
X180224367Y-80433161D01*
X180324369Y-80165046D01*
X180385196Y-79885428D01*
X180405610Y-79600000D01*
X180385196Y-79314572D01*
X180382573Y-79302516D01*
X180324371Y-79034962D01*
X180324370Y-79034960D01*
X180324369Y-79034954D01*
X180224367Y-78766839D01*
X180174224Y-78675010D01*
X180087229Y-78515690D01*
X180087224Y-78515682D01*
X179915745Y-78286612D01*
X179915729Y-78286594D01*
X179713405Y-78084270D01*
X179713387Y-78084254D01*
X179670481Y-78052135D01*
X189099500Y-78052135D01*
X189099500Y-81147870D01*
X189099501Y-81147876D01*
X189105908Y-81207483D01*
X189156202Y-81342328D01*
X189156206Y-81342335D01*
X189242452Y-81457544D01*
X189242455Y-81457547D01*
X189357664Y-81543793D01*
X189357671Y-81543797D01*
X189492517Y-81594091D01*
X189492516Y-81594091D01*
X189499444Y-81594835D01*
X189552127Y-81600500D01*
X192647872Y-81600499D01*
X192707483Y-81594091D01*
X192842331Y-81543796D01*
X192957546Y-81457546D01*
X193043796Y-81342331D01*
X193094091Y-81207483D01*
X193100500Y-81147873D01*
X193100499Y-78052128D01*
X193094091Y-77992517D01*
X193064347Y-77912770D01*
X193043797Y-77857671D01*
X193043793Y-77857664D01*
X192957547Y-77742455D01*
X192957544Y-77742452D01*
X192842335Y-77656206D01*
X192842328Y-77656202D01*
X192707482Y-77605908D01*
X192707483Y-77605908D01*
X192647883Y-77599501D01*
X192647881Y-77599500D01*
X192647873Y-77599500D01*
X192647864Y-77599500D01*
X189552129Y-77599500D01*
X189552123Y-77599501D01*
X189492516Y-77605908D01*
X189357671Y-77656202D01*
X189357664Y-77656206D01*
X189242455Y-77742452D01*
X189242452Y-77742455D01*
X189156206Y-77857664D01*
X189156202Y-77857671D01*
X189105908Y-77992517D01*
X189099501Y-78052116D01*
X189099501Y-78052123D01*
X189099500Y-78052135D01*
X179670481Y-78052135D01*
X179484317Y-77912775D01*
X179484309Y-77912770D01*
X179233166Y-77775635D01*
X179233167Y-77775635D01*
X179125915Y-77735632D01*
X178965046Y-77675631D01*
X178965043Y-77675630D01*
X178965037Y-77675628D01*
X178685433Y-77614804D01*
X178400001Y-77594390D01*
X178399999Y-77594390D01*
X178114566Y-77614804D01*
X177834962Y-77675628D01*
X177566833Y-77775635D01*
X177556475Y-77781291D01*
X177488201Y-77796140D01*
X177422738Y-77771719D01*
X177409372Y-77760137D01*
X173287590Y-73638355D01*
X173287588Y-73638352D01*
X173168717Y-73519481D01*
X173168716Y-73519480D01*
X173081904Y-73469360D01*
X173081904Y-73469359D01*
X173081900Y-73469358D01*
X173031785Y-73440423D01*
X172879057Y-73399499D01*
X172720943Y-73399499D01*
X172713347Y-73399499D01*
X172713331Y-73399500D01*
X144808185Y-73399500D01*
X144741146Y-73379815D01*
X144702648Y-73340599D01*
X144674281Y-73294609D01*
X144555391Y-73175719D01*
X144555387Y-73175716D01*
X144412295Y-73087455D01*
X144412289Y-73087452D01*
X144412287Y-73087451D01*
X144252685Y-73034564D01*
X144252683Y-73034563D01*
X144154181Y-73024500D01*
X144154174Y-73024500D01*
X143620826Y-73024500D01*
X143620818Y-73024500D01*
X143522316Y-73034563D01*
X143522315Y-73034564D01*
X143443219Y-73060773D01*
X143362715Y-73087450D01*
X143362704Y-73087455D01*
X143219612Y-73175716D01*
X143219608Y-73175719D01*
X143187681Y-73207647D01*
X143126358Y-73241132D01*
X143056666Y-73236148D01*
X143012319Y-73207647D01*
X142980391Y-73175719D01*
X142980387Y-73175716D01*
X142837295Y-73087455D01*
X142837289Y-73087452D01*
X142837287Y-73087451D01*
X142677685Y-73034564D01*
X142677683Y-73034563D01*
X142579181Y-73024500D01*
X142579174Y-73024500D01*
X142045826Y-73024500D01*
X142045818Y-73024500D01*
X141947316Y-73034563D01*
X141947315Y-73034564D01*
X141868219Y-73060773D01*
X141787715Y-73087450D01*
X141787704Y-73087455D01*
X141644612Y-73175716D01*
X141644608Y-73175719D01*
X141525720Y-73294607D01*
X141525719Y-73294609D01*
X141497351Y-73340598D01*
X141445406Y-73387321D01*
X141391815Y-73399500D01*
X138399751Y-73399500D01*
X138332712Y-73379815D01*
X138300485Y-73349812D01*
X138257548Y-73292457D01*
X138257546Y-73292454D01*
X138257542Y-73292451D01*
X138142335Y-73206206D01*
X138142328Y-73206202D01*
X138007482Y-73155908D01*
X138007483Y-73155908D01*
X137947883Y-73149501D01*
X137947881Y-73149500D01*
X137947873Y-73149500D01*
X137947864Y-73149500D01*
X137152129Y-73149500D01*
X137152123Y-73149501D01*
X137092516Y-73155908D01*
X136957671Y-73206202D01*
X136957664Y-73206206D01*
X136842456Y-73292452D01*
X136842455Y-73292453D01*
X136842454Y-73292454D01*
X136756208Y-73407664D01*
X136756202Y-73407672D01*
X136756202Y-73407673D01*
X136752914Y-73416488D01*
X136711041Y-73472420D01*
X136698734Y-73480537D01*
X136631287Y-73519477D01*
X136631282Y-73519481D01*
X136548648Y-73602116D01*
X136519480Y-73631284D01*
X136519478Y-73631286D01*
X135643094Y-74507671D01*
X134787584Y-75363181D01*
X134726261Y-75396666D01*
X134699903Y-75399500D01*
X134099751Y-75399500D01*
X134032712Y-75379815D01*
X134000484Y-75349811D01*
X133975233Y-75316080D01*
X133950816Y-75250616D01*
X133950500Y-75241769D01*
X133950500Y-74758230D01*
X133970185Y-74691191D01*
X133975233Y-74683919D01*
X133993586Y-74659403D01*
X134043796Y-74592331D01*
X134094091Y-74457483D01*
X134100500Y-74397873D01*
X134100499Y-73602128D01*
X134094091Y-73542517D01*
X134085498Y-73519479D01*
X134043797Y-73407671D01*
X134043793Y-73407664D01*
X133957547Y-73292455D01*
X133957544Y-73292452D01*
X133842335Y-73206206D01*
X133842328Y-73206202D01*
X133707482Y-73155908D01*
X133707483Y-73155908D01*
X133647883Y-73149501D01*
X133647881Y-73149500D01*
X133647873Y-73149500D01*
X133647864Y-73149500D01*
X132852129Y-73149500D01*
X132852123Y-73149501D01*
X132792516Y-73155908D01*
X132657671Y-73206202D01*
X132657664Y-73206206D01*
X132542455Y-73292452D01*
X132542452Y-73292455D01*
X132456206Y-73407664D01*
X132456202Y-73407671D01*
X132405908Y-73542517D01*
X132399501Y-73602116D01*
X132399501Y-73602123D01*
X132399500Y-73602135D01*
X132399500Y-74125500D01*
X132379815Y-74192539D01*
X132327011Y-74238294D01*
X132275500Y-74249500D01*
X131802129Y-74249500D01*
X131802123Y-74249501D01*
X131742516Y-74255908D01*
X131607671Y-74306202D01*
X131607664Y-74306206D01*
X131492455Y-74392452D01*
X131492452Y-74392455D01*
X131406206Y-74507664D01*
X131406202Y-74507671D01*
X131358034Y-74636819D01*
X131355909Y-74642517D01*
X131349500Y-74702127D01*
X131349500Y-74702134D01*
X131349500Y-74702135D01*
X131349500Y-75297870D01*
X131349501Y-75297876D01*
X131355908Y-75357483D01*
X131406202Y-75492328D01*
X131406206Y-75492335D01*
X131492452Y-75607544D01*
X131492455Y-75607547D01*
X131607664Y-75693793D01*
X131607671Y-75693797D01*
X131652618Y-75710561D01*
X131742517Y-75744091D01*
X131802127Y-75750500D01*
X132275500Y-75750499D01*
X132342539Y-75770183D01*
X132388294Y-75822987D01*
X132399500Y-75874499D01*
X132399500Y-76397870D01*
X132399501Y-76397876D01*
X132405908Y-76457483D01*
X132456202Y-76592328D01*
X132456206Y-76592335D01*
X132542452Y-76707544D01*
X132542455Y-76707547D01*
X132657664Y-76793793D01*
X132657671Y-76793797D01*
X132792517Y-76844091D01*
X132792516Y-76844091D01*
X132799444Y-76844835D01*
X132852127Y-76850500D01*
X133647872Y-76850499D01*
X133707483Y-76844091D01*
X133842331Y-76793796D01*
X133957546Y-76707546D01*
X133984693Y-76671282D01*
X134000485Y-76650188D01*
X134056419Y-76608318D01*
X134099751Y-76600500D01*
X134913331Y-76600500D01*
X134913347Y-76600501D01*
X134920943Y-76600501D01*
X135079054Y-76600501D01*
X135079057Y-76600501D01*
X135231785Y-76559577D01*
X135281904Y-76530639D01*
X135368716Y-76480520D01*
X135480520Y-76368716D01*
X135480520Y-76368714D01*
X135490728Y-76358507D01*
X135490729Y-76358504D01*
X136540302Y-75308932D01*
X136601624Y-75275448D01*
X136671316Y-75280432D01*
X136727249Y-75322304D01*
X136751666Y-75387768D01*
X136744164Y-75439946D01*
X136705909Y-75542514D01*
X136705908Y-75542516D01*
X136699501Y-75602116D01*
X136699500Y-75602135D01*
X136699500Y-76397870D01*
X136699501Y-76397876D01*
X136705908Y-76457483D01*
X136756202Y-76592328D01*
X136756206Y-76592335D01*
X136842452Y-76707544D01*
X136842455Y-76707547D01*
X136957664Y-76793793D01*
X136957671Y-76793797D01*
X137092517Y-76844091D01*
X137092516Y-76844091D01*
X137099444Y-76844835D01*
X137152127Y-76850500D01*
X137947872Y-76850499D01*
X138007483Y-76844091D01*
X138142331Y-76793796D01*
X138257546Y-76707546D01*
X138343796Y-76592331D01*
X138394091Y-76457483D01*
X138400500Y-76397873D01*
X138400499Y-75874498D01*
X138420183Y-75807460D01*
X138472987Y-75761705D01*
X138524499Y-75750499D01*
X138997871Y-75750499D01*
X138997872Y-75750499D01*
X139057483Y-75744091D01*
X139192331Y-75693796D01*
X139250819Y-75650011D01*
X139283920Y-75625233D01*
X139349385Y-75600816D01*
X139358231Y-75600500D01*
X140499903Y-75600500D01*
X140566942Y-75620185D01*
X140587584Y-75636819D01*
X142203181Y-77252416D01*
X142236666Y-77313739D01*
X142239500Y-77340097D01*
X142239500Y-81328306D01*
X142219815Y-81395345D01*
X142186623Y-81429881D01*
X142000859Y-81559953D01*
X141839954Y-81720858D01*
X141709432Y-81907265D01*
X141709431Y-81907267D01*
X141613261Y-82113502D01*
X141613258Y-82113511D01*
X141554366Y-82333302D01*
X141554364Y-82333313D01*
X141534532Y-82559998D01*
X141534532Y-82560001D01*
X141554364Y-82786686D01*
X141554366Y-82786697D01*
X141613258Y-83006488D01*
X141613261Y-83006497D01*
X141709431Y-83212732D01*
X141709432Y-83212734D01*
X141839954Y-83399141D01*
X142000858Y-83560045D01*
X142000861Y-83560047D01*
X142187266Y-83690568D01*
X142245865Y-83717893D01*
X142298305Y-83764065D01*
X142317457Y-83831258D01*
X142297242Y-83898139D01*
X142245867Y-83942657D01*
X142187515Y-83969867D01*
X142001179Y-84100342D01*
X141840342Y-84261179D01*
X141709865Y-84447517D01*
X141613734Y-84653673D01*
X141613730Y-84653682D01*
X141561127Y-84849999D01*
X141561128Y-84850000D01*
X142406988Y-84850000D01*
X142374075Y-84907007D01*
X142340000Y-85034174D01*
X142340000Y-85165826D01*
X142374075Y-85292993D01*
X142406988Y-85350000D01*
X141561128Y-85350000D01*
X141613730Y-85546317D01*
X141613734Y-85546326D01*
X141709865Y-85752482D01*
X141840342Y-85938820D01*
X142001179Y-86099657D01*
X142187518Y-86230134D01*
X142187520Y-86230135D01*
X142245865Y-86257342D01*
X142298305Y-86303514D01*
X142317457Y-86370707D01*
X142297242Y-86437589D01*
X142245867Y-86482105D01*
X142187268Y-86509431D01*
X142187264Y-86509433D01*
X142000858Y-86639954D01*
X141839954Y-86800858D01*
X141709432Y-86987265D01*
X141709431Y-86987267D01*
X141613261Y-87193502D01*
X141613258Y-87193511D01*
X141554366Y-87413302D01*
X141554364Y-87413313D01*
X141534532Y-87639998D01*
X141534532Y-87640001D01*
X141554364Y-87866686D01*
X141554366Y-87866697D01*
X141613258Y-88086488D01*
X141613261Y-88086497D01*
X141709431Y-88292732D01*
X141709432Y-88292734D01*
X141839954Y-88479141D01*
X142000858Y-88640045D01*
X142003894Y-88642171D01*
X142187266Y-88770568D01*
X142229335Y-88790185D01*
X142245275Y-88797618D01*
X142297714Y-88843791D01*
X142316866Y-88910984D01*
X142296650Y-88977865D01*
X142245275Y-89022382D01*
X142187267Y-89049431D01*
X142187265Y-89049432D01*
X142000858Y-89179954D01*
X141839954Y-89340858D01*
X141709432Y-89527265D01*
X141709431Y-89527267D01*
X141613261Y-89733502D01*
X141613258Y-89733511D01*
X141554366Y-89953302D01*
X141554364Y-89953313D01*
X141534532Y-90179998D01*
X141534532Y-90180001D01*
X141554364Y-90406686D01*
X141554366Y-90406697D01*
X141613258Y-90626488D01*
X141613261Y-90626497D01*
X141709431Y-90832732D01*
X141709432Y-90832734D01*
X141839954Y-91019141D01*
X142000858Y-91180045D01*
X142003894Y-91182171D01*
X142187266Y-91310568D01*
X142229335Y-91330185D01*
X142245275Y-91337618D01*
X142297714Y-91383791D01*
X142316866Y-91450984D01*
X142296650Y-91517865D01*
X142245275Y-91562382D01*
X142187267Y-91589431D01*
X142187265Y-91589432D01*
X142000858Y-91719954D01*
X141839954Y-91880858D01*
X141709432Y-92067265D01*
X141709431Y-92067267D01*
X141613261Y-92273502D01*
X141613258Y-92273511D01*
X141554366Y-92493302D01*
X141554364Y-92493313D01*
X141534532Y-92719998D01*
X141534532Y-92720001D01*
X141554364Y-92946686D01*
X141554366Y-92946697D01*
X141613258Y-93166488D01*
X141613261Y-93166497D01*
X141709431Y-93372732D01*
X141709432Y-93372734D01*
X141839954Y-93559141D01*
X141900290Y-93619477D01*
X141933775Y-93680800D01*
X141928791Y-93750492D01*
X141900290Y-93794839D01*
X141259481Y-94435647D01*
X141259479Y-94435650D01*
X141223171Y-94498539D01*
X141223170Y-94498541D01*
X141180423Y-94572579D01*
X141180423Y-94572580D01*
X141139499Y-94725308D01*
X141139499Y-94725310D01*
X141139499Y-94859904D01*
X141119814Y-94926943D01*
X141103180Y-94947585D01*
X136347584Y-99703181D01*
X136286261Y-99736666D01*
X136259903Y-99739500D01*
X128831692Y-99739500D01*
X128764653Y-99719815D01*
X128730119Y-99686625D01*
X128600047Y-99500861D01*
X128600045Y-99500858D01*
X128439141Y-99339954D01*
X128252734Y-99209432D01*
X128252728Y-99209429D01*
X128194725Y-99182382D01*
X128142285Y-99136210D01*
X128123133Y-99069017D01*
X128143348Y-99002135D01*
X128194725Y-98957618D01*
X128252734Y-98930568D01*
X128439139Y-98800047D01*
X128600047Y-98639139D01*
X128730568Y-98452734D01*
X128826739Y-98246496D01*
X128885635Y-98026692D01*
X128902634Y-97832384D01*
X128905468Y-97800001D01*
X128905468Y-97799998D01*
X128892020Y-97646286D01*
X128885635Y-97573308D01*
X128826739Y-97353504D01*
X128730568Y-97147266D01*
X128600047Y-96960861D01*
X128600045Y-96960858D01*
X128439141Y-96799954D01*
X128252734Y-96669432D01*
X128252728Y-96669429D01*
X128225038Y-96656517D01*
X128194724Y-96642381D01*
X128142285Y-96596210D01*
X128123133Y-96529017D01*
X128143348Y-96462135D01*
X128194725Y-96417618D01*
X128252734Y-96390568D01*
X128439139Y-96260047D01*
X128600047Y-96099139D01*
X128730568Y-95912734D01*
X128826739Y-95706496D01*
X128885635Y-95486692D01*
X128902634Y-95292384D01*
X128905468Y-95260001D01*
X128905468Y-95259998D01*
X128895199Y-95142627D01*
X128885635Y-95033308D01*
X128826739Y-94813504D01*
X128730568Y-94607266D01*
X128600047Y-94420861D01*
X128600045Y-94420858D01*
X128439141Y-94259954D01*
X128252734Y-94129432D01*
X128252728Y-94129429D01*
X128194725Y-94102382D01*
X128142285Y-94056210D01*
X128123133Y-93989017D01*
X128143348Y-93922135D01*
X128194725Y-93877618D01*
X128252734Y-93850568D01*
X128439139Y-93720047D01*
X128600047Y-93559139D01*
X128730568Y-93372734D01*
X128826739Y-93166496D01*
X128885635Y-92946692D01*
X128902634Y-92752384D01*
X128905468Y-92720001D01*
X128905468Y-92719998D01*
X128899801Y-92655230D01*
X128885635Y-92493308D01*
X128826739Y-92273504D01*
X128730568Y-92067266D01*
X128600047Y-91880861D01*
X128600045Y-91880858D01*
X128439141Y-91719954D01*
X128252734Y-91589432D01*
X128252732Y-91589431D01*
X128194725Y-91562382D01*
X128194132Y-91562105D01*
X128141694Y-91515934D01*
X128122542Y-91448740D01*
X128142758Y-91381859D01*
X128194134Y-91337341D01*
X128252484Y-91310132D01*
X128438820Y-91179657D01*
X128599657Y-91018820D01*
X128730134Y-90832482D01*
X128826265Y-90626326D01*
X128826269Y-90626317D01*
X128878872Y-90430000D01*
X128033012Y-90430000D01*
X128065925Y-90372993D01*
X128100000Y-90245826D01*
X128100000Y-90114174D01*
X128065925Y-89987007D01*
X128033012Y-89930000D01*
X128878872Y-89930000D01*
X128878872Y-89929999D01*
X128826269Y-89733682D01*
X128826265Y-89733673D01*
X128730134Y-89527517D01*
X128599657Y-89341179D01*
X128438820Y-89180342D01*
X128252482Y-89049865D01*
X128194133Y-89022657D01*
X128141694Y-88976484D01*
X128122542Y-88909291D01*
X128142758Y-88842410D01*
X128194129Y-88797895D01*
X128252734Y-88770568D01*
X128439139Y-88640047D01*
X128600047Y-88479139D01*
X128730568Y-88292734D01*
X128826739Y-88086496D01*
X128885635Y-87866692D01*
X128905468Y-87640000D01*
X128885635Y-87413308D01*
X128826739Y-87193504D01*
X128730568Y-86987266D01*
X128600047Y-86800861D01*
X128600045Y-86800858D01*
X128439141Y-86639954D01*
X128252734Y-86509432D01*
X128252728Y-86509429D01*
X128194725Y-86482382D01*
X128142285Y-86436210D01*
X128123133Y-86369017D01*
X128143348Y-86302135D01*
X128194725Y-86257618D01*
X128195319Y-86257341D01*
X128252734Y-86230568D01*
X128439139Y-86100047D01*
X128600047Y-85939139D01*
X128730568Y-85752734D01*
X128826739Y-85546496D01*
X128885635Y-85326692D01*
X128905468Y-85100000D01*
X128885635Y-84873308D01*
X128826739Y-84653504D01*
X128730568Y-84447266D01*
X128600047Y-84260861D01*
X128600045Y-84260858D01*
X128439143Y-84099956D01*
X128414536Y-84082726D01*
X128370912Y-84028149D01*
X128363719Y-83958650D01*
X128395241Y-83896296D01*
X128455471Y-83860882D01*
X128472404Y-83857861D01*
X128507483Y-83854091D01*
X128642331Y-83803796D01*
X128757546Y-83717546D01*
X128843796Y-83602331D01*
X128894091Y-83467483D01*
X128900500Y-83407873D01*
X128900499Y-81712128D01*
X128894091Y-81652517D01*
X128878419Y-81610499D01*
X128843797Y-81517671D01*
X128843793Y-81517664D01*
X128757547Y-81402455D01*
X128757544Y-81402452D01*
X128642335Y-81316206D01*
X128642328Y-81316202D01*
X128507482Y-81265908D01*
X128507483Y-81265908D01*
X128447883Y-81259501D01*
X128447881Y-81259500D01*
X128447873Y-81259500D01*
X128447864Y-81259500D01*
X126752129Y-81259500D01*
X126752123Y-81259501D01*
X126692516Y-81265908D01*
X126557671Y-81316202D01*
X126557664Y-81316206D01*
X126442455Y-81402452D01*
X126442452Y-81402455D01*
X126356206Y-81517664D01*
X126356202Y-81517671D01*
X126305908Y-81652517D01*
X126303400Y-81675850D01*
X126299501Y-81712123D01*
X126299500Y-81712135D01*
X126299500Y-83407870D01*
X126299501Y-83407876D01*
X126305908Y-83467483D01*
X126356202Y-83602328D01*
X126356206Y-83602335D01*
X126442452Y-83717544D01*
X126442455Y-83717547D01*
X126557664Y-83803793D01*
X126557671Y-83803797D01*
X126602618Y-83820561D01*
X126692517Y-83854091D01*
X126727596Y-83857862D01*
X126792144Y-83884599D01*
X126831993Y-83941991D01*
X126834488Y-84011816D01*
X126798836Y-84071905D01*
X126785464Y-84082725D01*
X126760858Y-84099954D01*
X126599954Y-84260858D01*
X126469432Y-84447265D01*
X126469431Y-84447267D01*
X126373260Y-84653505D01*
X126371655Y-84657916D01*
X126330226Y-84714178D01*
X126264957Y-84739110D01*
X126255135Y-84739500D01*
X118239091Y-84739500D01*
X118172052Y-84719815D01*
X118126711Y-84667909D01*
X118124037Y-84662175D01*
X118124034Y-84662170D01*
X118124033Y-84662169D01*
X117988495Y-84468599D01*
X117988494Y-84468597D01*
X117821402Y-84301506D01*
X117821401Y-84301505D01*
X117635405Y-84171269D01*
X117591781Y-84116692D01*
X117584588Y-84047193D01*
X117616110Y-83984839D01*
X117635405Y-83968119D01*
X117821082Y-83838105D01*
X117988105Y-83671082D01*
X118123600Y-83477578D01*
X118223429Y-83263492D01*
X118223432Y-83263486D01*
X118280636Y-83050000D01*
X117383012Y-83050000D01*
X117415925Y-82992993D01*
X117450000Y-82865826D01*
X117450000Y-82734174D01*
X117415925Y-82607007D01*
X117383012Y-82550000D01*
X118280636Y-82550000D01*
X118280635Y-82549999D01*
X118223432Y-82336513D01*
X118223429Y-82336507D01*
X118123600Y-82122422D01*
X118123599Y-82122420D01*
X117988113Y-81928926D01*
X117988108Y-81928920D01*
X117866053Y-81806865D01*
X117832568Y-81745542D01*
X117837552Y-81675850D01*
X117879424Y-81619917D01*
X117910400Y-81603002D01*
X118042331Y-81553796D01*
X118157546Y-81467546D01*
X118243796Y-81352331D01*
X118294091Y-81217483D01*
X118300500Y-81157873D01*
X118300499Y-79362128D01*
X118294091Y-79302517D01*
X118243796Y-79167669D01*
X118243795Y-79167668D01*
X118243793Y-79167664D01*
X118157547Y-79052455D01*
X118157544Y-79052452D01*
X118042335Y-78966206D01*
X118042328Y-78966202D01*
X117907482Y-78915908D01*
X117907483Y-78915908D01*
X117847883Y-78909501D01*
X117847881Y-78909500D01*
X117847873Y-78909500D01*
X117847864Y-78909500D01*
X116052129Y-78909500D01*
X116052123Y-78909501D01*
X115992516Y-78915908D01*
X115857671Y-78966202D01*
X115857664Y-78966206D01*
X115742455Y-79052452D01*
X115742452Y-79052455D01*
X115656206Y-79167664D01*
X115656202Y-79167671D01*
X115605908Y-79302517D01*
X115599501Y-79362116D01*
X115599501Y-79362123D01*
X115599500Y-79362135D01*
X115599500Y-79535500D01*
X115579815Y-79602539D01*
X115527011Y-79648294D01*
X115475500Y-79659500D01*
X113774499Y-79659500D01*
X113707460Y-79639815D01*
X113661705Y-79587011D01*
X113650499Y-79535500D01*
X113650499Y-79362129D01*
X113650498Y-79362123D01*
X113650497Y-79362116D01*
X113644091Y-79302517D01*
X113593796Y-79167669D01*
X113593795Y-79167668D01*
X113593793Y-79167664D01*
X113507547Y-79052455D01*
X113507544Y-79052452D01*
X113392335Y-78966206D01*
X113392328Y-78966202D01*
X113257482Y-78915908D01*
X113257483Y-78915908D01*
X113197883Y-78909501D01*
X113197881Y-78909500D01*
X113197873Y-78909500D01*
X113197864Y-78909500D01*
X111402129Y-78909500D01*
X111402123Y-78909501D01*
X111342516Y-78915908D01*
X111207671Y-78966202D01*
X111207664Y-78966206D01*
X111092455Y-79052452D01*
X111092452Y-79052455D01*
X111006206Y-79167664D01*
X111006202Y-79167671D01*
X110955908Y-79302517D01*
X110949501Y-79362116D01*
X110949501Y-79362123D01*
X110949500Y-79362135D01*
X110949500Y-81157870D01*
X110949501Y-81157876D01*
X110955908Y-81217483D01*
X111006202Y-81352328D01*
X111006206Y-81352335D01*
X111092452Y-81467544D01*
X111092455Y-81467547D01*
X111207664Y-81553793D01*
X111207671Y-81553797D01*
X111269902Y-81577007D01*
X111339598Y-81603002D01*
X111395531Y-81644873D01*
X111419949Y-81710337D01*
X111405098Y-81778610D01*
X111383947Y-81806865D01*
X111261886Y-81928926D01*
X111126400Y-82122420D01*
X111126399Y-82122422D01*
X111026570Y-82336507D01*
X111026567Y-82336513D01*
X110969364Y-82549999D01*
X110969364Y-82550000D01*
X111866988Y-82550000D01*
X111834075Y-82607007D01*
X111800000Y-82734174D01*
X111800000Y-82865826D01*
X111834075Y-82992993D01*
X111866988Y-83050000D01*
X110969364Y-83050000D01*
X111026567Y-83263486D01*
X111026570Y-83263492D01*
X111126399Y-83477578D01*
X111261894Y-83671082D01*
X111428917Y-83838105D01*
X111614595Y-83968119D01*
X111658219Y-84022696D01*
X111665412Y-84092195D01*
X111633890Y-84154549D01*
X111614595Y-84171269D01*
X111428594Y-84301508D01*
X111261505Y-84468597D01*
X111125965Y-84662169D01*
X111125964Y-84662171D01*
X111064961Y-84792993D01*
X111027510Y-84873308D01*
X111026098Y-84876335D01*
X111026094Y-84876344D01*
X110964938Y-85104586D01*
X110964936Y-85104596D01*
X110944341Y-85339999D01*
X110944341Y-85340000D01*
X110964936Y-85575403D01*
X110964938Y-85575413D01*
X111026094Y-85803655D01*
X111026096Y-85803659D01*
X111026097Y-85803663D01*
X111092772Y-85946648D01*
X111125965Y-86017830D01*
X111125967Y-86017834D01*
X111261501Y-86211395D01*
X111261506Y-86211402D01*
X111428597Y-86378493D01*
X111428603Y-86378498D01*
X111614158Y-86508425D01*
X111657783Y-86563002D01*
X111664977Y-86632500D01*
X111633454Y-86694855D01*
X111614158Y-86711575D01*
X111428597Y-86841505D01*
X111261505Y-87008597D01*
X111125965Y-87202169D01*
X111125964Y-87202171D01*
X111089672Y-87280000D01*
X111027510Y-87413308D01*
X111026098Y-87416335D01*
X111026094Y-87416344D01*
X110964938Y-87644586D01*
X110964936Y-87644596D01*
X110944341Y-87879999D01*
X110944341Y-87880000D01*
X110964936Y-88115403D01*
X110964938Y-88115413D01*
X111026094Y-88343655D01*
X111026096Y-88343659D01*
X111026097Y-88343663D01*
X111089906Y-88480501D01*
X111125965Y-88557830D01*
X111125967Y-88557834D01*
X111185197Y-88642422D01*
X111261505Y-88751401D01*
X111428599Y-88918495D01*
X111511416Y-88976484D01*
X111622165Y-89054032D01*
X111622167Y-89054033D01*
X111622170Y-89054035D01*
X111836337Y-89153903D01*
X112064592Y-89215063D01*
X112252918Y-89231539D01*
X112299999Y-89235659D01*
X112300000Y-89235659D01*
X112300001Y-89235659D01*
X112339234Y-89232226D01*
X112535408Y-89215063D01*
X112763663Y-89153903D01*
X112977830Y-89054035D01*
X113171401Y-88918495D01*
X113338495Y-88751401D01*
X113474035Y-88557830D01*
X113476707Y-88552097D01*
X113522878Y-88499658D01*
X113589091Y-88480500D01*
X115660909Y-88480500D01*
X115727948Y-88500185D01*
X115773292Y-88552097D01*
X115775965Y-88557830D01*
X115911505Y-88751401D01*
X116078599Y-88918495D01*
X116161416Y-88976484D01*
X116272165Y-89054032D01*
X116272167Y-89054033D01*
X116272170Y-89054035D01*
X116486337Y-89153903D01*
X116714592Y-89215063D01*
X116902918Y-89231539D01*
X116949999Y-89235659D01*
X116950000Y-89235659D01*
X116950001Y-89235659D01*
X116989234Y-89232226D01*
X117185408Y-89215063D01*
X117413663Y-89153903D01*
X117627830Y-89054035D01*
X117821401Y-88918495D01*
X117988495Y-88751401D01*
X118124035Y-88557830D01*
X118126707Y-88552097D01*
X118172878Y-88499658D01*
X118239091Y-88480500D01*
X122133331Y-88480500D01*
X122133347Y-88480501D01*
X122140943Y-88480501D01*
X122299054Y-88480501D01*
X122299057Y-88480501D01*
X122451785Y-88439577D01*
X122521200Y-88399500D01*
X122588716Y-88360520D01*
X122700520Y-88248716D01*
X122700520Y-88248714D01*
X122710724Y-88238511D01*
X122710728Y-88238506D01*
X124118535Y-86830698D01*
X124179856Y-86797215D01*
X124192311Y-86795163D01*
X124279255Y-86785368D01*
X124449522Y-86725789D01*
X124602262Y-86629816D01*
X124729816Y-86502262D01*
X124825789Y-86349522D01*
X124885368Y-86179255D01*
X124888419Y-86152181D01*
X124899862Y-86050617D01*
X124926928Y-85986203D01*
X124984523Y-85946648D01*
X125023082Y-85940500D01*
X126549952Y-85940500D01*
X126616991Y-85960185D01*
X126637628Y-85976814D01*
X126760861Y-86100047D01*
X126947266Y-86230568D01*
X127004681Y-86257341D01*
X127005275Y-86257618D01*
X127057714Y-86303791D01*
X127076866Y-86370984D01*
X127056650Y-86437865D01*
X127005275Y-86482382D01*
X126947267Y-86509431D01*
X126947265Y-86509432D01*
X126760858Y-86639954D01*
X126599954Y-86800858D01*
X126469432Y-86987265D01*
X126469431Y-86987267D01*
X126373261Y-87193502D01*
X126373258Y-87193511D01*
X126314366Y-87413302D01*
X126314364Y-87413313D01*
X126294532Y-87639998D01*
X126294532Y-87640001D01*
X126314364Y-87866686D01*
X126314366Y-87866697D01*
X126373258Y-88086488D01*
X126373261Y-88086497D01*
X126469431Y-88292732D01*
X126469432Y-88292734D01*
X126599954Y-88479141D01*
X126760858Y-88640045D01*
X126763894Y-88642171D01*
X126947266Y-88770568D01*
X127005865Y-88797893D01*
X127058305Y-88844065D01*
X127077457Y-88911258D01*
X127057242Y-88978139D01*
X127005867Y-89022657D01*
X126947515Y-89049867D01*
X126761179Y-89180342D01*
X126600342Y-89341179D01*
X126469865Y-89527517D01*
X126373734Y-89733673D01*
X126373730Y-89733682D01*
X126321127Y-89929999D01*
X126321128Y-89930000D01*
X127166988Y-89930000D01*
X127134075Y-89987007D01*
X127100000Y-90114174D01*
X127100000Y-90245826D01*
X127134075Y-90372993D01*
X127166988Y-90430000D01*
X126321128Y-90430000D01*
X126373730Y-90626317D01*
X126373734Y-90626326D01*
X126469865Y-90832482D01*
X126600342Y-91018820D01*
X126761179Y-91179657D01*
X126947518Y-91310134D01*
X126947520Y-91310135D01*
X127005865Y-91337342D01*
X127058305Y-91383514D01*
X127077457Y-91450707D01*
X127057242Y-91517589D01*
X127005867Y-91562105D01*
X127005275Y-91562382D01*
X126947264Y-91589433D01*
X126760858Y-91719954D01*
X126599954Y-91880858D01*
X126469432Y-92067265D01*
X126469431Y-92067267D01*
X126373261Y-92273502D01*
X126373258Y-92273511D01*
X126314366Y-92493302D01*
X126314364Y-92493313D01*
X126294532Y-92719998D01*
X126294532Y-92720001D01*
X126314364Y-92946686D01*
X126314366Y-92946697D01*
X126373258Y-93166488D01*
X126373261Y-93166497D01*
X126469431Y-93372732D01*
X126469432Y-93372734D01*
X126599954Y-93559141D01*
X126760858Y-93720045D01*
X126763893Y-93722170D01*
X126947266Y-93850568D01*
X127005275Y-93877618D01*
X127057714Y-93923791D01*
X127076866Y-93990984D01*
X127056650Y-94057865D01*
X127005275Y-94102382D01*
X126947267Y-94129431D01*
X126947265Y-94129432D01*
X126760858Y-94259954D01*
X126599954Y-94420858D01*
X126545561Y-94498541D01*
X126469881Y-94606624D01*
X126415307Y-94650248D01*
X126368308Y-94659500D01*
X123349057Y-94659500D01*
X123190942Y-94659500D01*
X123038215Y-94700423D01*
X123038214Y-94700423D01*
X123038212Y-94700424D01*
X123038209Y-94700425D01*
X122988096Y-94729359D01*
X122988095Y-94729360D01*
X122952345Y-94750000D01*
X122901285Y-94779479D01*
X122901282Y-94779481D01*
X122789478Y-94891286D01*
X118914432Y-98766331D01*
X118853109Y-98799816D01*
X118783417Y-98794832D01*
X118727484Y-98752960D01*
X118703067Y-98687496D01*
X118703223Y-98667842D01*
X118705659Y-98640000D01*
X118705659Y-98639999D01*
X118689275Y-98452732D01*
X118685063Y-98404592D01*
X118630269Y-98200097D01*
X118623905Y-98176344D01*
X118623904Y-98176343D01*
X118623903Y-98176337D01*
X118524035Y-97962171D01*
X118524034Y-97962169D01*
X118388496Y-97768600D01*
X118369418Y-97749522D01*
X118266179Y-97646283D01*
X118232696Y-97584963D01*
X118237680Y-97515271D01*
X118279551Y-97459337D01*
X118310529Y-97442422D01*
X118442086Y-97393354D01*
X118442093Y-97393350D01*
X118557187Y-97307190D01*
X118557190Y-97307187D01*
X118643350Y-97192093D01*
X118643354Y-97192086D01*
X118693596Y-97057379D01*
X118693598Y-97057372D01*
X118699999Y-96997844D01*
X118700000Y-96997827D01*
X118700000Y-96350000D01*
X117783012Y-96350000D01*
X117815925Y-96292993D01*
X117850000Y-96165826D01*
X117850000Y-96034174D01*
X117815925Y-95907007D01*
X117783012Y-95850000D01*
X118700000Y-95850000D01*
X118700000Y-95202172D01*
X118699999Y-95202155D01*
X118693598Y-95142627D01*
X118693596Y-95142620D01*
X118643354Y-95007913D01*
X118643350Y-95007906D01*
X118557190Y-94892812D01*
X118557187Y-94892809D01*
X118442093Y-94806649D01*
X118442086Y-94806645D01*
X118307379Y-94756403D01*
X118307372Y-94756401D01*
X118247844Y-94750000D01*
X117600000Y-94750000D01*
X117600000Y-95666988D01*
X117542993Y-95634075D01*
X117415826Y-95600000D01*
X117284174Y-95600000D01*
X117157007Y-95634075D01*
X117100000Y-95666988D01*
X117100000Y-94750000D01*
X116452155Y-94750000D01*
X116392627Y-94756401D01*
X116392620Y-94756403D01*
X116257913Y-94806645D01*
X116257906Y-94806649D01*
X116142812Y-94892809D01*
X116142809Y-94892812D01*
X116056649Y-95007906D01*
X116056645Y-95007913D01*
X116006403Y-95142620D01*
X116006401Y-95142627D01*
X116000000Y-95202155D01*
X116000000Y-95850000D01*
X116916988Y-95850000D01*
X116884075Y-95907007D01*
X116850000Y-96034174D01*
X116850000Y-96165826D01*
X116884075Y-96292993D01*
X116916988Y-96350000D01*
X116000000Y-96350000D01*
X116000000Y-96997844D01*
X116006401Y-97057372D01*
X116006403Y-97057379D01*
X116056645Y-97192086D01*
X116056649Y-97192093D01*
X116142809Y-97307187D01*
X116142812Y-97307190D01*
X116257906Y-97393350D01*
X116257913Y-97393354D01*
X116389470Y-97442421D01*
X116445403Y-97484292D01*
X116469821Y-97549756D01*
X116454970Y-97618029D01*
X116433819Y-97646284D01*
X116311503Y-97768600D01*
X116175965Y-97962170D01*
X116175962Y-97962175D01*
X116173289Y-97967909D01*
X116127115Y-98020346D01*
X116060909Y-98039500D01*
X113989091Y-98039500D01*
X113922052Y-98019815D01*
X113876711Y-97967909D01*
X113874037Y-97962175D01*
X113874034Y-97962170D01*
X113874033Y-97962169D01*
X113738495Y-97768599D01*
X113616179Y-97646283D01*
X113582696Y-97584963D01*
X113587680Y-97515271D01*
X113629551Y-97459337D01*
X113660529Y-97442422D01*
X113792086Y-97393354D01*
X113792093Y-97393350D01*
X113907187Y-97307190D01*
X113907190Y-97307187D01*
X113993350Y-97192093D01*
X113993354Y-97192086D01*
X114043596Y-97057379D01*
X114043598Y-97057372D01*
X114049999Y-96997844D01*
X114050000Y-96997827D01*
X114050000Y-96350000D01*
X113133012Y-96350000D01*
X113165925Y-96292993D01*
X113200000Y-96165826D01*
X113200000Y-96034174D01*
X113165925Y-95907007D01*
X113133012Y-95850000D01*
X114050000Y-95850000D01*
X114050000Y-95202172D01*
X114049999Y-95202155D01*
X114043598Y-95142627D01*
X114043596Y-95142620D01*
X113993354Y-95007913D01*
X113993350Y-95007906D01*
X113907190Y-94892812D01*
X113907187Y-94892809D01*
X113792093Y-94806649D01*
X113792086Y-94806645D01*
X113657379Y-94756403D01*
X113657372Y-94756401D01*
X113597844Y-94750000D01*
X112950000Y-94750000D01*
X112950000Y-95666988D01*
X112892993Y-95634075D01*
X112765826Y-95600000D01*
X112634174Y-95600000D01*
X112507007Y-95634075D01*
X112450000Y-95666988D01*
X112450000Y-94750000D01*
X111802155Y-94750000D01*
X111742627Y-94756401D01*
X111742620Y-94756403D01*
X111607913Y-94806645D01*
X111607906Y-94806649D01*
X111492812Y-94892809D01*
X111492809Y-94892812D01*
X111406649Y-95007906D01*
X111406645Y-95007913D01*
X111356403Y-95142620D01*
X111356401Y-95142627D01*
X111350000Y-95202155D01*
X111350000Y-95850000D01*
X112266988Y-95850000D01*
X112234075Y-95907007D01*
X112200000Y-96034174D01*
X112200000Y-96165826D01*
X112234075Y-96292993D01*
X112266988Y-96350000D01*
X111350000Y-96350000D01*
X111350000Y-96997844D01*
X111356401Y-97057372D01*
X111356403Y-97057379D01*
X111406645Y-97192086D01*
X111406649Y-97192093D01*
X111492809Y-97307187D01*
X111492812Y-97307190D01*
X111607906Y-97393350D01*
X111607913Y-97393354D01*
X111739470Y-97442421D01*
X111795403Y-97484292D01*
X111819821Y-97549756D01*
X111804970Y-97618029D01*
X111783819Y-97646284D01*
X111661503Y-97768600D01*
X111525965Y-97962169D01*
X111525964Y-97962171D01*
X111426098Y-98176335D01*
X111426094Y-98176344D01*
X111364938Y-98404586D01*
X111364936Y-98404596D01*
X111344341Y-98639999D01*
X111344341Y-98640000D01*
X111364936Y-98875403D01*
X111364938Y-98875413D01*
X111426094Y-99103655D01*
X111426096Y-99103659D01*
X111426097Y-99103663D01*
X111498839Y-99259658D01*
X111525965Y-99317830D01*
X111525967Y-99317834D01*
X111661501Y-99511395D01*
X111661506Y-99511402D01*
X111828597Y-99678493D01*
X111828603Y-99678498D01*
X112014158Y-99808425D01*
X112057783Y-99863002D01*
X112064977Y-99932500D01*
X112033454Y-99994855D01*
X112014158Y-100011575D01*
X111828597Y-100141505D01*
X111661505Y-100308597D01*
X111525965Y-100502169D01*
X111525964Y-100502171D01*
X111426098Y-100716335D01*
X111426094Y-100716344D01*
X111364938Y-100944586D01*
X111364936Y-100944596D01*
X111344341Y-101179999D01*
X111344341Y-101180000D01*
X111364936Y-101415403D01*
X111364938Y-101415413D01*
X111426094Y-101643655D01*
X111426096Y-101643659D01*
X111426097Y-101643663D01*
X111497944Y-101797738D01*
X111525965Y-101857830D01*
X111525967Y-101857834D01*
X111661501Y-102051395D01*
X111661506Y-102051402D01*
X111828597Y-102218493D01*
X111828603Y-102218498D01*
X112014158Y-102348425D01*
X112057783Y-102403002D01*
X112064977Y-102472500D01*
X112033454Y-102534855D01*
X112014158Y-102551575D01*
X111828597Y-102681505D01*
X111661505Y-102848597D01*
X111525965Y-103042169D01*
X111525964Y-103042171D01*
X111426098Y-103256335D01*
X111426094Y-103256344D01*
X111364938Y-103484586D01*
X111364936Y-103484596D01*
X111344341Y-103719999D01*
X111344341Y-103720000D01*
X111364936Y-103955403D01*
X111364938Y-103955413D01*
X111426094Y-104183655D01*
X111426096Y-104183659D01*
X111426097Y-104183663D01*
X111498839Y-104339658D01*
X111525965Y-104397830D01*
X111525967Y-104397834D01*
X111541456Y-104419954D01*
X111661505Y-104591401D01*
X111828599Y-104758495D01*
X111888617Y-104800520D01*
X112022165Y-104894032D01*
X112022167Y-104894033D01*
X112022170Y-104894035D01*
X112236337Y-104993903D01*
X112464592Y-105055063D01*
X112652918Y-105071539D01*
X112699999Y-105075659D01*
X112700000Y-105075659D01*
X112700001Y-105075659D01*
X112739234Y-105072226D01*
X112935408Y-105055063D01*
X113063757Y-105020672D01*
X113133606Y-105022335D01*
X113183531Y-105052766D01*
X114795139Y-106664374D01*
X114795149Y-106664385D01*
X114799479Y-106668715D01*
X114799480Y-106668716D01*
X114911284Y-106780520D01*
X114996003Y-106829432D01*
X115048215Y-106859577D01*
X115200943Y-106900501D01*
X115200946Y-106900501D01*
X115366653Y-106900501D01*
X115366669Y-106900500D01*
X119817588Y-106900500D01*
X119884627Y-106920185D01*
X119894903Y-106927555D01*
X119897736Y-106929814D01*
X119897738Y-106929816D01*
X120050478Y-107025789D01*
X120139554Y-107056958D01*
X120220745Y-107085368D01*
X120220750Y-107085369D01*
X120399996Y-107105565D01*
X120400000Y-107105565D01*
X120400004Y-107105565D01*
X120579249Y-107085369D01*
X120579251Y-107085368D01*
X120579255Y-107085368D01*
X120579258Y-107085366D01*
X120579262Y-107085366D01*
X120660447Y-107056958D01*
X120730225Y-107053395D01*
X120790853Y-107088124D01*
X120823080Y-107150117D01*
X120816676Y-107219693D01*
X120789083Y-107261680D01*
X117337582Y-110713181D01*
X117276259Y-110746666D01*
X117249901Y-110749500D01*
X115902129Y-110749500D01*
X115902123Y-110749501D01*
X115842516Y-110755908D01*
X115707671Y-110806202D01*
X115707664Y-110806206D01*
X115592455Y-110892452D01*
X115592452Y-110892455D01*
X115506206Y-111007664D01*
X115506202Y-111007671D01*
X115455908Y-111142517D01*
X115454741Y-111153377D01*
X115449501Y-111202123D01*
X115449500Y-111202135D01*
X115449500Y-111375500D01*
X115429815Y-111442539D01*
X115377011Y-111488294D01*
X115325500Y-111499500D01*
X113624499Y-111499500D01*
X113557460Y-111479815D01*
X113511705Y-111427011D01*
X113500499Y-111375500D01*
X113500499Y-111202129D01*
X113500498Y-111202123D01*
X113500497Y-111202116D01*
X113494091Y-111142517D01*
X113493857Y-111141890D01*
X113443797Y-111007671D01*
X113443793Y-111007664D01*
X113357547Y-110892455D01*
X113357544Y-110892452D01*
X113242335Y-110806206D01*
X113242328Y-110806202D01*
X113107482Y-110755908D01*
X113107483Y-110755908D01*
X113047883Y-110749501D01*
X113047881Y-110749500D01*
X113047873Y-110749500D01*
X113047864Y-110749500D01*
X111252129Y-110749500D01*
X111252123Y-110749501D01*
X111192516Y-110755908D01*
X111057671Y-110806202D01*
X111057664Y-110806206D01*
X110942455Y-110892452D01*
X110942452Y-110892455D01*
X110856206Y-111007664D01*
X110856202Y-111007671D01*
X110805908Y-111142517D01*
X110804741Y-111153377D01*
X110799501Y-111202123D01*
X110799500Y-111202135D01*
X110799500Y-112997870D01*
X110799501Y-112997876D01*
X110805908Y-113057483D01*
X110856202Y-113192328D01*
X110856206Y-113192335D01*
X110942452Y-113307544D01*
X110942455Y-113307547D01*
X111057664Y-113393793D01*
X111057671Y-113393797D01*
X111189081Y-113442810D01*
X111245015Y-113484681D01*
X111269432Y-113550145D01*
X111254580Y-113618418D01*
X111233430Y-113646673D01*
X111111503Y-113768600D01*
X110975965Y-113962169D01*
X110975964Y-113962171D01*
X110876098Y-114176335D01*
X110876094Y-114176344D01*
X110814938Y-114404586D01*
X110814936Y-114404596D01*
X110794341Y-114639999D01*
X101500500Y-114639999D01*
X101500500Y-68624500D01*
X101520185Y-68557461D01*
X101572989Y-68511706D01*
X101624500Y-68500500D01*
X205375500Y-68500500D01*
X205442539Y-68520185D01*
G37*
G04 #@! TD.AperFunction*
M02*
