G04 #@! TF.GenerationSoftware,KiCad,Pcbnew,8.0.6*
G04 #@! TF.CreationDate,2026-05-22T11:28:02+05:30*
G04 #@! TF.ProjectId,Kingshand,4b696e67-7368-4616-9e64-2e6b69636164,rev?*
G04 #@! TF.SameCoordinates,Original*
G04 #@! TF.FileFunction,Copper,L1,Top*
G04 #@! TF.FilePolarity,Positive*
%FSLAX46Y46*%
G04 Gerber Fmt 4.6, Leading zero omitted, Abs format (unit mm)*
G04 Created by KiCad (PCBNEW 8.0.6) date 2026-05-22 11:28:02*
%MOMM*%
%LPD*%
G01*
G04 APERTURE LIST*
G04 #@! TA.AperFunction,ComponentPad*
%ADD10R,1.800000X1.800000*%
G04 #@! TD*
G04 #@! TA.AperFunction,ComponentPad*
%ADD11C,1.800000*%
G04 #@! TD*
G04 #@! TA.AperFunction,ComponentPad*
%ADD12C,1.600000*%
G04 #@! TD*
G04 #@! TA.AperFunction,ComponentPad*
%ADD13O,1.600000X1.600000*%
G04 #@! TD*
G04 #@! TA.AperFunction,ComponentPad*
%ADD14C,2.000000*%
G04 #@! TD*
G04 #@! TA.AperFunction,ComponentPad*
%ADD15R,1.600000X1.600000*%
G04 #@! TD*
G04 #@! TA.AperFunction,ComponentPad*
%ADD16C,1.524000*%
G04 #@! TD*
G04 #@! TA.AperFunction,ComponentPad*
%ADD17R,1.524000X1.524000*%
G04 #@! TD*
G04 #@! TA.AperFunction,ViaPad*
%ADD18C,0.600000*%
G04 #@! TD*
G04 #@! TA.AperFunction,Conductor*
%ADD19C,0.200000*%
G04 #@! TD*
G04 #@! TA.AperFunction,Conductor*
%ADD20C,0.127000*%
G04 #@! TD*
G04 #@! TA.AperFunction,Conductor*
%ADD21C,0.400000*%
G04 #@! TD*
G04 APERTURE END LIST*
D10*
X167460000Y-60000000D03*
D11*
X170000000Y-60000000D03*
D12*
X162000000Y-84000000D03*
X162000000Y-79000000D03*
X157000000Y-98620000D03*
D13*
X157000000Y-91000000D03*
D14*
X166500000Y-79000000D03*
X173000000Y-79000000D03*
X166500000Y-83500000D03*
X173000000Y-83500000D03*
D12*
X162000000Y-96000000D03*
X162000000Y-91000000D03*
D14*
X166000000Y-67000000D03*
X172500000Y-67000000D03*
X166000000Y-71500000D03*
X172500000Y-71500000D03*
D15*
X150760000Y-100000000D03*
D13*
X150760000Y-97460000D03*
X150760000Y-94920000D03*
X150760000Y-92380000D03*
X150760000Y-89840000D03*
X150760000Y-87300000D03*
X150760000Y-84760000D03*
X150760000Y-82220000D03*
X150760000Y-79680000D03*
X150760000Y-77140000D03*
X150760000Y-74600000D03*
X150760000Y-72060000D03*
X150760000Y-69520000D03*
X150760000Y-66980000D03*
X150760000Y-64440000D03*
X135520000Y-64440000D03*
X135520000Y-66980000D03*
X135520000Y-69520000D03*
X135520000Y-72060000D03*
X135520000Y-74600000D03*
X135520000Y-77140000D03*
X135520000Y-79680000D03*
X135520000Y-82220000D03*
X135520000Y-84760000D03*
X135520000Y-87300000D03*
X135520000Y-89840000D03*
X135520000Y-92380000D03*
X135520000Y-94920000D03*
X135520000Y-97460000D03*
X135520000Y-100000000D03*
D16*
X123000000Y-60000000D03*
X120460000Y-60000000D03*
X117920000Y-60000000D03*
D17*
X115380000Y-60000000D03*
D12*
X155190000Y-62000000D03*
D13*
X162810000Y-62000000D03*
D12*
X157000000Y-86620000D03*
D13*
X157000000Y-79000000D03*
D12*
X162000000Y-72000000D03*
X162000000Y-67000000D03*
D14*
X166500000Y-91000000D03*
X173000000Y-91000000D03*
X166500000Y-95500000D03*
X173000000Y-95500000D03*
D12*
X157000000Y-74810000D03*
D13*
X157000000Y-67190000D03*
D17*
X119840000Y-91000000D03*
D16*
X122380000Y-91000000D03*
X124920000Y-91000000D03*
X127460000Y-91000000D03*
X130000000Y-91000000D03*
D18*
X158900000Y-91527000D03*
X149400000Y-91100000D03*
D19*
X150760000Y-92380000D02*
X158047000Y-92380000D01*
X160700000Y-89300000D02*
X160500000Y-89100000D01*
X172500000Y-67000000D02*
X166000000Y-67000000D01*
X166500000Y-79000000D02*
X173000000Y-79000000D01*
X166000000Y-67000000D02*
X167460000Y-65540000D01*
X158047000Y-92380000D02*
X158900000Y-91527000D01*
X164800000Y-89300000D02*
X160700000Y-89300000D01*
X127460000Y-91000000D02*
X127460000Y-93760000D01*
X166000000Y-67000000D02*
X162000000Y-67000000D01*
X160500000Y-80500000D02*
X162000000Y-79000000D01*
X173000000Y-91000000D02*
X166500000Y-91000000D01*
X160500000Y-89100000D02*
X160500000Y-80500000D01*
X149300000Y-96200000D02*
X149300000Y-93840000D01*
X127460000Y-93760000D02*
X131160000Y-97460000D01*
X135520000Y-97460000D02*
X148040000Y-97460000D01*
X167460000Y-65540000D02*
X167460000Y-60000000D01*
X131160000Y-97460000D02*
X135520000Y-97460000D01*
X162000000Y-79000000D02*
X166500000Y-79000000D01*
X149300000Y-93840000D02*
X150760000Y-92380000D01*
X166500000Y-91000000D02*
X164800000Y-89300000D01*
X148040000Y-97460000D02*
X149300000Y-96200000D01*
D20*
X127040000Y-84760000D02*
X135520000Y-84760000D01*
X124920000Y-86880000D02*
X127040000Y-84760000D01*
X124920000Y-91000000D02*
X124920000Y-86880000D01*
X122380000Y-91000000D02*
X122380000Y-84370000D01*
X124520000Y-82230000D02*
X124520000Y-82220000D01*
X122380000Y-84370000D02*
X124520000Y-82230000D01*
X124520000Y-82220000D02*
X135520000Y-82220000D01*
D19*
X166000000Y-96000000D02*
X166500000Y-95500000D01*
X159900000Y-91000000D02*
X157000000Y-91000000D01*
X162000000Y-93100000D02*
X159900000Y-91000000D01*
X157000000Y-91000000D02*
X149500000Y-91000000D01*
X162500000Y-95500000D02*
X162000000Y-96000000D01*
X162000000Y-96000000D02*
X162000000Y-93100000D01*
X166500000Y-95500000D02*
X173000000Y-95500000D01*
X149500000Y-91000000D02*
X149400000Y-91100000D01*
X162000000Y-96000000D02*
X166000000Y-96000000D01*
X135520000Y-92380000D02*
X146220000Y-92380000D01*
X146220000Y-92380000D02*
X149887000Y-88713000D01*
X149887000Y-88713000D02*
X154907000Y-88713000D01*
X134140000Y-91000000D02*
X135520000Y-92380000D01*
X158027000Y-85593000D02*
X158027000Y-75837000D01*
X157000000Y-86620000D02*
X158027000Y-85593000D01*
X158027000Y-75837000D02*
X157000000Y-74810000D01*
X154907000Y-88713000D02*
X157000000Y-86620000D01*
X130000000Y-91000000D02*
X134140000Y-91000000D01*
X154300000Y-87300000D02*
X157000000Y-84600000D01*
X150760000Y-87300000D02*
X154300000Y-87300000D01*
X157000000Y-84600000D02*
X157000000Y-79000000D01*
X166000000Y-84000000D02*
X166500000Y-83500000D01*
X162000000Y-84000000D02*
X166000000Y-84000000D01*
X166500000Y-83500000D02*
X173000000Y-83500000D01*
X155190000Y-62000000D02*
X153200000Y-62000000D01*
X153200000Y-62000000D02*
X150760000Y-64440000D01*
D21*
X160000000Y-67300000D02*
X159890000Y-67190000D01*
X162000000Y-72000000D02*
X162000000Y-70500000D01*
X160000000Y-68500000D02*
X160000000Y-67300000D01*
D19*
X165500000Y-72000000D02*
X166000000Y-71500000D01*
D21*
X162000000Y-70500000D02*
X160000000Y-68500000D01*
D19*
X162000000Y-72000000D02*
X165500000Y-72000000D01*
D21*
X159890000Y-67190000D02*
X157000000Y-67190000D01*
D19*
X166000000Y-71500000D02*
X172500000Y-71500000D01*
X168873000Y-58873000D02*
X170000000Y-60000000D01*
X165937000Y-58873000D02*
X168873000Y-58873000D01*
X162810000Y-62000000D02*
X165937000Y-58873000D01*
G04 #@! TA.AperFunction,Conductor*
G36*
X134336097Y-85343685D02*
G01*
X134381439Y-85395594D01*
X134389431Y-85412732D01*
X134389432Y-85412734D01*
X134519954Y-85599141D01*
X134680858Y-85760045D01*
X134680861Y-85760047D01*
X134867266Y-85890568D01*
X134925275Y-85917618D01*
X134977714Y-85963791D01*
X134996866Y-86030984D01*
X134976650Y-86097865D01*
X134925275Y-86142382D01*
X134867267Y-86169431D01*
X134867265Y-86169432D01*
X134680858Y-86299954D01*
X134519954Y-86460858D01*
X134408523Y-86620001D01*
X134389432Y-86647266D01*
X134382420Y-86662304D01*
X134293261Y-86853502D01*
X134293258Y-86853511D01*
X134234366Y-87073302D01*
X134234364Y-87073313D01*
X134214532Y-87299998D01*
X134214532Y-87300001D01*
X134234364Y-87526686D01*
X134234366Y-87526697D01*
X134293258Y-87746488D01*
X134293261Y-87746497D01*
X134389431Y-87952732D01*
X134389432Y-87952734D01*
X134519954Y-88139141D01*
X134680858Y-88300045D01*
X134680861Y-88300047D01*
X134867266Y-88430568D01*
X134925275Y-88457618D01*
X134977714Y-88503791D01*
X134996866Y-88570984D01*
X134976650Y-88637865D01*
X134925275Y-88682382D01*
X134867267Y-88709431D01*
X134867265Y-88709432D01*
X134680858Y-88839954D01*
X134519954Y-89000858D01*
X134389432Y-89187265D01*
X134389431Y-89187267D01*
X134293261Y-89393502D01*
X134293258Y-89393511D01*
X134234366Y-89613302D01*
X134234364Y-89613313D01*
X134214532Y-89839998D01*
X134214532Y-89840001D01*
X134234364Y-90066686D01*
X134234366Y-90066697D01*
X134281715Y-90243406D01*
X134280052Y-90313256D01*
X134240889Y-90371118D01*
X134176661Y-90398622D01*
X134161940Y-90399499D01*
X134053347Y-90399499D01*
X134053331Y-90399500D01*
X131185304Y-90399500D01*
X131118265Y-90379815D01*
X131083729Y-90346623D01*
X130970827Y-90185381D01*
X130915562Y-90130116D01*
X130814620Y-90029174D01*
X130814616Y-90029171D01*
X130814615Y-90029170D01*
X130633666Y-89902468D01*
X130633662Y-89902466D01*
X130586457Y-89880454D01*
X130433450Y-89809106D01*
X130433447Y-89809105D01*
X130433445Y-89809104D01*
X130220070Y-89751930D01*
X130220062Y-89751929D01*
X130000002Y-89732677D01*
X129999998Y-89732677D01*
X129779937Y-89751929D01*
X129779929Y-89751930D01*
X129566554Y-89809104D01*
X129566548Y-89809107D01*
X129366340Y-89902465D01*
X129366338Y-89902466D01*
X129185377Y-90029175D01*
X129029175Y-90185377D01*
X128902467Y-90366337D01*
X128842105Y-90495782D01*
X128795932Y-90548221D01*
X128728738Y-90567372D01*
X128661857Y-90547156D01*
X128617341Y-90495780D01*
X128557098Y-90366589D01*
X128557097Y-90366587D01*
X128511741Y-90301811D01*
X128511740Y-90301810D01*
X127841000Y-90972551D01*
X127841000Y-90949840D01*
X127815036Y-90852939D01*
X127764876Y-90766060D01*
X127693940Y-90695124D01*
X127607061Y-90644964D01*
X127510160Y-90619000D01*
X127487448Y-90619000D01*
X128158188Y-89948259D01*
X128158187Y-89948258D01*
X128093411Y-89902901D01*
X128093405Y-89902898D01*
X127893284Y-89809580D01*
X127893270Y-89809575D01*
X127679986Y-89752426D01*
X127679976Y-89752424D01*
X127460001Y-89733179D01*
X127459999Y-89733179D01*
X127240023Y-89752424D01*
X127240013Y-89752426D01*
X127026729Y-89809575D01*
X127026720Y-89809579D01*
X126826590Y-89902901D01*
X126761811Y-89948258D01*
X127432553Y-90619000D01*
X127409840Y-90619000D01*
X127312939Y-90644964D01*
X127226060Y-90695124D01*
X127155124Y-90766060D01*
X127104964Y-90852939D01*
X127079000Y-90949840D01*
X127079000Y-90972553D01*
X126408258Y-90301811D01*
X126362901Y-90366590D01*
X126302658Y-90495781D01*
X126256485Y-90548220D01*
X126189292Y-90567372D01*
X126122411Y-90547156D01*
X126077894Y-90495781D01*
X126052080Y-90440423D01*
X126017534Y-90366339D01*
X125922125Y-90230080D01*
X125890827Y-90185381D01*
X125835562Y-90130116D01*
X125734620Y-90029174D01*
X125734616Y-90029171D01*
X125734615Y-90029170D01*
X125553666Y-89902468D01*
X125548976Y-89899761D01*
X125549823Y-89898292D01*
X125503144Y-89857175D01*
X125484000Y-89790985D01*
X125484000Y-87164978D01*
X125503685Y-87097939D01*
X125520319Y-87077297D01*
X127237297Y-85360319D01*
X127298620Y-85326834D01*
X127324978Y-85324000D01*
X134269058Y-85324000D01*
X134336097Y-85343685D01*
G37*
G04 #@! TD.AperFunction*
G04 #@! TA.AperFunction,Conductor*
G36*
X178442539Y-56520185D02*
G01*
X178488294Y-56572989D01*
X178499500Y-56624500D01*
X178499500Y-105375500D01*
X178479815Y-105442539D01*
X178427011Y-105488294D01*
X178375500Y-105499500D01*
X104624500Y-105499500D01*
X104557461Y-105479815D01*
X104511706Y-105427011D01*
X104500500Y-105375500D01*
X104500500Y-90190135D01*
X118577500Y-90190135D01*
X118577500Y-91809870D01*
X118577501Y-91809876D01*
X118583908Y-91869483D01*
X118634202Y-92004328D01*
X118634206Y-92004335D01*
X118720452Y-92119544D01*
X118720455Y-92119547D01*
X118835664Y-92205793D01*
X118835671Y-92205797D01*
X118970517Y-92256091D01*
X118970516Y-92256091D01*
X118977444Y-92256835D01*
X119030127Y-92262500D01*
X120649872Y-92262499D01*
X120709483Y-92256091D01*
X120844331Y-92205796D01*
X120959546Y-92119546D01*
X121045796Y-92004331D01*
X121096091Y-91869483D01*
X121102500Y-91809873D01*
X121102499Y-91769920D01*
X121122182Y-91702884D01*
X121174985Y-91657128D01*
X121244143Y-91647183D01*
X121307700Y-91676206D01*
X121328073Y-91698796D01*
X121409174Y-91814620D01*
X121409175Y-91814621D01*
X121565378Y-91970824D01*
X121565384Y-91970829D01*
X121746333Y-92097531D01*
X121746335Y-92097532D01*
X121746338Y-92097534D01*
X121946550Y-92190894D01*
X122159932Y-92248070D01*
X122317123Y-92261822D01*
X122379998Y-92267323D01*
X122380000Y-92267323D01*
X122380002Y-92267323D01*
X122435151Y-92262498D01*
X122600068Y-92248070D01*
X122813450Y-92190894D01*
X123013662Y-92097534D01*
X123194620Y-91970826D01*
X123350826Y-91814620D01*
X123477534Y-91633662D01*
X123537618Y-91504811D01*
X123583790Y-91452371D01*
X123650983Y-91433219D01*
X123717865Y-91453435D01*
X123762382Y-91504811D01*
X123822464Y-91633658D01*
X123822468Y-91633666D01*
X123949170Y-91814615D01*
X123949175Y-91814621D01*
X124105378Y-91970824D01*
X124105384Y-91970829D01*
X124286333Y-92097531D01*
X124286335Y-92097532D01*
X124286338Y-92097534D01*
X124486550Y-92190894D01*
X124699932Y-92248070D01*
X124857123Y-92261822D01*
X124919998Y-92267323D01*
X124920000Y-92267323D01*
X124920002Y-92267323D01*
X124975151Y-92262498D01*
X125140068Y-92248070D01*
X125353450Y-92190894D01*
X125553662Y-92097534D01*
X125734620Y-91970826D01*
X125890826Y-91814620D01*
X126017534Y-91633662D01*
X126077894Y-91504218D01*
X126124066Y-91451779D01*
X126191259Y-91432627D01*
X126258141Y-91452843D01*
X126302658Y-91504219D01*
X126362898Y-91633405D01*
X126362901Y-91633411D01*
X126408258Y-91698187D01*
X126408259Y-91698188D01*
X127079000Y-91027447D01*
X127079000Y-91050160D01*
X127104964Y-91147061D01*
X127155124Y-91233940D01*
X127226060Y-91304876D01*
X127312939Y-91355036D01*
X127409840Y-91381000D01*
X127432553Y-91381000D01*
X126761810Y-92051740D01*
X126826590Y-92097099D01*
X126826592Y-92097100D01*
X127026715Y-92190419D01*
X127026729Y-92190424D01*
X127240013Y-92247573D01*
X127240023Y-92247575D01*
X127459999Y-92266821D01*
X127460001Y-92266821D01*
X127679976Y-92247575D01*
X127679986Y-92247573D01*
X127893270Y-92190424D01*
X127893284Y-92190419D01*
X128093407Y-92097100D01*
X128093417Y-92097094D01*
X128158188Y-92051741D01*
X127487448Y-91381000D01*
X127510160Y-91381000D01*
X127607061Y-91355036D01*
X127693940Y-91304876D01*
X127764876Y-91233940D01*
X127815036Y-91147061D01*
X127841000Y-91050160D01*
X127841000Y-91027447D01*
X128511741Y-91698188D01*
X128557094Y-91633417D01*
X128557095Y-91633416D01*
X128617340Y-91504219D01*
X128663512Y-91451780D01*
X128730706Y-91432627D01*
X128797587Y-91452842D01*
X128842105Y-91504218D01*
X128902466Y-91633662D01*
X128902468Y-91633666D01*
X129029170Y-91814615D01*
X129029175Y-91814621D01*
X129185378Y-91970824D01*
X129185384Y-91970829D01*
X129366333Y-92097531D01*
X129366335Y-92097532D01*
X129366338Y-92097534D01*
X129566550Y-92190894D01*
X129779932Y-92248070D01*
X129937123Y-92261822D01*
X129999998Y-92267323D01*
X130000000Y-92267323D01*
X130000002Y-92267323D01*
X130055151Y-92262498D01*
X130220068Y-92248070D01*
X130433450Y-92190894D01*
X130633662Y-92097534D01*
X130814620Y-91970826D01*
X130970826Y-91814620D01*
X131051926Y-91698797D01*
X131083730Y-91653377D01*
X131138307Y-91609752D01*
X131185305Y-91600500D01*
X133839903Y-91600500D01*
X133906942Y-91620185D01*
X133927584Y-91636819D01*
X134228058Y-91937293D01*
X134261543Y-91998616D01*
X134260152Y-92057067D01*
X134234366Y-92153302D01*
X134234364Y-92153313D01*
X134214532Y-92379998D01*
X134214532Y-92380001D01*
X134234364Y-92606686D01*
X134234366Y-92606697D01*
X134293258Y-92826488D01*
X134293261Y-92826497D01*
X134389431Y-93032732D01*
X134389432Y-93032734D01*
X134519954Y-93219141D01*
X134680858Y-93380045D01*
X134680861Y-93380047D01*
X134867266Y-93510568D01*
X134924681Y-93537341D01*
X134925275Y-93537618D01*
X134977714Y-93583791D01*
X134996866Y-93650984D01*
X134976650Y-93717865D01*
X134925275Y-93762382D01*
X134867267Y-93789431D01*
X134867265Y-93789432D01*
X134680858Y-93919954D01*
X134519954Y-94080858D01*
X134389432Y-94267265D01*
X134389431Y-94267267D01*
X134293261Y-94473502D01*
X134293258Y-94473511D01*
X134234366Y-94693302D01*
X134234364Y-94693313D01*
X134214532Y-94919998D01*
X134214532Y-94920001D01*
X134234364Y-95146686D01*
X134234366Y-95146697D01*
X134293258Y-95366488D01*
X134293261Y-95366497D01*
X134389431Y-95572732D01*
X134389432Y-95572734D01*
X134519954Y-95759141D01*
X134680858Y-95920045D01*
X134680861Y-95920047D01*
X134867266Y-96050568D01*
X134925865Y-96077893D01*
X134978305Y-96124065D01*
X134997457Y-96191258D01*
X134977242Y-96258139D01*
X134925867Y-96302657D01*
X134867515Y-96329867D01*
X134681179Y-96460342D01*
X134520342Y-96621179D01*
X134389865Y-96807517D01*
X134293734Y-97013673D01*
X134293730Y-97013682D01*
X134241127Y-97209999D01*
X134241128Y-97210000D01*
X135086988Y-97210000D01*
X135054075Y-97267007D01*
X135020000Y-97394174D01*
X135020000Y-97525826D01*
X135054075Y-97652993D01*
X135086988Y-97710000D01*
X134241128Y-97710000D01*
X134293730Y-97906317D01*
X134293734Y-97906326D01*
X134389865Y-98112482D01*
X134520342Y-98298820D01*
X134681179Y-98459657D01*
X134867518Y-98590134D01*
X134867520Y-98590135D01*
X134925865Y-98617342D01*
X134978305Y-98663514D01*
X134997457Y-98730707D01*
X134977242Y-98797589D01*
X134925867Y-98842105D01*
X134867268Y-98869431D01*
X134867264Y-98869433D01*
X134680858Y-98999954D01*
X134519954Y-99160858D01*
X134389432Y-99347265D01*
X134389431Y-99347267D01*
X134293261Y-99553502D01*
X134293258Y-99553511D01*
X134234366Y-99773302D01*
X134234364Y-99773313D01*
X134214532Y-99999998D01*
X134214532Y-100000001D01*
X134234364Y-100226686D01*
X134234366Y-100226697D01*
X134293258Y-100446488D01*
X134293261Y-100446497D01*
X134389431Y-100652732D01*
X134389432Y-100652734D01*
X134519954Y-100839141D01*
X134680858Y-101000045D01*
X134680861Y-101000047D01*
X134867266Y-101130568D01*
X135073504Y-101226739D01*
X135293308Y-101285635D01*
X135455230Y-101299801D01*
X135519998Y-101305468D01*
X135520000Y-101305468D01*
X135520002Y-101305468D01*
X135576807Y-101300498D01*
X135746692Y-101285635D01*
X135966496Y-101226739D01*
X136172734Y-101130568D01*
X136359139Y-101000047D01*
X136520047Y-100839139D01*
X136650568Y-100652734D01*
X136746739Y-100446496D01*
X136805635Y-100226692D01*
X136825468Y-100000000D01*
X136805635Y-99773308D01*
X136746739Y-99553504D01*
X136650568Y-99347266D01*
X136520047Y-99160861D01*
X136520045Y-99160858D01*
X136359141Y-98999954D01*
X136172734Y-98869432D01*
X136172732Y-98869431D01*
X136161275Y-98864088D01*
X136114132Y-98842105D01*
X136061694Y-98795934D01*
X136042542Y-98728740D01*
X136062758Y-98661859D01*
X136114134Y-98617341D01*
X136172484Y-98590132D01*
X136358820Y-98459657D01*
X136519657Y-98298820D01*
X136650134Y-98112482D01*
X136746265Y-97906326D01*
X136746269Y-97906317D01*
X136798872Y-97710000D01*
X135953012Y-97710000D01*
X135985925Y-97652993D01*
X136020000Y-97525826D01*
X136020000Y-97394174D01*
X135985925Y-97267007D01*
X135953012Y-97210000D01*
X136798872Y-97210000D01*
X136798872Y-97209999D01*
X136746269Y-97013682D01*
X136746265Y-97013673D01*
X136650134Y-96807517D01*
X136519657Y-96621179D01*
X136358820Y-96460342D01*
X136172482Y-96329865D01*
X136114133Y-96302657D01*
X136061694Y-96256484D01*
X136042542Y-96189291D01*
X136062758Y-96122410D01*
X136114129Y-96077895D01*
X136172734Y-96050568D01*
X136359139Y-95920047D01*
X136520047Y-95759139D01*
X136650568Y-95572734D01*
X136746739Y-95366496D01*
X136805635Y-95146692D01*
X136825468Y-94920000D01*
X136823674Y-94899500D01*
X136818062Y-94835345D01*
X136805635Y-94693308D01*
X136746739Y-94473504D01*
X136650568Y-94267266D01*
X136520047Y-94080861D01*
X136520045Y-94080858D01*
X136359141Y-93919954D01*
X136172734Y-93789432D01*
X136172728Y-93789429D01*
X136114725Y-93762382D01*
X136062285Y-93716210D01*
X136043133Y-93649017D01*
X136063348Y-93582135D01*
X136114725Y-93537618D01*
X136115319Y-93537341D01*
X136172734Y-93510568D01*
X136359139Y-93380047D01*
X136520047Y-93219139D01*
X136650118Y-93033375D01*
X136704693Y-92989752D01*
X136751692Y-92980500D01*
X146133331Y-92980500D01*
X146133347Y-92980501D01*
X146140943Y-92980501D01*
X146299054Y-92980501D01*
X146299057Y-92980501D01*
X146451785Y-92939577D01*
X146501904Y-92910639D01*
X146588716Y-92860520D01*
X146700520Y-92748716D01*
X146700520Y-92748714D01*
X146710728Y-92738507D01*
X146710730Y-92738504D01*
X148387535Y-91061698D01*
X148448856Y-91028215D01*
X148518548Y-91033199D01*
X148574481Y-91075071D01*
X148598434Y-91135498D01*
X148614630Y-91279249D01*
X148614631Y-91279254D01*
X148674211Y-91449523D01*
X148769077Y-91600500D01*
X148770184Y-91602262D01*
X148897738Y-91729816D01*
X148972299Y-91776666D01*
X149032702Y-91814620D01*
X149050478Y-91825789D01*
X149176489Y-91869882D01*
X149220745Y-91885368D01*
X149220750Y-91885369D01*
X149362814Y-91901375D01*
X149393939Y-91904882D01*
X149458353Y-91931948D01*
X149497908Y-91989543D01*
X149500046Y-92059380D01*
X149499831Y-92060195D01*
X149481127Y-92129998D01*
X149481128Y-92130000D01*
X150326988Y-92130000D01*
X150294075Y-92187007D01*
X150260000Y-92314174D01*
X150260000Y-92445826D01*
X150294075Y-92572993D01*
X150326988Y-92630000D01*
X149481128Y-92630000D01*
X149533730Y-92826317D01*
X149533734Y-92826326D01*
X149629865Y-93032482D01*
X149760342Y-93218820D01*
X149921179Y-93379657D01*
X150107518Y-93510134D01*
X150107520Y-93510135D01*
X150165865Y-93537342D01*
X150218305Y-93583514D01*
X150237457Y-93650707D01*
X150217242Y-93717589D01*
X150165867Y-93762105D01*
X150107268Y-93789431D01*
X150107264Y-93789433D01*
X149920858Y-93919954D01*
X149759954Y-94080858D01*
X149629432Y-94267265D01*
X149629431Y-94267267D01*
X149533261Y-94473502D01*
X149533258Y-94473511D01*
X149474366Y-94693302D01*
X149474364Y-94693313D01*
X149454532Y-94919998D01*
X149454532Y-94920001D01*
X149474364Y-95146686D01*
X149474366Y-95146697D01*
X149533258Y-95366488D01*
X149533261Y-95366497D01*
X149629431Y-95572732D01*
X149629432Y-95572734D01*
X149759954Y-95759141D01*
X149920858Y-95920045D01*
X149920861Y-95920047D01*
X150107266Y-96050568D01*
X150165275Y-96077618D01*
X150217714Y-96123791D01*
X150236866Y-96190984D01*
X150216650Y-96257865D01*
X150165275Y-96302382D01*
X150107267Y-96329431D01*
X150107265Y-96329432D01*
X149920858Y-96459954D01*
X149759954Y-96620858D01*
X149629432Y-96807265D01*
X149629431Y-96807267D01*
X149533261Y-97013502D01*
X149533258Y-97013511D01*
X149474366Y-97233302D01*
X149474364Y-97233313D01*
X149454532Y-97459998D01*
X149454532Y-97460001D01*
X149474364Y-97686686D01*
X149474366Y-97686697D01*
X149533258Y-97906488D01*
X149533261Y-97906497D01*
X149629431Y-98112732D01*
X149629432Y-98112734D01*
X149759954Y-98299141D01*
X149920858Y-98460045D01*
X149945462Y-98477273D01*
X149989087Y-98531849D01*
X149996281Y-98601348D01*
X149964758Y-98663703D01*
X149904529Y-98699117D01*
X149887593Y-98702138D01*
X149852516Y-98705908D01*
X149717671Y-98756202D01*
X149717664Y-98756206D01*
X149602455Y-98842452D01*
X149602452Y-98842455D01*
X149516206Y-98957664D01*
X149516202Y-98957671D01*
X149465908Y-99092517D01*
X149459501Y-99152116D01*
X149459501Y-99152123D01*
X149459500Y-99152135D01*
X149459500Y-100847870D01*
X149459501Y-100847876D01*
X149465908Y-100907483D01*
X149516202Y-101042328D01*
X149516206Y-101042335D01*
X149602452Y-101157544D01*
X149602455Y-101157547D01*
X149717664Y-101243793D01*
X149717671Y-101243797D01*
X149852517Y-101294091D01*
X149852516Y-101294091D01*
X149859444Y-101294835D01*
X149912127Y-101300500D01*
X151607872Y-101300499D01*
X151667483Y-101294091D01*
X151802331Y-101243796D01*
X151917546Y-101157546D01*
X152003796Y-101042331D01*
X152054091Y-100907483D01*
X152060500Y-100847873D01*
X152060499Y-99152128D01*
X152054091Y-99092517D01*
X152044386Y-99066497D01*
X152003797Y-98957671D01*
X152003793Y-98957664D01*
X151917547Y-98842455D01*
X151917544Y-98842452D01*
X151802335Y-98756206D01*
X151802328Y-98756202D01*
X151667482Y-98705908D01*
X151667483Y-98705908D01*
X151632404Y-98702137D01*
X151567853Y-98675399D01*
X151529388Y-98619998D01*
X155694532Y-98619998D01*
X155694532Y-98620001D01*
X155714364Y-98846686D01*
X155714366Y-98846697D01*
X155773258Y-99066488D01*
X155773261Y-99066497D01*
X155869431Y-99272732D01*
X155869432Y-99272734D01*
X155999954Y-99459141D01*
X156160858Y-99620045D01*
X156160861Y-99620047D01*
X156347266Y-99750568D01*
X156553504Y-99846739D01*
X156773308Y-99905635D01*
X156935230Y-99919801D01*
X156999998Y-99925468D01*
X157000000Y-99925468D01*
X157000002Y-99925468D01*
X157056673Y-99920509D01*
X157226692Y-99905635D01*
X157446496Y-99846739D01*
X157652734Y-99750568D01*
X157839139Y-99620047D01*
X158000047Y-99459139D01*
X158130568Y-99272734D01*
X158226739Y-99066496D01*
X158285635Y-98846692D01*
X158305468Y-98620000D01*
X158305235Y-98617342D01*
X158297756Y-98531849D01*
X158285635Y-98393308D01*
X158226739Y-98173504D01*
X158130568Y-97967266D01*
X158000047Y-97780861D01*
X158000045Y-97780858D01*
X157839141Y-97619954D01*
X157652734Y-97489432D01*
X157652732Y-97489431D01*
X157446497Y-97393261D01*
X157446488Y-97393258D01*
X157226697Y-97334366D01*
X157226693Y-97334365D01*
X157226692Y-97334365D01*
X157226691Y-97334364D01*
X157226686Y-97334364D01*
X157000002Y-97314532D01*
X156999998Y-97314532D01*
X156773313Y-97334364D01*
X156773302Y-97334366D01*
X156553511Y-97393258D01*
X156553502Y-97393261D01*
X156347267Y-97489431D01*
X156347265Y-97489432D01*
X156160858Y-97619954D01*
X155999954Y-97780858D01*
X155869432Y-97967265D01*
X155869431Y-97967267D01*
X155773261Y-98173502D01*
X155773258Y-98173511D01*
X155714366Y-98393302D01*
X155714364Y-98393313D01*
X155694532Y-98619998D01*
X151529388Y-98619998D01*
X151528005Y-98618006D01*
X151525512Y-98548181D01*
X151561165Y-98488092D01*
X151574539Y-98477272D01*
X151599140Y-98460046D01*
X151760045Y-98299141D01*
X151760047Y-98299139D01*
X151890568Y-98112734D01*
X151986739Y-97906496D01*
X152045635Y-97686692D01*
X152065468Y-97460000D01*
X152045635Y-97233308D01*
X151986739Y-97013504D01*
X151890568Y-96807266D01*
X151760047Y-96620861D01*
X151760045Y-96620858D01*
X151599141Y-96459954D01*
X151412734Y-96329432D01*
X151412728Y-96329429D01*
X151354725Y-96302382D01*
X151302285Y-96256210D01*
X151283133Y-96189017D01*
X151303348Y-96122135D01*
X151354725Y-96077618D01*
X151412734Y-96050568D01*
X151599139Y-95920047D01*
X151760047Y-95759139D01*
X151890568Y-95572734D01*
X151986739Y-95366496D01*
X152045635Y-95146692D01*
X152065468Y-94920000D01*
X152063674Y-94899500D01*
X152058062Y-94835345D01*
X152045635Y-94693308D01*
X151986739Y-94473504D01*
X151890568Y-94267266D01*
X151760047Y-94080861D01*
X151760045Y-94080858D01*
X151599141Y-93919954D01*
X151412734Y-93789432D01*
X151412732Y-93789431D01*
X151354725Y-93762382D01*
X151354132Y-93762105D01*
X151301694Y-93715934D01*
X151282542Y-93648740D01*
X151302758Y-93581859D01*
X151354134Y-93537341D01*
X151412484Y-93510132D01*
X151598820Y-93379657D01*
X151759657Y-93218820D01*
X151890134Y-93032482D01*
X151986265Y-92826326D01*
X151986269Y-92826317D01*
X152038872Y-92630000D01*
X151193012Y-92630000D01*
X151225925Y-92572993D01*
X151260000Y-92445826D01*
X151260000Y-92314174D01*
X151225925Y-92187007D01*
X151193012Y-92130000D01*
X152038872Y-92130000D01*
X152038872Y-92129999D01*
X151986269Y-91933682D01*
X151986265Y-91933673D01*
X151913164Y-91776905D01*
X151902672Y-91707827D01*
X151931192Y-91644043D01*
X151989669Y-91605804D01*
X152025546Y-91600500D01*
X155768308Y-91600500D01*
X155835347Y-91620185D01*
X155869880Y-91653374D01*
X155923404Y-91729815D01*
X155999954Y-91839141D01*
X156160858Y-92000045D01*
X156160861Y-92000047D01*
X156347266Y-92130568D01*
X156553504Y-92226739D01*
X156773308Y-92285635D01*
X156935230Y-92299801D01*
X156999998Y-92305468D01*
X157000000Y-92305468D01*
X157000002Y-92305468D01*
X157056673Y-92300509D01*
X157226692Y-92285635D01*
X157446496Y-92226739D01*
X157652734Y-92130568D01*
X157839139Y-92000047D01*
X158000047Y-91839139D01*
X158130118Y-91653375D01*
X158184693Y-91609752D01*
X158231692Y-91600500D01*
X159599903Y-91600500D01*
X159666942Y-91620185D01*
X159687584Y-91636819D01*
X161363181Y-93312416D01*
X161396666Y-93373739D01*
X161399500Y-93400097D01*
X161399500Y-94768306D01*
X161379815Y-94835345D01*
X161346623Y-94869881D01*
X161160859Y-94999953D01*
X160999954Y-95160858D01*
X160869432Y-95347265D01*
X160869431Y-95347267D01*
X160773261Y-95553502D01*
X160773258Y-95553511D01*
X160714366Y-95773302D01*
X160714364Y-95773313D01*
X160694532Y-95999998D01*
X160694532Y-96000001D01*
X160714364Y-96226686D01*
X160714366Y-96226697D01*
X160773258Y-96446488D01*
X160773261Y-96446497D01*
X160869431Y-96652732D01*
X160869432Y-96652734D01*
X160999954Y-96839141D01*
X161160858Y-97000045D01*
X161160861Y-97000047D01*
X161347266Y-97130568D01*
X161553504Y-97226739D01*
X161553509Y-97226740D01*
X161553511Y-97226741D01*
X161606415Y-97240916D01*
X161773308Y-97285635D01*
X161935230Y-97299801D01*
X161999998Y-97305468D01*
X162000000Y-97305468D01*
X162000002Y-97305468D01*
X162056673Y-97300509D01*
X162226692Y-97285635D01*
X162446496Y-97226739D01*
X162652734Y-97130568D01*
X162839139Y-97000047D01*
X163000047Y-96839139D01*
X163130118Y-96653375D01*
X163184693Y-96609752D01*
X163231692Y-96600500D01*
X165428387Y-96600500D01*
X165495426Y-96620185D01*
X165504548Y-96626645D01*
X165676491Y-96760474D01*
X165895190Y-96878828D01*
X166130386Y-96959571D01*
X166375665Y-97000500D01*
X166624335Y-97000500D01*
X166869614Y-96959571D01*
X167104810Y-96878828D01*
X167323509Y-96760474D01*
X167519744Y-96607738D01*
X167688164Y-96424785D01*
X167824173Y-96216607D01*
X167842560Y-96174689D01*
X167887517Y-96121204D01*
X167954253Y-96100514D01*
X167956116Y-96100500D01*
X171543884Y-96100500D01*
X171610923Y-96120185D01*
X171656678Y-96172989D01*
X171657440Y-96174689D01*
X171675827Y-96216608D01*
X171811833Y-96424782D01*
X171811836Y-96424785D01*
X171980256Y-96607738D01*
X172176491Y-96760474D01*
X172395190Y-96878828D01*
X172630386Y-96959571D01*
X172875665Y-97000500D01*
X173124335Y-97000500D01*
X173369614Y-96959571D01*
X173604810Y-96878828D01*
X173823509Y-96760474D01*
X174019744Y-96607738D01*
X174188164Y-96424785D01*
X174324173Y-96216607D01*
X174424063Y-95988881D01*
X174485108Y-95747821D01*
X174499616Y-95572734D01*
X174505643Y-95500005D01*
X174505643Y-95499994D01*
X174485109Y-95252187D01*
X174485107Y-95252175D01*
X174424063Y-95011118D01*
X174324173Y-94783393D01*
X174188166Y-94575217D01*
X174166557Y-94551744D01*
X174019744Y-94392262D01*
X173823509Y-94239526D01*
X173823507Y-94239525D01*
X173823506Y-94239524D01*
X173604811Y-94121172D01*
X173604802Y-94121169D01*
X173369616Y-94040429D01*
X173124335Y-93999500D01*
X172875665Y-93999500D01*
X172630383Y-94040429D01*
X172395197Y-94121169D01*
X172395188Y-94121172D01*
X172176493Y-94239524D01*
X171980257Y-94392261D01*
X171811833Y-94575217D01*
X171675827Y-94783391D01*
X171657440Y-94825311D01*
X171612483Y-94878796D01*
X171545747Y-94899486D01*
X171543884Y-94899500D01*
X167956116Y-94899500D01*
X167889077Y-94879815D01*
X167843322Y-94827011D01*
X167842560Y-94825311D01*
X167824172Y-94783391D01*
X167688166Y-94575217D01*
X167666557Y-94551744D01*
X167519744Y-94392262D01*
X167323509Y-94239526D01*
X167323507Y-94239525D01*
X167323506Y-94239524D01*
X167104811Y-94121172D01*
X167104802Y-94121169D01*
X166869616Y-94040429D01*
X166624335Y-93999500D01*
X166375665Y-93999500D01*
X166130383Y-94040429D01*
X165895197Y-94121169D01*
X165895188Y-94121172D01*
X165676493Y-94239524D01*
X165480257Y-94392261D01*
X165311833Y-94575217D01*
X165175826Y-94783393D01*
X165075936Y-95011118D01*
X165014892Y-95252177D01*
X165014892Y-95252179D01*
X165012111Y-95285740D01*
X164986959Y-95350924D01*
X164930557Y-95392162D01*
X164888535Y-95399500D01*
X163231692Y-95399500D01*
X163164653Y-95379815D01*
X163130119Y-95346625D01*
X163000047Y-95160861D01*
X163000045Y-95160859D01*
X163000041Y-95160853D01*
X162999155Y-95159796D01*
X162986767Y-95142103D01*
X162980522Y-95131287D01*
X162980518Y-95131282D01*
X162868718Y-95019482D01*
X162868716Y-95019480D01*
X162868713Y-95019478D01*
X162868709Y-95019475D01*
X162857894Y-95013231D01*
X162840195Y-95000838D01*
X162839143Y-94999955D01*
X162653377Y-94869881D01*
X162609752Y-94815304D01*
X162600500Y-94768306D01*
X162600500Y-93020945D01*
X162600500Y-93020943D01*
X162559577Y-92868216D01*
X162555133Y-92860519D01*
X162480524Y-92731290D01*
X162480521Y-92731286D01*
X162480520Y-92731284D01*
X162368716Y-92619480D01*
X162368715Y-92619479D01*
X162364385Y-92615149D01*
X162364374Y-92615139D01*
X162226867Y-92477632D01*
X162193382Y-92416309D01*
X162198366Y-92346617D01*
X162240238Y-92290684D01*
X162282455Y-92270176D01*
X162446317Y-92226269D01*
X162446331Y-92226264D01*
X162652478Y-92130136D01*
X162725471Y-92079024D01*
X162046447Y-91400000D01*
X162052661Y-91400000D01*
X162154394Y-91372741D01*
X162245606Y-91320080D01*
X162320080Y-91245606D01*
X162372741Y-91154394D01*
X162400000Y-91052661D01*
X162400000Y-91046447D01*
X163079024Y-91725471D01*
X163130136Y-91652478D01*
X163226264Y-91446331D01*
X163226269Y-91446317D01*
X163285139Y-91226610D01*
X163285141Y-91226599D01*
X163304966Y-91000002D01*
X163304966Y-90999997D01*
X163304966Y-90999994D01*
X164994859Y-90999994D01*
X164994859Y-91000005D01*
X165015385Y-91247729D01*
X165015387Y-91247738D01*
X165076412Y-91488717D01*
X165176266Y-91716364D01*
X165276564Y-91869882D01*
X165976212Y-91170234D01*
X165987482Y-91212292D01*
X166059890Y-91337708D01*
X166162292Y-91440110D01*
X166287708Y-91512518D01*
X166329765Y-91523787D01*
X165629942Y-92223609D01*
X165676768Y-92260055D01*
X165676770Y-92260056D01*
X165895385Y-92378364D01*
X165895396Y-92378369D01*
X166130506Y-92459083D01*
X166375707Y-92500000D01*
X166624293Y-92500000D01*
X166869493Y-92459083D01*
X167104603Y-92378369D01*
X167104614Y-92378364D01*
X167323228Y-92260057D01*
X167323231Y-92260055D01*
X167370056Y-92223609D01*
X166670234Y-91523787D01*
X166712292Y-91512518D01*
X166837708Y-91440110D01*
X166940110Y-91337708D01*
X167012518Y-91212292D01*
X167023787Y-91170234D01*
X167723434Y-91869882D01*
X167823731Y-91716369D01*
X167923587Y-91488717D01*
X167984612Y-91247738D01*
X167984614Y-91247729D01*
X168005141Y-91000005D01*
X168005141Y-90999994D01*
X171494859Y-90999994D01*
X171494859Y-91000005D01*
X171515385Y-91247729D01*
X171515387Y-91247738D01*
X171576412Y-91488717D01*
X171676266Y-91716364D01*
X171776564Y-91869882D01*
X172476212Y-91170234D01*
X172487482Y-91212292D01*
X172559890Y-91337708D01*
X172662292Y-91440110D01*
X172787708Y-91512518D01*
X172829765Y-91523787D01*
X172129942Y-92223609D01*
X172176768Y-92260055D01*
X172176770Y-92260056D01*
X172395385Y-92378364D01*
X172395396Y-92378369D01*
X172630506Y-92459083D01*
X172875707Y-92500000D01*
X173124293Y-92500000D01*
X173369493Y-92459083D01*
X173604603Y-92378369D01*
X173604614Y-92378364D01*
X173823228Y-92260057D01*
X173823231Y-92260055D01*
X173870056Y-92223609D01*
X173170234Y-91523787D01*
X173212292Y-91512518D01*
X173337708Y-91440110D01*
X173440110Y-91337708D01*
X173512518Y-91212292D01*
X173523787Y-91170234D01*
X174223434Y-91869882D01*
X174323731Y-91716369D01*
X174423587Y-91488717D01*
X174484612Y-91247738D01*
X174484614Y-91247729D01*
X174505141Y-91000005D01*
X174505141Y-90999994D01*
X174484614Y-90752270D01*
X174484612Y-90752261D01*
X174423587Y-90511282D01*
X174323731Y-90283630D01*
X174223434Y-90130116D01*
X173523787Y-90829764D01*
X173512518Y-90787708D01*
X173440110Y-90662292D01*
X173337708Y-90559890D01*
X173212292Y-90487482D01*
X173170235Y-90476212D01*
X173870057Y-89776390D01*
X173870056Y-89776389D01*
X173823229Y-89739943D01*
X173604614Y-89621635D01*
X173604603Y-89621630D01*
X173369493Y-89540916D01*
X173124293Y-89500000D01*
X172875707Y-89500000D01*
X172630506Y-89540916D01*
X172395396Y-89621630D01*
X172395390Y-89621632D01*
X172176761Y-89739949D01*
X172129942Y-89776388D01*
X172129942Y-89776390D01*
X172829765Y-90476212D01*
X172787708Y-90487482D01*
X172662292Y-90559890D01*
X172559890Y-90662292D01*
X172487482Y-90787708D01*
X172476212Y-90829764D01*
X171776564Y-90130116D01*
X171676267Y-90283632D01*
X171576412Y-90511282D01*
X171515387Y-90752261D01*
X171515385Y-90752270D01*
X171494859Y-90999994D01*
X168005141Y-90999994D01*
X167984614Y-90752270D01*
X167984612Y-90752261D01*
X167923587Y-90511282D01*
X167823731Y-90283630D01*
X167723434Y-90130116D01*
X167023787Y-90829764D01*
X167012518Y-90787708D01*
X166940110Y-90662292D01*
X166837708Y-90559890D01*
X166712292Y-90487482D01*
X166670235Y-90476212D01*
X167370057Y-89776390D01*
X167370056Y-89776389D01*
X167323229Y-89739943D01*
X167104614Y-89621635D01*
X167104603Y-89621630D01*
X166869493Y-89540916D01*
X166624293Y-89500000D01*
X166375707Y-89500000D01*
X166130506Y-89540916D01*
X165895396Y-89621630D01*
X165895390Y-89621632D01*
X165676761Y-89739949D01*
X165629942Y-89776388D01*
X165629942Y-89776390D01*
X166329765Y-90476212D01*
X166287708Y-90487482D01*
X166162292Y-90559890D01*
X166059890Y-90662292D01*
X165987482Y-90787708D01*
X165976212Y-90829764D01*
X165276564Y-90130116D01*
X165176267Y-90283632D01*
X165076412Y-90511282D01*
X165015387Y-90752261D01*
X165015385Y-90752270D01*
X164994859Y-90999994D01*
X163304966Y-90999994D01*
X163285141Y-90773400D01*
X163285139Y-90773389D01*
X163226269Y-90553682D01*
X163226264Y-90553668D01*
X163130136Y-90347521D01*
X163130132Y-90347513D01*
X163079025Y-90274526D01*
X162400000Y-90953551D01*
X162400000Y-90947339D01*
X162372741Y-90845606D01*
X162320080Y-90754394D01*
X162245606Y-90679920D01*
X162154394Y-90627259D01*
X162052661Y-90600000D01*
X162046448Y-90600000D01*
X162725472Y-89920974D01*
X162652478Y-89869863D01*
X162446331Y-89773735D01*
X162446317Y-89773730D01*
X162226610Y-89714860D01*
X162226599Y-89714858D01*
X162000002Y-89695034D01*
X161999998Y-89695034D01*
X161773400Y-89714858D01*
X161773389Y-89714860D01*
X161553682Y-89773730D01*
X161553673Y-89773734D01*
X161347516Y-89869866D01*
X161347512Y-89869868D01*
X161274526Y-89920973D01*
X161274526Y-89920974D01*
X161953553Y-90600000D01*
X161947339Y-90600000D01*
X161845606Y-90627259D01*
X161754394Y-90679920D01*
X161679920Y-90754394D01*
X161627259Y-90845606D01*
X161600000Y-90947339D01*
X161600000Y-90953552D01*
X160920974Y-90274526D01*
X160920973Y-90274526D01*
X160869868Y-90347512D01*
X160869866Y-90347516D01*
X160773734Y-90553673D01*
X160773731Y-90553680D01*
X160729823Y-90717545D01*
X160693457Y-90777205D01*
X160630610Y-90807734D01*
X160561235Y-90799439D01*
X160522367Y-90773132D01*
X160387590Y-90638355D01*
X160387588Y-90638352D01*
X160268717Y-90519481D01*
X160268716Y-90519480D01*
X160181904Y-90469360D01*
X160181904Y-90469359D01*
X160181900Y-90469358D01*
X160131785Y-90440423D01*
X159979057Y-90399499D01*
X159820943Y-90399499D01*
X159813347Y-90399499D01*
X159813331Y-90399500D01*
X158231692Y-90399500D01*
X158164653Y-90379815D01*
X158130119Y-90346625D01*
X158000047Y-90160861D01*
X158000045Y-90160858D01*
X157839141Y-89999954D01*
X157652734Y-89869432D01*
X157652732Y-89869431D01*
X157446497Y-89773261D01*
X157446488Y-89773258D01*
X157226697Y-89714366D01*
X157226693Y-89714365D01*
X157226692Y-89714365D01*
X157226691Y-89714364D01*
X157226686Y-89714364D01*
X157000002Y-89694532D01*
X156999998Y-89694532D01*
X156773313Y-89714364D01*
X156773302Y-89714366D01*
X156553511Y-89773258D01*
X156553502Y-89773261D01*
X156347267Y-89869431D01*
X156347265Y-89869432D01*
X156160858Y-89999954D01*
X155999954Y-90160858D01*
X155942155Y-90243406D01*
X155869881Y-90346624D01*
X155815307Y-90390248D01*
X155768308Y-90399500D01*
X152118060Y-90399500D01*
X152051021Y-90379815D01*
X152005266Y-90327011D01*
X151995322Y-90257853D01*
X151998285Y-90243407D01*
X152028533Y-90130516D01*
X152045635Y-90066692D01*
X152065468Y-89840000D01*
X152045635Y-89613308D01*
X152007127Y-89469593D01*
X152008790Y-89399743D01*
X152047953Y-89341881D01*
X152112181Y-89314377D01*
X152126902Y-89313500D01*
X154820331Y-89313500D01*
X154820347Y-89313501D01*
X154827943Y-89313501D01*
X154986054Y-89313501D01*
X154986057Y-89313501D01*
X155138785Y-89272577D01*
X155188904Y-89243639D01*
X155275716Y-89193520D01*
X155387520Y-89081716D01*
X155387520Y-89081714D01*
X155397728Y-89071507D01*
X155397730Y-89071504D01*
X156557294Y-87911939D01*
X156618615Y-87878456D01*
X156677066Y-87879847D01*
X156696604Y-87885082D01*
X156773308Y-87905635D01*
X156935230Y-87919801D01*
X156999998Y-87925468D01*
X157000000Y-87925468D01*
X157000002Y-87925468D01*
X157056673Y-87920509D01*
X157226692Y-87905635D01*
X157446496Y-87846739D01*
X157652734Y-87750568D01*
X157839139Y-87620047D01*
X158000047Y-87459139D01*
X158130568Y-87272734D01*
X158226739Y-87066496D01*
X158285635Y-86846692D01*
X158305468Y-86620000D01*
X158285635Y-86393308D01*
X158260621Y-86299954D01*
X158259847Y-86297066D01*
X158261510Y-86227217D01*
X158291939Y-86177294D01*
X158385506Y-86083728D01*
X158385511Y-86083724D01*
X158395714Y-86073520D01*
X158395716Y-86073520D01*
X158507520Y-85961716D01*
X158586577Y-85824784D01*
X158627500Y-85672057D01*
X158627500Y-83999998D01*
X160694532Y-83999998D01*
X160694532Y-84000001D01*
X160714364Y-84226686D01*
X160714366Y-84226697D01*
X160773258Y-84446488D01*
X160773261Y-84446497D01*
X160869431Y-84652732D01*
X160869432Y-84652734D01*
X160999954Y-84839141D01*
X161160858Y-85000045D01*
X161160861Y-85000047D01*
X161347266Y-85130568D01*
X161553504Y-85226739D01*
X161773308Y-85285635D01*
X161935230Y-85299801D01*
X161999998Y-85305468D01*
X162000000Y-85305468D01*
X162000002Y-85305468D01*
X162056673Y-85300509D01*
X162226692Y-85285635D01*
X162446496Y-85226739D01*
X162652734Y-85130568D01*
X162839139Y-85000047D01*
X163000047Y-84839139D01*
X163130118Y-84653375D01*
X163184693Y-84609752D01*
X163231692Y-84600500D01*
X165428387Y-84600500D01*
X165495426Y-84620185D01*
X165504548Y-84626645D01*
X165676491Y-84760474D01*
X165895190Y-84878828D01*
X166130386Y-84959571D01*
X166375665Y-85000500D01*
X166624335Y-85000500D01*
X166869614Y-84959571D01*
X167104810Y-84878828D01*
X167323509Y-84760474D01*
X167519744Y-84607738D01*
X167688164Y-84424785D01*
X167824173Y-84216607D01*
X167842560Y-84174689D01*
X167887517Y-84121204D01*
X167954253Y-84100514D01*
X167956116Y-84100500D01*
X171543884Y-84100500D01*
X171610923Y-84120185D01*
X171656678Y-84172989D01*
X171657440Y-84174689D01*
X171675827Y-84216608D01*
X171811833Y-84424782D01*
X171811836Y-84424785D01*
X171980256Y-84607738D01*
X172176491Y-84760474D01*
X172395190Y-84878828D01*
X172630386Y-84959571D01*
X172875665Y-85000500D01*
X173124335Y-85000500D01*
X173369614Y-84959571D01*
X173604810Y-84878828D01*
X173823509Y-84760474D01*
X174019744Y-84607738D01*
X174188164Y-84424785D01*
X174324173Y-84216607D01*
X174424063Y-83988881D01*
X174485108Y-83747821D01*
X174494918Y-83629431D01*
X174505643Y-83500005D01*
X174505643Y-83499994D01*
X174485109Y-83252187D01*
X174485107Y-83252175D01*
X174424063Y-83011118D01*
X174324173Y-82783393D01*
X174188166Y-82575217D01*
X174166557Y-82551744D01*
X174019744Y-82392262D01*
X173823509Y-82239526D01*
X173823507Y-82239525D01*
X173823506Y-82239524D01*
X173604811Y-82121172D01*
X173604802Y-82121169D01*
X173369616Y-82040429D01*
X173124335Y-81999500D01*
X172875665Y-81999500D01*
X172630383Y-82040429D01*
X172395197Y-82121169D01*
X172395188Y-82121172D01*
X172176493Y-82239524D01*
X171980257Y-82392261D01*
X171811833Y-82575217D01*
X171675827Y-82783391D01*
X171657440Y-82825311D01*
X171612483Y-82878796D01*
X171545747Y-82899486D01*
X171543884Y-82899500D01*
X167956116Y-82899500D01*
X167889077Y-82879815D01*
X167843322Y-82827011D01*
X167842560Y-82825311D01*
X167824172Y-82783391D01*
X167688166Y-82575217D01*
X167666557Y-82551744D01*
X167519744Y-82392262D01*
X167323509Y-82239526D01*
X167323507Y-82239525D01*
X167323506Y-82239524D01*
X167104811Y-82121172D01*
X167104802Y-82121169D01*
X166869616Y-82040429D01*
X166624335Y-81999500D01*
X166375665Y-81999500D01*
X166130383Y-82040429D01*
X165895197Y-82121169D01*
X165895188Y-82121172D01*
X165676493Y-82239524D01*
X165480257Y-82392261D01*
X165311833Y-82575217D01*
X165175826Y-82783393D01*
X165075936Y-83011118D01*
X165014892Y-83252177D01*
X165014892Y-83252179D01*
X165012111Y-83285740D01*
X164986959Y-83350924D01*
X164930557Y-83392162D01*
X164888535Y-83399500D01*
X163231692Y-83399500D01*
X163164653Y-83379815D01*
X163130119Y-83346625D01*
X163000047Y-83160861D01*
X163000045Y-83160858D01*
X162839141Y-82999954D01*
X162652734Y-82869432D01*
X162652732Y-82869431D01*
X162446497Y-82773261D01*
X162446488Y-82773258D01*
X162226697Y-82714366D01*
X162226693Y-82714365D01*
X162226692Y-82714365D01*
X162226691Y-82714364D01*
X162226686Y-82714364D01*
X162000002Y-82694532D01*
X161999998Y-82694532D01*
X161773313Y-82714364D01*
X161773302Y-82714366D01*
X161553511Y-82773258D01*
X161553502Y-82773261D01*
X161347267Y-82869431D01*
X161347265Y-82869432D01*
X161160858Y-82999954D01*
X160999954Y-83160858D01*
X160869432Y-83347265D01*
X160869431Y-83347267D01*
X160773261Y-83553502D01*
X160773258Y-83553511D01*
X160714366Y-83773302D01*
X160714364Y-83773313D01*
X160694532Y-83999998D01*
X158627500Y-83999998D01*
X158627500Y-78999997D01*
X160695034Y-78999997D01*
X160695034Y-79000002D01*
X160714858Y-79226599D01*
X160714860Y-79226610D01*
X160773730Y-79446317D01*
X160773735Y-79446331D01*
X160869863Y-79652478D01*
X160920974Y-79725472D01*
X161600000Y-79046446D01*
X161600000Y-79052661D01*
X161627259Y-79154394D01*
X161679920Y-79245606D01*
X161754394Y-79320080D01*
X161845606Y-79372741D01*
X161947339Y-79400000D01*
X161953553Y-79400000D01*
X161274526Y-80079025D01*
X161347513Y-80130132D01*
X161347521Y-80130136D01*
X161553668Y-80226264D01*
X161553682Y-80226269D01*
X161773389Y-80285139D01*
X161773400Y-80285141D01*
X161999998Y-80304966D01*
X162000002Y-80304966D01*
X162226599Y-80285141D01*
X162226610Y-80285139D01*
X162446317Y-80226269D01*
X162446331Y-80226264D01*
X162652478Y-80130136D01*
X162725471Y-80079024D01*
X162046447Y-79400000D01*
X162052661Y-79400000D01*
X162154394Y-79372741D01*
X162245606Y-79320080D01*
X162320080Y-79245606D01*
X162372741Y-79154394D01*
X162400000Y-79052661D01*
X162400000Y-79046447D01*
X163079024Y-79725471D01*
X163130136Y-79652478D01*
X163226264Y-79446331D01*
X163226269Y-79446317D01*
X163285139Y-79226610D01*
X163285141Y-79226599D01*
X163304966Y-79000002D01*
X163304966Y-78999997D01*
X163304966Y-78999994D01*
X164994859Y-78999994D01*
X164994859Y-79000005D01*
X165015385Y-79247729D01*
X165015387Y-79247738D01*
X165076412Y-79488717D01*
X165176266Y-79716364D01*
X165276564Y-79869882D01*
X165976212Y-79170234D01*
X165987482Y-79212292D01*
X166059890Y-79337708D01*
X166162292Y-79440110D01*
X166287708Y-79512518D01*
X166329765Y-79523787D01*
X165629942Y-80223609D01*
X165676768Y-80260055D01*
X165676770Y-80260056D01*
X165895385Y-80378364D01*
X165895396Y-80378369D01*
X166130506Y-80459083D01*
X166375707Y-80500000D01*
X166624293Y-80500000D01*
X166869493Y-80459083D01*
X167104603Y-80378369D01*
X167104614Y-80378364D01*
X167323228Y-80260057D01*
X167323231Y-80260055D01*
X167370056Y-80223609D01*
X166670234Y-79523787D01*
X166712292Y-79512518D01*
X166837708Y-79440110D01*
X166940110Y-79337708D01*
X167012518Y-79212292D01*
X167023787Y-79170234D01*
X167723434Y-79869882D01*
X167823731Y-79716369D01*
X167923587Y-79488717D01*
X167984612Y-79247738D01*
X167984614Y-79247729D01*
X168005141Y-79000005D01*
X168005141Y-78999994D01*
X171494859Y-78999994D01*
X171494859Y-79000005D01*
X171515385Y-79247729D01*
X171515387Y-79247738D01*
X171576412Y-79488717D01*
X171676266Y-79716364D01*
X171776564Y-79869882D01*
X172476212Y-79170234D01*
X172487482Y-79212292D01*
X172559890Y-79337708D01*
X172662292Y-79440110D01*
X172787708Y-79512518D01*
X172829765Y-79523787D01*
X172129942Y-80223609D01*
X172176768Y-80260055D01*
X172176770Y-80260056D01*
X172395385Y-80378364D01*
X172395396Y-80378369D01*
X172630506Y-80459083D01*
X172875707Y-80500000D01*
X173124293Y-80500000D01*
X173369493Y-80459083D01*
X173604603Y-80378369D01*
X173604614Y-80378364D01*
X173823228Y-80260057D01*
X173823231Y-80260055D01*
X173870056Y-80223609D01*
X173170234Y-79523787D01*
X173212292Y-79512518D01*
X173337708Y-79440110D01*
X173440110Y-79337708D01*
X173512518Y-79212292D01*
X173523787Y-79170234D01*
X174223434Y-79869882D01*
X174323731Y-79716369D01*
X174423587Y-79488717D01*
X174484612Y-79247738D01*
X174484614Y-79247729D01*
X174505141Y-79000005D01*
X174505141Y-78999994D01*
X174484614Y-78752270D01*
X174484612Y-78752261D01*
X174423587Y-78511282D01*
X174323731Y-78283630D01*
X174223434Y-78130116D01*
X173523787Y-78829764D01*
X173512518Y-78787708D01*
X173440110Y-78662292D01*
X173337708Y-78559890D01*
X173212292Y-78487482D01*
X173170235Y-78476212D01*
X173870057Y-77776390D01*
X173870056Y-77776389D01*
X173823229Y-77739943D01*
X173604614Y-77621635D01*
X173604603Y-77621630D01*
X173369493Y-77540916D01*
X173124293Y-77500000D01*
X172875707Y-77500000D01*
X172630506Y-77540916D01*
X172395396Y-77621630D01*
X172395390Y-77621632D01*
X172176761Y-77739949D01*
X172129942Y-77776388D01*
X172129942Y-77776390D01*
X172829765Y-78476212D01*
X172787708Y-78487482D01*
X172662292Y-78559890D01*
X172559890Y-78662292D01*
X172487482Y-78787708D01*
X172476212Y-78829764D01*
X171776564Y-78130116D01*
X171676267Y-78283632D01*
X171576412Y-78511282D01*
X171515387Y-78752261D01*
X171515385Y-78752270D01*
X171494859Y-78999994D01*
X168005141Y-78999994D01*
X167984614Y-78752270D01*
X167984612Y-78752261D01*
X167923587Y-78511282D01*
X167823731Y-78283630D01*
X167723434Y-78130116D01*
X167023787Y-78829764D01*
X167012518Y-78787708D01*
X166940110Y-78662292D01*
X166837708Y-78559890D01*
X166712292Y-78487482D01*
X166670235Y-78476212D01*
X167370057Y-77776390D01*
X167370056Y-77776389D01*
X167323229Y-77739943D01*
X167104614Y-77621635D01*
X167104603Y-77621630D01*
X166869493Y-77540916D01*
X166624293Y-77500000D01*
X166375707Y-77500000D01*
X166130506Y-77540916D01*
X165895396Y-77621630D01*
X165895390Y-77621632D01*
X165676761Y-77739949D01*
X165629942Y-77776388D01*
X165629942Y-77776390D01*
X166329765Y-78476212D01*
X166287708Y-78487482D01*
X166162292Y-78559890D01*
X166059890Y-78662292D01*
X165987482Y-78787708D01*
X165976212Y-78829764D01*
X165276564Y-78130116D01*
X165176267Y-78283632D01*
X165076412Y-78511282D01*
X165015387Y-78752261D01*
X165015385Y-78752270D01*
X164994859Y-78999994D01*
X163304966Y-78999994D01*
X163285141Y-78773400D01*
X163285139Y-78773389D01*
X163226269Y-78553682D01*
X163226264Y-78553668D01*
X163130136Y-78347521D01*
X163130132Y-78347513D01*
X163079025Y-78274526D01*
X162400000Y-78953551D01*
X162400000Y-78947339D01*
X162372741Y-78845606D01*
X162320080Y-78754394D01*
X162245606Y-78679920D01*
X162154394Y-78627259D01*
X162052661Y-78600000D01*
X162046448Y-78600000D01*
X162725472Y-77920974D01*
X162652478Y-77869863D01*
X162446331Y-77773735D01*
X162446317Y-77773730D01*
X162226610Y-77714860D01*
X162226599Y-77714858D01*
X162000002Y-77695034D01*
X161999998Y-77695034D01*
X161773400Y-77714858D01*
X161773389Y-77714860D01*
X161553682Y-77773730D01*
X161553673Y-77773734D01*
X161347516Y-77869866D01*
X161347512Y-77869868D01*
X161274526Y-77920973D01*
X161274526Y-77920974D01*
X161953553Y-78600000D01*
X161947339Y-78600000D01*
X161845606Y-78627259D01*
X161754394Y-78679920D01*
X161679920Y-78754394D01*
X161627259Y-78845606D01*
X161600000Y-78947339D01*
X161600000Y-78953552D01*
X160920974Y-78274526D01*
X160920973Y-78274526D01*
X160869868Y-78347512D01*
X160869866Y-78347516D01*
X160773734Y-78553673D01*
X160773730Y-78553682D01*
X160714860Y-78773389D01*
X160714858Y-78773400D01*
X160695034Y-78999997D01*
X158627500Y-78999997D01*
X158627500Y-75757943D01*
X158586577Y-75605216D01*
X158583592Y-75600045D01*
X158507524Y-75468290D01*
X158507521Y-75468286D01*
X158507520Y-75468284D01*
X158395716Y-75356480D01*
X158395715Y-75356479D01*
X158391385Y-75352149D01*
X158391374Y-75352139D01*
X158291941Y-75252706D01*
X158258456Y-75191383D01*
X158259847Y-75132931D01*
X158285635Y-75036692D01*
X158305468Y-74810000D01*
X158285635Y-74583308D01*
X158226739Y-74363504D01*
X158130568Y-74157266D01*
X158000047Y-73970861D01*
X158000045Y-73970858D01*
X157839141Y-73809954D01*
X157652734Y-73679432D01*
X157652732Y-73679431D01*
X157446497Y-73583261D01*
X157446488Y-73583258D01*
X157226697Y-73524366D01*
X157226693Y-73524365D01*
X157226692Y-73524365D01*
X157226691Y-73524364D01*
X157226686Y-73524364D01*
X157000002Y-73504532D01*
X156999998Y-73504532D01*
X156773313Y-73524364D01*
X156773302Y-73524366D01*
X156553511Y-73583258D01*
X156553502Y-73583261D01*
X156347267Y-73679431D01*
X156347265Y-73679432D01*
X156160858Y-73809954D01*
X155999954Y-73970858D01*
X155869432Y-74157265D01*
X155869431Y-74157267D01*
X155773261Y-74363502D01*
X155773258Y-74363511D01*
X155714366Y-74583302D01*
X155714364Y-74583313D01*
X155694532Y-74809998D01*
X155694532Y-74810001D01*
X155714364Y-75036686D01*
X155714366Y-75036697D01*
X155773258Y-75256488D01*
X155773261Y-75256497D01*
X155869431Y-75462732D01*
X155869432Y-75462734D01*
X155999954Y-75649141D01*
X156160858Y-75810045D01*
X156160861Y-75810047D01*
X156347266Y-75940568D01*
X156553504Y-76036739D01*
X156773308Y-76095635D01*
X156935230Y-76109801D01*
X156999998Y-76115468D01*
X157000000Y-76115468D01*
X157000002Y-76115468D01*
X157056673Y-76110509D01*
X157226692Y-76095635D01*
X157270405Y-76083922D01*
X157340255Y-76085584D01*
X157398118Y-76124746D01*
X157425623Y-76188974D01*
X157426500Y-76203696D01*
X157426500Y-77606303D01*
X157406815Y-77673342D01*
X157354011Y-77719097D01*
X157284853Y-77729041D01*
X157270408Y-77726078D01*
X157226700Y-77714367D01*
X157226697Y-77714366D01*
X157226692Y-77714365D01*
X157226689Y-77714364D01*
X157226686Y-77714364D01*
X157000002Y-77694532D01*
X156999998Y-77694532D01*
X156773313Y-77714364D01*
X156773302Y-77714366D01*
X156553511Y-77773258D01*
X156553502Y-77773261D01*
X156347267Y-77869431D01*
X156347265Y-77869432D01*
X156160858Y-77999954D01*
X155999954Y-78160858D01*
X155869432Y-78347265D01*
X155869431Y-78347267D01*
X155773261Y-78553502D01*
X155773258Y-78553511D01*
X155714366Y-78773302D01*
X155714364Y-78773313D01*
X155694532Y-78999998D01*
X155694532Y-79000001D01*
X155714364Y-79226686D01*
X155714366Y-79226697D01*
X155773258Y-79446488D01*
X155773261Y-79446497D01*
X155869431Y-79652732D01*
X155869432Y-79652734D01*
X155999954Y-79839141D01*
X156160858Y-80000045D01*
X156160861Y-80000047D01*
X156346624Y-80130118D01*
X156390248Y-80184693D01*
X156399500Y-80231692D01*
X156399500Y-84299902D01*
X156379815Y-84366941D01*
X156363181Y-84387583D01*
X154087584Y-86663181D01*
X154026261Y-86696666D01*
X153999903Y-86699500D01*
X151991692Y-86699500D01*
X151924653Y-86679815D01*
X151890119Y-86646625D01*
X151760047Y-86460861D01*
X151760045Y-86460858D01*
X151599141Y-86299954D01*
X151412734Y-86169432D01*
X151412728Y-86169429D01*
X151354725Y-86142382D01*
X151302285Y-86096210D01*
X151283133Y-86029017D01*
X151303348Y-85962135D01*
X151354725Y-85917618D01*
X151412734Y-85890568D01*
X151599139Y-85760047D01*
X151760047Y-85599139D01*
X151890568Y-85412734D01*
X151986739Y-85206496D01*
X152045635Y-84986692D01*
X152062634Y-84792384D01*
X152065468Y-84760001D01*
X152065468Y-84759998D01*
X152051786Y-84603616D01*
X152045635Y-84533308D01*
X151986739Y-84313504D01*
X151890568Y-84107266D01*
X151760047Y-83920861D01*
X151760045Y-83920858D01*
X151599141Y-83759954D01*
X151412734Y-83629432D01*
X151412728Y-83629429D01*
X151354725Y-83602382D01*
X151302285Y-83556210D01*
X151283133Y-83489017D01*
X151303348Y-83422135D01*
X151354725Y-83377618D01*
X151412734Y-83350568D01*
X151599139Y-83220047D01*
X151760047Y-83059139D01*
X151890568Y-82872734D01*
X151986739Y-82666496D01*
X152045635Y-82446692D01*
X152065468Y-82220000D01*
X152045635Y-81993308D01*
X151986739Y-81773504D01*
X151890568Y-81567266D01*
X151760047Y-81380861D01*
X151760045Y-81380858D01*
X151599141Y-81219954D01*
X151412734Y-81089432D01*
X151412728Y-81089429D01*
X151354725Y-81062382D01*
X151302285Y-81016210D01*
X151283133Y-80949017D01*
X151303348Y-80882135D01*
X151354725Y-80837618D01*
X151412734Y-80810568D01*
X151599139Y-80680047D01*
X151760047Y-80519139D01*
X151890568Y-80332734D01*
X151986739Y-80126496D01*
X152045635Y-79906692D01*
X152065468Y-79680000D01*
X152045635Y-79453308D01*
X151986739Y-79233504D01*
X151890568Y-79027266D01*
X151792839Y-78887693D01*
X151760045Y-78840858D01*
X151599141Y-78679954D01*
X151412734Y-78549432D01*
X151412728Y-78549429D01*
X151354725Y-78522382D01*
X151302285Y-78476210D01*
X151283133Y-78409017D01*
X151303348Y-78342135D01*
X151354725Y-78297618D01*
X151412734Y-78270568D01*
X151599139Y-78140047D01*
X151760047Y-77979139D01*
X151890568Y-77792734D01*
X151986739Y-77586496D01*
X152045635Y-77366692D01*
X152065468Y-77140000D01*
X152045635Y-76913308D01*
X151986739Y-76693504D01*
X151890568Y-76487266D01*
X151760047Y-76300861D01*
X151760045Y-76300858D01*
X151599141Y-76139954D01*
X151412734Y-76009432D01*
X151412728Y-76009429D01*
X151354725Y-75982382D01*
X151302285Y-75936210D01*
X151283133Y-75869017D01*
X151303348Y-75802135D01*
X151354725Y-75757618D01*
X151412734Y-75730568D01*
X151599139Y-75600047D01*
X151760047Y-75439139D01*
X151890568Y-75252734D01*
X151986739Y-75046496D01*
X152045635Y-74826692D01*
X152065468Y-74600000D01*
X152045635Y-74373308D01*
X151986739Y-74153504D01*
X151890568Y-73947266D01*
X151760047Y-73760861D01*
X151760045Y-73760858D01*
X151599141Y-73599954D01*
X151412734Y-73469432D01*
X151412728Y-73469429D01*
X151354725Y-73442382D01*
X151302285Y-73396210D01*
X151283133Y-73329017D01*
X151303348Y-73262135D01*
X151354725Y-73217618D01*
X151412734Y-73190568D01*
X151599139Y-73060047D01*
X151760047Y-72899139D01*
X151890568Y-72712734D01*
X151986739Y-72506496D01*
X152045635Y-72286692D01*
X152065468Y-72060000D01*
X152060218Y-71999998D01*
X152045635Y-71833313D01*
X152045635Y-71833308D01*
X151986739Y-71613504D01*
X151890568Y-71407266D01*
X151781976Y-71252179D01*
X151760045Y-71220858D01*
X151599141Y-71059954D01*
X151412734Y-70929432D01*
X151412728Y-70929429D01*
X151354725Y-70902382D01*
X151302285Y-70856210D01*
X151283133Y-70789017D01*
X151303348Y-70722135D01*
X151354725Y-70677618D01*
X151412734Y-70650568D01*
X151599139Y-70520047D01*
X151760047Y-70359139D01*
X151890568Y-70172734D01*
X151986739Y-69966496D01*
X152045635Y-69746692D01*
X152065468Y-69520000D01*
X152045635Y-69293308D01*
X151986739Y-69073504D01*
X151890568Y-68867266D01*
X151760047Y-68680861D01*
X151760045Y-68680858D01*
X151599141Y-68519954D01*
X151412734Y-68389432D01*
X151412728Y-68389429D01*
X151354725Y-68362382D01*
X151302285Y-68316210D01*
X151283133Y-68249017D01*
X151303348Y-68182135D01*
X151354725Y-68137618D01*
X151412734Y-68110568D01*
X151599139Y-67980047D01*
X151760047Y-67819139D01*
X151890568Y-67632734D01*
X151986739Y-67426496D01*
X152045635Y-67206692D01*
X152047096Y-67189998D01*
X155694532Y-67189998D01*
X155694532Y-67190001D01*
X155714364Y-67416686D01*
X155714366Y-67416697D01*
X155773258Y-67636488D01*
X155773261Y-67636497D01*
X155869431Y-67842732D01*
X155869432Y-67842734D01*
X155999954Y-68029141D01*
X156160858Y-68190045D01*
X156160861Y-68190047D01*
X156347266Y-68320568D01*
X156553504Y-68416739D01*
X156773308Y-68475635D01*
X156935230Y-68489801D01*
X156999998Y-68495468D01*
X157000000Y-68495468D01*
X157000002Y-68495468D01*
X157056673Y-68490509D01*
X157226692Y-68475635D01*
X157446496Y-68416739D01*
X157652734Y-68320568D01*
X157839139Y-68190047D01*
X158000047Y-68029139D01*
X158060098Y-67943377D01*
X158114675Y-67899752D01*
X158161673Y-67890500D01*
X159175500Y-67890500D01*
X159242539Y-67910185D01*
X159288294Y-67962989D01*
X159299500Y-68014500D01*
X159299500Y-68431006D01*
X159299500Y-68568994D01*
X159299500Y-68568996D01*
X159299499Y-68568996D01*
X159326418Y-68704322D01*
X159326421Y-68704332D01*
X159379222Y-68831807D01*
X159455887Y-68946545D01*
X159455888Y-68946546D01*
X161261303Y-70751960D01*
X161294788Y-70813283D01*
X161289804Y-70882975D01*
X161247932Y-70938908D01*
X161244746Y-70941216D01*
X161160863Y-70999951D01*
X160999951Y-71160862D01*
X160869432Y-71347265D01*
X160869431Y-71347267D01*
X160773261Y-71553502D01*
X160773258Y-71553511D01*
X160714366Y-71773302D01*
X160714364Y-71773313D01*
X160694532Y-71999998D01*
X160694532Y-72000001D01*
X160714364Y-72226686D01*
X160714366Y-72226697D01*
X160773258Y-72446488D01*
X160773261Y-72446497D01*
X160869431Y-72652732D01*
X160869432Y-72652734D01*
X160999954Y-72839141D01*
X161160858Y-73000045D01*
X161160861Y-73000047D01*
X161347266Y-73130568D01*
X161553504Y-73226739D01*
X161773308Y-73285635D01*
X161935230Y-73299801D01*
X161999998Y-73305468D01*
X162000000Y-73305468D01*
X162000002Y-73305468D01*
X162056673Y-73300509D01*
X162226692Y-73285635D01*
X162446496Y-73226739D01*
X162652734Y-73130568D01*
X162839139Y-73000047D01*
X163000047Y-72839139D01*
X163130118Y-72653375D01*
X163184693Y-72609752D01*
X163231692Y-72600500D01*
X164928387Y-72600500D01*
X164995426Y-72620185D01*
X165004548Y-72626645D01*
X165176491Y-72760474D01*
X165395190Y-72878828D01*
X165630386Y-72959571D01*
X165875665Y-73000500D01*
X166124335Y-73000500D01*
X166369614Y-72959571D01*
X166604810Y-72878828D01*
X166823509Y-72760474D01*
X167019744Y-72607738D01*
X167188164Y-72424785D01*
X167324173Y-72216607D01*
X167342560Y-72174689D01*
X167387517Y-72121204D01*
X167454253Y-72100514D01*
X167456116Y-72100500D01*
X171043884Y-72100500D01*
X171110923Y-72120185D01*
X171156678Y-72172989D01*
X171157440Y-72174689D01*
X171175827Y-72216608D01*
X171311833Y-72424782D01*
X171311836Y-72424785D01*
X171480256Y-72607738D01*
X171676491Y-72760474D01*
X171895190Y-72878828D01*
X172130386Y-72959571D01*
X172375665Y-73000500D01*
X172624335Y-73000500D01*
X172869614Y-72959571D01*
X173104810Y-72878828D01*
X173323509Y-72760474D01*
X173519744Y-72607738D01*
X173688164Y-72424785D01*
X173824173Y-72216607D01*
X173924063Y-71988881D01*
X173985108Y-71747821D01*
X173985109Y-71747812D01*
X174005643Y-71500005D01*
X174005643Y-71499994D01*
X173985109Y-71252187D01*
X173985107Y-71252175D01*
X173924063Y-71011118D01*
X173824173Y-70783393D01*
X173688166Y-70575217D01*
X173637376Y-70520045D01*
X173519744Y-70392262D01*
X173323509Y-70239526D01*
X173323507Y-70239525D01*
X173323506Y-70239524D01*
X173104811Y-70121172D01*
X173104802Y-70121169D01*
X172869616Y-70040429D01*
X172624335Y-69999500D01*
X172375665Y-69999500D01*
X172130383Y-70040429D01*
X171895197Y-70121169D01*
X171895188Y-70121172D01*
X171676493Y-70239524D01*
X171480257Y-70392261D01*
X171311833Y-70575217D01*
X171175827Y-70783391D01*
X171157440Y-70825311D01*
X171112483Y-70878796D01*
X171045747Y-70899486D01*
X171043884Y-70899500D01*
X167456116Y-70899500D01*
X167389077Y-70879815D01*
X167343322Y-70827011D01*
X167342560Y-70825311D01*
X167324172Y-70783391D01*
X167188166Y-70575217D01*
X167137376Y-70520045D01*
X167019744Y-70392262D01*
X166823509Y-70239526D01*
X166823507Y-70239525D01*
X166823506Y-70239524D01*
X166604811Y-70121172D01*
X166604802Y-70121169D01*
X166369616Y-70040429D01*
X166124335Y-69999500D01*
X165875665Y-69999500D01*
X165630383Y-70040429D01*
X165395197Y-70121169D01*
X165395188Y-70121172D01*
X165176493Y-70239524D01*
X164980257Y-70392261D01*
X164811833Y-70575217D01*
X164675826Y-70783393D01*
X164575936Y-71011118D01*
X164514892Y-71252177D01*
X164514892Y-71252179D01*
X164512111Y-71285740D01*
X164486959Y-71350924D01*
X164430557Y-71392162D01*
X164388535Y-71399500D01*
X163231692Y-71399500D01*
X163164653Y-71379815D01*
X163130119Y-71346625D01*
X163000047Y-71160861D01*
X162839139Y-70999953D01*
X162753376Y-70939901D01*
X162709751Y-70885324D01*
X162700500Y-70838326D01*
X162700500Y-70431004D01*
X162673581Y-70295677D01*
X162673580Y-70295676D01*
X162673580Y-70295672D01*
X162620775Y-70168189D01*
X162589359Y-70121172D01*
X162589359Y-70121171D01*
X162544115Y-70053458D01*
X162544109Y-70053451D01*
X160736819Y-68246161D01*
X160703334Y-68184838D01*
X160700500Y-68158480D01*
X160700500Y-67803880D01*
X160720185Y-67736841D01*
X160772989Y-67691086D01*
X160842147Y-67681142D01*
X160905703Y-67710167D01*
X160919379Y-67725333D01*
X160920974Y-67725472D01*
X161600000Y-67046446D01*
X161600000Y-67052661D01*
X161627259Y-67154394D01*
X161679920Y-67245606D01*
X161754394Y-67320080D01*
X161845606Y-67372741D01*
X161947339Y-67400000D01*
X161953553Y-67400000D01*
X161274526Y-68079025D01*
X161347513Y-68130132D01*
X161347521Y-68130136D01*
X161553668Y-68226264D01*
X161553682Y-68226269D01*
X161773389Y-68285139D01*
X161773400Y-68285141D01*
X161999998Y-68304966D01*
X162000002Y-68304966D01*
X162226599Y-68285141D01*
X162226610Y-68285139D01*
X162446317Y-68226269D01*
X162446331Y-68226264D01*
X162652478Y-68130136D01*
X162725471Y-68079024D01*
X162046447Y-67400000D01*
X162052661Y-67400000D01*
X162154394Y-67372741D01*
X162245606Y-67320080D01*
X162320080Y-67245606D01*
X162372741Y-67154394D01*
X162400000Y-67052661D01*
X162400000Y-67046447D01*
X163079024Y-67725471D01*
X163130136Y-67652478D01*
X163226264Y-67446331D01*
X163226269Y-67446317D01*
X163285139Y-67226610D01*
X163285141Y-67226599D01*
X163304966Y-67000002D01*
X163304966Y-66999997D01*
X163304966Y-66999994D01*
X164494859Y-66999994D01*
X164494859Y-67000005D01*
X164515385Y-67247729D01*
X164515387Y-67247738D01*
X164576412Y-67488717D01*
X164676266Y-67716364D01*
X164776564Y-67869882D01*
X165476212Y-67170234D01*
X165487482Y-67212292D01*
X165559890Y-67337708D01*
X165662292Y-67440110D01*
X165787708Y-67512518D01*
X165829765Y-67523787D01*
X165129942Y-68223609D01*
X165176768Y-68260055D01*
X165176770Y-68260056D01*
X165395385Y-68378364D01*
X165395396Y-68378369D01*
X165630506Y-68459083D01*
X165875707Y-68500000D01*
X166124293Y-68500000D01*
X166369493Y-68459083D01*
X166604603Y-68378369D01*
X166604614Y-68378364D01*
X166823228Y-68260057D01*
X166823231Y-68260055D01*
X166870056Y-68223609D01*
X166170234Y-67523787D01*
X166212292Y-67512518D01*
X166337708Y-67440110D01*
X166440110Y-67337708D01*
X166512518Y-67212292D01*
X166523787Y-67170235D01*
X167223434Y-67869882D01*
X167323731Y-67716369D01*
X167423587Y-67488717D01*
X167484612Y-67247738D01*
X167484614Y-67247729D01*
X167505141Y-67000005D01*
X167505141Y-66999994D01*
X170994859Y-66999994D01*
X170994859Y-67000005D01*
X171015385Y-67247729D01*
X171015387Y-67247738D01*
X171076412Y-67488717D01*
X171176266Y-67716364D01*
X171276564Y-67869882D01*
X171976212Y-67170234D01*
X171987482Y-67212292D01*
X172059890Y-67337708D01*
X172162292Y-67440110D01*
X172287708Y-67512518D01*
X172329765Y-67523787D01*
X171629942Y-68223609D01*
X171676768Y-68260055D01*
X171676770Y-68260056D01*
X171895385Y-68378364D01*
X171895396Y-68378369D01*
X172130506Y-68459083D01*
X172375707Y-68500000D01*
X172624293Y-68500000D01*
X172869493Y-68459083D01*
X173104603Y-68378369D01*
X173104614Y-68378364D01*
X173323228Y-68260057D01*
X173323231Y-68260055D01*
X173370056Y-68223609D01*
X172670234Y-67523787D01*
X172712292Y-67512518D01*
X172837708Y-67440110D01*
X172940110Y-67337708D01*
X173012518Y-67212292D01*
X173023787Y-67170235D01*
X173723434Y-67869882D01*
X173823731Y-67716369D01*
X173923587Y-67488717D01*
X173984612Y-67247738D01*
X173984614Y-67247729D01*
X174005141Y-67000005D01*
X174005141Y-66999994D01*
X173984614Y-66752270D01*
X173984612Y-66752261D01*
X173923587Y-66511282D01*
X173823731Y-66283630D01*
X173723434Y-66130116D01*
X173023787Y-66829764D01*
X173012518Y-66787708D01*
X172940110Y-66662292D01*
X172837708Y-66559890D01*
X172712292Y-66487482D01*
X172670235Y-66476212D01*
X173370057Y-65776390D01*
X173370056Y-65776389D01*
X173323229Y-65739943D01*
X173104614Y-65621635D01*
X173104603Y-65621630D01*
X172869493Y-65540916D01*
X172624293Y-65500000D01*
X172375707Y-65500000D01*
X172130506Y-65540916D01*
X171895396Y-65621630D01*
X171895390Y-65621632D01*
X171676761Y-65739949D01*
X171629942Y-65776388D01*
X171629942Y-65776390D01*
X172329765Y-66476212D01*
X172287708Y-66487482D01*
X172162292Y-66559890D01*
X172059890Y-66662292D01*
X171987482Y-66787708D01*
X171976212Y-66829764D01*
X171276564Y-66130116D01*
X171176267Y-66283632D01*
X171076412Y-66511282D01*
X171015387Y-66752261D01*
X171015385Y-66752270D01*
X170994859Y-66999994D01*
X167505141Y-66999994D01*
X167484614Y-66752270D01*
X167484612Y-66752261D01*
X167423587Y-66511282D01*
X167323731Y-66283630D01*
X167223434Y-66130116D01*
X166523787Y-66829764D01*
X166512518Y-66787708D01*
X166440110Y-66662292D01*
X166337708Y-66559890D01*
X166212292Y-66487482D01*
X166170235Y-66476212D01*
X166870057Y-65776390D01*
X166870056Y-65776389D01*
X166823229Y-65739943D01*
X166604614Y-65621635D01*
X166604603Y-65621630D01*
X166369493Y-65540916D01*
X166124293Y-65500000D01*
X165875707Y-65500000D01*
X165630506Y-65540916D01*
X165395396Y-65621630D01*
X165395390Y-65621632D01*
X165176761Y-65739949D01*
X165129942Y-65776388D01*
X165129942Y-65776390D01*
X165829765Y-66476212D01*
X165787708Y-66487482D01*
X165662292Y-66559890D01*
X165559890Y-66662292D01*
X165487482Y-66787708D01*
X165476212Y-66829764D01*
X164776564Y-66130116D01*
X164676267Y-66283632D01*
X164576412Y-66511282D01*
X164515387Y-66752261D01*
X164515385Y-66752270D01*
X164494859Y-66999994D01*
X163304966Y-66999994D01*
X163285141Y-66773400D01*
X163285139Y-66773389D01*
X163226269Y-66553682D01*
X163226264Y-66553668D01*
X163130136Y-66347521D01*
X163130132Y-66347513D01*
X163079025Y-66274526D01*
X162400000Y-66953551D01*
X162400000Y-66947339D01*
X162372741Y-66845606D01*
X162320080Y-66754394D01*
X162245606Y-66679920D01*
X162154394Y-66627259D01*
X162052661Y-66600000D01*
X162046448Y-66600000D01*
X162725472Y-65920974D01*
X162652478Y-65869863D01*
X162446331Y-65773735D01*
X162446317Y-65773730D01*
X162226610Y-65714860D01*
X162226599Y-65714858D01*
X162000002Y-65695034D01*
X161999998Y-65695034D01*
X161773400Y-65714858D01*
X161773389Y-65714860D01*
X161553682Y-65773730D01*
X161553673Y-65773734D01*
X161347516Y-65869866D01*
X161347512Y-65869868D01*
X161274526Y-65920973D01*
X161274526Y-65920974D01*
X161953553Y-66600000D01*
X161947339Y-66600000D01*
X161845606Y-66627259D01*
X161754394Y-66679920D01*
X161679920Y-66754394D01*
X161627259Y-66845606D01*
X161600000Y-66947339D01*
X161600000Y-66953552D01*
X160920974Y-66274526D01*
X160920973Y-66274526D01*
X160869868Y-66347512D01*
X160869866Y-66347516D01*
X160773734Y-66553673D01*
X160773731Y-66553680D01*
X160717444Y-66763745D01*
X160681079Y-66823405D01*
X160618231Y-66853934D01*
X160548856Y-66845639D01*
X160509988Y-66819332D01*
X160505129Y-66814473D01*
X160505126Y-66814468D01*
X160336545Y-66645887D01*
X160221807Y-66569222D01*
X160094332Y-66516421D01*
X160094322Y-66516418D01*
X159958996Y-66489500D01*
X159958994Y-66489500D01*
X159958993Y-66489500D01*
X158161673Y-66489500D01*
X158094634Y-66469815D01*
X158060098Y-66436623D01*
X158000045Y-66350858D01*
X157839141Y-66189954D01*
X157652734Y-66059432D01*
X157652732Y-66059431D01*
X157446497Y-65963261D01*
X157446488Y-65963258D01*
X157226697Y-65904366D01*
X157226693Y-65904365D01*
X157226692Y-65904365D01*
X157226691Y-65904364D01*
X157226686Y-65904364D01*
X157000002Y-65884532D01*
X156999998Y-65884532D01*
X156773313Y-65904364D01*
X156773302Y-65904366D01*
X156553511Y-65963258D01*
X156553502Y-65963261D01*
X156347267Y-66059431D01*
X156347265Y-66059432D01*
X156160858Y-66189954D01*
X155999954Y-66350858D01*
X155869432Y-66537265D01*
X155869431Y-66537267D01*
X155773261Y-66743502D01*
X155773258Y-66743511D01*
X155714366Y-66963302D01*
X155714364Y-66963313D01*
X155694532Y-67189998D01*
X152047096Y-67189998D01*
X152063718Y-66999999D01*
X152065468Y-66980001D01*
X152065468Y-66979998D01*
X152059801Y-66915230D01*
X152045635Y-66753308D01*
X151986739Y-66533504D01*
X151890568Y-66327266D01*
X151760047Y-66140861D01*
X151760045Y-66140858D01*
X151599141Y-65979954D01*
X151412734Y-65849432D01*
X151412728Y-65849429D01*
X151354725Y-65822382D01*
X151302285Y-65776210D01*
X151283133Y-65709017D01*
X151303348Y-65642135D01*
X151354725Y-65597618D01*
X151412734Y-65570568D01*
X151599139Y-65440047D01*
X151760047Y-65279139D01*
X151890568Y-65092734D01*
X151986739Y-64886496D01*
X152045635Y-64666692D01*
X152065468Y-64440000D01*
X152045635Y-64213308D01*
X152019847Y-64117066D01*
X152021510Y-64047217D01*
X152051939Y-63997294D01*
X153412416Y-62636819D01*
X153473739Y-62603334D01*
X153500097Y-62600500D01*
X153958308Y-62600500D01*
X154025347Y-62620185D01*
X154059880Y-62653374D01*
X154145480Y-62775624D01*
X154189954Y-62839141D01*
X154350858Y-63000045D01*
X154350861Y-63000047D01*
X154537266Y-63130568D01*
X154743504Y-63226739D01*
X154963308Y-63285635D01*
X155125230Y-63299801D01*
X155189998Y-63305468D01*
X155190000Y-63305468D01*
X155190002Y-63305468D01*
X155246673Y-63300509D01*
X155416692Y-63285635D01*
X155636496Y-63226739D01*
X155842734Y-63130568D01*
X156029139Y-63000047D01*
X156190047Y-62839139D01*
X156320568Y-62652734D01*
X156416739Y-62446496D01*
X156475635Y-62226692D01*
X156495468Y-62000000D01*
X156495468Y-61999998D01*
X161504532Y-61999998D01*
X161504532Y-62000001D01*
X161524364Y-62226686D01*
X161524366Y-62226697D01*
X161583258Y-62446488D01*
X161583261Y-62446497D01*
X161679431Y-62652732D01*
X161679432Y-62652734D01*
X161809954Y-62839141D01*
X161970858Y-63000045D01*
X161970861Y-63000047D01*
X162157266Y-63130568D01*
X162363504Y-63226739D01*
X162583308Y-63285635D01*
X162745230Y-63299801D01*
X162809998Y-63305468D01*
X162810000Y-63305468D01*
X162810002Y-63305468D01*
X162866673Y-63300509D01*
X163036692Y-63285635D01*
X163256496Y-63226739D01*
X163462734Y-63130568D01*
X163649139Y-63000047D01*
X163810047Y-62839139D01*
X163940568Y-62652734D01*
X164036739Y-62446496D01*
X164095635Y-62226692D01*
X164115468Y-62000000D01*
X164095635Y-61773308D01*
X164069847Y-61677066D01*
X164071510Y-61607217D01*
X164101939Y-61557294D01*
X165896937Y-59762296D01*
X165958259Y-59728813D01*
X166027951Y-59733797D01*
X166053163Y-59750000D01*
X167084722Y-59750000D01*
X167040667Y-59826306D01*
X167010000Y-59940756D01*
X167010000Y-60059244D01*
X167040667Y-60173694D01*
X167084722Y-60250000D01*
X166060000Y-60250000D01*
X166060000Y-60947844D01*
X166066401Y-61007372D01*
X166066403Y-61007379D01*
X166116645Y-61142086D01*
X166116649Y-61142093D01*
X166202809Y-61257187D01*
X166202812Y-61257190D01*
X166317906Y-61343350D01*
X166317913Y-61343354D01*
X166452620Y-61393596D01*
X166452627Y-61393598D01*
X166512155Y-61399999D01*
X166512172Y-61400000D01*
X167210000Y-61400000D01*
X167210000Y-60375277D01*
X167286306Y-60419333D01*
X167400756Y-60450000D01*
X167519244Y-60450000D01*
X167633694Y-60419333D01*
X167710000Y-60375277D01*
X167710000Y-61400000D01*
X168407828Y-61400000D01*
X168407844Y-61399999D01*
X168467372Y-61393598D01*
X168467379Y-61393596D01*
X168602086Y-61343354D01*
X168602093Y-61343350D01*
X168717187Y-61257190D01*
X168717190Y-61257187D01*
X168803350Y-61142093D01*
X168803355Y-61142084D01*
X168832075Y-61065081D01*
X168873945Y-61009147D01*
X168939409Y-60984729D01*
X169007682Y-60999580D01*
X169039484Y-61024428D01*
X169048216Y-61033913D01*
X169048219Y-61033915D01*
X169048222Y-61033918D01*
X169231365Y-61176464D01*
X169231371Y-61176468D01*
X169231374Y-61176470D01*
X169435497Y-61286936D01*
X169549487Y-61326068D01*
X169655015Y-61362297D01*
X169655017Y-61362297D01*
X169655019Y-61362298D01*
X169883951Y-61400500D01*
X169883952Y-61400500D01*
X170116048Y-61400500D01*
X170116049Y-61400500D01*
X170344981Y-61362298D01*
X170564503Y-61286936D01*
X170768626Y-61176470D01*
X170788685Y-61160858D01*
X170842220Y-61119190D01*
X170951784Y-61033913D01*
X171108979Y-60863153D01*
X171235924Y-60668849D01*
X171329157Y-60456300D01*
X171386134Y-60231305D01*
X171390908Y-60173694D01*
X171405300Y-60000006D01*
X171405300Y-59999993D01*
X171386135Y-59768702D01*
X171386133Y-59768691D01*
X171329157Y-59543699D01*
X171235924Y-59331151D01*
X171108983Y-59136852D01*
X171108980Y-59136849D01*
X171108979Y-59136847D01*
X170951784Y-58966087D01*
X170951779Y-58966083D01*
X170951777Y-58966081D01*
X170768634Y-58823535D01*
X170768628Y-58823531D01*
X170564504Y-58713064D01*
X170564495Y-58713061D01*
X170344984Y-58637702D01*
X170173282Y-58609050D01*
X170116049Y-58599500D01*
X169883951Y-58599500D01*
X169826718Y-58609050D01*
X169655016Y-58637702D01*
X169603100Y-58655524D01*
X169533301Y-58658672D01*
X169475160Y-58625924D01*
X169360584Y-58511349D01*
X169360580Y-58511344D01*
X169241717Y-58392481D01*
X169241716Y-58392480D01*
X169154904Y-58342360D01*
X169154904Y-58342359D01*
X169154900Y-58342358D01*
X169104785Y-58313423D01*
X168952057Y-58272499D01*
X168793943Y-58272499D01*
X168786347Y-58272499D01*
X168786331Y-58272500D01*
X166023670Y-58272500D01*
X166023654Y-58272499D01*
X166016058Y-58272499D01*
X165857943Y-58272499D01*
X165750587Y-58301265D01*
X165705210Y-58313424D01*
X165705209Y-58313425D01*
X165655096Y-58342359D01*
X165655095Y-58342360D01*
X165611689Y-58367420D01*
X165568285Y-58392479D01*
X165568282Y-58392481D01*
X165456478Y-58504286D01*
X163252705Y-60708058D01*
X163191382Y-60741543D01*
X163132931Y-60740152D01*
X163036697Y-60714366D01*
X163036693Y-60714365D01*
X163036692Y-60714365D01*
X163036691Y-60714364D01*
X163036686Y-60714364D01*
X162810002Y-60694532D01*
X162809998Y-60694532D01*
X162583313Y-60714364D01*
X162583302Y-60714366D01*
X162363511Y-60773258D01*
X162363502Y-60773261D01*
X162157267Y-60869431D01*
X162157265Y-60869432D01*
X161970858Y-60999954D01*
X161809954Y-61160858D01*
X161679432Y-61347265D01*
X161679431Y-61347267D01*
X161583261Y-61553502D01*
X161583258Y-61553511D01*
X161524366Y-61773302D01*
X161524364Y-61773313D01*
X161504532Y-61999998D01*
X156495468Y-61999998D01*
X156475635Y-61773308D01*
X156416739Y-61553504D01*
X156320568Y-61347266D01*
X156211075Y-61190892D01*
X156190045Y-61160858D01*
X156029141Y-60999954D01*
X155842734Y-60869432D01*
X155842732Y-60869431D01*
X155636497Y-60773261D01*
X155636488Y-60773258D01*
X155416697Y-60714366D01*
X155416693Y-60714365D01*
X155416692Y-60714365D01*
X155416691Y-60714364D01*
X155416686Y-60714364D01*
X155190002Y-60694532D01*
X155189998Y-60694532D01*
X154963313Y-60714364D01*
X154963302Y-60714366D01*
X154743511Y-60773258D01*
X154743502Y-60773261D01*
X154537267Y-60869431D01*
X154537265Y-60869432D01*
X154350858Y-60999954D01*
X154189954Y-61160858D01*
X154128890Y-61248069D01*
X154059881Y-61346624D01*
X154005307Y-61390248D01*
X153958308Y-61399500D01*
X153279057Y-61399500D01*
X153120943Y-61399500D01*
X152968215Y-61440423D01*
X152968214Y-61440423D01*
X152968212Y-61440424D01*
X152968209Y-61440425D01*
X152918096Y-61469359D01*
X152918095Y-61469360D01*
X152874689Y-61494420D01*
X152831285Y-61519479D01*
X152831282Y-61519481D01*
X152719478Y-61631286D01*
X151202705Y-63148058D01*
X151141382Y-63181543D01*
X151082931Y-63180152D01*
X150986697Y-63154366D01*
X150986693Y-63154365D01*
X150986692Y-63154365D01*
X150986691Y-63154364D01*
X150986686Y-63154364D01*
X150760002Y-63134532D01*
X150759998Y-63134532D01*
X150533313Y-63154364D01*
X150533302Y-63154366D01*
X150313511Y-63213258D01*
X150313502Y-63213261D01*
X150107267Y-63309431D01*
X150107265Y-63309432D01*
X149920858Y-63439954D01*
X149759954Y-63600858D01*
X149629432Y-63787265D01*
X149629431Y-63787267D01*
X149533261Y-63993502D01*
X149533258Y-63993511D01*
X149474366Y-64213302D01*
X149474364Y-64213313D01*
X149454532Y-64439998D01*
X149454532Y-64440001D01*
X149474364Y-64666686D01*
X149474366Y-64666697D01*
X149533258Y-64886488D01*
X149533261Y-64886497D01*
X149629431Y-65092732D01*
X149629432Y-65092734D01*
X149759954Y-65279141D01*
X149920858Y-65440045D01*
X149920861Y-65440047D01*
X150107266Y-65570568D01*
X150165275Y-65597618D01*
X150217714Y-65643791D01*
X150236866Y-65710984D01*
X150216650Y-65777865D01*
X150165275Y-65822382D01*
X150107267Y-65849431D01*
X150107265Y-65849432D01*
X149920858Y-65979954D01*
X149759954Y-66140858D01*
X149629432Y-66327265D01*
X149629431Y-66327267D01*
X149533261Y-66533502D01*
X149533258Y-66533511D01*
X149474366Y-66753302D01*
X149474364Y-66753313D01*
X149454532Y-66979998D01*
X149454532Y-66980001D01*
X149474364Y-67206686D01*
X149474366Y-67206697D01*
X149533258Y-67426488D01*
X149533261Y-67426497D01*
X149629431Y-67632732D01*
X149629432Y-67632734D01*
X149759954Y-67819141D01*
X149920858Y-67980045D01*
X149920861Y-67980047D01*
X150107266Y-68110568D01*
X150165275Y-68137618D01*
X150217714Y-68183791D01*
X150236866Y-68250984D01*
X150216650Y-68317865D01*
X150165275Y-68362382D01*
X150107267Y-68389431D01*
X150107265Y-68389432D01*
X149920858Y-68519954D01*
X149759954Y-68680858D01*
X149629432Y-68867265D01*
X149629431Y-68867267D01*
X149533261Y-69073502D01*
X149533258Y-69073511D01*
X149474366Y-69293302D01*
X149474364Y-69293313D01*
X149454532Y-69519998D01*
X149454532Y-69520001D01*
X149474364Y-69746686D01*
X149474366Y-69746697D01*
X149533258Y-69966488D01*
X149533261Y-69966497D01*
X149629431Y-70172732D01*
X149629432Y-70172734D01*
X149759954Y-70359141D01*
X149920858Y-70520045D01*
X149920861Y-70520047D01*
X150107266Y-70650568D01*
X150165275Y-70677618D01*
X150217714Y-70723791D01*
X150236866Y-70790984D01*
X150216650Y-70857865D01*
X150165275Y-70902382D01*
X150107267Y-70929431D01*
X150107265Y-70929432D01*
X149920858Y-71059954D01*
X149759954Y-71220858D01*
X149629432Y-71407265D01*
X149629431Y-71407267D01*
X149533261Y-71613502D01*
X149533258Y-71613511D01*
X149474366Y-71833302D01*
X149474364Y-71833313D01*
X149454532Y-72059998D01*
X149454532Y-72060001D01*
X149474364Y-72286686D01*
X149474366Y-72286697D01*
X149533258Y-72506488D01*
X149533261Y-72506497D01*
X149629431Y-72712732D01*
X149629432Y-72712734D01*
X149759954Y-72899141D01*
X149920858Y-73060045D01*
X149920861Y-73060047D01*
X150107266Y-73190568D01*
X150165275Y-73217618D01*
X150217714Y-73263791D01*
X150236866Y-73330984D01*
X150216650Y-73397865D01*
X150165275Y-73442382D01*
X150107267Y-73469431D01*
X150107265Y-73469432D01*
X149920858Y-73599954D01*
X149759954Y-73760858D01*
X149629432Y-73947265D01*
X149629431Y-73947267D01*
X149533261Y-74153502D01*
X149533258Y-74153511D01*
X149474366Y-74373302D01*
X149474364Y-74373313D01*
X149454532Y-74599998D01*
X149454532Y-74600001D01*
X149474364Y-74826686D01*
X149474366Y-74826697D01*
X149533258Y-75046488D01*
X149533261Y-75046497D01*
X149629431Y-75252732D01*
X149629432Y-75252734D01*
X149759954Y-75439141D01*
X149920858Y-75600045D01*
X149920861Y-75600047D01*
X150107266Y-75730568D01*
X150165275Y-75757618D01*
X150217714Y-75803791D01*
X150236866Y-75870984D01*
X150216650Y-75937865D01*
X150165275Y-75982382D01*
X150107267Y-76009431D01*
X150107265Y-76009432D01*
X149920858Y-76139954D01*
X149759954Y-76300858D01*
X149629432Y-76487265D01*
X149629431Y-76487267D01*
X149533261Y-76693502D01*
X149533258Y-76693511D01*
X149474366Y-76913302D01*
X149474364Y-76913313D01*
X149454532Y-77139998D01*
X149454532Y-77140001D01*
X149474364Y-77366686D01*
X149474366Y-77366697D01*
X149533258Y-77586488D01*
X149533261Y-77586497D01*
X149629431Y-77792732D01*
X149629432Y-77792734D01*
X149759954Y-77979141D01*
X149920858Y-78140045D01*
X149920861Y-78140047D01*
X150107266Y-78270568D01*
X150135282Y-78283632D01*
X150165275Y-78297618D01*
X150217714Y-78343791D01*
X150236866Y-78410984D01*
X150216650Y-78477865D01*
X150165275Y-78522382D01*
X150107267Y-78549431D01*
X150107265Y-78549432D01*
X149920858Y-78679954D01*
X149759954Y-78840858D01*
X149629432Y-79027265D01*
X149629431Y-79027267D01*
X149533261Y-79233502D01*
X149533258Y-79233511D01*
X149474366Y-79453302D01*
X149474364Y-79453313D01*
X149454532Y-79679998D01*
X149454532Y-79680001D01*
X149474364Y-79906686D01*
X149474366Y-79906697D01*
X149533258Y-80126488D01*
X149533261Y-80126497D01*
X149629431Y-80332732D01*
X149629432Y-80332734D01*
X149759954Y-80519141D01*
X149920858Y-80680045D01*
X149920861Y-80680047D01*
X150107266Y-80810568D01*
X150165275Y-80837618D01*
X150217714Y-80883791D01*
X150236866Y-80950984D01*
X150216650Y-81017865D01*
X150165275Y-81062382D01*
X150107267Y-81089431D01*
X150107265Y-81089432D01*
X149920858Y-81219954D01*
X149759954Y-81380858D01*
X149629432Y-81567265D01*
X149629431Y-81567267D01*
X149533261Y-81773502D01*
X149533258Y-81773511D01*
X149474366Y-81993302D01*
X149474364Y-81993313D01*
X149454532Y-82219998D01*
X149454532Y-82220001D01*
X149474364Y-82446686D01*
X149474366Y-82446697D01*
X149533258Y-82666488D01*
X149533261Y-82666497D01*
X149629431Y-82872732D01*
X149629432Y-82872734D01*
X149759954Y-83059141D01*
X149920858Y-83220045D01*
X149920861Y-83220047D01*
X150107266Y-83350568D01*
X150165275Y-83377618D01*
X150217714Y-83423791D01*
X150236866Y-83490984D01*
X150216650Y-83557865D01*
X150165275Y-83602382D01*
X150107267Y-83629431D01*
X150107265Y-83629432D01*
X149920858Y-83759954D01*
X149759954Y-83920858D01*
X149657375Y-84067358D01*
X149629432Y-84107266D01*
X149594429Y-84182328D01*
X149533261Y-84313502D01*
X149533258Y-84313511D01*
X149474366Y-84533302D01*
X149474364Y-84533313D01*
X149454532Y-84759998D01*
X149454532Y-84760001D01*
X149474364Y-84986686D01*
X149474366Y-84986697D01*
X149533258Y-85206488D01*
X149533261Y-85206497D01*
X149629431Y-85412732D01*
X149629432Y-85412734D01*
X149759954Y-85599141D01*
X149920858Y-85760045D01*
X149920861Y-85760047D01*
X150107266Y-85890568D01*
X150165275Y-85917618D01*
X150217714Y-85963791D01*
X150236866Y-86030984D01*
X150216650Y-86097865D01*
X150165275Y-86142382D01*
X150107267Y-86169431D01*
X150107265Y-86169432D01*
X149920858Y-86299954D01*
X149759954Y-86460858D01*
X149648523Y-86620001D01*
X149629432Y-86647266D01*
X149622420Y-86662304D01*
X149533261Y-86853502D01*
X149533258Y-86853511D01*
X149474366Y-87073302D01*
X149474364Y-87073313D01*
X149454532Y-87299998D01*
X149454532Y-87300001D01*
X149474364Y-87526686D01*
X149474366Y-87526697D01*
X149533258Y-87746488D01*
X149533261Y-87746497D01*
X149629431Y-87952732D01*
X149659307Y-87995400D01*
X149681634Y-88061606D01*
X149664622Y-88129373D01*
X149619736Y-88173906D01*
X149605100Y-88182357D01*
X149605095Y-88182360D01*
X149561689Y-88207420D01*
X149518285Y-88232479D01*
X149518282Y-88232481D01*
X149406478Y-88344286D01*
X146007584Y-91743181D01*
X145946261Y-91776666D01*
X145919903Y-91779500D01*
X136751692Y-91779500D01*
X136684653Y-91759815D01*
X136650119Y-91726625D01*
X136520047Y-91540861D01*
X136520045Y-91540858D01*
X136359141Y-91379954D01*
X136172734Y-91249432D01*
X136172728Y-91249429D01*
X136145038Y-91236517D01*
X136114724Y-91222381D01*
X136062285Y-91176210D01*
X136043133Y-91109017D01*
X136063348Y-91042135D01*
X136114725Y-90997618D01*
X136172734Y-90970568D01*
X136359139Y-90840047D01*
X136520047Y-90679139D01*
X136650568Y-90492734D01*
X136746739Y-90286496D01*
X136805635Y-90066692D01*
X136825468Y-89840000D01*
X136805635Y-89613308D01*
X136746739Y-89393504D01*
X136650568Y-89187266D01*
X136520047Y-89000861D01*
X136520045Y-89000858D01*
X136359141Y-88839954D01*
X136172734Y-88709432D01*
X136172728Y-88709429D01*
X136114725Y-88682382D01*
X136062285Y-88636210D01*
X136043133Y-88569017D01*
X136063348Y-88502135D01*
X136114725Y-88457618D01*
X136172734Y-88430568D01*
X136359139Y-88300047D01*
X136520047Y-88139139D01*
X136650568Y-87952734D01*
X136746739Y-87746496D01*
X136805635Y-87526692D01*
X136825468Y-87300000D01*
X136805635Y-87073308D01*
X136746739Y-86853504D01*
X136650568Y-86647266D01*
X136520047Y-86460861D01*
X136520045Y-86460858D01*
X136359141Y-86299954D01*
X136172734Y-86169432D01*
X136172728Y-86169429D01*
X136114725Y-86142382D01*
X136062285Y-86096210D01*
X136043133Y-86029017D01*
X136063348Y-85962135D01*
X136114725Y-85917618D01*
X136172734Y-85890568D01*
X136359139Y-85760047D01*
X136520047Y-85599139D01*
X136650568Y-85412734D01*
X136746739Y-85206496D01*
X136805635Y-84986692D01*
X136822634Y-84792384D01*
X136825468Y-84760001D01*
X136825468Y-84759998D01*
X136811786Y-84603616D01*
X136805635Y-84533308D01*
X136746739Y-84313504D01*
X136650568Y-84107266D01*
X136520047Y-83920861D01*
X136520045Y-83920858D01*
X136359141Y-83759954D01*
X136172734Y-83629432D01*
X136172728Y-83629429D01*
X136114725Y-83602382D01*
X136062285Y-83556210D01*
X136043133Y-83489017D01*
X136063348Y-83422135D01*
X136114725Y-83377618D01*
X136172734Y-83350568D01*
X136359139Y-83220047D01*
X136520047Y-83059139D01*
X136650568Y-82872734D01*
X136746739Y-82666496D01*
X136805635Y-82446692D01*
X136825468Y-82220000D01*
X136805635Y-81993308D01*
X136746739Y-81773504D01*
X136650568Y-81567266D01*
X136520047Y-81380861D01*
X136520045Y-81380858D01*
X136359141Y-81219954D01*
X136172734Y-81089432D01*
X136172728Y-81089429D01*
X136114725Y-81062382D01*
X136062285Y-81016210D01*
X136043133Y-80949017D01*
X136063348Y-80882135D01*
X136114725Y-80837618D01*
X136172734Y-80810568D01*
X136359139Y-80680047D01*
X136520047Y-80519139D01*
X136650568Y-80332734D01*
X136746739Y-80126496D01*
X136805635Y-79906692D01*
X136825468Y-79680000D01*
X136805635Y-79453308D01*
X136746739Y-79233504D01*
X136650568Y-79027266D01*
X136552839Y-78887693D01*
X136520045Y-78840858D01*
X136359141Y-78679954D01*
X136172734Y-78549432D01*
X136172728Y-78549429D01*
X136114725Y-78522382D01*
X136062285Y-78476210D01*
X136043133Y-78409017D01*
X136063348Y-78342135D01*
X136114725Y-78297618D01*
X136172734Y-78270568D01*
X136359139Y-78140047D01*
X136520047Y-77979139D01*
X136650568Y-77792734D01*
X136746739Y-77586496D01*
X136805635Y-77366692D01*
X136825468Y-77140000D01*
X136805635Y-76913308D01*
X136746739Y-76693504D01*
X136650568Y-76487266D01*
X136520047Y-76300861D01*
X136520045Y-76300858D01*
X136359141Y-76139954D01*
X136172734Y-76009432D01*
X136172728Y-76009429D01*
X136114725Y-75982382D01*
X136062285Y-75936210D01*
X136043133Y-75869017D01*
X136063348Y-75802135D01*
X136114725Y-75757618D01*
X136172734Y-75730568D01*
X136359139Y-75600047D01*
X136520047Y-75439139D01*
X136650568Y-75252734D01*
X136746739Y-75046496D01*
X136805635Y-74826692D01*
X136825468Y-74600000D01*
X136805635Y-74373308D01*
X136746739Y-74153504D01*
X136650568Y-73947266D01*
X136520047Y-73760861D01*
X136520045Y-73760858D01*
X136359141Y-73599954D01*
X136172734Y-73469432D01*
X136172728Y-73469429D01*
X136114725Y-73442382D01*
X136062285Y-73396210D01*
X136043133Y-73329017D01*
X136063348Y-73262135D01*
X136114725Y-73217618D01*
X136172734Y-73190568D01*
X136359139Y-73060047D01*
X136520047Y-72899139D01*
X136650568Y-72712734D01*
X136746739Y-72506496D01*
X136805635Y-72286692D01*
X136825468Y-72060000D01*
X136820218Y-71999998D01*
X136805635Y-71833313D01*
X136805635Y-71833308D01*
X136746739Y-71613504D01*
X136650568Y-71407266D01*
X136541976Y-71252179D01*
X136520045Y-71220858D01*
X136359141Y-71059954D01*
X136172734Y-70929432D01*
X136172728Y-70929429D01*
X136114725Y-70902382D01*
X136062285Y-70856210D01*
X136043133Y-70789017D01*
X136063348Y-70722135D01*
X136114725Y-70677618D01*
X136172734Y-70650568D01*
X136359139Y-70520047D01*
X136520047Y-70359139D01*
X136650568Y-70172734D01*
X136746739Y-69966496D01*
X136805635Y-69746692D01*
X136825468Y-69520000D01*
X136805635Y-69293308D01*
X136746739Y-69073504D01*
X136650568Y-68867266D01*
X136520047Y-68680861D01*
X136520045Y-68680858D01*
X136359141Y-68519954D01*
X136172734Y-68389432D01*
X136172728Y-68389429D01*
X136114725Y-68362382D01*
X136062285Y-68316210D01*
X136043133Y-68249017D01*
X136063348Y-68182135D01*
X136114725Y-68137618D01*
X136172734Y-68110568D01*
X136359139Y-67980047D01*
X136520047Y-67819139D01*
X136650568Y-67632734D01*
X136746739Y-67426496D01*
X136805635Y-67206692D01*
X136823718Y-66999999D01*
X136825468Y-66980001D01*
X136825468Y-66979998D01*
X136819801Y-66915230D01*
X136805635Y-66753308D01*
X136746739Y-66533504D01*
X136650568Y-66327266D01*
X136520047Y-66140861D01*
X136520045Y-66140858D01*
X136359141Y-65979954D01*
X136172734Y-65849432D01*
X136172728Y-65849429D01*
X136114725Y-65822382D01*
X136062285Y-65776210D01*
X136043133Y-65709017D01*
X136063348Y-65642135D01*
X136114725Y-65597618D01*
X136172734Y-65570568D01*
X136359139Y-65440047D01*
X136520047Y-65279139D01*
X136650568Y-65092734D01*
X136746739Y-64886496D01*
X136805635Y-64666692D01*
X136825468Y-64440000D01*
X136805635Y-64213308D01*
X136746739Y-63993504D01*
X136650568Y-63787266D01*
X136520047Y-63600861D01*
X136520045Y-63600858D01*
X136359141Y-63439954D01*
X136172734Y-63309432D01*
X136172732Y-63309431D01*
X135966497Y-63213261D01*
X135966488Y-63213258D01*
X135746697Y-63154366D01*
X135746693Y-63154365D01*
X135746692Y-63154365D01*
X135746691Y-63154364D01*
X135746686Y-63154364D01*
X135520002Y-63134532D01*
X135519998Y-63134532D01*
X135293313Y-63154364D01*
X135293302Y-63154366D01*
X135073511Y-63213258D01*
X135073502Y-63213261D01*
X134867267Y-63309431D01*
X134867265Y-63309432D01*
X134680858Y-63439954D01*
X134519954Y-63600858D01*
X134389432Y-63787265D01*
X134389431Y-63787267D01*
X134293261Y-63993502D01*
X134293258Y-63993511D01*
X134234366Y-64213302D01*
X134234364Y-64213313D01*
X134214532Y-64439998D01*
X134214532Y-64440001D01*
X134234364Y-64666686D01*
X134234366Y-64666697D01*
X134293258Y-64886488D01*
X134293261Y-64886497D01*
X134389431Y-65092732D01*
X134389432Y-65092734D01*
X134519954Y-65279141D01*
X134680858Y-65440045D01*
X134680861Y-65440047D01*
X134867266Y-65570568D01*
X134925275Y-65597618D01*
X134977714Y-65643791D01*
X134996866Y-65710984D01*
X134976650Y-65777865D01*
X134925275Y-65822382D01*
X134867267Y-65849431D01*
X134867265Y-65849432D01*
X134680858Y-65979954D01*
X134519954Y-66140858D01*
X134389432Y-66327265D01*
X134389431Y-66327267D01*
X134293261Y-66533502D01*
X134293258Y-66533511D01*
X134234366Y-66753302D01*
X134234364Y-66753313D01*
X134214532Y-66979998D01*
X134214532Y-66980001D01*
X134234364Y-67206686D01*
X134234366Y-67206697D01*
X134293258Y-67426488D01*
X134293261Y-67426497D01*
X134389431Y-67632732D01*
X134389432Y-67632734D01*
X134519954Y-67819141D01*
X134680858Y-67980045D01*
X134680861Y-67980047D01*
X134867266Y-68110568D01*
X134925275Y-68137618D01*
X134977714Y-68183791D01*
X134996866Y-68250984D01*
X134976650Y-68317865D01*
X134925275Y-68362382D01*
X134867267Y-68389431D01*
X134867265Y-68389432D01*
X134680858Y-68519954D01*
X134519954Y-68680858D01*
X134389432Y-68867265D01*
X134389431Y-68867267D01*
X134293261Y-69073502D01*
X134293258Y-69073511D01*
X134234366Y-69293302D01*
X134234364Y-69293313D01*
X134214532Y-69519998D01*
X134214532Y-69520001D01*
X134234364Y-69746686D01*
X134234366Y-69746697D01*
X134293258Y-69966488D01*
X134293261Y-69966497D01*
X134389431Y-70172732D01*
X134389432Y-70172734D01*
X134519954Y-70359141D01*
X134680858Y-70520045D01*
X134680861Y-70520047D01*
X134867266Y-70650568D01*
X134925275Y-70677618D01*
X134977714Y-70723791D01*
X134996866Y-70790984D01*
X134976650Y-70857865D01*
X134925275Y-70902382D01*
X134867267Y-70929431D01*
X134867265Y-70929432D01*
X134680858Y-71059954D01*
X134519954Y-71220858D01*
X134389432Y-71407265D01*
X134389431Y-71407267D01*
X134293261Y-71613502D01*
X134293258Y-71613511D01*
X134234366Y-71833302D01*
X134234364Y-71833313D01*
X134214532Y-72059998D01*
X134214532Y-72060001D01*
X134234364Y-72286686D01*
X134234366Y-72286697D01*
X134293258Y-72506488D01*
X134293261Y-72506497D01*
X134389431Y-72712732D01*
X134389432Y-72712734D01*
X134519954Y-72899141D01*
X134680858Y-73060045D01*
X134680861Y-73060047D01*
X134867266Y-73190568D01*
X134925275Y-73217618D01*
X134977714Y-73263791D01*
X134996866Y-73330984D01*
X134976650Y-73397865D01*
X134925275Y-73442382D01*
X134867267Y-73469431D01*
X134867265Y-73469432D01*
X134680858Y-73599954D01*
X134519954Y-73760858D01*
X134389432Y-73947265D01*
X134389431Y-73947267D01*
X134293261Y-74153502D01*
X134293258Y-74153511D01*
X134234366Y-74373302D01*
X134234364Y-74373313D01*
X134214532Y-74599998D01*
X134214532Y-74600001D01*
X134234364Y-74826686D01*
X134234366Y-74826697D01*
X134293258Y-75046488D01*
X134293261Y-75046497D01*
X134389431Y-75252732D01*
X134389432Y-75252734D01*
X134519954Y-75439141D01*
X134680858Y-75600045D01*
X134680861Y-75600047D01*
X134867266Y-75730568D01*
X134925275Y-75757618D01*
X134977714Y-75803791D01*
X134996866Y-75870984D01*
X134976650Y-75937865D01*
X134925275Y-75982382D01*
X134867267Y-76009431D01*
X134867265Y-76009432D01*
X134680858Y-76139954D01*
X134519954Y-76300858D01*
X134389432Y-76487265D01*
X134389431Y-76487267D01*
X134293261Y-76693502D01*
X134293258Y-76693511D01*
X134234366Y-76913302D01*
X134234364Y-76913313D01*
X134214532Y-77139998D01*
X134214532Y-77140001D01*
X134234364Y-77366686D01*
X134234366Y-77366697D01*
X134293258Y-77586488D01*
X134293261Y-77586497D01*
X134389431Y-77792732D01*
X134389432Y-77792734D01*
X134519954Y-77979141D01*
X134680858Y-78140045D01*
X134680861Y-78140047D01*
X134867266Y-78270568D01*
X134895282Y-78283632D01*
X134925275Y-78297618D01*
X134977714Y-78343791D01*
X134996866Y-78410984D01*
X134976650Y-78477865D01*
X134925275Y-78522382D01*
X134867267Y-78549431D01*
X134867265Y-78549432D01*
X134680858Y-78679954D01*
X134519954Y-78840858D01*
X134389432Y-79027265D01*
X134389431Y-79027267D01*
X134293261Y-79233502D01*
X134293258Y-79233511D01*
X134234366Y-79453302D01*
X134234364Y-79453313D01*
X134214532Y-79679998D01*
X134214532Y-79680001D01*
X134234364Y-79906686D01*
X134234366Y-79906697D01*
X134293258Y-80126488D01*
X134293261Y-80126497D01*
X134389431Y-80332732D01*
X134389432Y-80332734D01*
X134519954Y-80519141D01*
X134680858Y-80680045D01*
X134680861Y-80680047D01*
X134867266Y-80810568D01*
X134925275Y-80837618D01*
X134977714Y-80883791D01*
X134996866Y-80950984D01*
X134976650Y-81017865D01*
X134925275Y-81062382D01*
X134867267Y-81089431D01*
X134867265Y-81089432D01*
X134680858Y-81219954D01*
X134519954Y-81380858D01*
X134389432Y-81567265D01*
X134386257Y-81574074D01*
X134381439Y-81584405D01*
X134335269Y-81636843D01*
X134269058Y-81656000D01*
X124445748Y-81656000D01*
X124302304Y-81694435D01*
X124302301Y-81694436D01*
X124173699Y-81768685D01*
X124173697Y-81768686D01*
X124068686Y-81873696D01*
X124063182Y-81883229D01*
X124043481Y-81908901D01*
X122033698Y-83918685D01*
X121928688Y-84023694D01*
X121928684Y-84023699D01*
X121880438Y-84107265D01*
X121880438Y-84107266D01*
X121854433Y-84152305D01*
X121833139Y-84231783D01*
X121833139Y-84231784D01*
X121816000Y-84295748D01*
X121816000Y-89790985D01*
X121796315Y-89858024D01*
X121750196Y-89898315D01*
X121751029Y-89899758D01*
X121746337Y-89902466D01*
X121565377Y-90029175D01*
X121409175Y-90185377D01*
X121328074Y-90301203D01*
X121273497Y-90344828D01*
X121203999Y-90352022D01*
X121141644Y-90320499D01*
X121106230Y-90260270D01*
X121102499Y-90230080D01*
X121102499Y-90190129D01*
X121102498Y-90190123D01*
X121102497Y-90190116D01*
X121096091Y-90130517D01*
X121095941Y-90130116D01*
X121045797Y-89995671D01*
X121045793Y-89995664D01*
X120959547Y-89880455D01*
X120959544Y-89880452D01*
X120844335Y-89794206D01*
X120844328Y-89794202D01*
X120709482Y-89743908D01*
X120709483Y-89743908D01*
X120649883Y-89737501D01*
X120649881Y-89737500D01*
X120649873Y-89737500D01*
X120649864Y-89737500D01*
X119030129Y-89737500D01*
X119030123Y-89737501D01*
X118970516Y-89743908D01*
X118835671Y-89794202D01*
X118835664Y-89794206D01*
X118720455Y-89880452D01*
X118720452Y-89880455D01*
X118634206Y-89995664D01*
X118634202Y-89995671D01*
X118583908Y-90130517D01*
X118578010Y-90185380D01*
X118577501Y-90190123D01*
X118577500Y-90190135D01*
X104500500Y-90190135D01*
X104500500Y-59190155D01*
X114118000Y-59190155D01*
X114118000Y-59750000D01*
X115091184Y-59750000D01*
X115075124Y-59766060D01*
X115024964Y-59852939D01*
X114999000Y-59949840D01*
X114999000Y-60050160D01*
X115024964Y-60147061D01*
X115075124Y-60233940D01*
X115091184Y-60250000D01*
X114118000Y-60250000D01*
X114118000Y-60809844D01*
X114124401Y-60869372D01*
X114124403Y-60869379D01*
X114174645Y-61004086D01*
X114174649Y-61004093D01*
X114260809Y-61119187D01*
X114260812Y-61119190D01*
X114375906Y-61205350D01*
X114375913Y-61205354D01*
X114510620Y-61255596D01*
X114510627Y-61255598D01*
X114570155Y-61261999D01*
X114570172Y-61262000D01*
X115130000Y-61262000D01*
X115130000Y-60288816D01*
X115146060Y-60304876D01*
X115232939Y-60355036D01*
X115329840Y-60381000D01*
X115430160Y-60381000D01*
X115527061Y-60355036D01*
X115613940Y-60304876D01*
X115630000Y-60288816D01*
X115630000Y-61262000D01*
X116189828Y-61262000D01*
X116189844Y-61261999D01*
X116249372Y-61255598D01*
X116249379Y-61255596D01*
X116384086Y-61205354D01*
X116384093Y-61205350D01*
X116499187Y-61119190D01*
X116499190Y-61119187D01*
X116585350Y-61004093D01*
X116585354Y-61004086D01*
X116635596Y-60869379D01*
X116635598Y-60869372D01*
X116641999Y-60809844D01*
X116642000Y-60809827D01*
X116642000Y-60769207D01*
X116661685Y-60702168D01*
X116714489Y-60656413D01*
X116783647Y-60646469D01*
X116847203Y-60675494D01*
X116867573Y-60698082D01*
X116897031Y-60740152D01*
X116949170Y-60814615D01*
X116949175Y-60814621D01*
X117105378Y-60970824D01*
X117105384Y-60970829D01*
X117286333Y-61097531D01*
X117286335Y-61097532D01*
X117286338Y-61097534D01*
X117486550Y-61190894D01*
X117699932Y-61248070D01*
X117857123Y-61261822D01*
X117919998Y-61267323D01*
X117920000Y-61267323D01*
X117920002Y-61267323D01*
X117975017Y-61262509D01*
X118140068Y-61248070D01*
X118353450Y-61190894D01*
X118553662Y-61097534D01*
X118734620Y-60970826D01*
X118890826Y-60814620D01*
X119017534Y-60633662D01*
X119077618Y-60504811D01*
X119123790Y-60452371D01*
X119190983Y-60433219D01*
X119257865Y-60453435D01*
X119302382Y-60504811D01*
X119362464Y-60633658D01*
X119362468Y-60633666D01*
X119489170Y-60814615D01*
X119489175Y-60814621D01*
X119645378Y-60970824D01*
X119645384Y-60970829D01*
X119826333Y-61097531D01*
X119826335Y-61097532D01*
X119826338Y-61097534D01*
X120026550Y-61190894D01*
X120239932Y-61248070D01*
X120397123Y-61261822D01*
X120459998Y-61267323D01*
X120460000Y-61267323D01*
X120460002Y-61267323D01*
X120515017Y-61262509D01*
X120680068Y-61248070D01*
X120893450Y-61190894D01*
X121093662Y-61097534D01*
X121274620Y-60970826D01*
X121430826Y-60814620D01*
X121557534Y-60633662D01*
X121617618Y-60504811D01*
X121663790Y-60452371D01*
X121730983Y-60433219D01*
X121797865Y-60453435D01*
X121842382Y-60504811D01*
X121902464Y-60633658D01*
X121902468Y-60633666D01*
X122029170Y-60814615D01*
X122029175Y-60814621D01*
X122185378Y-60970824D01*
X122185384Y-60970829D01*
X122366333Y-61097531D01*
X122366335Y-61097532D01*
X122366338Y-61097534D01*
X122566550Y-61190894D01*
X122779932Y-61248070D01*
X122937123Y-61261822D01*
X122999998Y-61267323D01*
X123000000Y-61267323D01*
X123000002Y-61267323D01*
X123055017Y-61262509D01*
X123220068Y-61248070D01*
X123433450Y-61190894D01*
X123633662Y-61097534D01*
X123814620Y-60970826D01*
X123970826Y-60814620D01*
X124097534Y-60633662D01*
X124190894Y-60433450D01*
X124248070Y-60220068D01*
X124262935Y-60050160D01*
X124267323Y-60000002D01*
X124267323Y-59999997D01*
X124248070Y-59779937D01*
X124248070Y-59779932D01*
X124190894Y-59566550D01*
X124097534Y-59366339D01*
X124002624Y-59230793D01*
X123970827Y-59185381D01*
X123916066Y-59130620D01*
X123814620Y-59029174D01*
X123814616Y-59029171D01*
X123814615Y-59029170D01*
X123633666Y-58902468D01*
X123633662Y-58902466D01*
X123633660Y-58902465D01*
X123433450Y-58809106D01*
X123433447Y-58809105D01*
X123433445Y-58809104D01*
X123220070Y-58751930D01*
X123220062Y-58751929D01*
X123000002Y-58732677D01*
X122999998Y-58732677D01*
X122779937Y-58751929D01*
X122779929Y-58751930D01*
X122566554Y-58809104D01*
X122566548Y-58809107D01*
X122366340Y-58902465D01*
X122366338Y-58902466D01*
X122185377Y-59029175D01*
X122029175Y-59185377D01*
X121902466Y-59366338D01*
X121902465Y-59366340D01*
X121842382Y-59495189D01*
X121796209Y-59547628D01*
X121729016Y-59566780D01*
X121662135Y-59546564D01*
X121617618Y-59495189D01*
X121557534Y-59366340D01*
X121557533Y-59366338D01*
X121430827Y-59185381D01*
X121376066Y-59130620D01*
X121274620Y-59029174D01*
X121274616Y-59029171D01*
X121274615Y-59029170D01*
X121093666Y-58902468D01*
X121093662Y-58902466D01*
X121093660Y-58902465D01*
X120893450Y-58809106D01*
X120893447Y-58809105D01*
X120893445Y-58809104D01*
X120680070Y-58751930D01*
X120680062Y-58751929D01*
X120460002Y-58732677D01*
X120459998Y-58732677D01*
X120239937Y-58751929D01*
X120239929Y-58751930D01*
X120026554Y-58809104D01*
X120026548Y-58809107D01*
X119826340Y-58902465D01*
X119826338Y-58902466D01*
X119645377Y-59029175D01*
X119489175Y-59185377D01*
X119362466Y-59366338D01*
X119362465Y-59366340D01*
X119302382Y-59495189D01*
X119256209Y-59547628D01*
X119189016Y-59566780D01*
X119122135Y-59546564D01*
X119077618Y-59495189D01*
X119017534Y-59366340D01*
X119017533Y-59366338D01*
X118890827Y-59185381D01*
X118836066Y-59130620D01*
X118734620Y-59029174D01*
X118734616Y-59029171D01*
X118734615Y-59029170D01*
X118553666Y-58902468D01*
X118553662Y-58902466D01*
X118553660Y-58902465D01*
X118353450Y-58809106D01*
X118353447Y-58809105D01*
X118353445Y-58809104D01*
X118140070Y-58751930D01*
X118140062Y-58751929D01*
X117920002Y-58732677D01*
X117919998Y-58732677D01*
X117699937Y-58751929D01*
X117699929Y-58751930D01*
X117486554Y-58809104D01*
X117486548Y-58809107D01*
X117286340Y-58902465D01*
X117286338Y-58902466D01*
X117105377Y-59029175D01*
X116949175Y-59185377D01*
X116867575Y-59301916D01*
X116812998Y-59345541D01*
X116743500Y-59352735D01*
X116681145Y-59321212D01*
X116645731Y-59260983D01*
X116642000Y-59230793D01*
X116642000Y-59190172D01*
X116641999Y-59190155D01*
X116635598Y-59130627D01*
X116635596Y-59130620D01*
X116585354Y-58995913D01*
X116585350Y-58995906D01*
X116499190Y-58880812D01*
X116499187Y-58880809D01*
X116384093Y-58794649D01*
X116384086Y-58794645D01*
X116249379Y-58744403D01*
X116249372Y-58744401D01*
X116189844Y-58738000D01*
X115630000Y-58738000D01*
X115630000Y-59711184D01*
X115613940Y-59695124D01*
X115527061Y-59644964D01*
X115430160Y-59619000D01*
X115329840Y-59619000D01*
X115232939Y-59644964D01*
X115146060Y-59695124D01*
X115130000Y-59711184D01*
X115130000Y-58738000D01*
X114570155Y-58738000D01*
X114510627Y-58744401D01*
X114510620Y-58744403D01*
X114375913Y-58794645D01*
X114375906Y-58794649D01*
X114260812Y-58880809D01*
X114260809Y-58880812D01*
X114174649Y-58995906D01*
X114174645Y-58995913D01*
X114124403Y-59130620D01*
X114124401Y-59130627D01*
X114118000Y-59190155D01*
X104500500Y-59190155D01*
X104500500Y-56624500D01*
X104520185Y-56557461D01*
X104572989Y-56511706D01*
X104624500Y-56500500D01*
X178375500Y-56500500D01*
X178442539Y-56520185D01*
G37*
G04 #@! TD.AperFunction*
M02*
