G04 #@! TF.GenerationSoftware,KiCad,Pcbnew,8.0.6*
G04 #@! TF.CreationDate,2026-05-22T11:28:02+05:30*
G04 #@! TF.ProjectId,Kingshand,4b696e67-7368-4616-9e64-2e6b69636164,rev?*
G04 #@! TF.SameCoordinates,Original*
G04 #@! TF.FileFunction,Copper,L4,Bot*
G04 #@! TF.FilePolarity,Positive*
%FSLAX46Y46*%
G04 Gerber Fmt 4.6, Leading zero omitted, Abs format (unit mm)*
G04 Created by KiCad (PCBNEW 8.0.6) date 2026-05-22 11:28:02*
%MOMM*%
%LPD*%
G01*
G04 APERTURE LIST*
G04 #@! TA.AperFunction,ComponentPad*
%ADD10R,1.800000X1.800000*%
G04 #@! TD*
G04 #@! TA.AperFunction,ComponentPad*
%ADD11C,1.800000*%
G04 #@! TD*
G04 #@! TA.AperFunction,ComponentPad*
%ADD12C,1.600000*%
G04 #@! TD*
G04 #@! TA.AperFunction,ComponentPad*
%ADD13O,1.600000X1.600000*%
G04 #@! TD*
G04 #@! TA.AperFunction,ComponentPad*
%ADD14C,2.000000*%
G04 #@! TD*
G04 #@! TA.AperFunction,ComponentPad*
%ADD15R,1.600000X1.600000*%
G04 #@! TD*
G04 #@! TA.AperFunction,ComponentPad*
%ADD16C,1.524000*%
G04 #@! TD*
G04 #@! TA.AperFunction,ComponentPad*
%ADD17R,1.524000X1.524000*%
G04 #@! TD*
G04 #@! TA.AperFunction,ViaPad*
%ADD18C,0.600000*%
G04 #@! TD*
G04 #@! TA.AperFunction,Conductor*
%ADD19C,0.127000*%
G04 #@! TD*
G04 #@! TA.AperFunction,Conductor*
%ADD20C,0.200000*%
G04 #@! TD*
G04 APERTURE END LIST*
D10*
X167460000Y-60000000D03*
D11*
X170000000Y-60000000D03*
D12*
X162000000Y-84000000D03*
X162000000Y-79000000D03*
X157000000Y-98620000D03*
D13*
X157000000Y-91000000D03*
D14*
X166500000Y-79000000D03*
X173000000Y-79000000D03*
X166500000Y-83500000D03*
X173000000Y-83500000D03*
D12*
X162000000Y-96000000D03*
X162000000Y-91000000D03*
D14*
X166000000Y-67000000D03*
X172500000Y-67000000D03*
X166000000Y-71500000D03*
X172500000Y-71500000D03*
D15*
X150760000Y-100000000D03*
D13*
X150760000Y-97460000D03*
X150760000Y-94920000D03*
X150760000Y-92380000D03*
X150760000Y-89840000D03*
X150760000Y-87300000D03*
X150760000Y-84760000D03*
X150760000Y-82220000D03*
X150760000Y-79680000D03*
X150760000Y-77140000D03*
X150760000Y-74600000D03*
X150760000Y-72060000D03*
X150760000Y-69520000D03*
X150760000Y-66980000D03*
X150760000Y-64440000D03*
X135520000Y-64440000D03*
X135520000Y-66980000D03*
X135520000Y-69520000D03*
X135520000Y-72060000D03*
X135520000Y-74600000D03*
X135520000Y-77140000D03*
X135520000Y-79680000D03*
X135520000Y-82220000D03*
X135520000Y-84760000D03*
X135520000Y-87300000D03*
X135520000Y-89840000D03*
X135520000Y-92380000D03*
X135520000Y-94920000D03*
X135520000Y-97460000D03*
X135520000Y-100000000D03*
D16*
X123000000Y-60000000D03*
X120460000Y-60000000D03*
X117920000Y-60000000D03*
D17*
X115380000Y-60000000D03*
D12*
X155190000Y-62000000D03*
D13*
X162810000Y-62000000D03*
D12*
X157000000Y-86620000D03*
D13*
X157000000Y-79000000D03*
D12*
X162000000Y-72000000D03*
X162000000Y-67000000D03*
D14*
X166500000Y-91000000D03*
X173000000Y-91000000D03*
X166500000Y-95500000D03*
X173000000Y-95500000D03*
D12*
X157000000Y-74810000D03*
D13*
X157000000Y-67190000D03*
D17*
X119840000Y-91000000D03*
D16*
X122380000Y-91000000D03*
X124920000Y-91000000D03*
X127460000Y-91000000D03*
X130000000Y-91000000D03*
D18*
X158900000Y-91527000D03*
X149400000Y-91100000D03*
D19*
X113700000Y-99100000D02*
X112500000Y-97900000D01*
D20*
X162000000Y-79000000D02*
X164100000Y-76900000D01*
D19*
X130900000Y-89800000D02*
X131600000Y-90500000D01*
D20*
X164100000Y-71000000D02*
X162000000Y-68900000D01*
D19*
X131600000Y-90500000D02*
X131600000Y-93400000D01*
D20*
X162000000Y-91000000D02*
X166500000Y-91000000D01*
D19*
X127460000Y-91000000D02*
X128660000Y-89800000D01*
X131600000Y-93400000D02*
X125900000Y-99100000D01*
D20*
X159427000Y-91000000D02*
X162000000Y-91000000D01*
D19*
X128660000Y-89800000D02*
X130900000Y-89800000D01*
D20*
X162000000Y-68900000D02*
X162000000Y-67000000D01*
X158900000Y-91527000D02*
X159427000Y-91000000D01*
D19*
X112500000Y-97900000D02*
X112500000Y-62000000D01*
X115135000Y-59365000D02*
X115380000Y-59365000D01*
X125900000Y-99100000D02*
X113700000Y-99100000D01*
X112500000Y-62000000D02*
X115135000Y-59365000D01*
D20*
X164100000Y-76900000D02*
X164100000Y-71000000D01*
D19*
X124920000Y-91000000D02*
X122620000Y-93300000D01*
X120460000Y-59640000D02*
X120460000Y-59365000D01*
X117900000Y-93300000D02*
X117900000Y-62200000D01*
X122620000Y-93300000D02*
X117900000Y-93300000D01*
X117900000Y-62200000D02*
X120460000Y-59640000D01*
X121200000Y-61200000D02*
X121200000Y-61165000D01*
X120100000Y-88720000D02*
X120100000Y-62300000D01*
X120100000Y-62300000D02*
X121200000Y-61200000D01*
X121200000Y-61165000D02*
X123000000Y-59365000D01*
X122380000Y-91000000D02*
X120100000Y-88720000D01*
D20*
X149400000Y-86120000D02*
X150760000Y-84760000D01*
X149400000Y-91100000D02*
X149400000Y-86120000D01*
X157000000Y-98620000D02*
X155973000Y-97593000D01*
X155973000Y-89127000D02*
X157000000Y-88100000D01*
D19*
X115000000Y-95500000D02*
X115000000Y-62285000D01*
D20*
X155973000Y-97593000D02*
X155973000Y-89127000D01*
X157000000Y-88100000D02*
X157000000Y-86620000D01*
D19*
X125500000Y-95500000D02*
X115000000Y-95500000D01*
X115000000Y-62285000D02*
X117920000Y-59365000D01*
X130000000Y-91000000D02*
X125500000Y-95500000D01*
D20*
X157000000Y-79000000D02*
X158900000Y-79000000D01*
X162000000Y-82100000D02*
X162000000Y-84000000D01*
X158900000Y-79000000D02*
X162000000Y-82100000D01*
X154100000Y-77700000D02*
X159200000Y-77700000D01*
X162000000Y-74900000D02*
X162000000Y-72000000D01*
X159200000Y-77700000D02*
X162000000Y-74900000D01*
X154100000Y-87900000D02*
X154100000Y-77700000D01*
X150760000Y-89840000D02*
X152160000Y-89840000D01*
X152160000Y-89840000D02*
X154100000Y-87900000D01*
G04 #@! TA.AperFunction,Conductor*
G36*
X117166591Y-61018538D02*
G01*
X117194380Y-61033145D01*
X117214222Y-61047038D01*
X117286338Y-61097534D01*
X117486550Y-61190894D01*
X117699932Y-61248070D01*
X117760896Y-61253403D01*
X117825964Y-61278855D01*
X117866943Y-61335445D01*
X117870822Y-61405207D01*
X117837770Y-61464612D01*
X117553698Y-61748685D01*
X117448689Y-61853693D01*
X117448685Y-61853699D01*
X117399612Y-61938696D01*
X117374434Y-61982305D01*
X117374433Y-61982306D01*
X117347641Y-62082302D01*
X117347641Y-62082303D01*
X117347641Y-62082304D01*
X117336000Y-62125748D01*
X117336000Y-93225747D01*
X117336000Y-93225748D01*
X117336000Y-93374252D01*
X117374435Y-93517696D01*
X117448687Y-93646304D01*
X117553696Y-93751313D01*
X117682304Y-93825565D01*
X117825748Y-93864000D01*
X117825750Y-93864000D01*
X122694251Y-93864000D01*
X122694253Y-93864000D01*
X122837696Y-93825565D01*
X122966304Y-93751313D01*
X123071313Y-93646304D01*
X123071313Y-93646302D01*
X123081517Y-93636099D01*
X123081521Y-93636094D01*
X124467610Y-92250004D01*
X124528931Y-92216521D01*
X124587382Y-92217911D01*
X124699932Y-92248070D01*
X124857123Y-92261822D01*
X124919998Y-92267323D01*
X124920000Y-92267323D01*
X124920002Y-92267323D01*
X124975151Y-92262498D01*
X125140068Y-92248070D01*
X125353450Y-92190894D01*
X125553662Y-92097534D01*
X125734620Y-91970826D01*
X125890826Y-91814620D01*
X126017534Y-91633662D01*
X126077894Y-91504218D01*
X126124066Y-91451779D01*
X126191259Y-91432627D01*
X126258141Y-91452843D01*
X126302658Y-91504219D01*
X126362898Y-91633405D01*
X126362901Y-91633411D01*
X126408258Y-91698187D01*
X126408259Y-91698188D01*
X127079000Y-91027447D01*
X127079000Y-91050160D01*
X127104964Y-91147061D01*
X127155124Y-91233940D01*
X127226060Y-91304876D01*
X127312939Y-91355036D01*
X127409840Y-91381000D01*
X127432553Y-91381000D01*
X126761810Y-92051740D01*
X126826590Y-92097099D01*
X126826592Y-92097100D01*
X127026715Y-92190419D01*
X127026729Y-92190424D01*
X127240013Y-92247573D01*
X127240023Y-92247575D01*
X127459999Y-92266821D01*
X127460001Y-92266821D01*
X127641765Y-92250918D01*
X127710265Y-92264684D01*
X127760448Y-92313299D01*
X127776382Y-92381328D01*
X127753007Y-92447172D01*
X127740254Y-92462127D01*
X125302703Y-94899681D01*
X125241380Y-94933166D01*
X125215022Y-94936000D01*
X115688000Y-94936000D01*
X115620961Y-94916315D01*
X115575206Y-94863511D01*
X115564000Y-94812000D01*
X115564000Y-62569978D01*
X115583685Y-62502939D01*
X115600319Y-62482297D01*
X116309314Y-61773302D01*
X117035578Y-61047037D01*
X117096899Y-61013554D01*
X117166591Y-61018538D01*
G37*
G04 #@! TD.AperFunction*
G04 #@! TA.AperFunction,Conductor*
G36*
X178442539Y-56520185D02*
G01*
X178488294Y-56572989D01*
X178499500Y-56624500D01*
X178499500Y-105375500D01*
X178479815Y-105442539D01*
X178427011Y-105488294D01*
X178375500Y-105499500D01*
X104624500Y-105499500D01*
X104557461Y-105479815D01*
X104511706Y-105427011D01*
X104500500Y-105375500D01*
X104500500Y-59190155D01*
X114118000Y-59190155D01*
X114118000Y-59750000D01*
X115091184Y-59750000D01*
X115075124Y-59766060D01*
X115024964Y-59852939D01*
X114999000Y-59949840D01*
X114999000Y-60050160D01*
X115024964Y-60147061D01*
X115075124Y-60233940D01*
X115091184Y-60250000D01*
X114118000Y-60250000D01*
X114118000Y-60809844D01*
X114124401Y-60869372D01*
X114124403Y-60869379D01*
X114174645Y-61004086D01*
X114174649Y-61004093D01*
X114260809Y-61119187D01*
X114260812Y-61119190D01*
X114375906Y-61205350D01*
X114375913Y-61205354D01*
X114510620Y-61255596D01*
X114510627Y-61255598D01*
X114570155Y-61261999D01*
X114570172Y-61262000D01*
X114926021Y-61262000D01*
X114993060Y-61281685D01*
X115038815Y-61334489D01*
X115048759Y-61403647D01*
X115019734Y-61467203D01*
X115013702Y-61473681D01*
X114548689Y-61938693D01*
X114548685Y-61938699D01*
X114474434Y-62067305D01*
X114474433Y-62067306D01*
X114458776Y-62125745D01*
X114458776Y-62125746D01*
X114436000Y-62210748D01*
X114436000Y-95574251D01*
X114474435Y-95717695D01*
X114474436Y-95717698D01*
X114491828Y-95747821D01*
X114548687Y-95846304D01*
X114653696Y-95951313D01*
X114782304Y-96025565D01*
X114925748Y-96064000D01*
X114925750Y-96064000D01*
X125574251Y-96064000D01*
X125574253Y-96064000D01*
X125717696Y-96025565D01*
X125846304Y-95951313D01*
X125951313Y-95846304D01*
X125951313Y-95846302D01*
X125961517Y-95836099D01*
X125961521Y-95836094D01*
X129547610Y-92250004D01*
X129608931Y-92216521D01*
X129667382Y-92217911D01*
X129779932Y-92248070D01*
X129937123Y-92261822D01*
X129999998Y-92267323D01*
X130000000Y-92267323D01*
X130000002Y-92267323D01*
X130055151Y-92262498D01*
X130220068Y-92248070D01*
X130433450Y-92190894D01*
X130633662Y-92097534D01*
X130814620Y-91970826D01*
X130970826Y-91814620D01*
X131097534Y-91633662D01*
X131190894Y-91433450D01*
X131248070Y-91220068D01*
X131267323Y-91000000D01*
X131267322Y-90999994D01*
X131254457Y-90852939D01*
X131248070Y-90779932D01*
X131190894Y-90566550D01*
X131097534Y-90366339D01*
X130987164Y-90208713D01*
X130970827Y-90185381D01*
X130915562Y-90130116D01*
X130814620Y-90029174D01*
X130814616Y-90029171D01*
X130814615Y-90029170D01*
X130633666Y-89902468D01*
X130633662Y-89902466D01*
X130586457Y-89880454D01*
X130433450Y-89809106D01*
X130433447Y-89809105D01*
X130433445Y-89809104D01*
X130220070Y-89751930D01*
X130220062Y-89751929D01*
X130000002Y-89732677D01*
X129999998Y-89732677D01*
X129779937Y-89751929D01*
X129779929Y-89751930D01*
X129566554Y-89809104D01*
X129566548Y-89809107D01*
X129366340Y-89902465D01*
X129366338Y-89902466D01*
X129185377Y-90029175D01*
X129029175Y-90185377D01*
X128902467Y-90366337D01*
X128842105Y-90495782D01*
X128795932Y-90548221D01*
X128728738Y-90567372D01*
X128661857Y-90547156D01*
X128617341Y-90495780D01*
X128557098Y-90366589D01*
X128557097Y-90366587D01*
X128511741Y-90301811D01*
X128511740Y-90301810D01*
X127841000Y-90972551D01*
X127841000Y-90949840D01*
X127815036Y-90852939D01*
X127764876Y-90766060D01*
X127693940Y-90695124D01*
X127607061Y-90644964D01*
X127510160Y-90619000D01*
X127487448Y-90619000D01*
X128158188Y-89948259D01*
X128158187Y-89948258D01*
X128093411Y-89902901D01*
X128093405Y-89902898D01*
X127893284Y-89809580D01*
X127893270Y-89809575D01*
X127679986Y-89752426D01*
X127679976Y-89752424D01*
X127460001Y-89733179D01*
X127459999Y-89733179D01*
X127240023Y-89752424D01*
X127240013Y-89752426D01*
X127026729Y-89809575D01*
X127026720Y-89809579D01*
X126826590Y-89902901D01*
X126761811Y-89948258D01*
X127432553Y-90619000D01*
X127409840Y-90619000D01*
X127312939Y-90644964D01*
X127226060Y-90695124D01*
X127155124Y-90766060D01*
X127104964Y-90852939D01*
X127079000Y-90949840D01*
X127079000Y-90972553D01*
X126408258Y-90301811D01*
X126362901Y-90366590D01*
X126302658Y-90495781D01*
X126256485Y-90548220D01*
X126189292Y-90567372D01*
X126122411Y-90547156D01*
X126077894Y-90495781D01*
X126017534Y-90366339D01*
X125907164Y-90208713D01*
X125890827Y-90185381D01*
X125835562Y-90130116D01*
X125734620Y-90029174D01*
X125734616Y-90029171D01*
X125734615Y-90029170D01*
X125553666Y-89902468D01*
X125553662Y-89902466D01*
X125506457Y-89880454D01*
X125353450Y-89809106D01*
X125353447Y-89809105D01*
X125353445Y-89809104D01*
X125140070Y-89751930D01*
X125140062Y-89751929D01*
X124920002Y-89732677D01*
X124919998Y-89732677D01*
X124699937Y-89751929D01*
X124699929Y-89751930D01*
X124486554Y-89809104D01*
X124486548Y-89809107D01*
X124286340Y-89902465D01*
X124286338Y-89902466D01*
X124105377Y-90029175D01*
X123949175Y-90185377D01*
X123867649Y-90301810D01*
X123822466Y-90366339D01*
X123762382Y-90495189D01*
X123716209Y-90547628D01*
X123649016Y-90566780D01*
X123582135Y-90546564D01*
X123537618Y-90495189D01*
X123477534Y-90366339D01*
X123367164Y-90208713D01*
X123350827Y-90185381D01*
X123295562Y-90130116D01*
X123194620Y-90029174D01*
X123194616Y-90029171D01*
X123194615Y-90029170D01*
X123013666Y-89902468D01*
X123013662Y-89902466D01*
X122966457Y-89880454D01*
X122813450Y-89809106D01*
X122813447Y-89809105D01*
X122813445Y-89809104D01*
X122600070Y-89751930D01*
X122600062Y-89751929D01*
X122380002Y-89732677D01*
X122379998Y-89732677D01*
X122233288Y-89745512D01*
X122159932Y-89751930D01*
X122159929Y-89751930D01*
X122047383Y-89782087D01*
X121977533Y-89780424D01*
X121927609Y-89749993D01*
X120700319Y-88522703D01*
X120666834Y-88461380D01*
X120664000Y-88435022D01*
X120664000Y-64439998D01*
X134214532Y-64439998D01*
X134214532Y-64440001D01*
X134234364Y-64666686D01*
X134234366Y-64666697D01*
X134293258Y-64886488D01*
X134293261Y-64886497D01*
X134389431Y-65092732D01*
X134389432Y-65092734D01*
X134519954Y-65279141D01*
X134680858Y-65440045D01*
X134680861Y-65440047D01*
X134867266Y-65570568D01*
X134925275Y-65597618D01*
X134977714Y-65643791D01*
X134996866Y-65710984D01*
X134976650Y-65777865D01*
X134925275Y-65822382D01*
X134867267Y-65849431D01*
X134867265Y-65849432D01*
X134680858Y-65979954D01*
X134519954Y-66140858D01*
X134389432Y-66327265D01*
X134389431Y-66327267D01*
X134293261Y-66533502D01*
X134293258Y-66533511D01*
X134234366Y-66753302D01*
X134234364Y-66753313D01*
X134214532Y-66979998D01*
X134214532Y-66980001D01*
X134234364Y-67206686D01*
X134234366Y-67206697D01*
X134293258Y-67426488D01*
X134293261Y-67426497D01*
X134389431Y-67632732D01*
X134389432Y-67632734D01*
X134519954Y-67819141D01*
X134680858Y-67980045D01*
X134680861Y-67980047D01*
X134867266Y-68110568D01*
X134925275Y-68137618D01*
X134977714Y-68183791D01*
X134996866Y-68250984D01*
X134976650Y-68317865D01*
X134925275Y-68362382D01*
X134867267Y-68389431D01*
X134867265Y-68389432D01*
X134680858Y-68519954D01*
X134519954Y-68680858D01*
X134389432Y-68867265D01*
X134389431Y-68867267D01*
X134293261Y-69073502D01*
X134293258Y-69073511D01*
X134234366Y-69293302D01*
X134234364Y-69293313D01*
X134214532Y-69519998D01*
X134214532Y-69520001D01*
X134234364Y-69746686D01*
X134234366Y-69746697D01*
X134293258Y-69966488D01*
X134293261Y-69966497D01*
X134389431Y-70172732D01*
X134389432Y-70172734D01*
X134519954Y-70359141D01*
X134680858Y-70520045D01*
X134680861Y-70520047D01*
X134867266Y-70650568D01*
X134925275Y-70677618D01*
X134977714Y-70723791D01*
X134996866Y-70790984D01*
X134976650Y-70857865D01*
X134925275Y-70902382D01*
X134867267Y-70929431D01*
X134867265Y-70929432D01*
X134680858Y-71059954D01*
X134519954Y-71220858D01*
X134389432Y-71407265D01*
X134389431Y-71407267D01*
X134293261Y-71613502D01*
X134293258Y-71613511D01*
X134234366Y-71833302D01*
X134234364Y-71833313D01*
X134214532Y-72059998D01*
X134214532Y-72060001D01*
X134234364Y-72286686D01*
X134234366Y-72286697D01*
X134293258Y-72506488D01*
X134293261Y-72506497D01*
X134389431Y-72712732D01*
X134389432Y-72712734D01*
X134519954Y-72899141D01*
X134680858Y-73060045D01*
X134680861Y-73060047D01*
X134867266Y-73190568D01*
X134925275Y-73217618D01*
X134977714Y-73263791D01*
X134996866Y-73330984D01*
X134976650Y-73397865D01*
X134925275Y-73442382D01*
X134867267Y-73469431D01*
X134867265Y-73469432D01*
X134680858Y-73599954D01*
X134519954Y-73760858D01*
X134389432Y-73947265D01*
X134389431Y-73947267D01*
X134293261Y-74153502D01*
X134293258Y-74153511D01*
X134234366Y-74373302D01*
X134234364Y-74373313D01*
X134214532Y-74599998D01*
X134214532Y-74600001D01*
X134234364Y-74826686D01*
X134234366Y-74826697D01*
X134293258Y-75046488D01*
X134293261Y-75046497D01*
X134389431Y-75252732D01*
X134389432Y-75252734D01*
X134519954Y-75439141D01*
X134680858Y-75600045D01*
X134680861Y-75600047D01*
X134867266Y-75730568D01*
X134925275Y-75757618D01*
X134977714Y-75803791D01*
X134996866Y-75870984D01*
X134976650Y-75937865D01*
X134925275Y-75982382D01*
X134867267Y-76009431D01*
X134867265Y-76009432D01*
X134680858Y-76139954D01*
X134519954Y-76300858D01*
X134389432Y-76487265D01*
X134389431Y-76487267D01*
X134293261Y-76693502D01*
X134293258Y-76693511D01*
X134234366Y-76913302D01*
X134234364Y-76913313D01*
X134214532Y-77139998D01*
X134214532Y-77140001D01*
X134234364Y-77366686D01*
X134234366Y-77366697D01*
X134293258Y-77586488D01*
X134293261Y-77586497D01*
X134389431Y-77792732D01*
X134389432Y-77792734D01*
X134519954Y-77979141D01*
X134680858Y-78140045D01*
X134680861Y-78140047D01*
X134867266Y-78270568D01*
X134895282Y-78283632D01*
X134925275Y-78297618D01*
X134977714Y-78343791D01*
X134996866Y-78410984D01*
X134976650Y-78477865D01*
X134925275Y-78522382D01*
X134867267Y-78549431D01*
X134867265Y-78549432D01*
X134680858Y-78679954D01*
X134519954Y-78840858D01*
X134389432Y-79027265D01*
X134389431Y-79027267D01*
X134293261Y-79233502D01*
X134293258Y-79233511D01*
X134234366Y-79453302D01*
X134234364Y-79453313D01*
X134214532Y-79679998D01*
X134214532Y-79680001D01*
X134234364Y-79906686D01*
X134234366Y-79906697D01*
X134293258Y-80126488D01*
X134293261Y-80126497D01*
X134389431Y-80332732D01*
X134389432Y-80332734D01*
X134519954Y-80519141D01*
X134680858Y-80680045D01*
X134680861Y-80680047D01*
X134867266Y-80810568D01*
X134925275Y-80837618D01*
X134977714Y-80883791D01*
X134996866Y-80950984D01*
X134976650Y-81017865D01*
X134925275Y-81062382D01*
X134867267Y-81089431D01*
X134867265Y-81089432D01*
X134680858Y-81219954D01*
X134519954Y-81380858D01*
X134389432Y-81567265D01*
X134389431Y-81567267D01*
X134293261Y-81773502D01*
X134293258Y-81773511D01*
X134234366Y-81993302D01*
X134234364Y-81993313D01*
X134214532Y-82219998D01*
X134214532Y-82220001D01*
X134234364Y-82446686D01*
X134234366Y-82446697D01*
X134293258Y-82666488D01*
X134293261Y-82666497D01*
X134389431Y-82872732D01*
X134389432Y-82872734D01*
X134519954Y-83059141D01*
X134680858Y-83220045D01*
X134680861Y-83220047D01*
X134867266Y-83350568D01*
X134925275Y-83377618D01*
X134977714Y-83423791D01*
X134996866Y-83490984D01*
X134976650Y-83557865D01*
X134925275Y-83602382D01*
X134867267Y-83629431D01*
X134867265Y-83629432D01*
X134680858Y-83759954D01*
X134519954Y-83920858D01*
X134389432Y-84107265D01*
X134389431Y-84107267D01*
X134293261Y-84313502D01*
X134293258Y-84313511D01*
X134234366Y-84533302D01*
X134234364Y-84533313D01*
X134214532Y-84759998D01*
X134214532Y-84760001D01*
X134234364Y-84986686D01*
X134234366Y-84986697D01*
X134293258Y-85206488D01*
X134293261Y-85206497D01*
X134389431Y-85412732D01*
X134389432Y-85412734D01*
X134519954Y-85599141D01*
X134680858Y-85760045D01*
X134680861Y-85760047D01*
X134867266Y-85890568D01*
X134925275Y-85917618D01*
X134977714Y-85963791D01*
X134996866Y-86030984D01*
X134976650Y-86097865D01*
X134925275Y-86142382D01*
X134867267Y-86169431D01*
X134867265Y-86169432D01*
X134680858Y-86299954D01*
X134519954Y-86460858D01*
X134389432Y-86647265D01*
X134389431Y-86647267D01*
X134293261Y-86853502D01*
X134293258Y-86853511D01*
X134234366Y-87073302D01*
X134234364Y-87073313D01*
X134214532Y-87299998D01*
X134214532Y-87300001D01*
X134234364Y-87526686D01*
X134234366Y-87526697D01*
X134293258Y-87746488D01*
X134293261Y-87746497D01*
X134389431Y-87952732D01*
X134389432Y-87952734D01*
X134519953Y-88139140D01*
X134680858Y-88300045D01*
X134680861Y-88300047D01*
X134867266Y-88430568D01*
X134876818Y-88435022D01*
X134925275Y-88457618D01*
X134977714Y-88503791D01*
X134996866Y-88570984D01*
X134976650Y-88637865D01*
X134925275Y-88682382D01*
X134867267Y-88709431D01*
X134867265Y-88709432D01*
X134680858Y-88839954D01*
X134519954Y-89000858D01*
X134389432Y-89187265D01*
X134389431Y-89187267D01*
X134293261Y-89393502D01*
X134293258Y-89393511D01*
X134234366Y-89613302D01*
X134234364Y-89613313D01*
X134214532Y-89839998D01*
X134214532Y-89840001D01*
X134234364Y-90066686D01*
X134234366Y-90066697D01*
X134293258Y-90286488D01*
X134293261Y-90286497D01*
X134389431Y-90492732D01*
X134389432Y-90492734D01*
X134519954Y-90679141D01*
X134680858Y-90840045D01*
X134680861Y-90840047D01*
X134867266Y-90970568D01*
X134925275Y-90997618D01*
X134977714Y-91043791D01*
X134996866Y-91110984D01*
X134976650Y-91177865D01*
X134925275Y-91222382D01*
X134867267Y-91249431D01*
X134867265Y-91249432D01*
X134680858Y-91379954D01*
X134519954Y-91540858D01*
X134389432Y-91727265D01*
X134389431Y-91727267D01*
X134293261Y-91933502D01*
X134293258Y-91933511D01*
X134234366Y-92153302D01*
X134234364Y-92153313D01*
X134214532Y-92379998D01*
X134214532Y-92380001D01*
X134234364Y-92606686D01*
X134234366Y-92606697D01*
X134293258Y-92826488D01*
X134293261Y-92826497D01*
X134389431Y-93032732D01*
X134389432Y-93032734D01*
X134519954Y-93219141D01*
X134680858Y-93380045D01*
X134680861Y-93380047D01*
X134867266Y-93510568D01*
X134924681Y-93537341D01*
X134925275Y-93537618D01*
X134977714Y-93583791D01*
X134996866Y-93650984D01*
X134976650Y-93717865D01*
X134925275Y-93762382D01*
X134867267Y-93789431D01*
X134867265Y-93789432D01*
X134680858Y-93919954D01*
X134519954Y-94080858D01*
X134389432Y-94267265D01*
X134389431Y-94267267D01*
X134293261Y-94473502D01*
X134293258Y-94473511D01*
X134234366Y-94693302D01*
X134234364Y-94693313D01*
X134214532Y-94919998D01*
X134214532Y-94920001D01*
X134234364Y-95146686D01*
X134234366Y-95146697D01*
X134293258Y-95366488D01*
X134293261Y-95366497D01*
X134389431Y-95572732D01*
X134389432Y-95572734D01*
X134519954Y-95759141D01*
X134680858Y-95920045D01*
X134680861Y-95920047D01*
X134867266Y-96050568D01*
X134925865Y-96077893D01*
X134978305Y-96124065D01*
X134997457Y-96191258D01*
X134977242Y-96258139D01*
X134925867Y-96302657D01*
X134867515Y-96329867D01*
X134681179Y-96460342D01*
X134520342Y-96621179D01*
X134389865Y-96807517D01*
X134293734Y-97013673D01*
X134293730Y-97013682D01*
X134241127Y-97209999D01*
X134241128Y-97210000D01*
X135086988Y-97210000D01*
X135054075Y-97267007D01*
X135020000Y-97394174D01*
X135020000Y-97525826D01*
X135054075Y-97652993D01*
X135086988Y-97710000D01*
X134241128Y-97710000D01*
X134293730Y-97906317D01*
X134293734Y-97906326D01*
X134389865Y-98112482D01*
X134520342Y-98298820D01*
X134681179Y-98459657D01*
X134867518Y-98590134D01*
X134867520Y-98590135D01*
X134925865Y-98617342D01*
X134978305Y-98663514D01*
X134997457Y-98730707D01*
X134977242Y-98797589D01*
X134925867Y-98842105D01*
X134867268Y-98869431D01*
X134867264Y-98869433D01*
X134680858Y-98999954D01*
X134519954Y-99160858D01*
X134389432Y-99347265D01*
X134389431Y-99347267D01*
X134293261Y-99553502D01*
X134293258Y-99553511D01*
X134234366Y-99773302D01*
X134234364Y-99773313D01*
X134214532Y-99999998D01*
X134214532Y-100000001D01*
X134234364Y-100226686D01*
X134234366Y-100226697D01*
X134293258Y-100446488D01*
X134293261Y-100446497D01*
X134389431Y-100652732D01*
X134389432Y-100652734D01*
X134519954Y-100839141D01*
X134680858Y-101000045D01*
X134680861Y-101000047D01*
X134867266Y-101130568D01*
X135073504Y-101226739D01*
X135293308Y-101285635D01*
X135455230Y-101299801D01*
X135519998Y-101305468D01*
X135520000Y-101305468D01*
X135520002Y-101305468D01*
X135576807Y-101300498D01*
X135746692Y-101285635D01*
X135966496Y-101226739D01*
X136172734Y-101130568D01*
X136359139Y-101000047D01*
X136520047Y-100839139D01*
X136650568Y-100652734D01*
X136746739Y-100446496D01*
X136805635Y-100226692D01*
X136825468Y-100000000D01*
X136805635Y-99773308D01*
X136746739Y-99553504D01*
X136650568Y-99347266D01*
X136520047Y-99160861D01*
X136520045Y-99160858D01*
X136359141Y-98999954D01*
X136172734Y-98869432D01*
X136172732Y-98869431D01*
X136161275Y-98864088D01*
X136114132Y-98842105D01*
X136061694Y-98795934D01*
X136042542Y-98728740D01*
X136062758Y-98661859D01*
X136114134Y-98617341D01*
X136172484Y-98590132D01*
X136358820Y-98459657D01*
X136519657Y-98298820D01*
X136650134Y-98112482D01*
X136746265Y-97906326D01*
X136746269Y-97906317D01*
X136798872Y-97710000D01*
X135953012Y-97710000D01*
X135985925Y-97652993D01*
X136020000Y-97525826D01*
X136020000Y-97394174D01*
X135985925Y-97267007D01*
X135953012Y-97210000D01*
X136798872Y-97210000D01*
X136798872Y-97209999D01*
X136746269Y-97013682D01*
X136746265Y-97013673D01*
X136650134Y-96807517D01*
X136519657Y-96621179D01*
X136358820Y-96460342D01*
X136172482Y-96329865D01*
X136114133Y-96302657D01*
X136061694Y-96256484D01*
X136042542Y-96189291D01*
X136062758Y-96122410D01*
X136114129Y-96077895D01*
X136172734Y-96050568D01*
X136359139Y-95920047D01*
X136520047Y-95759139D01*
X136650568Y-95572734D01*
X136746739Y-95366496D01*
X136805635Y-95146692D01*
X136825468Y-94920000D01*
X136805635Y-94693308D01*
X136746739Y-94473504D01*
X136650568Y-94267266D01*
X136520047Y-94080861D01*
X136520045Y-94080858D01*
X136359141Y-93919954D01*
X136172734Y-93789432D01*
X136172728Y-93789429D01*
X136114725Y-93762382D01*
X136062285Y-93716210D01*
X136043133Y-93649017D01*
X136063348Y-93582135D01*
X136114725Y-93537618D01*
X136115319Y-93537341D01*
X136172734Y-93510568D01*
X136359139Y-93380047D01*
X136520047Y-93219139D01*
X136650568Y-93032734D01*
X136746739Y-92826496D01*
X136805635Y-92606692D01*
X136825468Y-92380000D01*
X136805635Y-92153308D01*
X136746739Y-91933504D01*
X136650568Y-91727266D01*
X136520047Y-91540861D01*
X136520045Y-91540858D01*
X136359141Y-91379954D01*
X136172734Y-91249432D01*
X136172728Y-91249429D01*
X136145038Y-91236517D01*
X136114724Y-91222381D01*
X136062285Y-91176210D01*
X136043133Y-91109017D01*
X136045860Y-91099996D01*
X148594435Y-91099996D01*
X148594435Y-91100003D01*
X148614630Y-91279249D01*
X148614631Y-91279254D01*
X148674211Y-91449523D01*
X148770184Y-91602262D01*
X148897738Y-91729816D01*
X148988080Y-91786582D01*
X149032702Y-91814620D01*
X149050478Y-91825789D01*
X149176489Y-91869882D01*
X149220745Y-91885368D01*
X149220750Y-91885369D01*
X149362814Y-91901375D01*
X149393939Y-91904882D01*
X149458353Y-91931948D01*
X149497908Y-91989543D01*
X149500046Y-92059380D01*
X149499831Y-92060195D01*
X149481127Y-92129998D01*
X149481128Y-92130000D01*
X150326988Y-92130000D01*
X150294075Y-92187007D01*
X150260000Y-92314174D01*
X150260000Y-92445826D01*
X150294075Y-92572993D01*
X150326988Y-92630000D01*
X149481128Y-92630000D01*
X149533730Y-92826317D01*
X149533734Y-92826326D01*
X149629865Y-93032482D01*
X149760342Y-93218820D01*
X149921179Y-93379657D01*
X150107518Y-93510134D01*
X150107520Y-93510135D01*
X150165865Y-93537342D01*
X150218305Y-93583514D01*
X150237457Y-93650707D01*
X150217242Y-93717589D01*
X150165867Y-93762105D01*
X150107268Y-93789431D01*
X150107264Y-93789433D01*
X149920858Y-93919954D01*
X149759954Y-94080858D01*
X149629432Y-94267265D01*
X149629431Y-94267267D01*
X149533261Y-94473502D01*
X149533258Y-94473511D01*
X149474366Y-94693302D01*
X149474364Y-94693313D01*
X149454532Y-94919998D01*
X149454532Y-94920001D01*
X149474364Y-95146686D01*
X149474366Y-95146697D01*
X149533258Y-95366488D01*
X149533261Y-95366497D01*
X149629431Y-95572732D01*
X149629432Y-95572734D01*
X149759954Y-95759141D01*
X149920858Y-95920045D01*
X149920861Y-95920047D01*
X150107266Y-96050568D01*
X150165275Y-96077618D01*
X150217714Y-96123791D01*
X150236866Y-96190984D01*
X150216650Y-96257865D01*
X150165275Y-96302382D01*
X150107267Y-96329431D01*
X150107265Y-96329432D01*
X149920858Y-96459954D01*
X149759954Y-96620858D01*
X149629432Y-96807265D01*
X149629431Y-96807267D01*
X149533261Y-97013502D01*
X149533258Y-97013511D01*
X149474366Y-97233302D01*
X149474364Y-97233313D01*
X149454532Y-97459998D01*
X149454532Y-97460001D01*
X149474364Y-97686686D01*
X149474366Y-97686697D01*
X149533258Y-97906488D01*
X149533261Y-97906497D01*
X149629431Y-98112732D01*
X149629432Y-98112734D01*
X149759954Y-98299141D01*
X149920858Y-98460045D01*
X149945462Y-98477273D01*
X149989087Y-98531849D01*
X149996281Y-98601348D01*
X149964758Y-98663703D01*
X149904529Y-98699117D01*
X149887593Y-98702138D01*
X149852516Y-98705908D01*
X149717671Y-98756202D01*
X149717664Y-98756206D01*
X149602455Y-98842452D01*
X149602452Y-98842455D01*
X149516206Y-98957664D01*
X149516202Y-98957671D01*
X149465908Y-99092517D01*
X149459501Y-99152116D01*
X149459501Y-99152123D01*
X149459500Y-99152135D01*
X149459500Y-100847870D01*
X149459501Y-100847876D01*
X149465908Y-100907483D01*
X149516202Y-101042328D01*
X149516206Y-101042335D01*
X149602452Y-101157544D01*
X149602455Y-101157547D01*
X149717664Y-101243793D01*
X149717671Y-101243797D01*
X149852517Y-101294091D01*
X149852516Y-101294091D01*
X149859444Y-101294835D01*
X149912127Y-101300500D01*
X151607872Y-101300499D01*
X151667483Y-101294091D01*
X151802331Y-101243796D01*
X151917546Y-101157546D01*
X152003796Y-101042331D01*
X152054091Y-100907483D01*
X152060500Y-100847873D01*
X152060499Y-99152128D01*
X152054091Y-99092517D01*
X152044386Y-99066497D01*
X152003797Y-98957671D01*
X152003793Y-98957664D01*
X151917547Y-98842455D01*
X151917544Y-98842452D01*
X151802335Y-98756206D01*
X151802328Y-98756202D01*
X151667482Y-98705908D01*
X151667483Y-98705908D01*
X151632404Y-98702137D01*
X151567853Y-98675399D01*
X151528005Y-98618006D01*
X151525512Y-98548181D01*
X151561165Y-98488092D01*
X151574539Y-98477272D01*
X151599140Y-98460046D01*
X151760045Y-98299141D01*
X151760047Y-98299139D01*
X151890568Y-98112734D01*
X151986739Y-97906496D01*
X152045635Y-97686692D01*
X152046916Y-97672054D01*
X155372498Y-97672054D01*
X155413423Y-97824785D01*
X155442358Y-97874900D01*
X155442359Y-97874904D01*
X155442360Y-97874904D01*
X155471816Y-97925925D01*
X155492479Y-97961714D01*
X155492481Y-97961717D01*
X155611349Y-98080585D01*
X155611355Y-98080590D01*
X155708058Y-98177293D01*
X155741543Y-98238616D01*
X155740152Y-98297067D01*
X155714366Y-98393302D01*
X155714364Y-98393313D01*
X155694532Y-98619998D01*
X155694532Y-98620001D01*
X155714364Y-98846686D01*
X155714366Y-98846697D01*
X155773258Y-99066488D01*
X155773261Y-99066497D01*
X155869431Y-99272732D01*
X155869432Y-99272734D01*
X155999954Y-99459141D01*
X156160858Y-99620045D01*
X156160861Y-99620047D01*
X156347266Y-99750568D01*
X156553504Y-99846739D01*
X156773308Y-99905635D01*
X156935230Y-99919801D01*
X156999998Y-99925468D01*
X157000000Y-99925468D01*
X157000002Y-99925468D01*
X157056673Y-99920509D01*
X157226692Y-99905635D01*
X157446496Y-99846739D01*
X157652734Y-99750568D01*
X157839139Y-99620047D01*
X158000047Y-99459139D01*
X158130568Y-99272734D01*
X158226739Y-99066496D01*
X158285635Y-98846692D01*
X158305468Y-98620000D01*
X158305235Y-98617342D01*
X158297756Y-98531849D01*
X158285635Y-98393308D01*
X158226739Y-98173504D01*
X158130568Y-97967266D01*
X158000047Y-97780861D01*
X158000045Y-97780858D01*
X157839141Y-97619954D01*
X157652734Y-97489432D01*
X157652732Y-97489431D01*
X157446497Y-97393261D01*
X157446488Y-97393258D01*
X157226697Y-97334366D01*
X157226693Y-97334365D01*
X157226692Y-97334365D01*
X157226691Y-97334364D01*
X157226686Y-97334364D01*
X157000002Y-97314532D01*
X156999998Y-97314532D01*
X156773313Y-97334364D01*
X156773299Y-97334367D01*
X156729592Y-97346078D01*
X156659743Y-97344415D01*
X156601880Y-97305252D01*
X156574377Y-97241023D01*
X156573500Y-97226303D01*
X156573500Y-95999998D01*
X160694532Y-95999998D01*
X160694532Y-96000001D01*
X160714364Y-96226686D01*
X160714366Y-96226697D01*
X160773258Y-96446488D01*
X160773261Y-96446497D01*
X160869431Y-96652732D01*
X160869432Y-96652734D01*
X160999954Y-96839141D01*
X161160858Y-97000045D01*
X161160861Y-97000047D01*
X161347266Y-97130568D01*
X161553504Y-97226739D01*
X161553509Y-97226740D01*
X161553511Y-97226741D01*
X161606415Y-97240916D01*
X161773308Y-97285635D01*
X161935230Y-97299801D01*
X161999998Y-97305468D01*
X162000000Y-97305468D01*
X162000002Y-97305468D01*
X162056673Y-97300509D01*
X162226692Y-97285635D01*
X162446496Y-97226739D01*
X162652734Y-97130568D01*
X162839139Y-97000047D01*
X163000047Y-96839139D01*
X163130568Y-96652734D01*
X163226739Y-96446496D01*
X163285635Y-96226692D01*
X163305468Y-96000000D01*
X163285635Y-95773308D01*
X163226739Y-95553504D01*
X163201787Y-95499994D01*
X164994357Y-95499994D01*
X164994357Y-95500005D01*
X165014890Y-95747812D01*
X165014892Y-95747824D01*
X165075936Y-95988881D01*
X165175826Y-96216606D01*
X165311833Y-96424782D01*
X165311836Y-96424785D01*
X165480256Y-96607738D01*
X165676491Y-96760474D01*
X165895190Y-96878828D01*
X166130386Y-96959571D01*
X166375665Y-97000500D01*
X166624335Y-97000500D01*
X166869614Y-96959571D01*
X167104810Y-96878828D01*
X167323509Y-96760474D01*
X167519744Y-96607738D01*
X167688164Y-96424785D01*
X167824173Y-96216607D01*
X167924063Y-95988881D01*
X167985108Y-95747821D01*
X167987604Y-95717696D01*
X168005643Y-95500005D01*
X168005643Y-95499994D01*
X171494357Y-95499994D01*
X171494357Y-95500005D01*
X171514890Y-95747812D01*
X171514892Y-95747824D01*
X171575936Y-95988881D01*
X171675826Y-96216606D01*
X171811833Y-96424782D01*
X171811836Y-96424785D01*
X171980256Y-96607738D01*
X172176491Y-96760474D01*
X172395190Y-96878828D01*
X172630386Y-96959571D01*
X172875665Y-97000500D01*
X173124335Y-97000500D01*
X173369614Y-96959571D01*
X173604810Y-96878828D01*
X173823509Y-96760474D01*
X174019744Y-96607738D01*
X174188164Y-96424785D01*
X174324173Y-96216607D01*
X174424063Y-95988881D01*
X174485108Y-95747821D01*
X174487604Y-95717696D01*
X174505643Y-95500005D01*
X174505643Y-95499994D01*
X174485109Y-95252187D01*
X174485107Y-95252175D01*
X174424063Y-95011118D01*
X174324173Y-94783393D01*
X174188166Y-94575217D01*
X174166557Y-94551744D01*
X174019744Y-94392262D01*
X173823509Y-94239526D01*
X173823507Y-94239525D01*
X173823506Y-94239524D01*
X173604811Y-94121172D01*
X173604802Y-94121169D01*
X173369616Y-94040429D01*
X173124335Y-93999500D01*
X172875665Y-93999500D01*
X172630383Y-94040429D01*
X172395197Y-94121169D01*
X172395188Y-94121172D01*
X172176493Y-94239524D01*
X171980257Y-94392261D01*
X171811833Y-94575217D01*
X171675826Y-94783393D01*
X171575936Y-95011118D01*
X171514892Y-95252175D01*
X171514890Y-95252187D01*
X171494357Y-95499994D01*
X168005643Y-95499994D01*
X167985109Y-95252187D01*
X167985107Y-95252175D01*
X167924063Y-95011118D01*
X167824173Y-94783393D01*
X167688166Y-94575217D01*
X167666557Y-94551744D01*
X167519744Y-94392262D01*
X167323509Y-94239526D01*
X167323507Y-94239525D01*
X167323506Y-94239524D01*
X167104811Y-94121172D01*
X167104802Y-94121169D01*
X166869616Y-94040429D01*
X166624335Y-93999500D01*
X166375665Y-93999500D01*
X166130383Y-94040429D01*
X165895197Y-94121169D01*
X165895188Y-94121172D01*
X165676493Y-94239524D01*
X165480257Y-94392261D01*
X165311833Y-94575217D01*
X165175826Y-94783393D01*
X165075936Y-95011118D01*
X165014892Y-95252175D01*
X165014890Y-95252187D01*
X164994357Y-95499994D01*
X163201787Y-95499994D01*
X163130568Y-95347266D01*
X163000047Y-95160861D01*
X163000045Y-95160858D01*
X162839141Y-94999954D01*
X162652734Y-94869432D01*
X162652732Y-94869431D01*
X162446497Y-94773261D01*
X162446488Y-94773258D01*
X162226697Y-94714366D01*
X162226693Y-94714365D01*
X162226692Y-94714365D01*
X162226691Y-94714364D01*
X162226686Y-94714364D01*
X162000002Y-94694532D01*
X161999998Y-94694532D01*
X161773313Y-94714364D01*
X161773302Y-94714366D01*
X161553511Y-94773258D01*
X161553502Y-94773261D01*
X161347267Y-94869431D01*
X161347265Y-94869432D01*
X161160858Y-94999954D01*
X160999954Y-95160858D01*
X160869432Y-95347265D01*
X160869431Y-95347267D01*
X160773261Y-95553502D01*
X160773258Y-95553511D01*
X160714366Y-95773302D01*
X160714364Y-95773313D01*
X160694532Y-95999998D01*
X156573500Y-95999998D01*
X156573500Y-92393696D01*
X156593185Y-92326657D01*
X156645989Y-92280902D01*
X156715147Y-92270958D01*
X156729594Y-92273921D01*
X156773308Y-92285635D01*
X156935230Y-92299801D01*
X156999998Y-92305468D01*
X157000000Y-92305468D01*
X157000002Y-92305468D01*
X157056673Y-92300509D01*
X157226692Y-92285635D01*
X157446496Y-92226739D01*
X157652734Y-92130568D01*
X157839139Y-92000047D01*
X158000047Y-91839139D01*
X158130568Y-91652734D01*
X158226739Y-91446496D01*
X158285635Y-91226692D01*
X158305468Y-91000000D01*
X158305467Y-90999997D01*
X160695034Y-90999997D01*
X160695034Y-91000002D01*
X160714858Y-91226599D01*
X160714860Y-91226610D01*
X160773730Y-91446317D01*
X160773735Y-91446331D01*
X160869863Y-91652478D01*
X160920974Y-91725472D01*
X161600000Y-91046446D01*
X161600000Y-91052661D01*
X161627259Y-91154394D01*
X161679920Y-91245606D01*
X161754394Y-91320080D01*
X161845606Y-91372741D01*
X161947339Y-91400000D01*
X161953553Y-91400000D01*
X161274526Y-92079025D01*
X161347513Y-92130132D01*
X161347521Y-92130136D01*
X161553668Y-92226264D01*
X161553682Y-92226269D01*
X161773389Y-92285139D01*
X161773400Y-92285141D01*
X161999998Y-92304966D01*
X162000002Y-92304966D01*
X162226599Y-92285141D01*
X162226610Y-92285139D01*
X162446317Y-92226269D01*
X162446331Y-92226264D01*
X162652478Y-92130136D01*
X162725471Y-92079024D01*
X162046447Y-91400000D01*
X162052661Y-91400000D01*
X162154394Y-91372741D01*
X162245606Y-91320080D01*
X162320080Y-91245606D01*
X162372741Y-91154394D01*
X162400000Y-91052661D01*
X162400000Y-91046447D01*
X163079024Y-91725471D01*
X163130136Y-91652478D01*
X163226264Y-91446331D01*
X163226269Y-91446317D01*
X163285139Y-91226610D01*
X163285141Y-91226599D01*
X163304966Y-91000002D01*
X163304966Y-90999997D01*
X163304966Y-90999994D01*
X164994859Y-90999994D01*
X164994859Y-91000005D01*
X165015385Y-91247729D01*
X165015387Y-91247738D01*
X165076412Y-91488717D01*
X165176266Y-91716364D01*
X165276564Y-91869882D01*
X165976212Y-91170234D01*
X165987482Y-91212292D01*
X166059890Y-91337708D01*
X166162292Y-91440110D01*
X166287708Y-91512518D01*
X166329765Y-91523787D01*
X165629942Y-92223609D01*
X165676768Y-92260055D01*
X165676770Y-92260056D01*
X165895385Y-92378364D01*
X165895396Y-92378369D01*
X166130506Y-92459083D01*
X166375707Y-92500000D01*
X166624293Y-92500000D01*
X166869493Y-92459083D01*
X167104603Y-92378369D01*
X167104614Y-92378364D01*
X167323228Y-92260057D01*
X167323231Y-92260055D01*
X167370056Y-92223609D01*
X166670234Y-91523787D01*
X166712292Y-91512518D01*
X166837708Y-91440110D01*
X166940110Y-91337708D01*
X167012518Y-91212292D01*
X167023787Y-91170234D01*
X167723434Y-91869882D01*
X167823731Y-91716369D01*
X167923587Y-91488717D01*
X167984612Y-91247738D01*
X167984614Y-91247729D01*
X168005141Y-91000005D01*
X168005141Y-90999994D01*
X171494859Y-90999994D01*
X171494859Y-91000005D01*
X171515385Y-91247729D01*
X171515387Y-91247738D01*
X171576412Y-91488717D01*
X171676266Y-91716364D01*
X171776564Y-91869882D01*
X172476212Y-91170234D01*
X172487482Y-91212292D01*
X172559890Y-91337708D01*
X172662292Y-91440110D01*
X172787708Y-91512518D01*
X172829765Y-91523787D01*
X172129942Y-92223609D01*
X172176768Y-92260055D01*
X172176770Y-92260056D01*
X172395385Y-92378364D01*
X172395396Y-92378369D01*
X172630506Y-92459083D01*
X172875707Y-92500000D01*
X173124293Y-92500000D01*
X173369493Y-92459083D01*
X173604603Y-92378369D01*
X173604614Y-92378364D01*
X173823228Y-92260057D01*
X173823231Y-92260055D01*
X173870056Y-92223609D01*
X173170234Y-91523787D01*
X173212292Y-91512518D01*
X173337708Y-91440110D01*
X173440110Y-91337708D01*
X173512518Y-91212292D01*
X173523787Y-91170234D01*
X174223434Y-91869882D01*
X174323731Y-91716369D01*
X174423587Y-91488717D01*
X174484612Y-91247738D01*
X174484614Y-91247729D01*
X174505141Y-91000005D01*
X174505141Y-90999994D01*
X174484614Y-90752270D01*
X174484612Y-90752261D01*
X174423587Y-90511282D01*
X174323731Y-90283630D01*
X174223434Y-90130116D01*
X173523787Y-90829764D01*
X173512518Y-90787708D01*
X173440110Y-90662292D01*
X173337708Y-90559890D01*
X173212292Y-90487482D01*
X173170235Y-90476212D01*
X173870057Y-89776390D01*
X173870056Y-89776389D01*
X173823229Y-89739943D01*
X173604614Y-89621635D01*
X173604603Y-89621630D01*
X173369493Y-89540916D01*
X173124293Y-89500000D01*
X172875707Y-89500000D01*
X172630506Y-89540916D01*
X172395396Y-89621630D01*
X172395390Y-89621632D01*
X172176761Y-89739949D01*
X172129942Y-89776388D01*
X172129942Y-89776390D01*
X172829765Y-90476212D01*
X172787708Y-90487482D01*
X172662292Y-90559890D01*
X172559890Y-90662292D01*
X172487482Y-90787708D01*
X172476212Y-90829764D01*
X171776564Y-90130116D01*
X171676267Y-90283632D01*
X171576412Y-90511282D01*
X171515387Y-90752261D01*
X171515385Y-90752270D01*
X171494859Y-90999994D01*
X168005141Y-90999994D01*
X167984614Y-90752270D01*
X167984612Y-90752261D01*
X167923587Y-90511282D01*
X167823731Y-90283630D01*
X167723434Y-90130116D01*
X167023787Y-90829764D01*
X167012518Y-90787708D01*
X166940110Y-90662292D01*
X166837708Y-90559890D01*
X166712292Y-90487482D01*
X166670235Y-90476212D01*
X167370057Y-89776390D01*
X167370056Y-89776389D01*
X167323229Y-89739943D01*
X167104614Y-89621635D01*
X167104603Y-89621630D01*
X166869493Y-89540916D01*
X166624293Y-89500000D01*
X166375707Y-89500000D01*
X166130506Y-89540916D01*
X165895396Y-89621630D01*
X165895390Y-89621632D01*
X165676761Y-89739949D01*
X165629942Y-89776388D01*
X165629942Y-89776390D01*
X166329765Y-90476212D01*
X166287708Y-90487482D01*
X166162292Y-90559890D01*
X166059890Y-90662292D01*
X165987482Y-90787708D01*
X165976212Y-90829764D01*
X165276564Y-90130116D01*
X165176267Y-90283632D01*
X165076412Y-90511282D01*
X165015387Y-90752261D01*
X165015385Y-90752270D01*
X164994859Y-90999994D01*
X163304966Y-90999994D01*
X163285141Y-90773400D01*
X163285139Y-90773389D01*
X163226269Y-90553682D01*
X163226264Y-90553668D01*
X163130136Y-90347521D01*
X163130132Y-90347513D01*
X163079025Y-90274526D01*
X162400000Y-90953551D01*
X162400000Y-90947339D01*
X162372741Y-90845606D01*
X162320080Y-90754394D01*
X162245606Y-90679920D01*
X162154394Y-90627259D01*
X162052661Y-90600000D01*
X162046448Y-90600000D01*
X162725472Y-89920974D01*
X162652478Y-89869863D01*
X162446331Y-89773735D01*
X162446317Y-89773730D01*
X162226610Y-89714860D01*
X162226599Y-89714858D01*
X162000002Y-89695034D01*
X161999998Y-89695034D01*
X161773400Y-89714858D01*
X161773389Y-89714860D01*
X161553682Y-89773730D01*
X161553673Y-89773734D01*
X161347516Y-89869866D01*
X161347512Y-89869868D01*
X161274526Y-89920973D01*
X161274526Y-89920974D01*
X161953553Y-90600000D01*
X161947339Y-90600000D01*
X161845606Y-90627259D01*
X161754394Y-90679920D01*
X161679920Y-90754394D01*
X161627259Y-90845606D01*
X161600000Y-90947339D01*
X161600000Y-90953552D01*
X160920974Y-90274526D01*
X160920973Y-90274526D01*
X160869868Y-90347512D01*
X160869866Y-90347516D01*
X160773734Y-90553673D01*
X160773730Y-90553682D01*
X160714860Y-90773389D01*
X160714858Y-90773400D01*
X160695034Y-90999997D01*
X158305467Y-90999997D01*
X158305467Y-90999994D01*
X158299133Y-90927591D01*
X158285635Y-90773308D01*
X158226739Y-90553504D01*
X158130568Y-90347266D01*
X158000047Y-90160861D01*
X158000045Y-90160858D01*
X157839141Y-89999954D01*
X157652734Y-89869432D01*
X157652732Y-89869431D01*
X157446497Y-89773261D01*
X157446488Y-89773258D01*
X157226697Y-89714366D01*
X157226693Y-89714365D01*
X157226692Y-89714365D01*
X157226691Y-89714364D01*
X157226686Y-89714364D01*
X157000002Y-89694532D01*
X156999998Y-89694532D01*
X156773313Y-89714364D01*
X156773299Y-89714367D01*
X156729592Y-89726078D01*
X156659743Y-89724415D01*
X156601880Y-89685252D01*
X156574377Y-89621023D01*
X156573500Y-89606303D01*
X156573500Y-89427096D01*
X156593185Y-89360057D01*
X156609815Y-89339419D01*
X157358506Y-88590727D01*
X157358511Y-88590724D01*
X157368714Y-88580520D01*
X157368716Y-88580520D01*
X157480520Y-88468716D01*
X157559577Y-88331784D01*
X157589534Y-88219981D01*
X157600500Y-88179058D01*
X157600500Y-88020943D01*
X157600500Y-87851692D01*
X157620185Y-87784653D01*
X157653374Y-87750119D01*
X157839139Y-87620047D01*
X158000047Y-87459139D01*
X158130568Y-87272734D01*
X158226739Y-87066496D01*
X158285635Y-86846692D01*
X158305468Y-86620000D01*
X158285635Y-86393308D01*
X158226739Y-86173504D01*
X158130568Y-85967266D01*
X158000047Y-85780861D01*
X158000045Y-85780858D01*
X157839141Y-85619954D01*
X157652734Y-85489432D01*
X157652732Y-85489431D01*
X157446497Y-85393261D01*
X157446488Y-85393258D01*
X157226697Y-85334366D01*
X157226693Y-85334365D01*
X157226692Y-85334365D01*
X157226691Y-85334364D01*
X157226686Y-85334364D01*
X157000002Y-85314532D01*
X156999998Y-85314532D01*
X156773313Y-85334364D01*
X156773302Y-85334366D01*
X156553511Y-85393258D01*
X156553502Y-85393261D01*
X156347267Y-85489431D01*
X156347265Y-85489432D01*
X156160858Y-85619954D01*
X155999954Y-85780858D01*
X155869432Y-85967265D01*
X155869431Y-85967267D01*
X155773261Y-86173502D01*
X155773258Y-86173511D01*
X155714366Y-86393302D01*
X155714364Y-86393313D01*
X155694532Y-86619998D01*
X155694532Y-86620001D01*
X155714364Y-86846686D01*
X155714366Y-86846697D01*
X155773258Y-87066488D01*
X155773261Y-87066497D01*
X155869431Y-87272732D01*
X155869432Y-87272734D01*
X155999954Y-87459141D01*
X156160857Y-87620044D01*
X156160860Y-87620046D01*
X156160861Y-87620047D01*
X156316163Y-87728789D01*
X156359787Y-87783364D01*
X156366981Y-87852862D01*
X156335459Y-87915217D01*
X156332720Y-87918044D01*
X155492481Y-88758282D01*
X155492480Y-88758284D01*
X155445590Y-88839500D01*
X155413423Y-88895215D01*
X155372499Y-89047943D01*
X155372499Y-89047945D01*
X155372499Y-89216046D01*
X155372500Y-89216059D01*
X155372500Y-97506330D01*
X155372499Y-97506348D01*
X155372499Y-97672054D01*
X155372498Y-97672054D01*
X152046916Y-97672054D01*
X152065468Y-97460000D01*
X152045635Y-97233308D01*
X151986739Y-97013504D01*
X151890568Y-96807266D01*
X151760047Y-96620861D01*
X151760045Y-96620858D01*
X151599141Y-96459954D01*
X151412734Y-96329432D01*
X151412728Y-96329429D01*
X151354725Y-96302382D01*
X151302285Y-96256210D01*
X151283133Y-96189017D01*
X151303348Y-96122135D01*
X151354725Y-96077618D01*
X151412734Y-96050568D01*
X151599139Y-95920047D01*
X151760047Y-95759139D01*
X151890568Y-95572734D01*
X151986739Y-95366496D01*
X152045635Y-95146692D01*
X152065468Y-94920000D01*
X152045635Y-94693308D01*
X151986739Y-94473504D01*
X151890568Y-94267266D01*
X151760047Y-94080861D01*
X151760045Y-94080858D01*
X151599141Y-93919954D01*
X151412734Y-93789432D01*
X151412732Y-93789431D01*
X151354725Y-93762382D01*
X151354132Y-93762105D01*
X151301694Y-93715934D01*
X151282542Y-93648740D01*
X151302758Y-93581859D01*
X151354134Y-93537341D01*
X151412484Y-93510132D01*
X151598820Y-93379657D01*
X151759657Y-93218820D01*
X151890134Y-93032482D01*
X151986265Y-92826326D01*
X151986269Y-92826317D01*
X152038872Y-92630000D01*
X151193012Y-92630000D01*
X151225925Y-92572993D01*
X151260000Y-92445826D01*
X151260000Y-92314174D01*
X151225925Y-92187007D01*
X151193012Y-92130000D01*
X152038872Y-92130000D01*
X152038872Y-92129999D01*
X151986269Y-91933682D01*
X151986265Y-91933673D01*
X151890134Y-91727517D01*
X151759657Y-91541179D01*
X151598820Y-91380342D01*
X151412482Y-91249865D01*
X151354133Y-91222657D01*
X151301694Y-91176484D01*
X151282542Y-91109291D01*
X151302758Y-91042410D01*
X151354129Y-90997895D01*
X151412734Y-90970568D01*
X151599139Y-90840047D01*
X151760047Y-90679139D01*
X151890118Y-90493375D01*
X151944693Y-90449752D01*
X151991692Y-90440500D01*
X152073331Y-90440500D01*
X152073347Y-90440501D01*
X152080943Y-90440501D01*
X152239054Y-90440501D01*
X152239057Y-90440501D01*
X152391785Y-90399577D01*
X152449354Y-90366339D01*
X152528716Y-90320520D01*
X152640520Y-90208716D01*
X152640520Y-90208714D01*
X152650724Y-90198511D01*
X152650728Y-90198506D01*
X154458506Y-88390728D01*
X154458511Y-88390724D01*
X154468714Y-88380520D01*
X154468716Y-88380520D01*
X154580520Y-88268716D01*
X154655331Y-88139139D01*
X154659577Y-88131785D01*
X154700500Y-87979058D01*
X154700500Y-87820943D01*
X154700500Y-78424500D01*
X154720185Y-78357461D01*
X154772989Y-78311706D01*
X154824500Y-78300500D01*
X155696598Y-78300500D01*
X155763637Y-78320185D01*
X155809392Y-78372989D01*
X155819336Y-78442147D01*
X155808980Y-78476905D01*
X155773262Y-78553502D01*
X155773258Y-78553511D01*
X155714366Y-78773302D01*
X155714364Y-78773313D01*
X155694532Y-78999998D01*
X155694532Y-79000001D01*
X155714364Y-79226686D01*
X155714366Y-79226697D01*
X155773258Y-79446488D01*
X155773261Y-79446497D01*
X155869431Y-79652732D01*
X155869432Y-79652734D01*
X155999954Y-79839141D01*
X156160858Y-80000045D01*
X156160861Y-80000047D01*
X156347266Y-80130568D01*
X156553504Y-80226739D01*
X156773308Y-80285635D01*
X156935230Y-80299801D01*
X156999998Y-80305468D01*
X157000000Y-80305468D01*
X157000002Y-80305468D01*
X157056673Y-80300509D01*
X157226692Y-80285635D01*
X157446496Y-80226739D01*
X157652734Y-80130568D01*
X157839139Y-80000047D01*
X158000047Y-79839139D01*
X158130118Y-79653375D01*
X158184693Y-79609752D01*
X158231692Y-79600500D01*
X158599903Y-79600500D01*
X158666942Y-79620185D01*
X158687584Y-79636819D01*
X161363181Y-82312416D01*
X161396666Y-82373739D01*
X161399500Y-82400097D01*
X161399500Y-82768306D01*
X161379815Y-82835345D01*
X161346623Y-82869881D01*
X161160859Y-82999953D01*
X160999954Y-83160858D01*
X160869432Y-83347265D01*
X160869431Y-83347267D01*
X160773261Y-83553502D01*
X160773258Y-83553511D01*
X160714366Y-83773302D01*
X160714364Y-83773313D01*
X160694532Y-83999998D01*
X160694532Y-84000001D01*
X160714364Y-84226686D01*
X160714366Y-84226697D01*
X160773258Y-84446488D01*
X160773261Y-84446497D01*
X160869431Y-84652732D01*
X160869432Y-84652734D01*
X160999954Y-84839141D01*
X161160858Y-85000045D01*
X161160861Y-85000047D01*
X161347266Y-85130568D01*
X161553504Y-85226739D01*
X161773308Y-85285635D01*
X161935230Y-85299801D01*
X161999998Y-85305468D01*
X162000000Y-85305468D01*
X162000002Y-85305468D01*
X162056673Y-85300509D01*
X162226692Y-85285635D01*
X162446496Y-85226739D01*
X162652734Y-85130568D01*
X162839139Y-85000047D01*
X163000047Y-84839139D01*
X163130568Y-84652734D01*
X163226739Y-84446496D01*
X163285635Y-84226692D01*
X163305468Y-84000000D01*
X163285635Y-83773308D01*
X163226739Y-83553504D01*
X163201787Y-83499994D01*
X164994357Y-83499994D01*
X164994357Y-83500005D01*
X165014890Y-83747812D01*
X165014892Y-83747824D01*
X165075936Y-83988881D01*
X165175826Y-84216606D01*
X165311833Y-84424782D01*
X165311836Y-84424785D01*
X165480256Y-84607738D01*
X165676491Y-84760474D01*
X165895190Y-84878828D01*
X166130386Y-84959571D01*
X166375665Y-85000500D01*
X166624335Y-85000500D01*
X166869614Y-84959571D01*
X167104810Y-84878828D01*
X167323509Y-84760474D01*
X167519744Y-84607738D01*
X167688164Y-84424785D01*
X167824173Y-84216607D01*
X167924063Y-83988881D01*
X167985108Y-83747821D01*
X167994918Y-83629431D01*
X168005643Y-83500005D01*
X168005643Y-83499994D01*
X171494357Y-83499994D01*
X171494357Y-83500005D01*
X171514890Y-83747812D01*
X171514892Y-83747824D01*
X171575936Y-83988881D01*
X171675826Y-84216606D01*
X171811833Y-84424782D01*
X171811836Y-84424785D01*
X171980256Y-84607738D01*
X172176491Y-84760474D01*
X172395190Y-84878828D01*
X172630386Y-84959571D01*
X172875665Y-85000500D01*
X173124335Y-85000500D01*
X173369614Y-84959571D01*
X173604810Y-84878828D01*
X173823509Y-84760474D01*
X174019744Y-84607738D01*
X174188164Y-84424785D01*
X174324173Y-84216607D01*
X174424063Y-83988881D01*
X174485108Y-83747821D01*
X174494918Y-83629431D01*
X174505643Y-83500005D01*
X174505643Y-83499994D01*
X174485109Y-83252187D01*
X174485107Y-83252175D01*
X174424063Y-83011118D01*
X174324173Y-82783393D01*
X174188166Y-82575217D01*
X174166557Y-82551744D01*
X174019744Y-82392262D01*
X173823509Y-82239526D01*
X173823507Y-82239525D01*
X173823506Y-82239524D01*
X173604811Y-82121172D01*
X173604802Y-82121169D01*
X173369616Y-82040429D01*
X173124335Y-81999500D01*
X172875665Y-81999500D01*
X172630383Y-82040429D01*
X172395197Y-82121169D01*
X172395188Y-82121172D01*
X172176493Y-82239524D01*
X171980257Y-82392261D01*
X171811833Y-82575217D01*
X171675826Y-82783393D01*
X171575936Y-83011118D01*
X171514892Y-83252175D01*
X171514890Y-83252187D01*
X171494357Y-83499994D01*
X168005643Y-83499994D01*
X167985109Y-83252187D01*
X167985107Y-83252175D01*
X167924063Y-83011118D01*
X167824173Y-82783393D01*
X167688166Y-82575217D01*
X167666557Y-82551744D01*
X167519744Y-82392262D01*
X167323509Y-82239526D01*
X167323507Y-82239525D01*
X167323506Y-82239524D01*
X167104811Y-82121172D01*
X167104802Y-82121169D01*
X166869616Y-82040429D01*
X166624335Y-81999500D01*
X166375665Y-81999500D01*
X166130383Y-82040429D01*
X165895197Y-82121169D01*
X165895188Y-82121172D01*
X165676493Y-82239524D01*
X165480257Y-82392261D01*
X165311833Y-82575217D01*
X165175826Y-82783393D01*
X165075936Y-83011118D01*
X165014892Y-83252175D01*
X165014890Y-83252187D01*
X164994357Y-83499994D01*
X163201787Y-83499994D01*
X163130568Y-83347266D01*
X163000047Y-83160861D01*
X163000045Y-83160858D01*
X162839140Y-82999953D01*
X162653377Y-82869881D01*
X162609752Y-82815304D01*
X162600500Y-82768306D01*
X162600500Y-82189059D01*
X162600501Y-82189046D01*
X162600501Y-82020945D01*
X162600501Y-82020943D01*
X162559577Y-81868215D01*
X162530639Y-81818095D01*
X162480520Y-81731284D01*
X162368716Y-81619480D01*
X162368715Y-81619479D01*
X162364385Y-81615149D01*
X162364374Y-81615139D01*
X159749232Y-78999997D01*
X160695034Y-78999997D01*
X160695034Y-79000002D01*
X160714858Y-79226599D01*
X160714860Y-79226610D01*
X160773730Y-79446317D01*
X160773735Y-79446331D01*
X160869863Y-79652478D01*
X160920974Y-79725472D01*
X161600000Y-79046446D01*
X161600000Y-79052661D01*
X161627259Y-79154394D01*
X161679920Y-79245606D01*
X161754394Y-79320080D01*
X161845606Y-79372741D01*
X161947339Y-79400000D01*
X161953553Y-79400000D01*
X161274526Y-80079025D01*
X161347513Y-80130132D01*
X161347521Y-80130136D01*
X161553668Y-80226264D01*
X161553682Y-80226269D01*
X161773389Y-80285139D01*
X161773400Y-80285141D01*
X161999998Y-80304966D01*
X162000002Y-80304966D01*
X162226599Y-80285141D01*
X162226610Y-80285139D01*
X162446317Y-80226269D01*
X162446331Y-80226264D01*
X162652478Y-80130136D01*
X162725471Y-80079024D01*
X162046447Y-79400000D01*
X162052661Y-79400000D01*
X162154394Y-79372741D01*
X162245606Y-79320080D01*
X162320080Y-79245606D01*
X162372741Y-79154394D01*
X162400000Y-79052661D01*
X162400000Y-79046447D01*
X163079024Y-79725471D01*
X163130136Y-79652478D01*
X163226264Y-79446331D01*
X163226269Y-79446317D01*
X163285139Y-79226610D01*
X163285141Y-79226599D01*
X163304966Y-79000002D01*
X163304966Y-78999997D01*
X163304966Y-78999994D01*
X164994859Y-78999994D01*
X164994859Y-79000005D01*
X165015385Y-79247729D01*
X165015387Y-79247738D01*
X165076412Y-79488717D01*
X165176266Y-79716364D01*
X165276564Y-79869882D01*
X165976212Y-79170234D01*
X165987482Y-79212292D01*
X166059890Y-79337708D01*
X166162292Y-79440110D01*
X166287708Y-79512518D01*
X166329765Y-79523787D01*
X165629942Y-80223609D01*
X165676768Y-80260055D01*
X165676770Y-80260056D01*
X165895385Y-80378364D01*
X165895396Y-80378369D01*
X166130506Y-80459083D01*
X166375707Y-80500000D01*
X166624293Y-80500000D01*
X166869493Y-80459083D01*
X167104603Y-80378369D01*
X167104614Y-80378364D01*
X167323228Y-80260057D01*
X167323231Y-80260055D01*
X167370056Y-80223609D01*
X166670234Y-79523787D01*
X166712292Y-79512518D01*
X166837708Y-79440110D01*
X166940110Y-79337708D01*
X167012518Y-79212292D01*
X167023787Y-79170234D01*
X167723434Y-79869882D01*
X167823731Y-79716369D01*
X167923587Y-79488717D01*
X167984612Y-79247738D01*
X167984614Y-79247729D01*
X168005141Y-79000005D01*
X168005141Y-78999994D01*
X171494859Y-78999994D01*
X171494859Y-79000005D01*
X171515385Y-79247729D01*
X171515387Y-79247738D01*
X171576412Y-79488717D01*
X171676266Y-79716364D01*
X171776564Y-79869882D01*
X172476212Y-79170234D01*
X172487482Y-79212292D01*
X172559890Y-79337708D01*
X172662292Y-79440110D01*
X172787708Y-79512518D01*
X172829765Y-79523787D01*
X172129942Y-80223609D01*
X172176768Y-80260055D01*
X172176770Y-80260056D01*
X172395385Y-80378364D01*
X172395396Y-80378369D01*
X172630506Y-80459083D01*
X172875707Y-80500000D01*
X173124293Y-80500000D01*
X173369493Y-80459083D01*
X173604603Y-80378369D01*
X173604614Y-80378364D01*
X173823228Y-80260057D01*
X173823231Y-80260055D01*
X173870056Y-80223609D01*
X173170234Y-79523787D01*
X173212292Y-79512518D01*
X173337708Y-79440110D01*
X173440110Y-79337708D01*
X173512518Y-79212292D01*
X173523787Y-79170234D01*
X174223434Y-79869882D01*
X174323731Y-79716369D01*
X174423587Y-79488717D01*
X174484612Y-79247738D01*
X174484614Y-79247729D01*
X174505141Y-79000005D01*
X174505141Y-78999994D01*
X174484614Y-78752270D01*
X174484612Y-78752261D01*
X174423587Y-78511282D01*
X174323731Y-78283630D01*
X174223434Y-78130116D01*
X173523787Y-78829764D01*
X173512518Y-78787708D01*
X173440110Y-78662292D01*
X173337708Y-78559890D01*
X173212292Y-78487482D01*
X173170235Y-78476212D01*
X173870057Y-77776390D01*
X173870056Y-77776389D01*
X173823229Y-77739943D01*
X173604614Y-77621635D01*
X173604603Y-77621630D01*
X173369493Y-77540916D01*
X173124293Y-77500000D01*
X172875707Y-77500000D01*
X172630506Y-77540916D01*
X172395396Y-77621630D01*
X172395390Y-77621632D01*
X172176761Y-77739949D01*
X172129942Y-77776388D01*
X172129942Y-77776390D01*
X172829765Y-78476212D01*
X172787708Y-78487482D01*
X172662292Y-78559890D01*
X172559890Y-78662292D01*
X172487482Y-78787708D01*
X172476212Y-78829764D01*
X171776564Y-78130116D01*
X171676267Y-78283632D01*
X171576412Y-78511282D01*
X171515387Y-78752261D01*
X171515385Y-78752270D01*
X171494859Y-78999994D01*
X168005141Y-78999994D01*
X167984614Y-78752270D01*
X167984612Y-78752261D01*
X167923587Y-78511282D01*
X167823731Y-78283630D01*
X167723434Y-78130116D01*
X167023787Y-78829764D01*
X167012518Y-78787708D01*
X166940110Y-78662292D01*
X166837708Y-78559890D01*
X166712292Y-78487482D01*
X166670235Y-78476212D01*
X167370057Y-77776390D01*
X167370056Y-77776389D01*
X167323229Y-77739943D01*
X167104614Y-77621635D01*
X167104603Y-77621630D01*
X166869493Y-77540916D01*
X166624293Y-77500000D01*
X166375707Y-77500000D01*
X166130506Y-77540916D01*
X165895396Y-77621630D01*
X165895390Y-77621632D01*
X165676761Y-77739949D01*
X165629942Y-77776388D01*
X165629942Y-77776390D01*
X166329765Y-78476212D01*
X166287708Y-78487482D01*
X166162292Y-78559890D01*
X166059890Y-78662292D01*
X165987482Y-78787708D01*
X165976212Y-78829764D01*
X165276564Y-78130116D01*
X165176267Y-78283632D01*
X165076412Y-78511282D01*
X165015387Y-78752261D01*
X165015385Y-78752270D01*
X164994859Y-78999994D01*
X163304966Y-78999994D01*
X163285141Y-78773400D01*
X163285139Y-78773389D01*
X163226269Y-78553682D01*
X163226264Y-78553668D01*
X163130136Y-78347521D01*
X163130132Y-78347513D01*
X163079025Y-78274526D01*
X162400000Y-78953551D01*
X162400000Y-78947339D01*
X162372741Y-78845606D01*
X162320080Y-78754394D01*
X162245606Y-78679920D01*
X162154394Y-78627259D01*
X162052661Y-78600000D01*
X162046448Y-78600000D01*
X162725472Y-77920974D01*
X162652478Y-77869863D01*
X162446331Y-77773735D01*
X162446317Y-77773730D01*
X162226610Y-77714860D01*
X162226599Y-77714858D01*
X162000002Y-77695034D01*
X161999998Y-77695034D01*
X161773400Y-77714858D01*
X161773389Y-77714860D01*
X161553682Y-77773730D01*
X161553673Y-77773734D01*
X161347516Y-77869866D01*
X161347512Y-77869868D01*
X161274526Y-77920973D01*
X161274526Y-77920974D01*
X161953553Y-78600000D01*
X161947339Y-78600000D01*
X161845606Y-78627259D01*
X161754394Y-78679920D01*
X161679920Y-78754394D01*
X161627259Y-78845606D01*
X161600000Y-78947339D01*
X161600000Y-78953552D01*
X160920974Y-78274526D01*
X160920973Y-78274526D01*
X160869868Y-78347512D01*
X160869866Y-78347516D01*
X160773734Y-78553673D01*
X160773730Y-78553682D01*
X160714860Y-78773389D01*
X160714858Y-78773400D01*
X160695034Y-78999997D01*
X159749232Y-78999997D01*
X159387590Y-78638355D01*
X159387588Y-78638352D01*
X159268717Y-78519481D01*
X159262265Y-78514530D01*
X159263732Y-78512617D01*
X159223971Y-78470905D01*
X159210757Y-78402297D01*
X159236734Y-78337435D01*
X159293653Y-78296914D01*
X159302067Y-78294335D01*
X159431785Y-78259577D01*
X159481904Y-78230639D01*
X159568716Y-78180520D01*
X159680520Y-78068716D01*
X159680520Y-78068714D01*
X159690728Y-78058507D01*
X159690730Y-78058504D01*
X162368713Y-75380521D01*
X162368716Y-75380520D01*
X162480520Y-75268716D01*
X162530639Y-75181904D01*
X162559577Y-75131785D01*
X162600501Y-74979057D01*
X162600501Y-74820943D01*
X162600501Y-74813348D01*
X162600500Y-74813330D01*
X162600500Y-73231692D01*
X162620185Y-73164653D01*
X162653374Y-73130119D01*
X162839139Y-73000047D01*
X163000047Y-72839139D01*
X163130568Y-72652734D01*
X163226739Y-72446496D01*
X163285635Y-72226692D01*
X163305468Y-72000000D01*
X163285635Y-71773308D01*
X163226739Y-71553504D01*
X163201787Y-71499994D01*
X164494357Y-71499994D01*
X164494357Y-71500005D01*
X164514890Y-71747812D01*
X164514892Y-71747824D01*
X164575936Y-71988881D01*
X164675826Y-72216606D01*
X164811833Y-72424782D01*
X164811836Y-72424785D01*
X164980256Y-72607738D01*
X165176491Y-72760474D01*
X165395190Y-72878828D01*
X165630386Y-72959571D01*
X165875665Y-73000500D01*
X166124335Y-73000500D01*
X166369614Y-72959571D01*
X166604810Y-72878828D01*
X166823509Y-72760474D01*
X167019744Y-72607738D01*
X167188164Y-72424785D01*
X167324173Y-72216607D01*
X167424063Y-71988881D01*
X167485108Y-71747821D01*
X167485109Y-71747812D01*
X167505643Y-71500005D01*
X167505643Y-71499994D01*
X170994357Y-71499994D01*
X170994357Y-71500005D01*
X171014890Y-71747812D01*
X171014892Y-71747824D01*
X171075936Y-71988881D01*
X171175826Y-72216606D01*
X171311833Y-72424782D01*
X171311836Y-72424785D01*
X171480256Y-72607738D01*
X171676491Y-72760474D01*
X171895190Y-72878828D01*
X172130386Y-72959571D01*
X172375665Y-73000500D01*
X172624335Y-73000500D01*
X172869614Y-72959571D01*
X173104810Y-72878828D01*
X173323509Y-72760474D01*
X173519744Y-72607738D01*
X173688164Y-72424785D01*
X173824173Y-72216607D01*
X173924063Y-71988881D01*
X173985108Y-71747821D01*
X173985109Y-71747812D01*
X174005643Y-71500005D01*
X174005643Y-71499994D01*
X173985109Y-71252187D01*
X173985107Y-71252175D01*
X173924063Y-71011118D01*
X173824173Y-70783393D01*
X173688166Y-70575217D01*
X173637376Y-70520045D01*
X173519744Y-70392262D01*
X173323509Y-70239526D01*
X173323507Y-70239525D01*
X173323506Y-70239524D01*
X173104811Y-70121172D01*
X173104802Y-70121169D01*
X172869616Y-70040429D01*
X172624335Y-69999500D01*
X172375665Y-69999500D01*
X172130383Y-70040429D01*
X171895197Y-70121169D01*
X171895188Y-70121172D01*
X171676493Y-70239524D01*
X171480257Y-70392261D01*
X171311833Y-70575217D01*
X171175826Y-70783393D01*
X171075936Y-71011118D01*
X171014892Y-71252175D01*
X171014890Y-71252187D01*
X170994357Y-71499994D01*
X167505643Y-71499994D01*
X167485109Y-71252187D01*
X167485107Y-71252175D01*
X167424063Y-71011118D01*
X167324173Y-70783393D01*
X167188166Y-70575217D01*
X167137376Y-70520045D01*
X167019744Y-70392262D01*
X166823509Y-70239526D01*
X166823507Y-70239525D01*
X166823506Y-70239524D01*
X166604811Y-70121172D01*
X166604802Y-70121169D01*
X166369616Y-70040429D01*
X166124335Y-69999500D01*
X165875665Y-69999500D01*
X165630383Y-70040429D01*
X165395197Y-70121169D01*
X165395188Y-70121172D01*
X165176493Y-70239524D01*
X164980257Y-70392261D01*
X164811833Y-70575217D01*
X164675826Y-70783393D01*
X164575936Y-71011118D01*
X164514892Y-71252175D01*
X164514890Y-71252187D01*
X164494357Y-71499994D01*
X163201787Y-71499994D01*
X163130568Y-71347266D01*
X163000047Y-71160861D01*
X163000045Y-71160858D01*
X162839141Y-70999954D01*
X162652734Y-70869432D01*
X162652732Y-70869431D01*
X162446497Y-70773261D01*
X162446488Y-70773258D01*
X162226697Y-70714366D01*
X162226693Y-70714365D01*
X162226692Y-70714365D01*
X162226691Y-70714364D01*
X162226686Y-70714364D01*
X162000002Y-70694532D01*
X161999998Y-70694532D01*
X161773313Y-70714364D01*
X161773302Y-70714366D01*
X161553511Y-70773258D01*
X161553502Y-70773261D01*
X161347267Y-70869431D01*
X161347265Y-70869432D01*
X161160858Y-70999954D01*
X160999954Y-71160858D01*
X160869432Y-71347265D01*
X160869431Y-71347267D01*
X160773261Y-71553502D01*
X160773258Y-71553511D01*
X160714366Y-71773302D01*
X160714364Y-71773313D01*
X160694532Y-71999998D01*
X160694532Y-72000001D01*
X160714364Y-72226686D01*
X160714366Y-72226697D01*
X160773258Y-72446488D01*
X160773261Y-72446497D01*
X160869431Y-72652732D01*
X160869432Y-72652734D01*
X160999954Y-72839141D01*
X161160858Y-73000045D01*
X161160861Y-73000047D01*
X161346624Y-73130118D01*
X161390248Y-73184693D01*
X161399500Y-73231692D01*
X161399500Y-74599903D01*
X161379815Y-74666942D01*
X161363181Y-74687584D01*
X158987584Y-77063181D01*
X158926261Y-77096666D01*
X158899903Y-77099500D01*
X154020943Y-77099500D01*
X153868216Y-77140423D01*
X153868209Y-77140426D01*
X153731290Y-77219475D01*
X153731282Y-77219481D01*
X153619481Y-77331282D01*
X153619475Y-77331290D01*
X153540426Y-77468209D01*
X153540423Y-77468216D01*
X153499500Y-77620943D01*
X153499500Y-87599902D01*
X153479815Y-87666941D01*
X153463181Y-87687583D01*
X152025097Y-89125666D01*
X151963774Y-89159151D01*
X151894082Y-89154167D01*
X151838149Y-89112295D01*
X151835869Y-89109147D01*
X151760047Y-89000861D01*
X151760046Y-89000860D01*
X151760044Y-89000857D01*
X151599141Y-88839954D01*
X151412734Y-88709432D01*
X151412728Y-88709429D01*
X151354725Y-88682382D01*
X151302285Y-88636210D01*
X151283133Y-88569017D01*
X151303348Y-88502135D01*
X151354725Y-88457618D01*
X151412734Y-88430568D01*
X151599139Y-88300047D01*
X151679211Y-88219975D01*
X151760047Y-88139140D01*
X151842808Y-88020943D01*
X151890568Y-87952734D01*
X151986739Y-87746496D01*
X152045635Y-87526692D01*
X152065468Y-87300000D01*
X152045635Y-87073308D01*
X151986739Y-86853504D01*
X151890568Y-86647266D01*
X151760047Y-86460861D01*
X151760045Y-86460858D01*
X151599141Y-86299954D01*
X151412734Y-86169432D01*
X151412728Y-86169429D01*
X151354725Y-86142382D01*
X151302285Y-86096210D01*
X151283133Y-86029017D01*
X151303348Y-85962135D01*
X151354725Y-85917618D01*
X151412734Y-85890568D01*
X151599139Y-85760047D01*
X151760047Y-85599139D01*
X151890568Y-85412734D01*
X151986739Y-85206496D01*
X152045635Y-84986692D01*
X152062634Y-84792384D01*
X152065468Y-84760001D01*
X152065468Y-84759998D01*
X152045635Y-84533313D01*
X152045635Y-84533308D01*
X151986739Y-84313504D01*
X151890568Y-84107266D01*
X151760047Y-83920861D01*
X151760045Y-83920858D01*
X151599141Y-83759954D01*
X151412734Y-83629432D01*
X151412728Y-83629429D01*
X151354725Y-83602382D01*
X151302285Y-83556210D01*
X151283133Y-83489017D01*
X151303348Y-83422135D01*
X151354725Y-83377618D01*
X151412734Y-83350568D01*
X151599139Y-83220047D01*
X151760047Y-83059139D01*
X151890568Y-82872734D01*
X151986739Y-82666496D01*
X152045635Y-82446692D01*
X152065468Y-82220000D01*
X152045635Y-81993308D01*
X151986739Y-81773504D01*
X151890568Y-81567266D01*
X151760047Y-81380861D01*
X151760045Y-81380858D01*
X151599141Y-81219954D01*
X151412734Y-81089432D01*
X151412728Y-81089429D01*
X151354725Y-81062382D01*
X151302285Y-81016210D01*
X151283133Y-80949017D01*
X151303348Y-80882135D01*
X151354725Y-80837618D01*
X151412734Y-80810568D01*
X151599139Y-80680047D01*
X151760047Y-80519139D01*
X151890568Y-80332734D01*
X151986739Y-80126496D01*
X152045635Y-79906692D01*
X152065468Y-79680000D01*
X152045635Y-79453308D01*
X151986739Y-79233504D01*
X151890568Y-79027266D01*
X151792839Y-78887693D01*
X151760045Y-78840858D01*
X151599141Y-78679954D01*
X151412734Y-78549432D01*
X151412728Y-78549429D01*
X151354725Y-78522382D01*
X151302285Y-78476210D01*
X151283133Y-78409017D01*
X151303348Y-78342135D01*
X151354725Y-78297618D01*
X151361787Y-78294325D01*
X151412734Y-78270568D01*
X151599139Y-78140047D01*
X151760047Y-77979139D01*
X151890568Y-77792734D01*
X151986739Y-77586496D01*
X152045635Y-77366692D01*
X152065468Y-77140000D01*
X152045635Y-76913308D01*
X151986739Y-76693504D01*
X151890568Y-76487266D01*
X151760047Y-76300861D01*
X151760045Y-76300858D01*
X151599141Y-76139954D01*
X151412734Y-76009432D01*
X151412728Y-76009429D01*
X151354725Y-75982382D01*
X151302285Y-75936210D01*
X151283133Y-75869017D01*
X151303348Y-75802135D01*
X151354725Y-75757618D01*
X151412734Y-75730568D01*
X151599139Y-75600047D01*
X151760047Y-75439139D01*
X151890568Y-75252734D01*
X151986739Y-75046496D01*
X152045635Y-74826692D01*
X152047096Y-74809998D01*
X155694532Y-74809998D01*
X155694532Y-74810001D01*
X155714364Y-75036686D01*
X155714366Y-75036697D01*
X155773258Y-75256488D01*
X155773261Y-75256497D01*
X155869431Y-75462732D01*
X155869432Y-75462734D01*
X155999954Y-75649141D01*
X156160858Y-75810045D01*
X156160861Y-75810047D01*
X156347266Y-75940568D01*
X156553504Y-76036739D01*
X156773308Y-76095635D01*
X156935230Y-76109801D01*
X156999998Y-76115468D01*
X157000000Y-76115468D01*
X157000002Y-76115468D01*
X157056673Y-76110509D01*
X157226692Y-76095635D01*
X157446496Y-76036739D01*
X157652734Y-75940568D01*
X157839139Y-75810047D01*
X158000047Y-75649139D01*
X158130568Y-75462734D01*
X158226739Y-75256496D01*
X158285635Y-75036692D01*
X158305468Y-74810000D01*
X158285635Y-74583308D01*
X158226739Y-74363504D01*
X158130568Y-74157266D01*
X158000047Y-73970861D01*
X158000045Y-73970858D01*
X157839141Y-73809954D01*
X157652734Y-73679432D01*
X157652732Y-73679431D01*
X157446497Y-73583261D01*
X157446488Y-73583258D01*
X157226697Y-73524366D01*
X157226693Y-73524365D01*
X157226692Y-73524365D01*
X157226691Y-73524364D01*
X157226686Y-73524364D01*
X157000002Y-73504532D01*
X156999998Y-73504532D01*
X156773313Y-73524364D01*
X156773302Y-73524366D01*
X156553511Y-73583258D01*
X156553502Y-73583261D01*
X156347267Y-73679431D01*
X156347265Y-73679432D01*
X156160858Y-73809954D01*
X155999954Y-73970858D01*
X155869432Y-74157265D01*
X155869431Y-74157267D01*
X155773261Y-74363502D01*
X155773258Y-74363511D01*
X155714366Y-74583302D01*
X155714364Y-74583313D01*
X155694532Y-74809998D01*
X152047096Y-74809998D01*
X152065468Y-74600000D01*
X152045635Y-74373308D01*
X151986739Y-74153504D01*
X151890568Y-73947266D01*
X151760047Y-73760861D01*
X151760045Y-73760858D01*
X151599141Y-73599954D01*
X151412734Y-73469432D01*
X151412728Y-73469429D01*
X151354725Y-73442382D01*
X151302285Y-73396210D01*
X151283133Y-73329017D01*
X151303348Y-73262135D01*
X151354725Y-73217618D01*
X151412734Y-73190568D01*
X151599139Y-73060047D01*
X151760047Y-72899139D01*
X151890568Y-72712734D01*
X151986739Y-72506496D01*
X152045635Y-72286692D01*
X152065468Y-72060000D01*
X152060218Y-71999998D01*
X152045635Y-71833313D01*
X152045635Y-71833308D01*
X151986739Y-71613504D01*
X151890568Y-71407266D01*
X151760047Y-71220861D01*
X151760045Y-71220858D01*
X151599141Y-71059954D01*
X151412734Y-70929432D01*
X151412728Y-70929429D01*
X151354725Y-70902382D01*
X151302285Y-70856210D01*
X151283133Y-70789017D01*
X151303348Y-70722135D01*
X151354725Y-70677618D01*
X151412734Y-70650568D01*
X151599139Y-70520047D01*
X151760047Y-70359139D01*
X151890568Y-70172734D01*
X151986739Y-69966496D01*
X152045635Y-69746692D01*
X152065468Y-69520000D01*
X152045635Y-69293308D01*
X151986739Y-69073504D01*
X151890568Y-68867266D01*
X151760047Y-68680861D01*
X151760045Y-68680858D01*
X151599141Y-68519954D01*
X151412734Y-68389432D01*
X151412728Y-68389429D01*
X151354725Y-68362382D01*
X151302285Y-68316210D01*
X151283133Y-68249017D01*
X151303348Y-68182135D01*
X151354725Y-68137618D01*
X151412734Y-68110568D01*
X151599139Y-67980047D01*
X151760047Y-67819139D01*
X151890568Y-67632734D01*
X151986739Y-67426496D01*
X152045635Y-67206692D01*
X152047096Y-67189998D01*
X155694532Y-67189998D01*
X155694532Y-67190001D01*
X155714364Y-67416686D01*
X155714366Y-67416697D01*
X155773258Y-67636488D01*
X155773261Y-67636497D01*
X155869431Y-67842732D01*
X155869432Y-67842734D01*
X155999954Y-68029141D01*
X156160858Y-68190045D01*
X156160861Y-68190047D01*
X156347266Y-68320568D01*
X156553504Y-68416739D01*
X156773308Y-68475635D01*
X156935230Y-68489801D01*
X156999998Y-68495468D01*
X157000000Y-68495468D01*
X157000002Y-68495468D01*
X157056673Y-68490509D01*
X157226692Y-68475635D01*
X157446496Y-68416739D01*
X157652734Y-68320568D01*
X157839139Y-68190047D01*
X158000047Y-68029139D01*
X158130568Y-67842734D01*
X158226739Y-67636496D01*
X158285635Y-67416692D01*
X158305468Y-67190000D01*
X158288845Y-66999997D01*
X160695034Y-66999997D01*
X160695034Y-67000002D01*
X160714858Y-67226599D01*
X160714860Y-67226610D01*
X160773730Y-67446317D01*
X160773735Y-67446331D01*
X160869863Y-67652478D01*
X160920974Y-67725472D01*
X161600000Y-67046446D01*
X161600000Y-67052661D01*
X161627259Y-67154394D01*
X161679920Y-67245606D01*
X161754394Y-67320080D01*
X161845606Y-67372741D01*
X161947339Y-67400000D01*
X161953553Y-67400000D01*
X161274526Y-68079025D01*
X161347513Y-68130132D01*
X161347521Y-68130136D01*
X161553668Y-68226264D01*
X161553682Y-68226269D01*
X161773389Y-68285139D01*
X161773400Y-68285141D01*
X161999998Y-68304966D01*
X162000002Y-68304966D01*
X162226599Y-68285141D01*
X162226610Y-68285139D01*
X162446317Y-68226269D01*
X162446331Y-68226264D01*
X162652478Y-68130136D01*
X162725471Y-68079024D01*
X162046447Y-67400000D01*
X162052661Y-67400000D01*
X162154394Y-67372741D01*
X162245606Y-67320080D01*
X162320080Y-67245606D01*
X162372741Y-67154394D01*
X162400000Y-67052661D01*
X162400000Y-67046447D01*
X163079024Y-67725471D01*
X163130136Y-67652478D01*
X163226264Y-67446331D01*
X163226269Y-67446317D01*
X163285139Y-67226610D01*
X163285141Y-67226599D01*
X163304966Y-67000002D01*
X163304966Y-66999997D01*
X163304966Y-66999994D01*
X164494859Y-66999994D01*
X164494859Y-67000005D01*
X164515385Y-67247729D01*
X164515387Y-67247738D01*
X164576412Y-67488717D01*
X164676266Y-67716364D01*
X164776564Y-67869882D01*
X165476212Y-67170234D01*
X165487482Y-67212292D01*
X165559890Y-67337708D01*
X165662292Y-67440110D01*
X165787708Y-67512518D01*
X165829765Y-67523787D01*
X165129942Y-68223609D01*
X165176768Y-68260055D01*
X165176770Y-68260056D01*
X165395385Y-68378364D01*
X165395396Y-68378369D01*
X165630506Y-68459083D01*
X165875707Y-68500000D01*
X166124293Y-68500000D01*
X166369493Y-68459083D01*
X166604603Y-68378369D01*
X166604614Y-68378364D01*
X166823228Y-68260057D01*
X166823231Y-68260055D01*
X166870056Y-68223609D01*
X166170234Y-67523787D01*
X166212292Y-67512518D01*
X166337708Y-67440110D01*
X166440110Y-67337708D01*
X166512518Y-67212292D01*
X166523787Y-67170235D01*
X167223434Y-67869882D01*
X167323731Y-67716369D01*
X167423587Y-67488717D01*
X167484612Y-67247738D01*
X167484614Y-67247729D01*
X167505141Y-67000005D01*
X167505141Y-66999994D01*
X170994859Y-66999994D01*
X170994859Y-67000005D01*
X171015385Y-67247729D01*
X171015387Y-67247738D01*
X171076412Y-67488717D01*
X171176266Y-67716364D01*
X171276564Y-67869882D01*
X171976212Y-67170234D01*
X171987482Y-67212292D01*
X172059890Y-67337708D01*
X172162292Y-67440110D01*
X172287708Y-67512518D01*
X172329765Y-67523787D01*
X171629942Y-68223609D01*
X171676768Y-68260055D01*
X171676770Y-68260056D01*
X171895385Y-68378364D01*
X171895396Y-68378369D01*
X172130506Y-68459083D01*
X172375707Y-68500000D01*
X172624293Y-68500000D01*
X172869493Y-68459083D01*
X173104603Y-68378369D01*
X173104614Y-68378364D01*
X173323228Y-68260057D01*
X173323231Y-68260055D01*
X173370056Y-68223609D01*
X172670234Y-67523787D01*
X172712292Y-67512518D01*
X172837708Y-67440110D01*
X172940110Y-67337708D01*
X173012518Y-67212292D01*
X173023787Y-67170235D01*
X173723434Y-67869882D01*
X173823731Y-67716369D01*
X173923587Y-67488717D01*
X173984612Y-67247738D01*
X173984614Y-67247729D01*
X174005141Y-67000005D01*
X174005141Y-66999994D01*
X173984614Y-66752270D01*
X173984612Y-66752261D01*
X173923587Y-66511282D01*
X173823731Y-66283630D01*
X173723434Y-66130116D01*
X173023787Y-66829764D01*
X173012518Y-66787708D01*
X172940110Y-66662292D01*
X172837708Y-66559890D01*
X172712292Y-66487482D01*
X172670235Y-66476212D01*
X173370057Y-65776390D01*
X173370056Y-65776389D01*
X173323229Y-65739943D01*
X173104614Y-65621635D01*
X173104603Y-65621630D01*
X172869493Y-65540916D01*
X172624293Y-65500000D01*
X172375707Y-65500000D01*
X172130506Y-65540916D01*
X171895396Y-65621630D01*
X171895390Y-65621632D01*
X171676761Y-65739949D01*
X171629942Y-65776388D01*
X171629942Y-65776390D01*
X172329765Y-66476212D01*
X172287708Y-66487482D01*
X172162292Y-66559890D01*
X172059890Y-66662292D01*
X171987482Y-66787708D01*
X171976212Y-66829764D01*
X171276564Y-66130116D01*
X171176267Y-66283632D01*
X171076412Y-66511282D01*
X171015387Y-66752261D01*
X171015385Y-66752270D01*
X170994859Y-66999994D01*
X167505141Y-66999994D01*
X167484614Y-66752270D01*
X167484612Y-66752261D01*
X167423587Y-66511282D01*
X167323731Y-66283630D01*
X167223434Y-66130116D01*
X166523787Y-66829764D01*
X166512518Y-66787708D01*
X166440110Y-66662292D01*
X166337708Y-66559890D01*
X166212292Y-66487482D01*
X166170235Y-66476212D01*
X166870057Y-65776390D01*
X166870056Y-65776389D01*
X166823229Y-65739943D01*
X166604614Y-65621635D01*
X166604603Y-65621630D01*
X166369493Y-65540916D01*
X166124293Y-65500000D01*
X165875707Y-65500000D01*
X165630506Y-65540916D01*
X165395396Y-65621630D01*
X165395390Y-65621632D01*
X165176761Y-65739949D01*
X165129942Y-65776388D01*
X165129942Y-65776390D01*
X165829765Y-66476212D01*
X165787708Y-66487482D01*
X165662292Y-66559890D01*
X165559890Y-66662292D01*
X165487482Y-66787708D01*
X165476212Y-66829764D01*
X164776564Y-66130116D01*
X164676267Y-66283632D01*
X164576412Y-66511282D01*
X164515387Y-66752261D01*
X164515385Y-66752270D01*
X164494859Y-66999994D01*
X163304966Y-66999994D01*
X163285141Y-66773400D01*
X163285139Y-66773389D01*
X163226269Y-66553682D01*
X163226264Y-66553668D01*
X163130136Y-66347521D01*
X163130132Y-66347513D01*
X163079025Y-66274526D01*
X162400000Y-66953551D01*
X162400000Y-66947339D01*
X162372741Y-66845606D01*
X162320080Y-66754394D01*
X162245606Y-66679920D01*
X162154394Y-66627259D01*
X162052661Y-66600000D01*
X162046448Y-66600000D01*
X162725472Y-65920974D01*
X162652478Y-65869863D01*
X162446331Y-65773735D01*
X162446317Y-65773730D01*
X162226610Y-65714860D01*
X162226599Y-65714858D01*
X162000002Y-65695034D01*
X161999998Y-65695034D01*
X161773400Y-65714858D01*
X161773389Y-65714860D01*
X161553682Y-65773730D01*
X161553673Y-65773734D01*
X161347516Y-65869866D01*
X161347512Y-65869868D01*
X161274526Y-65920973D01*
X161274526Y-65920974D01*
X161953553Y-66600000D01*
X161947339Y-66600000D01*
X161845606Y-66627259D01*
X161754394Y-66679920D01*
X161679920Y-66754394D01*
X161627259Y-66845606D01*
X161600000Y-66947339D01*
X161600000Y-66953552D01*
X160920974Y-66274526D01*
X160920973Y-66274526D01*
X160869868Y-66347512D01*
X160869866Y-66347516D01*
X160773734Y-66553673D01*
X160773730Y-66553682D01*
X160714860Y-66773389D01*
X160714858Y-66773400D01*
X160695034Y-66999997D01*
X158288845Y-66999997D01*
X158285635Y-66963308D01*
X158229088Y-66752270D01*
X158226741Y-66743511D01*
X158226738Y-66743502D01*
X158181480Y-66646447D01*
X158130568Y-66537266D01*
X158000047Y-66350861D01*
X158000045Y-66350858D01*
X157839141Y-66189954D01*
X157652734Y-66059432D01*
X157652732Y-66059431D01*
X157446497Y-65963261D01*
X157446488Y-65963258D01*
X157226697Y-65904366D01*
X157226693Y-65904365D01*
X157226692Y-65904365D01*
X157226691Y-65904364D01*
X157226686Y-65904364D01*
X157000002Y-65884532D01*
X156999998Y-65884532D01*
X156773313Y-65904364D01*
X156773302Y-65904366D01*
X156553511Y-65963258D01*
X156553502Y-65963261D01*
X156347267Y-66059431D01*
X156347265Y-66059432D01*
X156160858Y-66189954D01*
X155999954Y-66350858D01*
X155869432Y-66537265D01*
X155869431Y-66537267D01*
X155773261Y-66743502D01*
X155773258Y-66743511D01*
X155714366Y-66963302D01*
X155714364Y-66963313D01*
X155694532Y-67189998D01*
X152047096Y-67189998D01*
X152063718Y-66999999D01*
X152065468Y-66980001D01*
X152065468Y-66979998D01*
X152053710Y-66845606D01*
X152045635Y-66753308D01*
X151986739Y-66533504D01*
X151890568Y-66327266D01*
X151760047Y-66140861D01*
X151760045Y-66140858D01*
X151599141Y-65979954D01*
X151412734Y-65849432D01*
X151412728Y-65849429D01*
X151354725Y-65822382D01*
X151302285Y-65776210D01*
X151283133Y-65709017D01*
X151303348Y-65642135D01*
X151354725Y-65597618D01*
X151412734Y-65570568D01*
X151599139Y-65440047D01*
X151760047Y-65279139D01*
X151890568Y-65092734D01*
X151986739Y-64886496D01*
X152045635Y-64666692D01*
X152065468Y-64440000D01*
X152045635Y-64213308D01*
X151986739Y-63993504D01*
X151890568Y-63787266D01*
X151760047Y-63600861D01*
X151760045Y-63600858D01*
X151599141Y-63439954D01*
X151412734Y-63309432D01*
X151412732Y-63309431D01*
X151206497Y-63213261D01*
X151206488Y-63213258D01*
X150986697Y-63154366D01*
X150986693Y-63154365D01*
X150986692Y-63154365D01*
X150986691Y-63154364D01*
X150986686Y-63154364D01*
X150760002Y-63134532D01*
X150759998Y-63134532D01*
X150533313Y-63154364D01*
X150533302Y-63154366D01*
X150313511Y-63213258D01*
X150313502Y-63213261D01*
X150107267Y-63309431D01*
X150107265Y-63309432D01*
X149920858Y-63439954D01*
X149759954Y-63600858D01*
X149629432Y-63787265D01*
X149629431Y-63787267D01*
X149533261Y-63993502D01*
X149533258Y-63993511D01*
X149474366Y-64213302D01*
X149474364Y-64213313D01*
X149454532Y-64439998D01*
X149454532Y-64440001D01*
X149474364Y-64666686D01*
X149474366Y-64666697D01*
X149533258Y-64886488D01*
X149533261Y-64886497D01*
X149629431Y-65092732D01*
X149629432Y-65092734D01*
X149759954Y-65279141D01*
X149920858Y-65440045D01*
X149920861Y-65440047D01*
X150107266Y-65570568D01*
X150165275Y-65597618D01*
X150217714Y-65643791D01*
X150236866Y-65710984D01*
X150216650Y-65777865D01*
X150165275Y-65822382D01*
X150107267Y-65849431D01*
X150107265Y-65849432D01*
X149920858Y-65979954D01*
X149759954Y-66140858D01*
X149629432Y-66327265D01*
X149629431Y-66327267D01*
X149533261Y-66533502D01*
X149533258Y-66533511D01*
X149474366Y-66753302D01*
X149474364Y-66753313D01*
X149454532Y-66979998D01*
X149454532Y-66980001D01*
X149474364Y-67206686D01*
X149474366Y-67206697D01*
X149533258Y-67426488D01*
X149533261Y-67426497D01*
X149629431Y-67632732D01*
X149629432Y-67632734D01*
X149759954Y-67819141D01*
X149920858Y-67980045D01*
X149920861Y-67980047D01*
X150107266Y-68110568D01*
X150165275Y-68137618D01*
X150217714Y-68183791D01*
X150236866Y-68250984D01*
X150216650Y-68317865D01*
X150165275Y-68362382D01*
X150107267Y-68389431D01*
X150107265Y-68389432D01*
X149920858Y-68519954D01*
X149759954Y-68680858D01*
X149629432Y-68867265D01*
X149629431Y-68867267D01*
X149533261Y-69073502D01*
X149533258Y-69073511D01*
X149474366Y-69293302D01*
X149474364Y-69293313D01*
X149454532Y-69519998D01*
X149454532Y-69520001D01*
X149474364Y-69746686D01*
X149474366Y-69746697D01*
X149533258Y-69966488D01*
X149533261Y-69966497D01*
X149629431Y-70172732D01*
X149629432Y-70172734D01*
X149759954Y-70359141D01*
X149920858Y-70520045D01*
X149920861Y-70520047D01*
X150107266Y-70650568D01*
X150165275Y-70677618D01*
X150217714Y-70723791D01*
X150236866Y-70790984D01*
X150216650Y-70857865D01*
X150165275Y-70902382D01*
X150107267Y-70929431D01*
X150107265Y-70929432D01*
X149920858Y-71059954D01*
X149759954Y-71220858D01*
X149629432Y-71407265D01*
X149629431Y-71407267D01*
X149533261Y-71613502D01*
X149533258Y-71613511D01*
X149474366Y-71833302D01*
X149474364Y-71833313D01*
X149454532Y-72059998D01*
X149454532Y-72060001D01*
X149474364Y-72286686D01*
X149474366Y-72286697D01*
X149533258Y-72506488D01*
X149533261Y-72506497D01*
X149629431Y-72712732D01*
X149629432Y-72712734D01*
X149759954Y-72899141D01*
X149920858Y-73060045D01*
X149920861Y-73060047D01*
X150107266Y-73190568D01*
X150165275Y-73217618D01*
X150217714Y-73263791D01*
X150236866Y-73330984D01*
X150216650Y-73397865D01*
X150165275Y-73442382D01*
X150107267Y-73469431D01*
X150107265Y-73469432D01*
X149920858Y-73599954D01*
X149759954Y-73760858D01*
X149629432Y-73947265D01*
X149629431Y-73947267D01*
X149533261Y-74153502D01*
X149533258Y-74153511D01*
X149474366Y-74373302D01*
X149474364Y-74373313D01*
X149454532Y-74599998D01*
X149454532Y-74600001D01*
X149474364Y-74826686D01*
X149474366Y-74826697D01*
X149533258Y-75046488D01*
X149533261Y-75046497D01*
X149629431Y-75252732D01*
X149629432Y-75252734D01*
X149759954Y-75439141D01*
X149920858Y-75600045D01*
X149920861Y-75600047D01*
X150107266Y-75730568D01*
X150165275Y-75757618D01*
X150217714Y-75803791D01*
X150236866Y-75870984D01*
X150216650Y-75937865D01*
X150165275Y-75982382D01*
X150107267Y-76009431D01*
X150107265Y-76009432D01*
X149920858Y-76139954D01*
X149759954Y-76300858D01*
X149629432Y-76487265D01*
X149629431Y-76487267D01*
X149533261Y-76693502D01*
X149533258Y-76693511D01*
X149474366Y-76913302D01*
X149474364Y-76913313D01*
X149454532Y-77139998D01*
X149454532Y-77140001D01*
X149474364Y-77366686D01*
X149474366Y-77366697D01*
X149533258Y-77586488D01*
X149533261Y-77586497D01*
X149629431Y-77792732D01*
X149629432Y-77792734D01*
X149759954Y-77979141D01*
X149920858Y-78140045D01*
X149920861Y-78140047D01*
X150107266Y-78270568D01*
X150135282Y-78283632D01*
X150165275Y-78297618D01*
X150217714Y-78343791D01*
X150236866Y-78410984D01*
X150216650Y-78477865D01*
X150165275Y-78522382D01*
X150107267Y-78549431D01*
X150107265Y-78549432D01*
X149920858Y-78679954D01*
X149759954Y-78840858D01*
X149629432Y-79027265D01*
X149629431Y-79027267D01*
X149533261Y-79233502D01*
X149533258Y-79233511D01*
X149474366Y-79453302D01*
X149474364Y-79453313D01*
X149454532Y-79679998D01*
X149454532Y-79680001D01*
X149474364Y-79906686D01*
X149474366Y-79906697D01*
X149533258Y-80126488D01*
X149533261Y-80126497D01*
X149629431Y-80332732D01*
X149629432Y-80332734D01*
X149759954Y-80519141D01*
X149920858Y-80680045D01*
X149920861Y-80680047D01*
X150107266Y-80810568D01*
X150165275Y-80837618D01*
X150217714Y-80883791D01*
X150236866Y-80950984D01*
X150216650Y-81017865D01*
X150165275Y-81062382D01*
X150107267Y-81089431D01*
X150107265Y-81089432D01*
X149920858Y-81219954D01*
X149759954Y-81380858D01*
X149629432Y-81567265D01*
X149629431Y-81567267D01*
X149533261Y-81773502D01*
X149533258Y-81773511D01*
X149474366Y-81993302D01*
X149474364Y-81993313D01*
X149454532Y-82219998D01*
X149454532Y-82220001D01*
X149474364Y-82446686D01*
X149474366Y-82446697D01*
X149533258Y-82666488D01*
X149533261Y-82666497D01*
X149629431Y-82872732D01*
X149629432Y-82872734D01*
X149759954Y-83059141D01*
X149920858Y-83220045D01*
X149920861Y-83220047D01*
X150107266Y-83350568D01*
X150165275Y-83377618D01*
X150217714Y-83423791D01*
X150236866Y-83490984D01*
X150216650Y-83557865D01*
X150165275Y-83602382D01*
X150107267Y-83629431D01*
X150107265Y-83629432D01*
X149920858Y-83759954D01*
X149759954Y-83920858D01*
X149629432Y-84107265D01*
X149629431Y-84107267D01*
X149533261Y-84313502D01*
X149533258Y-84313511D01*
X149474366Y-84533302D01*
X149474364Y-84533313D01*
X149454532Y-84759998D01*
X149454532Y-84760001D01*
X149474364Y-84986686D01*
X149474366Y-84986697D01*
X149500152Y-85082931D01*
X149498489Y-85152781D01*
X149468058Y-85202705D01*
X149031286Y-85639478D01*
X148919481Y-85751282D01*
X148919479Y-85751285D01*
X148902406Y-85780858D01*
X148878660Y-85821987D01*
X148840423Y-85888215D01*
X148799499Y-86040943D01*
X148799499Y-86040945D01*
X148799499Y-86209046D01*
X148799500Y-86209059D01*
X148799500Y-90517587D01*
X148779815Y-90584626D01*
X148772450Y-90594896D01*
X148770186Y-90597734D01*
X148674211Y-90750476D01*
X148614631Y-90920745D01*
X148614630Y-90920750D01*
X148594435Y-91099996D01*
X136045860Y-91099996D01*
X136063348Y-91042135D01*
X136114725Y-90997618D01*
X136172734Y-90970568D01*
X136359139Y-90840047D01*
X136520047Y-90679139D01*
X136650568Y-90492734D01*
X136746739Y-90286496D01*
X136805635Y-90066692D01*
X136825468Y-89840000D01*
X136805635Y-89613308D01*
X136746739Y-89393504D01*
X136650568Y-89187266D01*
X136520047Y-89000861D01*
X136520045Y-89000858D01*
X136359141Y-88839954D01*
X136172734Y-88709432D01*
X136172728Y-88709429D01*
X136114725Y-88682382D01*
X136062285Y-88636210D01*
X136043133Y-88569017D01*
X136063348Y-88502135D01*
X136114725Y-88457618D01*
X136172734Y-88430568D01*
X136359139Y-88300047D01*
X136439211Y-88219975D01*
X136520047Y-88139140D01*
X136602808Y-88020943D01*
X136650568Y-87952734D01*
X136746739Y-87746496D01*
X136805635Y-87526692D01*
X136825468Y-87300000D01*
X136805635Y-87073308D01*
X136746739Y-86853504D01*
X136650568Y-86647266D01*
X136520047Y-86460861D01*
X136520045Y-86460858D01*
X136359141Y-86299954D01*
X136172734Y-86169432D01*
X136172728Y-86169429D01*
X136114725Y-86142382D01*
X136062285Y-86096210D01*
X136043133Y-86029017D01*
X136063348Y-85962135D01*
X136114725Y-85917618D01*
X136172734Y-85890568D01*
X136359139Y-85760047D01*
X136520047Y-85599139D01*
X136650568Y-85412734D01*
X136746739Y-85206496D01*
X136805635Y-84986692D01*
X136822634Y-84792384D01*
X136825468Y-84760001D01*
X136825468Y-84759998D01*
X136805635Y-84533313D01*
X136805635Y-84533308D01*
X136746739Y-84313504D01*
X136650568Y-84107266D01*
X136520047Y-83920861D01*
X136520045Y-83920858D01*
X136359141Y-83759954D01*
X136172734Y-83629432D01*
X136172728Y-83629429D01*
X136114725Y-83602382D01*
X136062285Y-83556210D01*
X136043133Y-83489017D01*
X136063348Y-83422135D01*
X136114725Y-83377618D01*
X136172734Y-83350568D01*
X136359139Y-83220047D01*
X136520047Y-83059139D01*
X136650568Y-82872734D01*
X136746739Y-82666496D01*
X136805635Y-82446692D01*
X136825468Y-82220000D01*
X136805635Y-81993308D01*
X136746739Y-81773504D01*
X136650568Y-81567266D01*
X136520047Y-81380861D01*
X136520045Y-81380858D01*
X136359141Y-81219954D01*
X136172734Y-81089432D01*
X136172728Y-81089429D01*
X136114725Y-81062382D01*
X136062285Y-81016210D01*
X136043133Y-80949017D01*
X136063348Y-80882135D01*
X136114725Y-80837618D01*
X136172734Y-80810568D01*
X136359139Y-80680047D01*
X136520047Y-80519139D01*
X136650568Y-80332734D01*
X136746739Y-80126496D01*
X136805635Y-79906692D01*
X136825468Y-79680000D01*
X136805635Y-79453308D01*
X136746739Y-79233504D01*
X136650568Y-79027266D01*
X136552839Y-78887693D01*
X136520045Y-78840858D01*
X136359141Y-78679954D01*
X136172734Y-78549432D01*
X136172728Y-78549429D01*
X136114725Y-78522382D01*
X136062285Y-78476210D01*
X136043133Y-78409017D01*
X136063348Y-78342135D01*
X136114725Y-78297618D01*
X136121787Y-78294325D01*
X136172734Y-78270568D01*
X136359139Y-78140047D01*
X136520047Y-77979139D01*
X136650568Y-77792734D01*
X136746739Y-77586496D01*
X136805635Y-77366692D01*
X136825468Y-77140000D01*
X136805635Y-76913308D01*
X136746739Y-76693504D01*
X136650568Y-76487266D01*
X136520047Y-76300861D01*
X136520045Y-76300858D01*
X136359141Y-76139954D01*
X136172734Y-76009432D01*
X136172728Y-76009429D01*
X136114725Y-75982382D01*
X136062285Y-75936210D01*
X136043133Y-75869017D01*
X136063348Y-75802135D01*
X136114725Y-75757618D01*
X136172734Y-75730568D01*
X136359139Y-75600047D01*
X136520047Y-75439139D01*
X136650568Y-75252734D01*
X136746739Y-75046496D01*
X136805635Y-74826692D01*
X136825468Y-74600000D01*
X136805635Y-74373308D01*
X136746739Y-74153504D01*
X136650568Y-73947266D01*
X136520047Y-73760861D01*
X136520045Y-73760858D01*
X136359141Y-73599954D01*
X136172734Y-73469432D01*
X136172728Y-73469429D01*
X136114725Y-73442382D01*
X136062285Y-73396210D01*
X136043133Y-73329017D01*
X136063348Y-73262135D01*
X136114725Y-73217618D01*
X136172734Y-73190568D01*
X136359139Y-73060047D01*
X136520047Y-72899139D01*
X136650568Y-72712734D01*
X136746739Y-72506496D01*
X136805635Y-72286692D01*
X136825468Y-72060000D01*
X136820218Y-71999998D01*
X136805635Y-71833313D01*
X136805635Y-71833308D01*
X136746739Y-71613504D01*
X136650568Y-71407266D01*
X136520047Y-71220861D01*
X136520045Y-71220858D01*
X136359141Y-71059954D01*
X136172734Y-70929432D01*
X136172728Y-70929429D01*
X136114725Y-70902382D01*
X136062285Y-70856210D01*
X136043133Y-70789017D01*
X136063348Y-70722135D01*
X136114725Y-70677618D01*
X136172734Y-70650568D01*
X136359139Y-70520047D01*
X136520047Y-70359139D01*
X136650568Y-70172734D01*
X136746739Y-69966496D01*
X136805635Y-69746692D01*
X136825468Y-69520000D01*
X136805635Y-69293308D01*
X136746739Y-69073504D01*
X136650568Y-68867266D01*
X136520047Y-68680861D01*
X136520045Y-68680858D01*
X136359141Y-68519954D01*
X136172734Y-68389432D01*
X136172728Y-68389429D01*
X136114725Y-68362382D01*
X136062285Y-68316210D01*
X136043133Y-68249017D01*
X136063348Y-68182135D01*
X136114725Y-68137618D01*
X136172734Y-68110568D01*
X136359139Y-67980047D01*
X136520047Y-67819139D01*
X136650568Y-67632734D01*
X136746739Y-67426496D01*
X136805635Y-67206692D01*
X136823718Y-66999999D01*
X136825468Y-66980001D01*
X136825468Y-66979998D01*
X136813710Y-66845606D01*
X136805635Y-66753308D01*
X136746739Y-66533504D01*
X136650568Y-66327266D01*
X136520047Y-66140861D01*
X136520045Y-66140858D01*
X136359141Y-65979954D01*
X136172734Y-65849432D01*
X136172728Y-65849429D01*
X136114725Y-65822382D01*
X136062285Y-65776210D01*
X136043133Y-65709017D01*
X136063348Y-65642135D01*
X136114725Y-65597618D01*
X136172734Y-65570568D01*
X136359139Y-65440047D01*
X136520047Y-65279139D01*
X136650568Y-65092734D01*
X136746739Y-64886496D01*
X136805635Y-64666692D01*
X136825468Y-64440000D01*
X136805635Y-64213308D01*
X136746739Y-63993504D01*
X136650568Y-63787266D01*
X136520047Y-63600861D01*
X136520045Y-63600858D01*
X136359141Y-63439954D01*
X136172734Y-63309432D01*
X136172732Y-63309431D01*
X135966497Y-63213261D01*
X135966488Y-63213258D01*
X135746697Y-63154366D01*
X135746693Y-63154365D01*
X135746692Y-63154365D01*
X135746691Y-63154364D01*
X135746686Y-63154364D01*
X135520002Y-63134532D01*
X135519998Y-63134532D01*
X135293313Y-63154364D01*
X135293302Y-63154366D01*
X135073511Y-63213258D01*
X135073502Y-63213261D01*
X134867267Y-63309431D01*
X134867265Y-63309432D01*
X134680858Y-63439954D01*
X134519954Y-63600858D01*
X134389432Y-63787265D01*
X134389431Y-63787267D01*
X134293261Y-63993502D01*
X134293258Y-63993511D01*
X134234366Y-64213302D01*
X134234364Y-64213313D01*
X134214532Y-64439998D01*
X120664000Y-64439998D01*
X120664000Y-62584977D01*
X120683685Y-62517938D01*
X120700315Y-62497300D01*
X121197616Y-61999998D01*
X153884532Y-61999998D01*
X153884532Y-62000001D01*
X153904364Y-62226686D01*
X153904366Y-62226697D01*
X153963258Y-62446488D01*
X153963261Y-62446497D01*
X154059431Y-62652732D01*
X154059432Y-62652734D01*
X154189954Y-62839141D01*
X154350858Y-63000045D01*
X154350861Y-63000047D01*
X154537266Y-63130568D01*
X154743504Y-63226739D01*
X154963308Y-63285635D01*
X155125230Y-63299801D01*
X155189998Y-63305468D01*
X155190000Y-63305468D01*
X155190002Y-63305468D01*
X155246673Y-63300509D01*
X155416692Y-63285635D01*
X155636496Y-63226739D01*
X155842734Y-63130568D01*
X156029139Y-63000047D01*
X156190047Y-62839139D01*
X156320568Y-62652734D01*
X156416739Y-62446496D01*
X156475635Y-62226692D01*
X156495468Y-62000000D01*
X156495468Y-61999998D01*
X161504532Y-61999998D01*
X161504532Y-62000001D01*
X161524364Y-62226686D01*
X161524366Y-62226697D01*
X161583258Y-62446488D01*
X161583261Y-62446497D01*
X161679431Y-62652732D01*
X161679432Y-62652734D01*
X161809954Y-62839141D01*
X161970858Y-63000045D01*
X161970861Y-63000047D01*
X162157266Y-63130568D01*
X162363504Y-63226739D01*
X162583308Y-63285635D01*
X162745230Y-63299801D01*
X162809998Y-63305468D01*
X162810000Y-63305468D01*
X162810002Y-63305468D01*
X162866673Y-63300509D01*
X163036692Y-63285635D01*
X163256496Y-63226739D01*
X163462734Y-63130568D01*
X163649139Y-63000047D01*
X163810047Y-62839139D01*
X163940568Y-62652734D01*
X164036739Y-62446496D01*
X164095635Y-62226692D01*
X164115468Y-62000000D01*
X164095635Y-61773308D01*
X164036739Y-61553504D01*
X163940568Y-61347266D01*
X163831074Y-61190891D01*
X163810045Y-61160858D01*
X163649141Y-60999954D01*
X163462734Y-60869432D01*
X163462732Y-60869431D01*
X163256497Y-60773261D01*
X163256488Y-60773258D01*
X163036697Y-60714366D01*
X163036693Y-60714365D01*
X163036692Y-60714365D01*
X163036691Y-60714364D01*
X163036686Y-60714364D01*
X162810002Y-60694532D01*
X162809998Y-60694532D01*
X162583313Y-60714364D01*
X162583302Y-60714366D01*
X162363511Y-60773258D01*
X162363502Y-60773261D01*
X162157267Y-60869431D01*
X162157265Y-60869432D01*
X161970858Y-60999954D01*
X161809954Y-61160858D01*
X161679432Y-61347265D01*
X161679431Y-61347267D01*
X161583261Y-61553502D01*
X161583258Y-61553511D01*
X161524366Y-61773302D01*
X161524364Y-61773313D01*
X161504532Y-61999998D01*
X156495468Y-61999998D01*
X156475635Y-61773308D01*
X156416739Y-61553504D01*
X156320568Y-61347266D01*
X156211074Y-61190891D01*
X156190045Y-61160858D01*
X156029141Y-60999954D01*
X155842734Y-60869432D01*
X155842732Y-60869431D01*
X155636497Y-60773261D01*
X155636488Y-60773258D01*
X155416697Y-60714366D01*
X155416693Y-60714365D01*
X155416692Y-60714365D01*
X155416691Y-60714364D01*
X155416686Y-60714364D01*
X155190002Y-60694532D01*
X155189998Y-60694532D01*
X154963313Y-60714364D01*
X154963302Y-60714366D01*
X154743511Y-60773258D01*
X154743502Y-60773261D01*
X154537267Y-60869431D01*
X154537265Y-60869432D01*
X154350858Y-60999954D01*
X154189954Y-61160858D01*
X154059432Y-61347265D01*
X154059431Y-61347267D01*
X153963261Y-61553502D01*
X153963258Y-61553511D01*
X153904366Y-61773302D01*
X153904364Y-61773313D01*
X153884532Y-61999998D01*
X121197616Y-61999998D01*
X121536094Y-61661520D01*
X121536099Y-61661517D01*
X121546302Y-61651313D01*
X121546304Y-61651313D01*
X121651313Y-61546304D01*
X121690965Y-61477622D01*
X121710666Y-61451948D01*
X122115578Y-61047036D01*
X122176899Y-61013553D01*
X122246591Y-61018537D01*
X122274377Y-61033141D01*
X122366338Y-61097534D01*
X122566550Y-61190894D01*
X122779932Y-61248070D01*
X122937123Y-61261822D01*
X122999998Y-61267323D01*
X123000000Y-61267323D01*
X123000002Y-61267323D01*
X123055017Y-61262509D01*
X123220068Y-61248070D01*
X123433450Y-61190894D01*
X123633662Y-61097534D01*
X123814620Y-60970826D01*
X123970826Y-60814620D01*
X124097534Y-60633662D01*
X124190894Y-60433450D01*
X124248070Y-60220068D01*
X124262935Y-60050160D01*
X124267323Y-60000002D01*
X124267323Y-59999997D01*
X124252127Y-59826306D01*
X124248070Y-59779932D01*
X124190894Y-59566550D01*
X124097534Y-59366339D01*
X124002624Y-59230793D01*
X123970827Y-59185381D01*
X123916066Y-59130620D01*
X123837601Y-59052155D01*
X166060000Y-59052155D01*
X166060000Y-59750000D01*
X167084722Y-59750000D01*
X167040667Y-59826306D01*
X167010000Y-59940756D01*
X167010000Y-60059244D01*
X167040667Y-60173694D01*
X167084722Y-60250000D01*
X166060000Y-60250000D01*
X166060000Y-60947844D01*
X166066401Y-61007372D01*
X166066403Y-61007379D01*
X166116645Y-61142086D01*
X166116649Y-61142093D01*
X166202809Y-61257187D01*
X166202812Y-61257190D01*
X166317906Y-61343350D01*
X166317913Y-61343354D01*
X166452620Y-61393596D01*
X166452627Y-61393598D01*
X166512155Y-61399999D01*
X166512172Y-61400000D01*
X167210000Y-61400000D01*
X167210000Y-60375277D01*
X167286306Y-60419333D01*
X167400756Y-60450000D01*
X167519244Y-60450000D01*
X167633694Y-60419333D01*
X167710000Y-60375277D01*
X167710000Y-61400000D01*
X168407828Y-61400000D01*
X168407844Y-61399999D01*
X168467372Y-61393598D01*
X168467379Y-61393596D01*
X168602086Y-61343354D01*
X168602093Y-61343350D01*
X168717187Y-61257190D01*
X168717190Y-61257187D01*
X168803350Y-61142093D01*
X168803355Y-61142084D01*
X168832075Y-61065081D01*
X168873945Y-61009147D01*
X168939409Y-60984729D01*
X169007682Y-60999580D01*
X169039484Y-61024428D01*
X169048216Y-61033913D01*
X169048219Y-61033915D01*
X169048222Y-61033918D01*
X169231365Y-61176464D01*
X169231371Y-61176468D01*
X169231374Y-61176470D01*
X169435497Y-61286936D01*
X169549487Y-61326068D01*
X169655015Y-61362297D01*
X169655017Y-61362297D01*
X169655019Y-61362298D01*
X169883951Y-61400500D01*
X169883952Y-61400500D01*
X170116048Y-61400500D01*
X170116049Y-61400500D01*
X170344981Y-61362298D01*
X170564503Y-61286936D01*
X170768626Y-61176470D01*
X170788685Y-61160858D01*
X170842220Y-61119190D01*
X170951784Y-61033913D01*
X171108979Y-60863153D01*
X171235924Y-60668849D01*
X171329157Y-60456300D01*
X171386134Y-60231305D01*
X171390908Y-60173694D01*
X171405300Y-60000006D01*
X171405300Y-59999993D01*
X171386135Y-59768702D01*
X171386133Y-59768691D01*
X171329157Y-59543699D01*
X171235924Y-59331151D01*
X171108983Y-59136852D01*
X171108980Y-59136849D01*
X171108979Y-59136847D01*
X170951784Y-58966087D01*
X170951779Y-58966083D01*
X170951777Y-58966081D01*
X170768634Y-58823535D01*
X170768628Y-58823531D01*
X170564504Y-58713064D01*
X170564495Y-58713061D01*
X170344984Y-58637702D01*
X170157404Y-58606401D01*
X170116049Y-58599500D01*
X169883951Y-58599500D01*
X169842596Y-58606401D01*
X169655015Y-58637702D01*
X169435504Y-58713061D01*
X169435495Y-58713064D01*
X169231371Y-58823531D01*
X169231365Y-58823535D01*
X169048222Y-58966081D01*
X169048215Y-58966087D01*
X169039484Y-58975572D01*
X168979595Y-59011561D01*
X168909757Y-59009458D01*
X168852143Y-58969932D01*
X168832075Y-58934918D01*
X168803355Y-58857915D01*
X168803350Y-58857906D01*
X168717190Y-58742812D01*
X168717187Y-58742809D01*
X168602093Y-58656649D01*
X168602086Y-58656645D01*
X168467379Y-58606403D01*
X168467372Y-58606401D01*
X168407844Y-58600000D01*
X167710000Y-58600000D01*
X167710000Y-59624722D01*
X167633694Y-59580667D01*
X167519244Y-59550000D01*
X167400756Y-59550000D01*
X167286306Y-59580667D01*
X167210000Y-59624722D01*
X167210000Y-58600000D01*
X166512155Y-58600000D01*
X166452627Y-58606401D01*
X166452620Y-58606403D01*
X166317913Y-58656645D01*
X166317906Y-58656649D01*
X166202812Y-58742809D01*
X166202809Y-58742812D01*
X166116649Y-58857906D01*
X166116645Y-58857913D01*
X166066403Y-58992620D01*
X166066401Y-58992627D01*
X166060000Y-59052155D01*
X123837601Y-59052155D01*
X123814620Y-59029174D01*
X123814616Y-59029171D01*
X123814615Y-59029170D01*
X123633666Y-58902468D01*
X123633662Y-58902466D01*
X123633660Y-58902465D01*
X123433450Y-58809106D01*
X123433447Y-58809105D01*
X123433445Y-58809104D01*
X123220070Y-58751930D01*
X123220062Y-58751929D01*
X123000002Y-58732677D01*
X122999998Y-58732677D01*
X122779937Y-58751929D01*
X122779929Y-58751930D01*
X122566554Y-58809104D01*
X122566548Y-58809107D01*
X122366340Y-58902465D01*
X122366338Y-58902466D01*
X122185377Y-59029175D01*
X122029175Y-59185377D01*
X121902466Y-59366338D01*
X121902465Y-59366340D01*
X121842382Y-59495189D01*
X121796209Y-59547628D01*
X121729016Y-59566780D01*
X121662135Y-59546564D01*
X121617618Y-59495189D01*
X121557534Y-59366340D01*
X121557533Y-59366338D01*
X121430827Y-59185381D01*
X121376066Y-59130620D01*
X121274620Y-59029174D01*
X121274616Y-59029171D01*
X121274615Y-59029170D01*
X121093666Y-58902468D01*
X121093662Y-58902466D01*
X121093660Y-58902465D01*
X120893450Y-58809106D01*
X120893447Y-58809105D01*
X120893445Y-58809104D01*
X120680070Y-58751930D01*
X120680062Y-58751929D01*
X120460002Y-58732677D01*
X120459998Y-58732677D01*
X120239937Y-58751929D01*
X120239929Y-58751930D01*
X120026554Y-58809104D01*
X120026548Y-58809107D01*
X119826340Y-58902465D01*
X119826338Y-58902466D01*
X119645377Y-59029175D01*
X119489175Y-59185377D01*
X119362466Y-59366338D01*
X119362465Y-59366340D01*
X119302382Y-59495189D01*
X119256209Y-59547628D01*
X119189016Y-59566780D01*
X119122135Y-59546564D01*
X119077618Y-59495189D01*
X119017534Y-59366340D01*
X119017533Y-59366338D01*
X118890827Y-59185381D01*
X118836066Y-59130620D01*
X118734620Y-59029174D01*
X118734616Y-59029171D01*
X118734615Y-59029170D01*
X118553666Y-58902468D01*
X118553662Y-58902466D01*
X118553660Y-58902465D01*
X118353450Y-58809106D01*
X118353447Y-58809105D01*
X118353445Y-58809104D01*
X118140070Y-58751930D01*
X118140062Y-58751929D01*
X117920002Y-58732677D01*
X117919998Y-58732677D01*
X117699937Y-58751929D01*
X117699929Y-58751930D01*
X117486554Y-58809104D01*
X117486548Y-58809107D01*
X117286340Y-58902465D01*
X117286338Y-58902466D01*
X117105377Y-59029175D01*
X116949175Y-59185377D01*
X116867575Y-59301916D01*
X116812998Y-59345541D01*
X116743500Y-59352735D01*
X116681145Y-59321212D01*
X116645731Y-59260983D01*
X116642000Y-59230793D01*
X116642000Y-59190172D01*
X116641999Y-59190155D01*
X116635598Y-59130627D01*
X116635596Y-59130620D01*
X116585354Y-58995913D01*
X116585350Y-58995906D01*
X116499190Y-58880812D01*
X116499187Y-58880809D01*
X116384093Y-58794649D01*
X116384086Y-58794645D01*
X116249379Y-58744403D01*
X116249372Y-58744401D01*
X116189844Y-58738000D01*
X115630000Y-58738000D01*
X115630000Y-59711184D01*
X115613940Y-59695124D01*
X115527061Y-59644964D01*
X115430160Y-59619000D01*
X115329840Y-59619000D01*
X115232939Y-59644964D01*
X115146060Y-59695124D01*
X115130000Y-59711184D01*
X115130000Y-58738000D01*
X114570155Y-58738000D01*
X114510627Y-58744401D01*
X114510620Y-58744403D01*
X114375913Y-58794645D01*
X114375906Y-58794649D01*
X114260812Y-58880809D01*
X114260809Y-58880812D01*
X114174649Y-58995906D01*
X114174645Y-58995913D01*
X114124403Y-59130620D01*
X114124401Y-59130627D01*
X114118000Y-59190155D01*
X104500500Y-59190155D01*
X104500500Y-56624500D01*
X104520185Y-56557461D01*
X104572989Y-56511706D01*
X104624500Y-56500500D01*
X178375500Y-56500500D01*
X178442539Y-56520185D01*
G37*
G04 #@! TD.AperFunction*
M02*
