G04 #@! TF.GenerationSoftware,KiCad,Pcbnew,8.0.6*
G04 #@! TF.CreationDate,2026-05-22T11:28:02+05:30*
G04 #@! TF.ProjectId,Kingshand,4b696e67-7368-4616-9e64-2e6b69636164,rev?*
G04 #@! TF.SameCoordinates,Original*
G04 #@! TF.FileFunction,Legend,Bot*
G04 #@! TF.FilePolarity,Positive*
%FSLAX46Y46*%
G04 Gerber Fmt 4.6, Leading zero omitted, Abs format (unit mm)*
G04 Created by KiCad (PCBNEW 8.0.6) date 2026-05-22 11:28:02*
%MOMM*%
%LPD*%
G01*
G04 APERTURE LIST*
%ADD10R,1.800000X1.800000*%
%ADD11C,1.800000*%
%ADD12C,1.600000*%
%ADD13O,1.600000X1.600000*%
%ADD14C,2.000000*%
%ADD15R,1.600000X1.600000*%
%ADD16C,1.524000*%
%ADD17R,1.524000X1.524000*%
G04 APERTURE END LIST*
%LPC*%
D10*
X167460000Y-60000000D03*
D11*
X170000000Y-60000000D03*
D12*
X162000000Y-84000000D03*
X162000000Y-79000000D03*
X157000000Y-98620000D03*
D13*
X157000000Y-91000000D03*
D14*
X166500000Y-79000000D03*
X173000000Y-79000000D03*
X166500000Y-83500000D03*
X173000000Y-83500000D03*
D12*
X162000000Y-96000000D03*
X162000000Y-91000000D03*
D14*
X166000000Y-67000000D03*
X172500000Y-67000000D03*
X166000000Y-71500000D03*
X172500000Y-71500000D03*
D15*
X150760000Y-100000000D03*
D13*
X150760000Y-97460000D03*
X150760000Y-94920000D03*
X150760000Y-92380000D03*
X150760000Y-89840000D03*
X150760000Y-87300000D03*
X150760000Y-84760000D03*
X150760000Y-82220000D03*
X150760000Y-79680000D03*
X150760000Y-77140000D03*
X150760000Y-74600000D03*
X150760000Y-72060000D03*
X150760000Y-69520000D03*
X150760000Y-66980000D03*
X150760000Y-64440000D03*
X135520000Y-64440000D03*
X135520000Y-66980000D03*
X135520000Y-69520000D03*
X135520000Y-72060000D03*
X135520000Y-74600000D03*
X135520000Y-77140000D03*
X135520000Y-79680000D03*
X135520000Y-82220000D03*
X135520000Y-84760000D03*
X135520000Y-87300000D03*
X135520000Y-89840000D03*
X135520000Y-92380000D03*
X135520000Y-94920000D03*
X135520000Y-97460000D03*
X135520000Y-100000000D03*
D16*
X123000000Y-60000000D03*
X120460000Y-60000000D03*
X117920000Y-60000000D03*
D17*
X115380000Y-60000000D03*
D12*
X155190000Y-62000000D03*
D13*
X162810000Y-62000000D03*
D12*
X157000000Y-86620000D03*
D13*
X157000000Y-79000000D03*
D12*
X162000000Y-72000000D03*
X162000000Y-67000000D03*
D14*
X166500000Y-91000000D03*
X173000000Y-91000000D03*
X166500000Y-95500000D03*
X173000000Y-95500000D03*
D12*
X157000000Y-74810000D03*
D13*
X157000000Y-67190000D03*
D17*
X119840000Y-91000000D03*
D16*
X122380000Y-91000000D03*
X124920000Y-91000000D03*
X127460000Y-91000000D03*
X130000000Y-91000000D03*
%LPD*%
M02*
